G75*
%MOIN*%
%OFA0B0*%
%FSLAX25Y25*%
%IPPOS*%
%LPD*%
%AMOC8*
5,1,8,0,0,1.08239X$1,22.5*
%
%ADD10C,0.09161*%
%ADD11C,0.02469*%
%ADD12R,0.04437X0.04831*%
%ADD13R,0.04831X0.04437*%
%ADD14R,0.17323X0.17323*%
%ADD15C,0.02681*%
%ADD16C,0.00394*%
%ADD17R,0.03937X0.04331*%
%ADD18C,0.00841*%
%ADD19C,0.01330*%
%ADD20R,0.17717X0.04114*%
%ADD21C,0.00630*%
%ADD22C,0.03598*%
%ADD23C,0.04402*%
%ADD24R,0.03650X0.03650*%
%ADD25R,0.06799X0.04831*%
%ADD26R,0.07587X0.04437*%
%ADD27C,0.06406*%
%ADD28R,0.06799X0.07587*%
%ADD29R,0.03650X0.04043*%
%ADD30R,0.39870X0.20185*%
%ADD31R,0.20185X0.20185*%
D10*
X0025784Y0009768D03*
X0025784Y0105437D03*
X0033264Y0365673D03*
X0174997Y0365673D03*
D11*
X0159249Y0122563D03*
X0154820Y0122563D03*
X0150390Y0122563D03*
X0145961Y0122563D03*
X0141532Y0122563D03*
X0141532Y0114689D03*
X0145961Y0114689D03*
X0150390Y0114689D03*
X0154820Y0114689D03*
X0159249Y0114689D03*
X0066729Y0114689D03*
X0062300Y0114689D03*
X0057871Y0114689D03*
X0053442Y0114689D03*
X0049012Y0114689D03*
X0049012Y0122563D03*
X0053442Y0122563D03*
X0057871Y0122563D03*
X0062300Y0122563D03*
X0066729Y0122563D03*
D12*
X0074800Y0099531D03*
X0074800Y0093035D03*
X0074800Y0086539D03*
X0074800Y0080240D03*
X0081493Y0080240D03*
X0081493Y0086539D03*
X0081493Y0093035D03*
X0081493Y0099531D03*
X0099052Y0074256D03*
X0099052Y0067563D03*
X0098973Y0061618D03*
X0098973Y0054925D03*
X0091631Y0063016D03*
X0084938Y0063016D03*
X0070568Y0045004D03*
X0070568Y0038902D03*
X0063875Y0038902D03*
X0063875Y0045004D03*
X0066760Y0026106D03*
X0073453Y0026106D03*
X0106965Y0077642D03*
X0106965Y0084335D03*
X0112241Y0084335D03*
X0112241Y0077642D03*
X0117477Y0077642D03*
X0117477Y0084335D03*
X0123540Y0084335D03*
X0123540Y0077642D03*
X0128973Y0077642D03*
X0128973Y0084335D03*
X0137477Y0084335D03*
X0137477Y0077642D03*
X0149564Y0059374D03*
X0149564Y0052681D03*
X0155745Y0058980D03*
X0155745Y0065673D03*
X0154327Y0073350D03*
X0154327Y0080043D03*
X0156099Y0087957D03*
X0156099Y0094650D03*
X0159800Y0080043D03*
X0159800Y0073350D03*
X0161453Y0065673D03*
X0161453Y0058980D03*
X0044682Y0089886D03*
X0044682Y0096579D03*
X0033855Y0070791D03*
X0033855Y0064098D03*
D13*
X0035627Y0057996D03*
X0028934Y0057996D03*
X0032280Y0076303D03*
X0038973Y0076303D03*
X0051572Y0089886D03*
X0051572Y0096579D03*
X0058658Y0096579D03*
X0058658Y0089886D03*
X0070469Y0056618D03*
X0077162Y0056618D03*
X0097635Y0045398D03*
X0097635Y0038705D03*
G36*
X0111284Y0037381D02*
X0114699Y0040796D01*
X0117836Y0037659D01*
X0114421Y0034244D01*
X0111284Y0037381D01*
G37*
G36*
X0116016Y0042113D02*
X0119431Y0045528D01*
X0122568Y0042391D01*
X0119153Y0038976D01*
X0116016Y0042113D01*
G37*
X0143698Y0091264D03*
X0150390Y0091264D03*
X0057083Y0051303D03*
X0050390Y0051303D03*
X0052556Y0035949D03*
X0052556Y0029256D03*
D14*
X0131296Y0058783D03*
D15*
X0133658Y0056421D03*
X0133658Y0051697D03*
X0128934Y0051697D03*
X0128934Y0056421D03*
X0128934Y0061146D03*
X0128934Y0065870D03*
X0133658Y0065870D03*
X0133658Y0061146D03*
X0138383Y0061146D03*
X0138383Y0056421D03*
X0138383Y0051697D03*
X0138383Y0065870D03*
X0124209Y0065870D03*
X0124209Y0061146D03*
X0124209Y0056421D03*
X0124209Y0051697D03*
D16*
X0121335Y0051748D02*
X0118422Y0051748D01*
X0118422Y0052012D02*
X0118422Y0051421D01*
X0121335Y0051421D01*
X0121335Y0052012D01*
X0118422Y0052012D01*
X0118422Y0052996D02*
X0118422Y0053587D01*
X0121335Y0053587D01*
X0121335Y0052996D01*
X0118422Y0052996D01*
X0118422Y0053317D02*
X0121335Y0053317D01*
X0121335Y0054571D02*
X0118422Y0054571D01*
X0118422Y0055161D01*
X0121335Y0055161D01*
X0121335Y0054571D01*
X0121335Y0054886D02*
X0118422Y0054886D01*
X0118422Y0056146D02*
X0118422Y0056736D01*
X0121335Y0056736D01*
X0121335Y0056146D01*
X0118422Y0056146D01*
X0118422Y0056454D02*
X0121335Y0056454D01*
X0121335Y0057720D02*
X0118422Y0057720D01*
X0118422Y0058311D01*
X0121335Y0058311D01*
X0121335Y0057720D01*
X0121335Y0058023D02*
X0118422Y0058023D01*
X0118422Y0059295D02*
X0118422Y0059886D01*
X0121335Y0059886D01*
X0121335Y0059295D01*
X0118422Y0059295D01*
X0118422Y0059592D02*
X0121335Y0059592D01*
X0121335Y0060870D02*
X0118422Y0060870D01*
X0118422Y0061461D01*
X0121335Y0061461D01*
X0121335Y0060870D01*
X0121335Y0061161D02*
X0118422Y0061161D01*
X0118422Y0062445D02*
X0118422Y0063035D01*
X0121335Y0063035D01*
X0121335Y0062445D01*
X0118422Y0062445D01*
X0118422Y0062730D02*
X0121335Y0062730D01*
X0121335Y0064020D02*
X0118422Y0064020D01*
X0118422Y0064610D01*
X0121335Y0064610D01*
X0121335Y0064020D01*
X0121335Y0064299D02*
X0118422Y0064299D01*
X0118422Y0065594D02*
X0118422Y0066185D01*
X0121335Y0066185D01*
X0121335Y0065594D01*
X0118422Y0065594D01*
X0118422Y0065867D02*
X0121335Y0065867D01*
X0121335Y0067169D02*
X0118422Y0067169D01*
X0118422Y0067760D01*
X0121335Y0067760D01*
X0121335Y0067169D01*
X0121335Y0067436D02*
X0118422Y0067436D01*
X0122320Y0068744D02*
X0122910Y0068744D01*
X0122910Y0071657D01*
X0122320Y0071657D01*
X0122320Y0068744D01*
X0122320Y0069005D02*
X0122910Y0069005D01*
X0122910Y0069397D02*
X0122320Y0069397D01*
X0122320Y0069790D02*
X0122910Y0069790D01*
X0122910Y0070182D02*
X0122320Y0070182D01*
X0122320Y0070574D02*
X0122910Y0070574D01*
X0122910Y0070966D02*
X0122320Y0070966D01*
X0122320Y0071358D02*
X0122910Y0071358D01*
X0123894Y0071358D02*
X0124485Y0071358D01*
X0124485Y0071657D02*
X0124485Y0068744D01*
X0123894Y0068744D01*
X0123894Y0071657D01*
X0124485Y0071657D01*
X0124485Y0070966D02*
X0123894Y0070966D01*
X0123894Y0070574D02*
X0124485Y0070574D01*
X0124485Y0070182D02*
X0123894Y0070182D01*
X0123894Y0069790D02*
X0124485Y0069790D01*
X0124485Y0069397D02*
X0123894Y0069397D01*
X0123894Y0069005D02*
X0124485Y0069005D01*
X0125469Y0069005D02*
X0126060Y0069005D01*
X0126060Y0068744D02*
X0126060Y0071657D01*
X0125469Y0071657D01*
X0125469Y0068744D01*
X0126060Y0068744D01*
X0126060Y0069397D02*
X0125469Y0069397D01*
X0125469Y0069790D02*
X0126060Y0069790D01*
X0126060Y0070182D02*
X0125469Y0070182D01*
X0125469Y0070574D02*
X0126060Y0070574D01*
X0126060Y0070966D02*
X0125469Y0070966D01*
X0125469Y0071358D02*
X0126060Y0071358D01*
X0127044Y0071358D02*
X0127635Y0071358D01*
X0127635Y0071657D02*
X0127635Y0068744D01*
X0127044Y0068744D01*
X0127044Y0071657D01*
X0127635Y0071657D01*
X0127635Y0070966D02*
X0127044Y0070966D01*
X0127044Y0070574D02*
X0127635Y0070574D01*
X0127635Y0070182D02*
X0127044Y0070182D01*
X0127044Y0069790D02*
X0127635Y0069790D01*
X0127635Y0069397D02*
X0127044Y0069397D01*
X0127044Y0069005D02*
X0127635Y0069005D01*
X0128619Y0069005D02*
X0129209Y0069005D01*
X0129209Y0068744D02*
X0129209Y0071657D01*
X0128619Y0071657D01*
X0128619Y0068744D01*
X0129209Y0068744D01*
X0129209Y0069397D02*
X0128619Y0069397D01*
X0128619Y0069790D02*
X0129209Y0069790D01*
X0129209Y0070182D02*
X0128619Y0070182D01*
X0128619Y0070574D02*
X0129209Y0070574D01*
X0129209Y0070966D02*
X0128619Y0070966D01*
X0128619Y0071358D02*
X0129209Y0071358D01*
X0130194Y0071358D02*
X0130784Y0071358D01*
X0130784Y0071657D02*
X0130784Y0068744D01*
X0130194Y0068744D01*
X0130194Y0071657D01*
X0130784Y0071657D01*
X0130784Y0070966D02*
X0130194Y0070966D01*
X0130194Y0070574D02*
X0130784Y0070574D01*
X0130784Y0070182D02*
X0130194Y0070182D01*
X0130194Y0069790D02*
X0130784Y0069790D01*
X0130784Y0069397D02*
X0130194Y0069397D01*
X0130194Y0069005D02*
X0130784Y0069005D01*
X0131768Y0069005D02*
X0132359Y0069005D01*
X0132359Y0068744D02*
X0132359Y0071657D01*
X0131768Y0071657D01*
X0131768Y0068744D01*
X0132359Y0068744D01*
X0132359Y0069397D02*
X0131768Y0069397D01*
X0131768Y0069790D02*
X0132359Y0069790D01*
X0132359Y0070182D02*
X0131768Y0070182D01*
X0131768Y0070574D02*
X0132359Y0070574D01*
X0132359Y0070966D02*
X0131768Y0070966D01*
X0131768Y0071358D02*
X0132359Y0071358D01*
X0133343Y0071358D02*
X0133934Y0071358D01*
X0133934Y0071657D02*
X0133934Y0068744D01*
X0133343Y0068744D01*
X0133343Y0071657D01*
X0133934Y0071657D01*
X0133934Y0070966D02*
X0133343Y0070966D01*
X0133343Y0070574D02*
X0133934Y0070574D01*
X0133934Y0070182D02*
X0133343Y0070182D01*
X0133343Y0069790D02*
X0133934Y0069790D01*
X0133934Y0069397D02*
X0133343Y0069397D01*
X0133343Y0069005D02*
X0133934Y0069005D01*
X0134918Y0069005D02*
X0135509Y0069005D01*
X0135509Y0068744D02*
X0135509Y0071657D01*
X0134918Y0071657D01*
X0134918Y0068744D01*
X0135509Y0068744D01*
X0135509Y0069397D02*
X0134918Y0069397D01*
X0134918Y0069790D02*
X0135509Y0069790D01*
X0135509Y0070182D02*
X0134918Y0070182D01*
X0134918Y0070574D02*
X0135509Y0070574D01*
X0135509Y0070966D02*
X0134918Y0070966D01*
X0134918Y0071358D02*
X0135509Y0071358D01*
X0136493Y0071358D02*
X0137083Y0071358D01*
X0137083Y0071657D02*
X0137083Y0068744D01*
X0136493Y0068744D01*
X0136493Y0071657D01*
X0137083Y0071657D01*
X0137083Y0070966D02*
X0136493Y0070966D01*
X0136493Y0070574D02*
X0137083Y0070574D01*
X0137083Y0070182D02*
X0136493Y0070182D01*
X0136493Y0069790D02*
X0137083Y0069790D01*
X0137083Y0069397D02*
X0136493Y0069397D01*
X0136493Y0069005D02*
X0137083Y0069005D01*
X0138068Y0069005D02*
X0138658Y0069005D01*
X0138658Y0068744D02*
X0138658Y0071657D01*
X0138068Y0071657D01*
X0138068Y0068744D01*
X0138658Y0068744D01*
X0138658Y0069397D02*
X0138068Y0069397D01*
X0138068Y0069790D02*
X0138658Y0069790D01*
X0138658Y0070182D02*
X0138068Y0070182D01*
X0138068Y0070574D02*
X0138658Y0070574D01*
X0138658Y0070966D02*
X0138068Y0070966D01*
X0138068Y0071358D02*
X0138658Y0071358D01*
X0139642Y0071358D02*
X0140233Y0071358D01*
X0140233Y0071657D02*
X0140233Y0068744D01*
X0139642Y0068744D01*
X0139642Y0071657D01*
X0140233Y0071657D01*
X0140233Y0070966D02*
X0139642Y0070966D01*
X0139642Y0070574D02*
X0140233Y0070574D01*
X0140233Y0070182D02*
X0139642Y0070182D01*
X0139642Y0069790D02*
X0140233Y0069790D01*
X0140233Y0069397D02*
X0139642Y0069397D01*
X0139642Y0069005D02*
X0140233Y0069005D01*
X0141257Y0067760D02*
X0141257Y0067169D01*
X0144170Y0067169D01*
X0144170Y0067760D01*
X0141257Y0067760D01*
X0141257Y0067436D02*
X0144170Y0067436D01*
X0144170Y0066185D02*
X0144170Y0065594D01*
X0141257Y0065594D01*
X0141257Y0066185D01*
X0144170Y0066185D01*
X0144170Y0065867D02*
X0141257Y0065867D01*
X0141257Y0064610D02*
X0141257Y0064020D01*
X0144170Y0064020D01*
X0144170Y0064610D01*
X0141257Y0064610D01*
X0141257Y0064299D02*
X0144170Y0064299D01*
X0144170Y0063035D02*
X0144170Y0062445D01*
X0141257Y0062445D01*
X0141257Y0063035D01*
X0144170Y0063035D01*
X0144170Y0062730D02*
X0141257Y0062730D01*
X0141257Y0061461D02*
X0141257Y0060870D01*
X0144170Y0060870D01*
X0144170Y0061461D01*
X0141257Y0061461D01*
X0141257Y0061161D02*
X0144170Y0061161D01*
X0144170Y0059886D02*
X0144170Y0059295D01*
X0141257Y0059295D01*
X0141257Y0059886D01*
X0144170Y0059886D01*
X0144170Y0059592D02*
X0141257Y0059592D01*
X0141257Y0058311D02*
X0141257Y0057720D01*
X0144170Y0057720D01*
X0144170Y0058311D01*
X0141257Y0058311D01*
X0141257Y0058023D02*
X0144170Y0058023D01*
X0144170Y0056736D02*
X0144170Y0056146D01*
X0141257Y0056146D01*
X0141257Y0056736D01*
X0144170Y0056736D01*
X0144170Y0056454D02*
X0141257Y0056454D01*
X0141257Y0055161D02*
X0141257Y0054571D01*
X0144170Y0054571D01*
X0144170Y0055161D01*
X0141257Y0055161D01*
X0141257Y0054886D02*
X0144170Y0054886D01*
X0144170Y0053587D02*
X0144170Y0052996D01*
X0141257Y0052996D01*
X0141257Y0053587D01*
X0144170Y0053587D01*
X0144170Y0053317D02*
X0141257Y0053317D01*
X0141257Y0052012D02*
X0141257Y0051421D01*
X0144170Y0051421D01*
X0144170Y0052012D01*
X0141257Y0052012D01*
X0141257Y0051748D02*
X0144170Y0051748D01*
X0144170Y0050437D02*
X0144170Y0049846D01*
X0141257Y0049846D01*
X0141257Y0050437D01*
X0144170Y0050437D01*
X0144170Y0050179D02*
X0141257Y0050179D01*
X0140233Y0048823D02*
X0139642Y0048823D01*
X0139642Y0045909D01*
X0140233Y0045909D01*
X0140233Y0048823D01*
X0140233Y0048610D02*
X0139642Y0048610D01*
X0139642Y0048218D02*
X0140233Y0048218D01*
X0140233Y0047826D02*
X0139642Y0047826D01*
X0139642Y0047433D02*
X0140233Y0047433D01*
X0140233Y0047041D02*
X0139642Y0047041D01*
X0139642Y0046649D02*
X0140233Y0046649D01*
X0140233Y0046257D02*
X0139642Y0046257D01*
X0138658Y0046257D02*
X0138068Y0046257D01*
X0138068Y0045909D02*
X0138068Y0048823D01*
X0138658Y0048823D01*
X0138658Y0045909D01*
X0138068Y0045909D01*
X0138068Y0046649D02*
X0138658Y0046649D01*
X0138658Y0047041D02*
X0138068Y0047041D01*
X0138068Y0047433D02*
X0138658Y0047433D01*
X0138658Y0047826D02*
X0138068Y0047826D01*
X0138068Y0048218D02*
X0138658Y0048218D01*
X0138658Y0048610D02*
X0138068Y0048610D01*
X0137083Y0048610D02*
X0136493Y0048610D01*
X0136493Y0048823D02*
X0137083Y0048823D01*
X0137083Y0045909D01*
X0136493Y0045909D01*
X0136493Y0048823D01*
X0136493Y0048218D02*
X0137083Y0048218D01*
X0137083Y0047826D02*
X0136493Y0047826D01*
X0136493Y0047433D02*
X0137083Y0047433D01*
X0137083Y0047041D02*
X0136493Y0047041D01*
X0136493Y0046649D02*
X0137083Y0046649D01*
X0137083Y0046257D02*
X0136493Y0046257D01*
X0135509Y0046257D02*
X0134918Y0046257D01*
X0134918Y0045909D02*
X0134918Y0048823D01*
X0135509Y0048823D01*
X0135509Y0045909D01*
X0134918Y0045909D01*
X0134918Y0046649D02*
X0135509Y0046649D01*
X0135509Y0047041D02*
X0134918Y0047041D01*
X0134918Y0047433D02*
X0135509Y0047433D01*
X0135509Y0047826D02*
X0134918Y0047826D01*
X0134918Y0048218D02*
X0135509Y0048218D01*
X0135509Y0048610D02*
X0134918Y0048610D01*
X0133934Y0048610D02*
X0133343Y0048610D01*
X0133343Y0048823D02*
X0133934Y0048823D01*
X0133934Y0045909D01*
X0133343Y0045909D01*
X0133343Y0048823D01*
X0133343Y0048218D02*
X0133934Y0048218D01*
X0133934Y0047826D02*
X0133343Y0047826D01*
X0133343Y0047433D02*
X0133934Y0047433D01*
X0133934Y0047041D02*
X0133343Y0047041D01*
X0133343Y0046649D02*
X0133934Y0046649D01*
X0133934Y0046257D02*
X0133343Y0046257D01*
X0132359Y0046257D02*
X0131768Y0046257D01*
X0131768Y0045909D02*
X0131768Y0048823D01*
X0132359Y0048823D01*
X0132359Y0045909D01*
X0131768Y0045909D01*
X0131768Y0046649D02*
X0132359Y0046649D01*
X0132359Y0047041D02*
X0131768Y0047041D01*
X0131768Y0047433D02*
X0132359Y0047433D01*
X0132359Y0047826D02*
X0131768Y0047826D01*
X0131768Y0048218D02*
X0132359Y0048218D01*
X0132359Y0048610D02*
X0131768Y0048610D01*
X0130784Y0048610D02*
X0130194Y0048610D01*
X0130194Y0048823D02*
X0130784Y0048823D01*
X0130784Y0045909D01*
X0130194Y0045909D01*
X0130194Y0048823D01*
X0130194Y0048218D02*
X0130784Y0048218D01*
X0130784Y0047826D02*
X0130194Y0047826D01*
X0130194Y0047433D02*
X0130784Y0047433D01*
X0130784Y0047041D02*
X0130194Y0047041D01*
X0130194Y0046649D02*
X0130784Y0046649D01*
X0130784Y0046257D02*
X0130194Y0046257D01*
X0129209Y0046257D02*
X0128619Y0046257D01*
X0128619Y0045909D02*
X0128619Y0048823D01*
X0129209Y0048823D01*
X0129209Y0045909D01*
X0128619Y0045909D01*
X0128619Y0046649D02*
X0129209Y0046649D01*
X0129209Y0047041D02*
X0128619Y0047041D01*
X0128619Y0047433D02*
X0129209Y0047433D01*
X0129209Y0047826D02*
X0128619Y0047826D01*
X0128619Y0048218D02*
X0129209Y0048218D01*
X0129209Y0048610D02*
X0128619Y0048610D01*
X0127635Y0048610D02*
X0127044Y0048610D01*
X0127044Y0048823D02*
X0127635Y0048823D01*
X0127635Y0045909D01*
X0127044Y0045909D01*
X0127044Y0048823D01*
X0127044Y0048218D02*
X0127635Y0048218D01*
X0127635Y0047826D02*
X0127044Y0047826D01*
X0127044Y0047433D02*
X0127635Y0047433D01*
X0127635Y0047041D02*
X0127044Y0047041D01*
X0127044Y0046649D02*
X0127635Y0046649D01*
X0127635Y0046257D02*
X0127044Y0046257D01*
X0126060Y0046257D02*
X0125469Y0046257D01*
X0125469Y0045909D02*
X0125469Y0048823D01*
X0126060Y0048823D01*
X0126060Y0045909D01*
X0125469Y0045909D01*
X0125469Y0046649D02*
X0126060Y0046649D01*
X0126060Y0047041D02*
X0125469Y0047041D01*
X0125469Y0047433D02*
X0126060Y0047433D01*
X0126060Y0047826D02*
X0125469Y0047826D01*
X0125469Y0048218D02*
X0126060Y0048218D01*
X0126060Y0048610D02*
X0125469Y0048610D01*
X0124485Y0048610D02*
X0123894Y0048610D01*
X0123894Y0048823D02*
X0124485Y0048823D01*
X0124485Y0045909D01*
X0123894Y0045909D01*
X0123894Y0048823D01*
X0123894Y0048218D02*
X0124485Y0048218D01*
X0124485Y0047826D02*
X0123894Y0047826D01*
X0123894Y0047433D02*
X0124485Y0047433D01*
X0124485Y0047041D02*
X0123894Y0047041D01*
X0123894Y0046649D02*
X0124485Y0046649D01*
X0124485Y0046257D02*
X0123894Y0046257D01*
X0122910Y0046257D02*
X0122320Y0046257D01*
X0122320Y0045909D02*
X0122320Y0048823D01*
X0122910Y0048823D01*
X0122910Y0045909D01*
X0122320Y0045909D01*
X0122320Y0046649D02*
X0122910Y0046649D01*
X0122910Y0047041D02*
X0122320Y0047041D01*
X0122320Y0047433D02*
X0122910Y0047433D01*
X0122910Y0047826D02*
X0122320Y0047826D01*
X0122320Y0048218D02*
X0122910Y0048218D01*
X0122910Y0048610D02*
X0122320Y0048610D01*
X0121335Y0049846D02*
X0118422Y0049846D01*
X0118422Y0050437D01*
X0121335Y0050437D01*
X0121335Y0049846D01*
X0121335Y0050179D02*
X0118422Y0050179D01*
D17*
X0143953Y0080535D03*
X0143953Y0086244D03*
X0148481Y0086244D03*
X0148481Y0080535D03*
D18*
X0069314Y0073574D02*
X0066112Y0073574D01*
X0069314Y0073574D02*
X0069314Y0072734D01*
X0066112Y0072734D01*
X0066112Y0073574D01*
X0069314Y0073574D01*
X0069314Y0071605D02*
X0066112Y0071605D01*
X0069314Y0071605D02*
X0069314Y0070765D01*
X0066112Y0070765D01*
X0066112Y0071605D01*
X0069314Y0071605D01*
X0069314Y0069637D02*
X0066112Y0069637D01*
X0069314Y0069637D02*
X0069314Y0068797D01*
X0066112Y0068797D01*
X0066112Y0069637D01*
X0069314Y0069637D01*
X0069314Y0067668D02*
X0066112Y0067668D01*
X0069314Y0067668D02*
X0069314Y0066828D01*
X0066112Y0066828D01*
X0066112Y0067668D01*
X0069314Y0067668D01*
X0069314Y0065700D02*
X0066112Y0065700D01*
X0069314Y0065700D02*
X0069314Y0064860D01*
X0066112Y0064860D01*
X0066112Y0065700D01*
X0069314Y0065700D01*
X0069314Y0063731D02*
X0066112Y0063731D01*
X0069314Y0063731D02*
X0069314Y0062891D01*
X0066112Y0062891D01*
X0066112Y0063731D01*
X0069314Y0063731D01*
X0069314Y0061763D02*
X0066112Y0061763D01*
X0069314Y0061763D02*
X0069314Y0060923D01*
X0066112Y0060923D01*
X0066112Y0061763D01*
X0069314Y0061763D01*
X0064984Y0059794D02*
X0064984Y0056592D01*
X0064144Y0056592D01*
X0064144Y0059794D01*
X0064984Y0059794D01*
X0064984Y0057432D02*
X0064144Y0057432D01*
X0064144Y0058272D02*
X0064984Y0058272D01*
X0064984Y0059112D02*
X0064144Y0059112D01*
X0063015Y0059794D02*
X0063015Y0056592D01*
X0062175Y0056592D01*
X0062175Y0059794D01*
X0063015Y0059794D01*
X0063015Y0057432D02*
X0062175Y0057432D01*
X0062175Y0058272D02*
X0063015Y0058272D01*
X0063015Y0059112D02*
X0062175Y0059112D01*
X0061047Y0059794D02*
X0061047Y0056592D01*
X0060207Y0056592D01*
X0060207Y0059794D01*
X0061047Y0059794D01*
X0061047Y0057432D02*
X0060207Y0057432D01*
X0060207Y0058272D02*
X0061047Y0058272D01*
X0061047Y0059112D02*
X0060207Y0059112D01*
X0059078Y0059794D02*
X0059078Y0056592D01*
X0058238Y0056592D01*
X0058238Y0059794D01*
X0059078Y0059794D01*
X0059078Y0057432D02*
X0058238Y0057432D01*
X0058238Y0058272D02*
X0059078Y0058272D01*
X0059078Y0059112D02*
X0058238Y0059112D01*
X0057110Y0059794D02*
X0057110Y0056592D01*
X0056270Y0056592D01*
X0056270Y0059794D01*
X0057110Y0059794D01*
X0057110Y0057432D02*
X0056270Y0057432D01*
X0056270Y0058272D02*
X0057110Y0058272D01*
X0057110Y0059112D02*
X0056270Y0059112D01*
X0055141Y0059794D02*
X0055141Y0056592D01*
X0054301Y0056592D01*
X0054301Y0059794D01*
X0055141Y0059794D01*
X0055141Y0057432D02*
X0054301Y0057432D01*
X0054301Y0058272D02*
X0055141Y0058272D01*
X0055141Y0059112D02*
X0054301Y0059112D01*
X0053173Y0059794D02*
X0053173Y0056592D01*
X0052333Y0056592D01*
X0052333Y0059794D01*
X0053173Y0059794D01*
X0053173Y0057432D02*
X0052333Y0057432D01*
X0052333Y0058272D02*
X0053173Y0058272D01*
X0053173Y0059112D02*
X0052333Y0059112D01*
X0051204Y0060923D02*
X0048002Y0060923D01*
X0048002Y0061763D01*
X0051204Y0061763D01*
X0051204Y0060923D01*
X0051204Y0061763D02*
X0048002Y0061763D01*
X0048002Y0062891D02*
X0051204Y0062891D01*
X0048002Y0062891D02*
X0048002Y0063731D01*
X0051204Y0063731D01*
X0051204Y0062891D01*
X0051204Y0063731D02*
X0048002Y0063731D01*
X0048002Y0064860D02*
X0051204Y0064860D01*
X0048002Y0064860D02*
X0048002Y0065700D01*
X0051204Y0065700D01*
X0051204Y0064860D01*
X0051204Y0065700D02*
X0048002Y0065700D01*
X0048002Y0066828D02*
X0051204Y0066828D01*
X0048002Y0066828D02*
X0048002Y0067668D01*
X0051204Y0067668D01*
X0051204Y0066828D01*
X0051204Y0067668D02*
X0048002Y0067668D01*
X0048002Y0068797D02*
X0051204Y0068797D01*
X0048002Y0068797D02*
X0048002Y0069637D01*
X0051204Y0069637D01*
X0051204Y0068797D01*
X0051204Y0069637D02*
X0048002Y0069637D01*
X0048002Y0070765D02*
X0051204Y0070765D01*
X0048002Y0070765D02*
X0048002Y0071605D01*
X0051204Y0071605D01*
X0051204Y0070765D01*
X0051204Y0071605D02*
X0048002Y0071605D01*
X0048002Y0072734D02*
X0051204Y0072734D01*
X0048002Y0072734D02*
X0048002Y0073574D01*
X0051204Y0073574D01*
X0051204Y0072734D01*
X0051204Y0073574D02*
X0048002Y0073574D01*
X0052333Y0074702D02*
X0052333Y0077904D01*
X0053173Y0077904D01*
X0053173Y0074702D01*
X0052333Y0074702D01*
X0052333Y0075542D02*
X0053173Y0075542D01*
X0053173Y0076382D02*
X0052333Y0076382D01*
X0052333Y0077222D02*
X0053173Y0077222D01*
X0054301Y0077904D02*
X0054301Y0074702D01*
X0054301Y0077904D02*
X0055141Y0077904D01*
X0055141Y0074702D01*
X0054301Y0074702D01*
X0054301Y0075542D02*
X0055141Y0075542D01*
X0055141Y0076382D02*
X0054301Y0076382D01*
X0054301Y0077222D02*
X0055141Y0077222D01*
X0056270Y0077904D02*
X0056270Y0074702D01*
X0056270Y0077904D02*
X0057110Y0077904D01*
X0057110Y0074702D01*
X0056270Y0074702D01*
X0056270Y0075542D02*
X0057110Y0075542D01*
X0057110Y0076382D02*
X0056270Y0076382D01*
X0056270Y0077222D02*
X0057110Y0077222D01*
X0058238Y0077904D02*
X0058238Y0074702D01*
X0058238Y0077904D02*
X0059078Y0077904D01*
X0059078Y0074702D01*
X0058238Y0074702D01*
X0058238Y0075542D02*
X0059078Y0075542D01*
X0059078Y0076382D02*
X0058238Y0076382D01*
X0058238Y0077222D02*
X0059078Y0077222D01*
X0060207Y0077904D02*
X0060207Y0074702D01*
X0060207Y0077904D02*
X0061047Y0077904D01*
X0061047Y0074702D01*
X0060207Y0074702D01*
X0060207Y0075542D02*
X0061047Y0075542D01*
X0061047Y0076382D02*
X0060207Y0076382D01*
X0060207Y0077222D02*
X0061047Y0077222D01*
X0062175Y0077904D02*
X0062175Y0074702D01*
X0062175Y0077904D02*
X0063015Y0077904D01*
X0063015Y0074702D01*
X0062175Y0074702D01*
X0062175Y0075542D02*
X0063015Y0075542D01*
X0063015Y0076382D02*
X0062175Y0076382D01*
X0062175Y0077222D02*
X0063015Y0077222D01*
X0064144Y0077904D02*
X0064144Y0074702D01*
X0064144Y0077904D02*
X0064984Y0077904D01*
X0064984Y0074702D01*
X0064144Y0074702D01*
X0064144Y0075542D02*
X0064984Y0075542D01*
X0064984Y0076382D02*
X0064144Y0076382D01*
X0064144Y0077222D02*
X0064984Y0077222D01*
D19*
X0064640Y0061266D02*
X0052676Y0061266D01*
X0052676Y0073230D01*
X0064640Y0073230D01*
X0064640Y0061266D01*
X0064640Y0062595D02*
X0052676Y0062595D01*
X0052676Y0063924D02*
X0064640Y0063924D01*
X0064640Y0065253D02*
X0052676Y0065253D01*
X0052676Y0066582D02*
X0064640Y0066582D01*
X0064640Y0067911D02*
X0052676Y0067911D01*
X0052676Y0069240D02*
X0064640Y0069240D01*
X0064640Y0070569D02*
X0052676Y0070569D01*
X0052676Y0071898D02*
X0064640Y0071898D01*
X0064640Y0073227D02*
X0052676Y0073227D01*
D20*
X0032674Y0083085D03*
X0032674Y0096549D03*
D21*
X0033009Y0094807D02*
X0032162Y0094807D01*
X0031394Y0094650D01*
X0031001Y0094472D01*
X0030627Y0094295D01*
X0030331Y0094138D01*
X0030154Y0094020D01*
X0029898Y0093843D01*
X0029623Y0093626D01*
X0029308Y0093350D01*
X0029072Y0093114D01*
X0028835Y0092819D01*
X0028619Y0092504D01*
X0028461Y0092287D01*
X0028304Y0091972D01*
X0024131Y0091972D01*
X0024131Y0095004D01*
X0041217Y0095004D01*
X0041217Y0091972D01*
X0037083Y0091972D01*
X0036906Y0092268D01*
X0036768Y0092524D01*
X0036631Y0092720D01*
X0036316Y0093114D01*
X0036079Y0093370D01*
X0035627Y0093783D01*
X0035174Y0094079D01*
X0034721Y0094295D01*
X0034072Y0094551D01*
X0033678Y0094669D01*
X0033107Y0094787D01*
X0033009Y0094807D01*
X0034509Y0094379D02*
X0041217Y0094379D01*
X0041217Y0093750D02*
X0035663Y0093750D01*
X0036308Y0093122D02*
X0041217Y0093122D01*
X0041217Y0092494D02*
X0036785Y0092494D01*
X0037044Y0087799D02*
X0041217Y0087799D01*
X0041217Y0084768D01*
X0024131Y0084768D01*
X0024131Y0087799D01*
X0028264Y0087799D01*
X0028442Y0087504D01*
X0028579Y0087248D01*
X0028717Y0087051D01*
X0029032Y0086657D01*
X0029268Y0086402D01*
X0029721Y0085988D01*
X0030174Y0085693D01*
X0030627Y0085476D01*
X0031276Y0085220D01*
X0031670Y0085102D01*
X0032241Y0084984D01*
X0032339Y0084965D01*
X0033186Y0084965D01*
X0033953Y0085122D01*
X0034347Y0085299D01*
X0034721Y0085476D01*
X0035016Y0085634D01*
X0035194Y0085752D01*
X0035449Y0085929D01*
X0035725Y0086146D01*
X0036040Y0086421D01*
X0036276Y0086657D01*
X0036512Y0086953D01*
X0036729Y0087268D01*
X0036886Y0087484D01*
X0037044Y0087799D01*
X0036873Y0087466D02*
X0041217Y0087466D01*
X0041217Y0086838D02*
X0036420Y0086838D01*
X0035798Y0086209D02*
X0041217Y0086209D01*
X0041217Y0085581D02*
X0034917Y0085581D01*
X0030803Y0094379D02*
X0024131Y0094379D01*
X0024131Y0093750D02*
X0029781Y0093750D01*
X0029079Y0093122D02*
X0024131Y0093122D01*
X0024131Y0092494D02*
X0028611Y0092494D01*
X0028462Y0087466D02*
X0024131Y0087466D01*
X0024131Y0086838D02*
X0028888Y0086838D01*
X0029479Y0086209D02*
X0024131Y0086209D01*
X0024131Y0085581D02*
X0030408Y0085581D01*
X0024131Y0084952D02*
X0041217Y0084952D01*
D22*
X0148737Y0035496D03*
X0148737Y0030496D03*
X0153737Y0030496D03*
X0158737Y0030496D03*
X0158737Y0035496D03*
X0153737Y0035496D03*
D23*
X0163737Y0032996D03*
X0143737Y0028996D03*
X0143737Y0036996D03*
D24*
X0058658Y0032307D03*
X0058658Y0025811D03*
D25*
X0024012Y0029256D03*
X0024012Y0041461D03*
X0045272Y0041461D03*
X0045272Y0029256D03*
D26*
X0105548Y0060949D03*
X0105548Y0070791D03*
D27*
X0109131Y0108783D03*
X0099131Y0108783D03*
X0089131Y0108783D03*
X0079131Y0108783D03*
X0069131Y0108783D03*
X0069131Y0128469D03*
X0079131Y0128469D03*
X0119131Y0108783D03*
X0129131Y0108783D03*
X0139131Y0108783D03*
X0139131Y0128469D03*
X0129131Y0128469D03*
X0129131Y0018311D03*
X0129131Y0008311D03*
X0139131Y0008311D03*
X0139131Y0018311D03*
X0149131Y0018311D03*
X0149131Y0008311D03*
X0119131Y0008311D03*
X0119131Y0018311D03*
X0109131Y0018311D03*
X0109131Y0008311D03*
X0099131Y0008311D03*
X0099131Y0018311D03*
X0089131Y0018311D03*
X0089131Y0008311D03*
X0079131Y0008311D03*
X0079131Y0018311D03*
X0069131Y0018311D03*
X0069131Y0008311D03*
X0059131Y0008311D03*
X0059131Y0018311D03*
D28*
X0104524Y0092051D03*
X0115548Y0092051D03*
X0124209Y0092051D03*
X0135233Y0092051D03*
D29*
X0092123Y0058193D03*
X0088383Y0050319D03*
X0084642Y0058193D03*
X0080902Y0047563D03*
X0077162Y0039689D03*
X0084642Y0039689D03*
D30*
X0105115Y0340083D03*
D31*
X0159249Y0158980D03*
X0049012Y0158980D03*
M02*
