G75*
%MOIN*%
%OFA0B0*%
%FSLAX25Y25*%
%IPPOS*%
%LPD*%
%AMOC8*
5,1,8,0,0,1.08239X$1,22.5*
%
%ADD10C,0.00000*%
D10*
X0017516Y0001500D02*
X0017516Y0113705D01*
X0049012Y0113705D01*
X0049012Y0123547D01*
X0017516Y0123547D01*
X0017516Y0381421D01*
X0190745Y0381421D01*
X0190745Y0123547D01*
X0159249Y0123547D01*
X0159249Y0113705D01*
X0190745Y0113705D01*
X0190745Y0001500D01*
X0017516Y0001500D01*
X0021453Y0009768D02*
X0021455Y0009899D01*
X0021461Y0010031D01*
X0021471Y0010162D01*
X0021485Y0010293D01*
X0021503Y0010423D01*
X0021525Y0010552D01*
X0021550Y0010681D01*
X0021580Y0010809D01*
X0021614Y0010936D01*
X0021651Y0011063D01*
X0021692Y0011187D01*
X0021737Y0011311D01*
X0021786Y0011433D01*
X0021838Y0011554D01*
X0021894Y0011672D01*
X0021954Y0011790D01*
X0022017Y0011905D01*
X0022084Y0012018D01*
X0022154Y0012130D01*
X0022227Y0012239D01*
X0022303Y0012345D01*
X0022383Y0012450D01*
X0022466Y0012552D01*
X0022552Y0012651D01*
X0022641Y0012748D01*
X0022733Y0012842D01*
X0022828Y0012933D01*
X0022925Y0013022D01*
X0023025Y0013107D01*
X0023128Y0013189D01*
X0023233Y0013268D01*
X0023340Y0013344D01*
X0023450Y0013416D01*
X0023562Y0013485D01*
X0023676Y0013551D01*
X0023791Y0013613D01*
X0023909Y0013672D01*
X0024028Y0013727D01*
X0024149Y0013779D01*
X0024272Y0013826D01*
X0024396Y0013870D01*
X0024521Y0013911D01*
X0024647Y0013947D01*
X0024775Y0013980D01*
X0024903Y0014008D01*
X0025032Y0014033D01*
X0025162Y0014054D01*
X0025292Y0014071D01*
X0025423Y0014084D01*
X0025554Y0014093D01*
X0025685Y0014098D01*
X0025817Y0014099D01*
X0025948Y0014096D01*
X0026080Y0014089D01*
X0026211Y0014078D01*
X0026341Y0014063D01*
X0026471Y0014044D01*
X0026601Y0014021D01*
X0026729Y0013995D01*
X0026857Y0013964D01*
X0026984Y0013929D01*
X0027110Y0013891D01*
X0027234Y0013849D01*
X0027358Y0013803D01*
X0027479Y0013753D01*
X0027599Y0013700D01*
X0027718Y0013643D01*
X0027835Y0013583D01*
X0027949Y0013519D01*
X0028062Y0013451D01*
X0028173Y0013380D01*
X0028282Y0013306D01*
X0028388Y0013229D01*
X0028492Y0013148D01*
X0028593Y0013065D01*
X0028692Y0012978D01*
X0028788Y0012888D01*
X0028881Y0012795D01*
X0028972Y0012700D01*
X0029059Y0012602D01*
X0029144Y0012501D01*
X0029225Y0012398D01*
X0029303Y0012292D01*
X0029378Y0012184D01*
X0029450Y0012074D01*
X0029518Y0011962D01*
X0029583Y0011848D01*
X0029644Y0011731D01*
X0029702Y0011613D01*
X0029756Y0011493D01*
X0029807Y0011372D01*
X0029854Y0011249D01*
X0029897Y0011125D01*
X0029936Y0011000D01*
X0029972Y0010873D01*
X0030003Y0010745D01*
X0030031Y0010617D01*
X0030055Y0010488D01*
X0030075Y0010358D01*
X0030091Y0010227D01*
X0030103Y0010096D01*
X0030111Y0009965D01*
X0030115Y0009834D01*
X0030115Y0009702D01*
X0030111Y0009571D01*
X0030103Y0009440D01*
X0030091Y0009309D01*
X0030075Y0009178D01*
X0030055Y0009048D01*
X0030031Y0008919D01*
X0030003Y0008791D01*
X0029972Y0008663D01*
X0029936Y0008536D01*
X0029897Y0008411D01*
X0029854Y0008287D01*
X0029807Y0008164D01*
X0029756Y0008043D01*
X0029702Y0007923D01*
X0029644Y0007805D01*
X0029583Y0007688D01*
X0029518Y0007574D01*
X0029450Y0007462D01*
X0029378Y0007352D01*
X0029303Y0007244D01*
X0029225Y0007138D01*
X0029144Y0007035D01*
X0029059Y0006934D01*
X0028972Y0006836D01*
X0028881Y0006741D01*
X0028788Y0006648D01*
X0028692Y0006558D01*
X0028593Y0006471D01*
X0028492Y0006388D01*
X0028388Y0006307D01*
X0028282Y0006230D01*
X0028173Y0006156D01*
X0028062Y0006085D01*
X0027950Y0006017D01*
X0027835Y0005953D01*
X0027718Y0005893D01*
X0027599Y0005836D01*
X0027479Y0005783D01*
X0027358Y0005733D01*
X0027234Y0005687D01*
X0027110Y0005645D01*
X0026984Y0005607D01*
X0026857Y0005572D01*
X0026729Y0005541D01*
X0026601Y0005515D01*
X0026471Y0005492D01*
X0026341Y0005473D01*
X0026211Y0005458D01*
X0026080Y0005447D01*
X0025948Y0005440D01*
X0025817Y0005437D01*
X0025685Y0005438D01*
X0025554Y0005443D01*
X0025423Y0005452D01*
X0025292Y0005465D01*
X0025162Y0005482D01*
X0025032Y0005503D01*
X0024903Y0005528D01*
X0024775Y0005556D01*
X0024647Y0005589D01*
X0024521Y0005625D01*
X0024396Y0005666D01*
X0024272Y0005710D01*
X0024149Y0005757D01*
X0024028Y0005809D01*
X0023909Y0005864D01*
X0023791Y0005923D01*
X0023676Y0005985D01*
X0023562Y0006051D01*
X0023450Y0006120D01*
X0023340Y0006192D01*
X0023233Y0006268D01*
X0023128Y0006347D01*
X0023025Y0006429D01*
X0022925Y0006514D01*
X0022828Y0006603D01*
X0022733Y0006694D01*
X0022641Y0006788D01*
X0022552Y0006885D01*
X0022466Y0006984D01*
X0022383Y0007086D01*
X0022303Y0007191D01*
X0022227Y0007297D01*
X0022154Y0007406D01*
X0022084Y0007518D01*
X0022017Y0007631D01*
X0021954Y0007746D01*
X0021894Y0007864D01*
X0021838Y0007982D01*
X0021786Y0008103D01*
X0021737Y0008225D01*
X0021692Y0008349D01*
X0021651Y0008473D01*
X0021614Y0008600D01*
X0021580Y0008727D01*
X0021550Y0008855D01*
X0021525Y0008984D01*
X0021503Y0009113D01*
X0021485Y0009243D01*
X0021471Y0009374D01*
X0021461Y0009505D01*
X0021455Y0009637D01*
X0021453Y0009768D01*
X0021453Y0105437D02*
X0021455Y0105568D01*
X0021461Y0105700D01*
X0021471Y0105831D01*
X0021485Y0105962D01*
X0021503Y0106092D01*
X0021525Y0106221D01*
X0021550Y0106350D01*
X0021580Y0106478D01*
X0021614Y0106605D01*
X0021651Y0106732D01*
X0021692Y0106856D01*
X0021737Y0106980D01*
X0021786Y0107102D01*
X0021838Y0107223D01*
X0021894Y0107341D01*
X0021954Y0107459D01*
X0022017Y0107574D01*
X0022084Y0107687D01*
X0022154Y0107799D01*
X0022227Y0107908D01*
X0022303Y0108014D01*
X0022383Y0108119D01*
X0022466Y0108221D01*
X0022552Y0108320D01*
X0022641Y0108417D01*
X0022733Y0108511D01*
X0022828Y0108602D01*
X0022925Y0108691D01*
X0023025Y0108776D01*
X0023128Y0108858D01*
X0023233Y0108937D01*
X0023340Y0109013D01*
X0023450Y0109085D01*
X0023562Y0109154D01*
X0023676Y0109220D01*
X0023791Y0109282D01*
X0023909Y0109341D01*
X0024028Y0109396D01*
X0024149Y0109448D01*
X0024272Y0109495D01*
X0024396Y0109539D01*
X0024521Y0109580D01*
X0024647Y0109616D01*
X0024775Y0109649D01*
X0024903Y0109677D01*
X0025032Y0109702D01*
X0025162Y0109723D01*
X0025292Y0109740D01*
X0025423Y0109753D01*
X0025554Y0109762D01*
X0025685Y0109767D01*
X0025817Y0109768D01*
X0025948Y0109765D01*
X0026080Y0109758D01*
X0026211Y0109747D01*
X0026341Y0109732D01*
X0026471Y0109713D01*
X0026601Y0109690D01*
X0026729Y0109664D01*
X0026857Y0109633D01*
X0026984Y0109598D01*
X0027110Y0109560D01*
X0027234Y0109518D01*
X0027358Y0109472D01*
X0027479Y0109422D01*
X0027599Y0109369D01*
X0027718Y0109312D01*
X0027835Y0109252D01*
X0027949Y0109188D01*
X0028062Y0109120D01*
X0028173Y0109049D01*
X0028282Y0108975D01*
X0028388Y0108898D01*
X0028492Y0108817D01*
X0028593Y0108734D01*
X0028692Y0108647D01*
X0028788Y0108557D01*
X0028881Y0108464D01*
X0028972Y0108369D01*
X0029059Y0108271D01*
X0029144Y0108170D01*
X0029225Y0108067D01*
X0029303Y0107961D01*
X0029378Y0107853D01*
X0029450Y0107743D01*
X0029518Y0107631D01*
X0029583Y0107517D01*
X0029644Y0107400D01*
X0029702Y0107282D01*
X0029756Y0107162D01*
X0029807Y0107041D01*
X0029854Y0106918D01*
X0029897Y0106794D01*
X0029936Y0106669D01*
X0029972Y0106542D01*
X0030003Y0106414D01*
X0030031Y0106286D01*
X0030055Y0106157D01*
X0030075Y0106027D01*
X0030091Y0105896D01*
X0030103Y0105765D01*
X0030111Y0105634D01*
X0030115Y0105503D01*
X0030115Y0105371D01*
X0030111Y0105240D01*
X0030103Y0105109D01*
X0030091Y0104978D01*
X0030075Y0104847D01*
X0030055Y0104717D01*
X0030031Y0104588D01*
X0030003Y0104460D01*
X0029972Y0104332D01*
X0029936Y0104205D01*
X0029897Y0104080D01*
X0029854Y0103956D01*
X0029807Y0103833D01*
X0029756Y0103712D01*
X0029702Y0103592D01*
X0029644Y0103474D01*
X0029583Y0103357D01*
X0029518Y0103243D01*
X0029450Y0103131D01*
X0029378Y0103021D01*
X0029303Y0102913D01*
X0029225Y0102807D01*
X0029144Y0102704D01*
X0029059Y0102603D01*
X0028972Y0102505D01*
X0028881Y0102410D01*
X0028788Y0102317D01*
X0028692Y0102227D01*
X0028593Y0102140D01*
X0028492Y0102057D01*
X0028388Y0101976D01*
X0028282Y0101899D01*
X0028173Y0101825D01*
X0028062Y0101754D01*
X0027950Y0101686D01*
X0027835Y0101622D01*
X0027718Y0101562D01*
X0027599Y0101505D01*
X0027479Y0101452D01*
X0027358Y0101402D01*
X0027234Y0101356D01*
X0027110Y0101314D01*
X0026984Y0101276D01*
X0026857Y0101241D01*
X0026729Y0101210D01*
X0026601Y0101184D01*
X0026471Y0101161D01*
X0026341Y0101142D01*
X0026211Y0101127D01*
X0026080Y0101116D01*
X0025948Y0101109D01*
X0025817Y0101106D01*
X0025685Y0101107D01*
X0025554Y0101112D01*
X0025423Y0101121D01*
X0025292Y0101134D01*
X0025162Y0101151D01*
X0025032Y0101172D01*
X0024903Y0101197D01*
X0024775Y0101225D01*
X0024647Y0101258D01*
X0024521Y0101294D01*
X0024396Y0101335D01*
X0024272Y0101379D01*
X0024149Y0101426D01*
X0024028Y0101478D01*
X0023909Y0101533D01*
X0023791Y0101592D01*
X0023676Y0101654D01*
X0023562Y0101720D01*
X0023450Y0101789D01*
X0023340Y0101861D01*
X0023233Y0101937D01*
X0023128Y0102016D01*
X0023025Y0102098D01*
X0022925Y0102183D01*
X0022828Y0102272D01*
X0022733Y0102363D01*
X0022641Y0102457D01*
X0022552Y0102554D01*
X0022466Y0102653D01*
X0022383Y0102755D01*
X0022303Y0102860D01*
X0022227Y0102966D01*
X0022154Y0103075D01*
X0022084Y0103187D01*
X0022017Y0103300D01*
X0021954Y0103415D01*
X0021894Y0103533D01*
X0021838Y0103651D01*
X0021786Y0103772D01*
X0021737Y0103894D01*
X0021692Y0104018D01*
X0021651Y0104142D01*
X0021614Y0104269D01*
X0021580Y0104396D01*
X0021550Y0104524D01*
X0021525Y0104653D01*
X0021503Y0104782D01*
X0021485Y0104912D01*
X0021471Y0105043D01*
X0021461Y0105174D01*
X0021455Y0105306D01*
X0021453Y0105437D01*
X0048028Y0114689D02*
X0048030Y0114751D01*
X0048036Y0114814D01*
X0048046Y0114875D01*
X0048060Y0114936D01*
X0048077Y0114996D01*
X0048098Y0115055D01*
X0048124Y0115112D01*
X0048152Y0115167D01*
X0048184Y0115221D01*
X0048220Y0115272D01*
X0048258Y0115322D01*
X0048300Y0115368D01*
X0048344Y0115412D01*
X0048392Y0115453D01*
X0048441Y0115491D01*
X0048493Y0115525D01*
X0048547Y0115556D01*
X0048603Y0115584D01*
X0048661Y0115608D01*
X0048720Y0115629D01*
X0048780Y0115645D01*
X0048841Y0115658D01*
X0048903Y0115667D01*
X0048965Y0115672D01*
X0049028Y0115673D01*
X0049090Y0115670D01*
X0049152Y0115663D01*
X0049214Y0115652D01*
X0049274Y0115637D01*
X0049334Y0115619D01*
X0049392Y0115597D01*
X0049449Y0115571D01*
X0049504Y0115541D01*
X0049557Y0115508D01*
X0049608Y0115472D01*
X0049656Y0115433D01*
X0049702Y0115390D01*
X0049745Y0115345D01*
X0049785Y0115297D01*
X0049822Y0115247D01*
X0049856Y0115194D01*
X0049887Y0115140D01*
X0049913Y0115084D01*
X0049937Y0115026D01*
X0049956Y0114966D01*
X0049972Y0114906D01*
X0049984Y0114844D01*
X0049992Y0114783D01*
X0049996Y0114720D01*
X0049996Y0114658D01*
X0049992Y0114595D01*
X0049984Y0114534D01*
X0049972Y0114472D01*
X0049956Y0114412D01*
X0049937Y0114352D01*
X0049913Y0114294D01*
X0049887Y0114238D01*
X0049856Y0114184D01*
X0049822Y0114131D01*
X0049785Y0114081D01*
X0049745Y0114033D01*
X0049702Y0113988D01*
X0049656Y0113945D01*
X0049608Y0113906D01*
X0049557Y0113870D01*
X0049504Y0113837D01*
X0049449Y0113807D01*
X0049392Y0113781D01*
X0049334Y0113759D01*
X0049274Y0113741D01*
X0049214Y0113726D01*
X0049152Y0113715D01*
X0049090Y0113708D01*
X0049028Y0113705D01*
X0048965Y0113706D01*
X0048903Y0113711D01*
X0048841Y0113720D01*
X0048780Y0113733D01*
X0048720Y0113749D01*
X0048661Y0113770D01*
X0048603Y0113794D01*
X0048547Y0113822D01*
X0048493Y0113853D01*
X0048441Y0113887D01*
X0048392Y0113925D01*
X0048344Y0113966D01*
X0048300Y0114010D01*
X0048258Y0114056D01*
X0048220Y0114106D01*
X0048184Y0114157D01*
X0048152Y0114211D01*
X0048124Y0114266D01*
X0048098Y0114323D01*
X0048077Y0114382D01*
X0048060Y0114442D01*
X0048046Y0114503D01*
X0048036Y0114564D01*
X0048030Y0114627D01*
X0048028Y0114689D01*
X0052458Y0114689D02*
X0052460Y0114751D01*
X0052466Y0114814D01*
X0052476Y0114875D01*
X0052490Y0114936D01*
X0052507Y0114996D01*
X0052528Y0115055D01*
X0052554Y0115112D01*
X0052582Y0115167D01*
X0052614Y0115221D01*
X0052650Y0115272D01*
X0052688Y0115322D01*
X0052730Y0115368D01*
X0052774Y0115412D01*
X0052822Y0115453D01*
X0052871Y0115491D01*
X0052923Y0115525D01*
X0052977Y0115556D01*
X0053033Y0115584D01*
X0053091Y0115608D01*
X0053150Y0115629D01*
X0053210Y0115645D01*
X0053271Y0115658D01*
X0053333Y0115667D01*
X0053395Y0115672D01*
X0053458Y0115673D01*
X0053520Y0115670D01*
X0053582Y0115663D01*
X0053644Y0115652D01*
X0053704Y0115637D01*
X0053764Y0115619D01*
X0053822Y0115597D01*
X0053879Y0115571D01*
X0053934Y0115541D01*
X0053987Y0115508D01*
X0054038Y0115472D01*
X0054086Y0115433D01*
X0054132Y0115390D01*
X0054175Y0115345D01*
X0054215Y0115297D01*
X0054252Y0115247D01*
X0054286Y0115194D01*
X0054317Y0115140D01*
X0054343Y0115084D01*
X0054367Y0115026D01*
X0054386Y0114966D01*
X0054402Y0114906D01*
X0054414Y0114844D01*
X0054422Y0114783D01*
X0054426Y0114720D01*
X0054426Y0114658D01*
X0054422Y0114595D01*
X0054414Y0114534D01*
X0054402Y0114472D01*
X0054386Y0114412D01*
X0054367Y0114352D01*
X0054343Y0114294D01*
X0054317Y0114238D01*
X0054286Y0114184D01*
X0054252Y0114131D01*
X0054215Y0114081D01*
X0054175Y0114033D01*
X0054132Y0113988D01*
X0054086Y0113945D01*
X0054038Y0113906D01*
X0053987Y0113870D01*
X0053934Y0113837D01*
X0053879Y0113807D01*
X0053822Y0113781D01*
X0053764Y0113759D01*
X0053704Y0113741D01*
X0053644Y0113726D01*
X0053582Y0113715D01*
X0053520Y0113708D01*
X0053458Y0113705D01*
X0053395Y0113706D01*
X0053333Y0113711D01*
X0053271Y0113720D01*
X0053210Y0113733D01*
X0053150Y0113749D01*
X0053091Y0113770D01*
X0053033Y0113794D01*
X0052977Y0113822D01*
X0052923Y0113853D01*
X0052871Y0113887D01*
X0052822Y0113925D01*
X0052774Y0113966D01*
X0052730Y0114010D01*
X0052688Y0114056D01*
X0052650Y0114106D01*
X0052614Y0114157D01*
X0052582Y0114211D01*
X0052554Y0114266D01*
X0052528Y0114323D01*
X0052507Y0114382D01*
X0052490Y0114442D01*
X0052476Y0114503D01*
X0052466Y0114564D01*
X0052460Y0114627D01*
X0052458Y0114689D01*
X0056887Y0114689D02*
X0056889Y0114751D01*
X0056895Y0114814D01*
X0056905Y0114875D01*
X0056919Y0114936D01*
X0056936Y0114996D01*
X0056957Y0115055D01*
X0056983Y0115112D01*
X0057011Y0115167D01*
X0057043Y0115221D01*
X0057079Y0115272D01*
X0057117Y0115322D01*
X0057159Y0115368D01*
X0057203Y0115412D01*
X0057251Y0115453D01*
X0057300Y0115491D01*
X0057352Y0115525D01*
X0057406Y0115556D01*
X0057462Y0115584D01*
X0057520Y0115608D01*
X0057579Y0115629D01*
X0057639Y0115645D01*
X0057700Y0115658D01*
X0057762Y0115667D01*
X0057824Y0115672D01*
X0057887Y0115673D01*
X0057949Y0115670D01*
X0058011Y0115663D01*
X0058073Y0115652D01*
X0058133Y0115637D01*
X0058193Y0115619D01*
X0058251Y0115597D01*
X0058308Y0115571D01*
X0058363Y0115541D01*
X0058416Y0115508D01*
X0058467Y0115472D01*
X0058515Y0115433D01*
X0058561Y0115390D01*
X0058604Y0115345D01*
X0058644Y0115297D01*
X0058681Y0115247D01*
X0058715Y0115194D01*
X0058746Y0115140D01*
X0058772Y0115084D01*
X0058796Y0115026D01*
X0058815Y0114966D01*
X0058831Y0114906D01*
X0058843Y0114844D01*
X0058851Y0114783D01*
X0058855Y0114720D01*
X0058855Y0114658D01*
X0058851Y0114595D01*
X0058843Y0114534D01*
X0058831Y0114472D01*
X0058815Y0114412D01*
X0058796Y0114352D01*
X0058772Y0114294D01*
X0058746Y0114238D01*
X0058715Y0114184D01*
X0058681Y0114131D01*
X0058644Y0114081D01*
X0058604Y0114033D01*
X0058561Y0113988D01*
X0058515Y0113945D01*
X0058467Y0113906D01*
X0058416Y0113870D01*
X0058363Y0113837D01*
X0058308Y0113807D01*
X0058251Y0113781D01*
X0058193Y0113759D01*
X0058133Y0113741D01*
X0058073Y0113726D01*
X0058011Y0113715D01*
X0057949Y0113708D01*
X0057887Y0113705D01*
X0057824Y0113706D01*
X0057762Y0113711D01*
X0057700Y0113720D01*
X0057639Y0113733D01*
X0057579Y0113749D01*
X0057520Y0113770D01*
X0057462Y0113794D01*
X0057406Y0113822D01*
X0057352Y0113853D01*
X0057300Y0113887D01*
X0057251Y0113925D01*
X0057203Y0113966D01*
X0057159Y0114010D01*
X0057117Y0114056D01*
X0057079Y0114106D01*
X0057043Y0114157D01*
X0057011Y0114211D01*
X0056983Y0114266D01*
X0056957Y0114323D01*
X0056936Y0114382D01*
X0056919Y0114442D01*
X0056905Y0114503D01*
X0056895Y0114564D01*
X0056889Y0114627D01*
X0056887Y0114689D01*
X0061316Y0114689D02*
X0061318Y0114751D01*
X0061324Y0114814D01*
X0061334Y0114875D01*
X0061348Y0114936D01*
X0061365Y0114996D01*
X0061386Y0115055D01*
X0061412Y0115112D01*
X0061440Y0115167D01*
X0061472Y0115221D01*
X0061508Y0115272D01*
X0061546Y0115322D01*
X0061588Y0115368D01*
X0061632Y0115412D01*
X0061680Y0115453D01*
X0061729Y0115491D01*
X0061781Y0115525D01*
X0061835Y0115556D01*
X0061891Y0115584D01*
X0061949Y0115608D01*
X0062008Y0115629D01*
X0062068Y0115645D01*
X0062129Y0115658D01*
X0062191Y0115667D01*
X0062253Y0115672D01*
X0062316Y0115673D01*
X0062378Y0115670D01*
X0062440Y0115663D01*
X0062502Y0115652D01*
X0062562Y0115637D01*
X0062622Y0115619D01*
X0062680Y0115597D01*
X0062737Y0115571D01*
X0062792Y0115541D01*
X0062845Y0115508D01*
X0062896Y0115472D01*
X0062944Y0115433D01*
X0062990Y0115390D01*
X0063033Y0115345D01*
X0063073Y0115297D01*
X0063110Y0115247D01*
X0063144Y0115194D01*
X0063175Y0115140D01*
X0063201Y0115084D01*
X0063225Y0115026D01*
X0063244Y0114966D01*
X0063260Y0114906D01*
X0063272Y0114844D01*
X0063280Y0114783D01*
X0063284Y0114720D01*
X0063284Y0114658D01*
X0063280Y0114595D01*
X0063272Y0114534D01*
X0063260Y0114472D01*
X0063244Y0114412D01*
X0063225Y0114352D01*
X0063201Y0114294D01*
X0063175Y0114238D01*
X0063144Y0114184D01*
X0063110Y0114131D01*
X0063073Y0114081D01*
X0063033Y0114033D01*
X0062990Y0113988D01*
X0062944Y0113945D01*
X0062896Y0113906D01*
X0062845Y0113870D01*
X0062792Y0113837D01*
X0062737Y0113807D01*
X0062680Y0113781D01*
X0062622Y0113759D01*
X0062562Y0113741D01*
X0062502Y0113726D01*
X0062440Y0113715D01*
X0062378Y0113708D01*
X0062316Y0113705D01*
X0062253Y0113706D01*
X0062191Y0113711D01*
X0062129Y0113720D01*
X0062068Y0113733D01*
X0062008Y0113749D01*
X0061949Y0113770D01*
X0061891Y0113794D01*
X0061835Y0113822D01*
X0061781Y0113853D01*
X0061729Y0113887D01*
X0061680Y0113925D01*
X0061632Y0113966D01*
X0061588Y0114010D01*
X0061546Y0114056D01*
X0061508Y0114106D01*
X0061472Y0114157D01*
X0061440Y0114211D01*
X0061412Y0114266D01*
X0061386Y0114323D01*
X0061365Y0114382D01*
X0061348Y0114442D01*
X0061334Y0114503D01*
X0061324Y0114564D01*
X0061318Y0114627D01*
X0061316Y0114689D01*
X0065745Y0114689D02*
X0065747Y0114751D01*
X0065753Y0114814D01*
X0065763Y0114875D01*
X0065777Y0114936D01*
X0065794Y0114996D01*
X0065815Y0115055D01*
X0065841Y0115112D01*
X0065869Y0115167D01*
X0065901Y0115221D01*
X0065937Y0115272D01*
X0065975Y0115322D01*
X0066017Y0115368D01*
X0066061Y0115412D01*
X0066109Y0115453D01*
X0066158Y0115491D01*
X0066210Y0115525D01*
X0066264Y0115556D01*
X0066320Y0115584D01*
X0066378Y0115608D01*
X0066437Y0115629D01*
X0066497Y0115645D01*
X0066558Y0115658D01*
X0066620Y0115667D01*
X0066682Y0115672D01*
X0066745Y0115673D01*
X0066807Y0115670D01*
X0066869Y0115663D01*
X0066931Y0115652D01*
X0066991Y0115637D01*
X0067051Y0115619D01*
X0067109Y0115597D01*
X0067166Y0115571D01*
X0067221Y0115541D01*
X0067274Y0115508D01*
X0067325Y0115472D01*
X0067373Y0115433D01*
X0067419Y0115390D01*
X0067462Y0115345D01*
X0067502Y0115297D01*
X0067539Y0115247D01*
X0067573Y0115194D01*
X0067604Y0115140D01*
X0067630Y0115084D01*
X0067654Y0115026D01*
X0067673Y0114966D01*
X0067689Y0114906D01*
X0067701Y0114844D01*
X0067709Y0114783D01*
X0067713Y0114720D01*
X0067713Y0114658D01*
X0067709Y0114595D01*
X0067701Y0114534D01*
X0067689Y0114472D01*
X0067673Y0114412D01*
X0067654Y0114352D01*
X0067630Y0114294D01*
X0067604Y0114238D01*
X0067573Y0114184D01*
X0067539Y0114131D01*
X0067502Y0114081D01*
X0067462Y0114033D01*
X0067419Y0113988D01*
X0067373Y0113945D01*
X0067325Y0113906D01*
X0067274Y0113870D01*
X0067221Y0113837D01*
X0067166Y0113807D01*
X0067109Y0113781D01*
X0067051Y0113759D01*
X0066991Y0113741D01*
X0066931Y0113726D01*
X0066869Y0113715D01*
X0066807Y0113708D01*
X0066745Y0113705D01*
X0066682Y0113706D01*
X0066620Y0113711D01*
X0066558Y0113720D01*
X0066497Y0113733D01*
X0066437Y0113749D01*
X0066378Y0113770D01*
X0066320Y0113794D01*
X0066264Y0113822D01*
X0066210Y0113853D01*
X0066158Y0113887D01*
X0066109Y0113925D01*
X0066061Y0113966D01*
X0066017Y0114010D01*
X0065975Y0114056D01*
X0065937Y0114106D01*
X0065901Y0114157D01*
X0065869Y0114211D01*
X0065841Y0114266D01*
X0065815Y0114323D01*
X0065794Y0114382D01*
X0065777Y0114442D01*
X0065763Y0114503D01*
X0065753Y0114564D01*
X0065747Y0114627D01*
X0065745Y0114689D01*
X0066729Y0113705D02*
X0066729Y0123547D01*
X0141532Y0123547D01*
X0141532Y0113705D01*
X0066729Y0113705D01*
X0065745Y0122563D02*
X0065747Y0122625D01*
X0065753Y0122688D01*
X0065763Y0122749D01*
X0065777Y0122810D01*
X0065794Y0122870D01*
X0065815Y0122929D01*
X0065841Y0122986D01*
X0065869Y0123041D01*
X0065901Y0123095D01*
X0065937Y0123146D01*
X0065975Y0123196D01*
X0066017Y0123242D01*
X0066061Y0123286D01*
X0066109Y0123327D01*
X0066158Y0123365D01*
X0066210Y0123399D01*
X0066264Y0123430D01*
X0066320Y0123458D01*
X0066378Y0123482D01*
X0066437Y0123503D01*
X0066497Y0123519D01*
X0066558Y0123532D01*
X0066620Y0123541D01*
X0066682Y0123546D01*
X0066745Y0123547D01*
X0066807Y0123544D01*
X0066869Y0123537D01*
X0066931Y0123526D01*
X0066991Y0123511D01*
X0067051Y0123493D01*
X0067109Y0123471D01*
X0067166Y0123445D01*
X0067221Y0123415D01*
X0067274Y0123382D01*
X0067325Y0123346D01*
X0067373Y0123307D01*
X0067419Y0123264D01*
X0067462Y0123219D01*
X0067502Y0123171D01*
X0067539Y0123121D01*
X0067573Y0123068D01*
X0067604Y0123014D01*
X0067630Y0122958D01*
X0067654Y0122900D01*
X0067673Y0122840D01*
X0067689Y0122780D01*
X0067701Y0122718D01*
X0067709Y0122657D01*
X0067713Y0122594D01*
X0067713Y0122532D01*
X0067709Y0122469D01*
X0067701Y0122408D01*
X0067689Y0122346D01*
X0067673Y0122286D01*
X0067654Y0122226D01*
X0067630Y0122168D01*
X0067604Y0122112D01*
X0067573Y0122058D01*
X0067539Y0122005D01*
X0067502Y0121955D01*
X0067462Y0121907D01*
X0067419Y0121862D01*
X0067373Y0121819D01*
X0067325Y0121780D01*
X0067274Y0121744D01*
X0067221Y0121711D01*
X0067166Y0121681D01*
X0067109Y0121655D01*
X0067051Y0121633D01*
X0066991Y0121615D01*
X0066931Y0121600D01*
X0066869Y0121589D01*
X0066807Y0121582D01*
X0066745Y0121579D01*
X0066682Y0121580D01*
X0066620Y0121585D01*
X0066558Y0121594D01*
X0066497Y0121607D01*
X0066437Y0121623D01*
X0066378Y0121644D01*
X0066320Y0121668D01*
X0066264Y0121696D01*
X0066210Y0121727D01*
X0066158Y0121761D01*
X0066109Y0121799D01*
X0066061Y0121840D01*
X0066017Y0121884D01*
X0065975Y0121930D01*
X0065937Y0121980D01*
X0065901Y0122031D01*
X0065869Y0122085D01*
X0065841Y0122140D01*
X0065815Y0122197D01*
X0065794Y0122256D01*
X0065777Y0122316D01*
X0065763Y0122377D01*
X0065753Y0122438D01*
X0065747Y0122501D01*
X0065745Y0122563D01*
X0061316Y0122563D02*
X0061318Y0122625D01*
X0061324Y0122688D01*
X0061334Y0122749D01*
X0061348Y0122810D01*
X0061365Y0122870D01*
X0061386Y0122929D01*
X0061412Y0122986D01*
X0061440Y0123041D01*
X0061472Y0123095D01*
X0061508Y0123146D01*
X0061546Y0123196D01*
X0061588Y0123242D01*
X0061632Y0123286D01*
X0061680Y0123327D01*
X0061729Y0123365D01*
X0061781Y0123399D01*
X0061835Y0123430D01*
X0061891Y0123458D01*
X0061949Y0123482D01*
X0062008Y0123503D01*
X0062068Y0123519D01*
X0062129Y0123532D01*
X0062191Y0123541D01*
X0062253Y0123546D01*
X0062316Y0123547D01*
X0062378Y0123544D01*
X0062440Y0123537D01*
X0062502Y0123526D01*
X0062562Y0123511D01*
X0062622Y0123493D01*
X0062680Y0123471D01*
X0062737Y0123445D01*
X0062792Y0123415D01*
X0062845Y0123382D01*
X0062896Y0123346D01*
X0062944Y0123307D01*
X0062990Y0123264D01*
X0063033Y0123219D01*
X0063073Y0123171D01*
X0063110Y0123121D01*
X0063144Y0123068D01*
X0063175Y0123014D01*
X0063201Y0122958D01*
X0063225Y0122900D01*
X0063244Y0122840D01*
X0063260Y0122780D01*
X0063272Y0122718D01*
X0063280Y0122657D01*
X0063284Y0122594D01*
X0063284Y0122532D01*
X0063280Y0122469D01*
X0063272Y0122408D01*
X0063260Y0122346D01*
X0063244Y0122286D01*
X0063225Y0122226D01*
X0063201Y0122168D01*
X0063175Y0122112D01*
X0063144Y0122058D01*
X0063110Y0122005D01*
X0063073Y0121955D01*
X0063033Y0121907D01*
X0062990Y0121862D01*
X0062944Y0121819D01*
X0062896Y0121780D01*
X0062845Y0121744D01*
X0062792Y0121711D01*
X0062737Y0121681D01*
X0062680Y0121655D01*
X0062622Y0121633D01*
X0062562Y0121615D01*
X0062502Y0121600D01*
X0062440Y0121589D01*
X0062378Y0121582D01*
X0062316Y0121579D01*
X0062253Y0121580D01*
X0062191Y0121585D01*
X0062129Y0121594D01*
X0062068Y0121607D01*
X0062008Y0121623D01*
X0061949Y0121644D01*
X0061891Y0121668D01*
X0061835Y0121696D01*
X0061781Y0121727D01*
X0061729Y0121761D01*
X0061680Y0121799D01*
X0061632Y0121840D01*
X0061588Y0121884D01*
X0061546Y0121930D01*
X0061508Y0121980D01*
X0061472Y0122031D01*
X0061440Y0122085D01*
X0061412Y0122140D01*
X0061386Y0122197D01*
X0061365Y0122256D01*
X0061348Y0122316D01*
X0061334Y0122377D01*
X0061324Y0122438D01*
X0061318Y0122501D01*
X0061316Y0122563D01*
X0056887Y0122563D02*
X0056889Y0122625D01*
X0056895Y0122688D01*
X0056905Y0122749D01*
X0056919Y0122810D01*
X0056936Y0122870D01*
X0056957Y0122929D01*
X0056983Y0122986D01*
X0057011Y0123041D01*
X0057043Y0123095D01*
X0057079Y0123146D01*
X0057117Y0123196D01*
X0057159Y0123242D01*
X0057203Y0123286D01*
X0057251Y0123327D01*
X0057300Y0123365D01*
X0057352Y0123399D01*
X0057406Y0123430D01*
X0057462Y0123458D01*
X0057520Y0123482D01*
X0057579Y0123503D01*
X0057639Y0123519D01*
X0057700Y0123532D01*
X0057762Y0123541D01*
X0057824Y0123546D01*
X0057887Y0123547D01*
X0057949Y0123544D01*
X0058011Y0123537D01*
X0058073Y0123526D01*
X0058133Y0123511D01*
X0058193Y0123493D01*
X0058251Y0123471D01*
X0058308Y0123445D01*
X0058363Y0123415D01*
X0058416Y0123382D01*
X0058467Y0123346D01*
X0058515Y0123307D01*
X0058561Y0123264D01*
X0058604Y0123219D01*
X0058644Y0123171D01*
X0058681Y0123121D01*
X0058715Y0123068D01*
X0058746Y0123014D01*
X0058772Y0122958D01*
X0058796Y0122900D01*
X0058815Y0122840D01*
X0058831Y0122780D01*
X0058843Y0122718D01*
X0058851Y0122657D01*
X0058855Y0122594D01*
X0058855Y0122532D01*
X0058851Y0122469D01*
X0058843Y0122408D01*
X0058831Y0122346D01*
X0058815Y0122286D01*
X0058796Y0122226D01*
X0058772Y0122168D01*
X0058746Y0122112D01*
X0058715Y0122058D01*
X0058681Y0122005D01*
X0058644Y0121955D01*
X0058604Y0121907D01*
X0058561Y0121862D01*
X0058515Y0121819D01*
X0058467Y0121780D01*
X0058416Y0121744D01*
X0058363Y0121711D01*
X0058308Y0121681D01*
X0058251Y0121655D01*
X0058193Y0121633D01*
X0058133Y0121615D01*
X0058073Y0121600D01*
X0058011Y0121589D01*
X0057949Y0121582D01*
X0057887Y0121579D01*
X0057824Y0121580D01*
X0057762Y0121585D01*
X0057700Y0121594D01*
X0057639Y0121607D01*
X0057579Y0121623D01*
X0057520Y0121644D01*
X0057462Y0121668D01*
X0057406Y0121696D01*
X0057352Y0121727D01*
X0057300Y0121761D01*
X0057251Y0121799D01*
X0057203Y0121840D01*
X0057159Y0121884D01*
X0057117Y0121930D01*
X0057079Y0121980D01*
X0057043Y0122031D01*
X0057011Y0122085D01*
X0056983Y0122140D01*
X0056957Y0122197D01*
X0056936Y0122256D01*
X0056919Y0122316D01*
X0056905Y0122377D01*
X0056895Y0122438D01*
X0056889Y0122501D01*
X0056887Y0122563D01*
X0052458Y0122563D02*
X0052460Y0122625D01*
X0052466Y0122688D01*
X0052476Y0122749D01*
X0052490Y0122810D01*
X0052507Y0122870D01*
X0052528Y0122929D01*
X0052554Y0122986D01*
X0052582Y0123041D01*
X0052614Y0123095D01*
X0052650Y0123146D01*
X0052688Y0123196D01*
X0052730Y0123242D01*
X0052774Y0123286D01*
X0052822Y0123327D01*
X0052871Y0123365D01*
X0052923Y0123399D01*
X0052977Y0123430D01*
X0053033Y0123458D01*
X0053091Y0123482D01*
X0053150Y0123503D01*
X0053210Y0123519D01*
X0053271Y0123532D01*
X0053333Y0123541D01*
X0053395Y0123546D01*
X0053458Y0123547D01*
X0053520Y0123544D01*
X0053582Y0123537D01*
X0053644Y0123526D01*
X0053704Y0123511D01*
X0053764Y0123493D01*
X0053822Y0123471D01*
X0053879Y0123445D01*
X0053934Y0123415D01*
X0053987Y0123382D01*
X0054038Y0123346D01*
X0054086Y0123307D01*
X0054132Y0123264D01*
X0054175Y0123219D01*
X0054215Y0123171D01*
X0054252Y0123121D01*
X0054286Y0123068D01*
X0054317Y0123014D01*
X0054343Y0122958D01*
X0054367Y0122900D01*
X0054386Y0122840D01*
X0054402Y0122780D01*
X0054414Y0122718D01*
X0054422Y0122657D01*
X0054426Y0122594D01*
X0054426Y0122532D01*
X0054422Y0122469D01*
X0054414Y0122408D01*
X0054402Y0122346D01*
X0054386Y0122286D01*
X0054367Y0122226D01*
X0054343Y0122168D01*
X0054317Y0122112D01*
X0054286Y0122058D01*
X0054252Y0122005D01*
X0054215Y0121955D01*
X0054175Y0121907D01*
X0054132Y0121862D01*
X0054086Y0121819D01*
X0054038Y0121780D01*
X0053987Y0121744D01*
X0053934Y0121711D01*
X0053879Y0121681D01*
X0053822Y0121655D01*
X0053764Y0121633D01*
X0053704Y0121615D01*
X0053644Y0121600D01*
X0053582Y0121589D01*
X0053520Y0121582D01*
X0053458Y0121579D01*
X0053395Y0121580D01*
X0053333Y0121585D01*
X0053271Y0121594D01*
X0053210Y0121607D01*
X0053150Y0121623D01*
X0053091Y0121644D01*
X0053033Y0121668D01*
X0052977Y0121696D01*
X0052923Y0121727D01*
X0052871Y0121761D01*
X0052822Y0121799D01*
X0052774Y0121840D01*
X0052730Y0121884D01*
X0052688Y0121930D01*
X0052650Y0121980D01*
X0052614Y0122031D01*
X0052582Y0122085D01*
X0052554Y0122140D01*
X0052528Y0122197D01*
X0052507Y0122256D01*
X0052490Y0122316D01*
X0052476Y0122377D01*
X0052466Y0122438D01*
X0052460Y0122501D01*
X0052458Y0122563D01*
X0048028Y0122563D02*
X0048030Y0122625D01*
X0048036Y0122688D01*
X0048046Y0122749D01*
X0048060Y0122810D01*
X0048077Y0122870D01*
X0048098Y0122929D01*
X0048124Y0122986D01*
X0048152Y0123041D01*
X0048184Y0123095D01*
X0048220Y0123146D01*
X0048258Y0123196D01*
X0048300Y0123242D01*
X0048344Y0123286D01*
X0048392Y0123327D01*
X0048441Y0123365D01*
X0048493Y0123399D01*
X0048547Y0123430D01*
X0048603Y0123458D01*
X0048661Y0123482D01*
X0048720Y0123503D01*
X0048780Y0123519D01*
X0048841Y0123532D01*
X0048903Y0123541D01*
X0048965Y0123546D01*
X0049028Y0123547D01*
X0049090Y0123544D01*
X0049152Y0123537D01*
X0049214Y0123526D01*
X0049274Y0123511D01*
X0049334Y0123493D01*
X0049392Y0123471D01*
X0049449Y0123445D01*
X0049504Y0123415D01*
X0049557Y0123382D01*
X0049608Y0123346D01*
X0049656Y0123307D01*
X0049702Y0123264D01*
X0049745Y0123219D01*
X0049785Y0123171D01*
X0049822Y0123121D01*
X0049856Y0123068D01*
X0049887Y0123014D01*
X0049913Y0122958D01*
X0049937Y0122900D01*
X0049956Y0122840D01*
X0049972Y0122780D01*
X0049984Y0122718D01*
X0049992Y0122657D01*
X0049996Y0122594D01*
X0049996Y0122532D01*
X0049992Y0122469D01*
X0049984Y0122408D01*
X0049972Y0122346D01*
X0049956Y0122286D01*
X0049937Y0122226D01*
X0049913Y0122168D01*
X0049887Y0122112D01*
X0049856Y0122058D01*
X0049822Y0122005D01*
X0049785Y0121955D01*
X0049745Y0121907D01*
X0049702Y0121862D01*
X0049656Y0121819D01*
X0049608Y0121780D01*
X0049557Y0121744D01*
X0049504Y0121711D01*
X0049449Y0121681D01*
X0049392Y0121655D01*
X0049334Y0121633D01*
X0049274Y0121615D01*
X0049214Y0121600D01*
X0049152Y0121589D01*
X0049090Y0121582D01*
X0049028Y0121579D01*
X0048965Y0121580D01*
X0048903Y0121585D01*
X0048841Y0121594D01*
X0048780Y0121607D01*
X0048720Y0121623D01*
X0048661Y0121644D01*
X0048603Y0121668D01*
X0048547Y0121696D01*
X0048493Y0121727D01*
X0048441Y0121761D01*
X0048392Y0121799D01*
X0048344Y0121840D01*
X0048300Y0121884D01*
X0048258Y0121930D01*
X0048220Y0121980D01*
X0048184Y0122031D01*
X0048152Y0122085D01*
X0048124Y0122140D01*
X0048098Y0122197D01*
X0048077Y0122256D01*
X0048060Y0122316D01*
X0048046Y0122377D01*
X0048036Y0122438D01*
X0048030Y0122501D01*
X0048028Y0122563D01*
X0140548Y0122563D02*
X0140550Y0122625D01*
X0140556Y0122688D01*
X0140566Y0122749D01*
X0140580Y0122810D01*
X0140597Y0122870D01*
X0140618Y0122929D01*
X0140644Y0122986D01*
X0140672Y0123041D01*
X0140704Y0123095D01*
X0140740Y0123146D01*
X0140778Y0123196D01*
X0140820Y0123242D01*
X0140864Y0123286D01*
X0140912Y0123327D01*
X0140961Y0123365D01*
X0141013Y0123399D01*
X0141067Y0123430D01*
X0141123Y0123458D01*
X0141181Y0123482D01*
X0141240Y0123503D01*
X0141300Y0123519D01*
X0141361Y0123532D01*
X0141423Y0123541D01*
X0141485Y0123546D01*
X0141548Y0123547D01*
X0141610Y0123544D01*
X0141672Y0123537D01*
X0141734Y0123526D01*
X0141794Y0123511D01*
X0141854Y0123493D01*
X0141912Y0123471D01*
X0141969Y0123445D01*
X0142024Y0123415D01*
X0142077Y0123382D01*
X0142128Y0123346D01*
X0142176Y0123307D01*
X0142222Y0123264D01*
X0142265Y0123219D01*
X0142305Y0123171D01*
X0142342Y0123121D01*
X0142376Y0123068D01*
X0142407Y0123014D01*
X0142433Y0122958D01*
X0142457Y0122900D01*
X0142476Y0122840D01*
X0142492Y0122780D01*
X0142504Y0122718D01*
X0142512Y0122657D01*
X0142516Y0122594D01*
X0142516Y0122532D01*
X0142512Y0122469D01*
X0142504Y0122408D01*
X0142492Y0122346D01*
X0142476Y0122286D01*
X0142457Y0122226D01*
X0142433Y0122168D01*
X0142407Y0122112D01*
X0142376Y0122058D01*
X0142342Y0122005D01*
X0142305Y0121955D01*
X0142265Y0121907D01*
X0142222Y0121862D01*
X0142176Y0121819D01*
X0142128Y0121780D01*
X0142077Y0121744D01*
X0142024Y0121711D01*
X0141969Y0121681D01*
X0141912Y0121655D01*
X0141854Y0121633D01*
X0141794Y0121615D01*
X0141734Y0121600D01*
X0141672Y0121589D01*
X0141610Y0121582D01*
X0141548Y0121579D01*
X0141485Y0121580D01*
X0141423Y0121585D01*
X0141361Y0121594D01*
X0141300Y0121607D01*
X0141240Y0121623D01*
X0141181Y0121644D01*
X0141123Y0121668D01*
X0141067Y0121696D01*
X0141013Y0121727D01*
X0140961Y0121761D01*
X0140912Y0121799D01*
X0140864Y0121840D01*
X0140820Y0121884D01*
X0140778Y0121930D01*
X0140740Y0121980D01*
X0140704Y0122031D01*
X0140672Y0122085D01*
X0140644Y0122140D01*
X0140618Y0122197D01*
X0140597Y0122256D01*
X0140580Y0122316D01*
X0140566Y0122377D01*
X0140556Y0122438D01*
X0140550Y0122501D01*
X0140548Y0122563D01*
X0144977Y0122563D02*
X0144979Y0122625D01*
X0144985Y0122688D01*
X0144995Y0122749D01*
X0145009Y0122810D01*
X0145026Y0122870D01*
X0145047Y0122929D01*
X0145073Y0122986D01*
X0145101Y0123041D01*
X0145133Y0123095D01*
X0145169Y0123146D01*
X0145207Y0123196D01*
X0145249Y0123242D01*
X0145293Y0123286D01*
X0145341Y0123327D01*
X0145390Y0123365D01*
X0145442Y0123399D01*
X0145496Y0123430D01*
X0145552Y0123458D01*
X0145610Y0123482D01*
X0145669Y0123503D01*
X0145729Y0123519D01*
X0145790Y0123532D01*
X0145852Y0123541D01*
X0145914Y0123546D01*
X0145977Y0123547D01*
X0146039Y0123544D01*
X0146101Y0123537D01*
X0146163Y0123526D01*
X0146223Y0123511D01*
X0146283Y0123493D01*
X0146341Y0123471D01*
X0146398Y0123445D01*
X0146453Y0123415D01*
X0146506Y0123382D01*
X0146557Y0123346D01*
X0146605Y0123307D01*
X0146651Y0123264D01*
X0146694Y0123219D01*
X0146734Y0123171D01*
X0146771Y0123121D01*
X0146805Y0123068D01*
X0146836Y0123014D01*
X0146862Y0122958D01*
X0146886Y0122900D01*
X0146905Y0122840D01*
X0146921Y0122780D01*
X0146933Y0122718D01*
X0146941Y0122657D01*
X0146945Y0122594D01*
X0146945Y0122532D01*
X0146941Y0122469D01*
X0146933Y0122408D01*
X0146921Y0122346D01*
X0146905Y0122286D01*
X0146886Y0122226D01*
X0146862Y0122168D01*
X0146836Y0122112D01*
X0146805Y0122058D01*
X0146771Y0122005D01*
X0146734Y0121955D01*
X0146694Y0121907D01*
X0146651Y0121862D01*
X0146605Y0121819D01*
X0146557Y0121780D01*
X0146506Y0121744D01*
X0146453Y0121711D01*
X0146398Y0121681D01*
X0146341Y0121655D01*
X0146283Y0121633D01*
X0146223Y0121615D01*
X0146163Y0121600D01*
X0146101Y0121589D01*
X0146039Y0121582D01*
X0145977Y0121579D01*
X0145914Y0121580D01*
X0145852Y0121585D01*
X0145790Y0121594D01*
X0145729Y0121607D01*
X0145669Y0121623D01*
X0145610Y0121644D01*
X0145552Y0121668D01*
X0145496Y0121696D01*
X0145442Y0121727D01*
X0145390Y0121761D01*
X0145341Y0121799D01*
X0145293Y0121840D01*
X0145249Y0121884D01*
X0145207Y0121930D01*
X0145169Y0121980D01*
X0145133Y0122031D01*
X0145101Y0122085D01*
X0145073Y0122140D01*
X0145047Y0122197D01*
X0145026Y0122256D01*
X0145009Y0122316D01*
X0144995Y0122377D01*
X0144985Y0122438D01*
X0144979Y0122501D01*
X0144977Y0122563D01*
X0149406Y0122563D02*
X0149408Y0122625D01*
X0149414Y0122688D01*
X0149424Y0122749D01*
X0149438Y0122810D01*
X0149455Y0122870D01*
X0149476Y0122929D01*
X0149502Y0122986D01*
X0149530Y0123041D01*
X0149562Y0123095D01*
X0149598Y0123146D01*
X0149636Y0123196D01*
X0149678Y0123242D01*
X0149722Y0123286D01*
X0149770Y0123327D01*
X0149819Y0123365D01*
X0149871Y0123399D01*
X0149925Y0123430D01*
X0149981Y0123458D01*
X0150039Y0123482D01*
X0150098Y0123503D01*
X0150158Y0123519D01*
X0150219Y0123532D01*
X0150281Y0123541D01*
X0150343Y0123546D01*
X0150406Y0123547D01*
X0150468Y0123544D01*
X0150530Y0123537D01*
X0150592Y0123526D01*
X0150652Y0123511D01*
X0150712Y0123493D01*
X0150770Y0123471D01*
X0150827Y0123445D01*
X0150882Y0123415D01*
X0150935Y0123382D01*
X0150986Y0123346D01*
X0151034Y0123307D01*
X0151080Y0123264D01*
X0151123Y0123219D01*
X0151163Y0123171D01*
X0151200Y0123121D01*
X0151234Y0123068D01*
X0151265Y0123014D01*
X0151291Y0122958D01*
X0151315Y0122900D01*
X0151334Y0122840D01*
X0151350Y0122780D01*
X0151362Y0122718D01*
X0151370Y0122657D01*
X0151374Y0122594D01*
X0151374Y0122532D01*
X0151370Y0122469D01*
X0151362Y0122408D01*
X0151350Y0122346D01*
X0151334Y0122286D01*
X0151315Y0122226D01*
X0151291Y0122168D01*
X0151265Y0122112D01*
X0151234Y0122058D01*
X0151200Y0122005D01*
X0151163Y0121955D01*
X0151123Y0121907D01*
X0151080Y0121862D01*
X0151034Y0121819D01*
X0150986Y0121780D01*
X0150935Y0121744D01*
X0150882Y0121711D01*
X0150827Y0121681D01*
X0150770Y0121655D01*
X0150712Y0121633D01*
X0150652Y0121615D01*
X0150592Y0121600D01*
X0150530Y0121589D01*
X0150468Y0121582D01*
X0150406Y0121579D01*
X0150343Y0121580D01*
X0150281Y0121585D01*
X0150219Y0121594D01*
X0150158Y0121607D01*
X0150098Y0121623D01*
X0150039Y0121644D01*
X0149981Y0121668D01*
X0149925Y0121696D01*
X0149871Y0121727D01*
X0149819Y0121761D01*
X0149770Y0121799D01*
X0149722Y0121840D01*
X0149678Y0121884D01*
X0149636Y0121930D01*
X0149598Y0121980D01*
X0149562Y0122031D01*
X0149530Y0122085D01*
X0149502Y0122140D01*
X0149476Y0122197D01*
X0149455Y0122256D01*
X0149438Y0122316D01*
X0149424Y0122377D01*
X0149414Y0122438D01*
X0149408Y0122501D01*
X0149406Y0122563D01*
X0153836Y0122563D02*
X0153838Y0122625D01*
X0153844Y0122688D01*
X0153854Y0122749D01*
X0153868Y0122810D01*
X0153885Y0122870D01*
X0153906Y0122929D01*
X0153932Y0122986D01*
X0153960Y0123041D01*
X0153992Y0123095D01*
X0154028Y0123146D01*
X0154066Y0123196D01*
X0154108Y0123242D01*
X0154152Y0123286D01*
X0154200Y0123327D01*
X0154249Y0123365D01*
X0154301Y0123399D01*
X0154355Y0123430D01*
X0154411Y0123458D01*
X0154469Y0123482D01*
X0154528Y0123503D01*
X0154588Y0123519D01*
X0154649Y0123532D01*
X0154711Y0123541D01*
X0154773Y0123546D01*
X0154836Y0123547D01*
X0154898Y0123544D01*
X0154960Y0123537D01*
X0155022Y0123526D01*
X0155082Y0123511D01*
X0155142Y0123493D01*
X0155200Y0123471D01*
X0155257Y0123445D01*
X0155312Y0123415D01*
X0155365Y0123382D01*
X0155416Y0123346D01*
X0155464Y0123307D01*
X0155510Y0123264D01*
X0155553Y0123219D01*
X0155593Y0123171D01*
X0155630Y0123121D01*
X0155664Y0123068D01*
X0155695Y0123014D01*
X0155721Y0122958D01*
X0155745Y0122900D01*
X0155764Y0122840D01*
X0155780Y0122780D01*
X0155792Y0122718D01*
X0155800Y0122657D01*
X0155804Y0122594D01*
X0155804Y0122532D01*
X0155800Y0122469D01*
X0155792Y0122408D01*
X0155780Y0122346D01*
X0155764Y0122286D01*
X0155745Y0122226D01*
X0155721Y0122168D01*
X0155695Y0122112D01*
X0155664Y0122058D01*
X0155630Y0122005D01*
X0155593Y0121955D01*
X0155553Y0121907D01*
X0155510Y0121862D01*
X0155464Y0121819D01*
X0155416Y0121780D01*
X0155365Y0121744D01*
X0155312Y0121711D01*
X0155257Y0121681D01*
X0155200Y0121655D01*
X0155142Y0121633D01*
X0155082Y0121615D01*
X0155022Y0121600D01*
X0154960Y0121589D01*
X0154898Y0121582D01*
X0154836Y0121579D01*
X0154773Y0121580D01*
X0154711Y0121585D01*
X0154649Y0121594D01*
X0154588Y0121607D01*
X0154528Y0121623D01*
X0154469Y0121644D01*
X0154411Y0121668D01*
X0154355Y0121696D01*
X0154301Y0121727D01*
X0154249Y0121761D01*
X0154200Y0121799D01*
X0154152Y0121840D01*
X0154108Y0121884D01*
X0154066Y0121930D01*
X0154028Y0121980D01*
X0153992Y0122031D01*
X0153960Y0122085D01*
X0153932Y0122140D01*
X0153906Y0122197D01*
X0153885Y0122256D01*
X0153868Y0122316D01*
X0153854Y0122377D01*
X0153844Y0122438D01*
X0153838Y0122501D01*
X0153836Y0122563D01*
X0158265Y0122563D02*
X0158267Y0122625D01*
X0158273Y0122688D01*
X0158283Y0122749D01*
X0158297Y0122810D01*
X0158314Y0122870D01*
X0158335Y0122929D01*
X0158361Y0122986D01*
X0158389Y0123041D01*
X0158421Y0123095D01*
X0158457Y0123146D01*
X0158495Y0123196D01*
X0158537Y0123242D01*
X0158581Y0123286D01*
X0158629Y0123327D01*
X0158678Y0123365D01*
X0158730Y0123399D01*
X0158784Y0123430D01*
X0158840Y0123458D01*
X0158898Y0123482D01*
X0158957Y0123503D01*
X0159017Y0123519D01*
X0159078Y0123532D01*
X0159140Y0123541D01*
X0159202Y0123546D01*
X0159265Y0123547D01*
X0159327Y0123544D01*
X0159389Y0123537D01*
X0159451Y0123526D01*
X0159511Y0123511D01*
X0159571Y0123493D01*
X0159629Y0123471D01*
X0159686Y0123445D01*
X0159741Y0123415D01*
X0159794Y0123382D01*
X0159845Y0123346D01*
X0159893Y0123307D01*
X0159939Y0123264D01*
X0159982Y0123219D01*
X0160022Y0123171D01*
X0160059Y0123121D01*
X0160093Y0123068D01*
X0160124Y0123014D01*
X0160150Y0122958D01*
X0160174Y0122900D01*
X0160193Y0122840D01*
X0160209Y0122780D01*
X0160221Y0122718D01*
X0160229Y0122657D01*
X0160233Y0122594D01*
X0160233Y0122532D01*
X0160229Y0122469D01*
X0160221Y0122408D01*
X0160209Y0122346D01*
X0160193Y0122286D01*
X0160174Y0122226D01*
X0160150Y0122168D01*
X0160124Y0122112D01*
X0160093Y0122058D01*
X0160059Y0122005D01*
X0160022Y0121955D01*
X0159982Y0121907D01*
X0159939Y0121862D01*
X0159893Y0121819D01*
X0159845Y0121780D01*
X0159794Y0121744D01*
X0159741Y0121711D01*
X0159686Y0121681D01*
X0159629Y0121655D01*
X0159571Y0121633D01*
X0159511Y0121615D01*
X0159451Y0121600D01*
X0159389Y0121589D01*
X0159327Y0121582D01*
X0159265Y0121579D01*
X0159202Y0121580D01*
X0159140Y0121585D01*
X0159078Y0121594D01*
X0159017Y0121607D01*
X0158957Y0121623D01*
X0158898Y0121644D01*
X0158840Y0121668D01*
X0158784Y0121696D01*
X0158730Y0121727D01*
X0158678Y0121761D01*
X0158629Y0121799D01*
X0158581Y0121840D01*
X0158537Y0121884D01*
X0158495Y0121930D01*
X0158457Y0121980D01*
X0158421Y0122031D01*
X0158389Y0122085D01*
X0158361Y0122140D01*
X0158335Y0122197D01*
X0158314Y0122256D01*
X0158297Y0122316D01*
X0158283Y0122377D01*
X0158273Y0122438D01*
X0158267Y0122501D01*
X0158265Y0122563D01*
X0158265Y0114689D02*
X0158267Y0114751D01*
X0158273Y0114814D01*
X0158283Y0114875D01*
X0158297Y0114936D01*
X0158314Y0114996D01*
X0158335Y0115055D01*
X0158361Y0115112D01*
X0158389Y0115167D01*
X0158421Y0115221D01*
X0158457Y0115272D01*
X0158495Y0115322D01*
X0158537Y0115368D01*
X0158581Y0115412D01*
X0158629Y0115453D01*
X0158678Y0115491D01*
X0158730Y0115525D01*
X0158784Y0115556D01*
X0158840Y0115584D01*
X0158898Y0115608D01*
X0158957Y0115629D01*
X0159017Y0115645D01*
X0159078Y0115658D01*
X0159140Y0115667D01*
X0159202Y0115672D01*
X0159265Y0115673D01*
X0159327Y0115670D01*
X0159389Y0115663D01*
X0159451Y0115652D01*
X0159511Y0115637D01*
X0159571Y0115619D01*
X0159629Y0115597D01*
X0159686Y0115571D01*
X0159741Y0115541D01*
X0159794Y0115508D01*
X0159845Y0115472D01*
X0159893Y0115433D01*
X0159939Y0115390D01*
X0159982Y0115345D01*
X0160022Y0115297D01*
X0160059Y0115247D01*
X0160093Y0115194D01*
X0160124Y0115140D01*
X0160150Y0115084D01*
X0160174Y0115026D01*
X0160193Y0114966D01*
X0160209Y0114906D01*
X0160221Y0114844D01*
X0160229Y0114783D01*
X0160233Y0114720D01*
X0160233Y0114658D01*
X0160229Y0114595D01*
X0160221Y0114534D01*
X0160209Y0114472D01*
X0160193Y0114412D01*
X0160174Y0114352D01*
X0160150Y0114294D01*
X0160124Y0114238D01*
X0160093Y0114184D01*
X0160059Y0114131D01*
X0160022Y0114081D01*
X0159982Y0114033D01*
X0159939Y0113988D01*
X0159893Y0113945D01*
X0159845Y0113906D01*
X0159794Y0113870D01*
X0159741Y0113837D01*
X0159686Y0113807D01*
X0159629Y0113781D01*
X0159571Y0113759D01*
X0159511Y0113741D01*
X0159451Y0113726D01*
X0159389Y0113715D01*
X0159327Y0113708D01*
X0159265Y0113705D01*
X0159202Y0113706D01*
X0159140Y0113711D01*
X0159078Y0113720D01*
X0159017Y0113733D01*
X0158957Y0113749D01*
X0158898Y0113770D01*
X0158840Y0113794D01*
X0158784Y0113822D01*
X0158730Y0113853D01*
X0158678Y0113887D01*
X0158629Y0113925D01*
X0158581Y0113966D01*
X0158537Y0114010D01*
X0158495Y0114056D01*
X0158457Y0114106D01*
X0158421Y0114157D01*
X0158389Y0114211D01*
X0158361Y0114266D01*
X0158335Y0114323D01*
X0158314Y0114382D01*
X0158297Y0114442D01*
X0158283Y0114503D01*
X0158273Y0114564D01*
X0158267Y0114627D01*
X0158265Y0114689D01*
X0153836Y0114689D02*
X0153838Y0114751D01*
X0153844Y0114814D01*
X0153854Y0114875D01*
X0153868Y0114936D01*
X0153885Y0114996D01*
X0153906Y0115055D01*
X0153932Y0115112D01*
X0153960Y0115167D01*
X0153992Y0115221D01*
X0154028Y0115272D01*
X0154066Y0115322D01*
X0154108Y0115368D01*
X0154152Y0115412D01*
X0154200Y0115453D01*
X0154249Y0115491D01*
X0154301Y0115525D01*
X0154355Y0115556D01*
X0154411Y0115584D01*
X0154469Y0115608D01*
X0154528Y0115629D01*
X0154588Y0115645D01*
X0154649Y0115658D01*
X0154711Y0115667D01*
X0154773Y0115672D01*
X0154836Y0115673D01*
X0154898Y0115670D01*
X0154960Y0115663D01*
X0155022Y0115652D01*
X0155082Y0115637D01*
X0155142Y0115619D01*
X0155200Y0115597D01*
X0155257Y0115571D01*
X0155312Y0115541D01*
X0155365Y0115508D01*
X0155416Y0115472D01*
X0155464Y0115433D01*
X0155510Y0115390D01*
X0155553Y0115345D01*
X0155593Y0115297D01*
X0155630Y0115247D01*
X0155664Y0115194D01*
X0155695Y0115140D01*
X0155721Y0115084D01*
X0155745Y0115026D01*
X0155764Y0114966D01*
X0155780Y0114906D01*
X0155792Y0114844D01*
X0155800Y0114783D01*
X0155804Y0114720D01*
X0155804Y0114658D01*
X0155800Y0114595D01*
X0155792Y0114534D01*
X0155780Y0114472D01*
X0155764Y0114412D01*
X0155745Y0114352D01*
X0155721Y0114294D01*
X0155695Y0114238D01*
X0155664Y0114184D01*
X0155630Y0114131D01*
X0155593Y0114081D01*
X0155553Y0114033D01*
X0155510Y0113988D01*
X0155464Y0113945D01*
X0155416Y0113906D01*
X0155365Y0113870D01*
X0155312Y0113837D01*
X0155257Y0113807D01*
X0155200Y0113781D01*
X0155142Y0113759D01*
X0155082Y0113741D01*
X0155022Y0113726D01*
X0154960Y0113715D01*
X0154898Y0113708D01*
X0154836Y0113705D01*
X0154773Y0113706D01*
X0154711Y0113711D01*
X0154649Y0113720D01*
X0154588Y0113733D01*
X0154528Y0113749D01*
X0154469Y0113770D01*
X0154411Y0113794D01*
X0154355Y0113822D01*
X0154301Y0113853D01*
X0154249Y0113887D01*
X0154200Y0113925D01*
X0154152Y0113966D01*
X0154108Y0114010D01*
X0154066Y0114056D01*
X0154028Y0114106D01*
X0153992Y0114157D01*
X0153960Y0114211D01*
X0153932Y0114266D01*
X0153906Y0114323D01*
X0153885Y0114382D01*
X0153868Y0114442D01*
X0153854Y0114503D01*
X0153844Y0114564D01*
X0153838Y0114627D01*
X0153836Y0114689D01*
X0149406Y0114689D02*
X0149408Y0114751D01*
X0149414Y0114814D01*
X0149424Y0114875D01*
X0149438Y0114936D01*
X0149455Y0114996D01*
X0149476Y0115055D01*
X0149502Y0115112D01*
X0149530Y0115167D01*
X0149562Y0115221D01*
X0149598Y0115272D01*
X0149636Y0115322D01*
X0149678Y0115368D01*
X0149722Y0115412D01*
X0149770Y0115453D01*
X0149819Y0115491D01*
X0149871Y0115525D01*
X0149925Y0115556D01*
X0149981Y0115584D01*
X0150039Y0115608D01*
X0150098Y0115629D01*
X0150158Y0115645D01*
X0150219Y0115658D01*
X0150281Y0115667D01*
X0150343Y0115672D01*
X0150406Y0115673D01*
X0150468Y0115670D01*
X0150530Y0115663D01*
X0150592Y0115652D01*
X0150652Y0115637D01*
X0150712Y0115619D01*
X0150770Y0115597D01*
X0150827Y0115571D01*
X0150882Y0115541D01*
X0150935Y0115508D01*
X0150986Y0115472D01*
X0151034Y0115433D01*
X0151080Y0115390D01*
X0151123Y0115345D01*
X0151163Y0115297D01*
X0151200Y0115247D01*
X0151234Y0115194D01*
X0151265Y0115140D01*
X0151291Y0115084D01*
X0151315Y0115026D01*
X0151334Y0114966D01*
X0151350Y0114906D01*
X0151362Y0114844D01*
X0151370Y0114783D01*
X0151374Y0114720D01*
X0151374Y0114658D01*
X0151370Y0114595D01*
X0151362Y0114534D01*
X0151350Y0114472D01*
X0151334Y0114412D01*
X0151315Y0114352D01*
X0151291Y0114294D01*
X0151265Y0114238D01*
X0151234Y0114184D01*
X0151200Y0114131D01*
X0151163Y0114081D01*
X0151123Y0114033D01*
X0151080Y0113988D01*
X0151034Y0113945D01*
X0150986Y0113906D01*
X0150935Y0113870D01*
X0150882Y0113837D01*
X0150827Y0113807D01*
X0150770Y0113781D01*
X0150712Y0113759D01*
X0150652Y0113741D01*
X0150592Y0113726D01*
X0150530Y0113715D01*
X0150468Y0113708D01*
X0150406Y0113705D01*
X0150343Y0113706D01*
X0150281Y0113711D01*
X0150219Y0113720D01*
X0150158Y0113733D01*
X0150098Y0113749D01*
X0150039Y0113770D01*
X0149981Y0113794D01*
X0149925Y0113822D01*
X0149871Y0113853D01*
X0149819Y0113887D01*
X0149770Y0113925D01*
X0149722Y0113966D01*
X0149678Y0114010D01*
X0149636Y0114056D01*
X0149598Y0114106D01*
X0149562Y0114157D01*
X0149530Y0114211D01*
X0149502Y0114266D01*
X0149476Y0114323D01*
X0149455Y0114382D01*
X0149438Y0114442D01*
X0149424Y0114503D01*
X0149414Y0114564D01*
X0149408Y0114627D01*
X0149406Y0114689D01*
X0144977Y0114689D02*
X0144979Y0114751D01*
X0144985Y0114814D01*
X0144995Y0114875D01*
X0145009Y0114936D01*
X0145026Y0114996D01*
X0145047Y0115055D01*
X0145073Y0115112D01*
X0145101Y0115167D01*
X0145133Y0115221D01*
X0145169Y0115272D01*
X0145207Y0115322D01*
X0145249Y0115368D01*
X0145293Y0115412D01*
X0145341Y0115453D01*
X0145390Y0115491D01*
X0145442Y0115525D01*
X0145496Y0115556D01*
X0145552Y0115584D01*
X0145610Y0115608D01*
X0145669Y0115629D01*
X0145729Y0115645D01*
X0145790Y0115658D01*
X0145852Y0115667D01*
X0145914Y0115672D01*
X0145977Y0115673D01*
X0146039Y0115670D01*
X0146101Y0115663D01*
X0146163Y0115652D01*
X0146223Y0115637D01*
X0146283Y0115619D01*
X0146341Y0115597D01*
X0146398Y0115571D01*
X0146453Y0115541D01*
X0146506Y0115508D01*
X0146557Y0115472D01*
X0146605Y0115433D01*
X0146651Y0115390D01*
X0146694Y0115345D01*
X0146734Y0115297D01*
X0146771Y0115247D01*
X0146805Y0115194D01*
X0146836Y0115140D01*
X0146862Y0115084D01*
X0146886Y0115026D01*
X0146905Y0114966D01*
X0146921Y0114906D01*
X0146933Y0114844D01*
X0146941Y0114783D01*
X0146945Y0114720D01*
X0146945Y0114658D01*
X0146941Y0114595D01*
X0146933Y0114534D01*
X0146921Y0114472D01*
X0146905Y0114412D01*
X0146886Y0114352D01*
X0146862Y0114294D01*
X0146836Y0114238D01*
X0146805Y0114184D01*
X0146771Y0114131D01*
X0146734Y0114081D01*
X0146694Y0114033D01*
X0146651Y0113988D01*
X0146605Y0113945D01*
X0146557Y0113906D01*
X0146506Y0113870D01*
X0146453Y0113837D01*
X0146398Y0113807D01*
X0146341Y0113781D01*
X0146283Y0113759D01*
X0146223Y0113741D01*
X0146163Y0113726D01*
X0146101Y0113715D01*
X0146039Y0113708D01*
X0145977Y0113705D01*
X0145914Y0113706D01*
X0145852Y0113711D01*
X0145790Y0113720D01*
X0145729Y0113733D01*
X0145669Y0113749D01*
X0145610Y0113770D01*
X0145552Y0113794D01*
X0145496Y0113822D01*
X0145442Y0113853D01*
X0145390Y0113887D01*
X0145341Y0113925D01*
X0145293Y0113966D01*
X0145249Y0114010D01*
X0145207Y0114056D01*
X0145169Y0114106D01*
X0145133Y0114157D01*
X0145101Y0114211D01*
X0145073Y0114266D01*
X0145047Y0114323D01*
X0145026Y0114382D01*
X0145009Y0114442D01*
X0144995Y0114503D01*
X0144985Y0114564D01*
X0144979Y0114627D01*
X0144977Y0114689D01*
X0140548Y0114689D02*
X0140550Y0114751D01*
X0140556Y0114814D01*
X0140566Y0114875D01*
X0140580Y0114936D01*
X0140597Y0114996D01*
X0140618Y0115055D01*
X0140644Y0115112D01*
X0140672Y0115167D01*
X0140704Y0115221D01*
X0140740Y0115272D01*
X0140778Y0115322D01*
X0140820Y0115368D01*
X0140864Y0115412D01*
X0140912Y0115453D01*
X0140961Y0115491D01*
X0141013Y0115525D01*
X0141067Y0115556D01*
X0141123Y0115584D01*
X0141181Y0115608D01*
X0141240Y0115629D01*
X0141300Y0115645D01*
X0141361Y0115658D01*
X0141423Y0115667D01*
X0141485Y0115672D01*
X0141548Y0115673D01*
X0141610Y0115670D01*
X0141672Y0115663D01*
X0141734Y0115652D01*
X0141794Y0115637D01*
X0141854Y0115619D01*
X0141912Y0115597D01*
X0141969Y0115571D01*
X0142024Y0115541D01*
X0142077Y0115508D01*
X0142128Y0115472D01*
X0142176Y0115433D01*
X0142222Y0115390D01*
X0142265Y0115345D01*
X0142305Y0115297D01*
X0142342Y0115247D01*
X0142376Y0115194D01*
X0142407Y0115140D01*
X0142433Y0115084D01*
X0142457Y0115026D01*
X0142476Y0114966D01*
X0142492Y0114906D01*
X0142504Y0114844D01*
X0142512Y0114783D01*
X0142516Y0114720D01*
X0142516Y0114658D01*
X0142512Y0114595D01*
X0142504Y0114534D01*
X0142492Y0114472D01*
X0142476Y0114412D01*
X0142457Y0114352D01*
X0142433Y0114294D01*
X0142407Y0114238D01*
X0142376Y0114184D01*
X0142342Y0114131D01*
X0142305Y0114081D01*
X0142265Y0114033D01*
X0142222Y0113988D01*
X0142176Y0113945D01*
X0142128Y0113906D01*
X0142077Y0113870D01*
X0142024Y0113837D01*
X0141969Y0113807D01*
X0141912Y0113781D01*
X0141854Y0113759D01*
X0141794Y0113741D01*
X0141734Y0113726D01*
X0141672Y0113715D01*
X0141610Y0113708D01*
X0141548Y0113705D01*
X0141485Y0113706D01*
X0141423Y0113711D01*
X0141361Y0113720D01*
X0141300Y0113733D01*
X0141240Y0113749D01*
X0141181Y0113770D01*
X0141123Y0113794D01*
X0141067Y0113822D01*
X0141013Y0113853D01*
X0140961Y0113887D01*
X0140912Y0113925D01*
X0140864Y0113966D01*
X0140820Y0114010D01*
X0140778Y0114056D01*
X0140740Y0114106D01*
X0140704Y0114157D01*
X0140672Y0114211D01*
X0140644Y0114266D01*
X0140618Y0114323D01*
X0140597Y0114382D01*
X0140580Y0114442D01*
X0140566Y0114503D01*
X0140556Y0114564D01*
X0140550Y0114627D01*
X0140548Y0114689D01*
X0141786Y0036996D02*
X0141788Y0037084D01*
X0141794Y0037172D01*
X0141804Y0037260D01*
X0141818Y0037347D01*
X0141836Y0037433D01*
X0141857Y0037519D01*
X0141883Y0037603D01*
X0141912Y0037686D01*
X0141945Y0037768D01*
X0141982Y0037848D01*
X0142022Y0037927D01*
X0142066Y0038003D01*
X0142113Y0038078D01*
X0142164Y0038150D01*
X0142218Y0038220D01*
X0142274Y0038287D01*
X0142334Y0038352D01*
X0142397Y0038414D01*
X0142462Y0038473D01*
X0142530Y0038529D01*
X0142601Y0038582D01*
X0142674Y0038632D01*
X0142749Y0038678D01*
X0142826Y0038721D01*
X0142905Y0038761D01*
X0142985Y0038796D01*
X0143067Y0038829D01*
X0143151Y0038857D01*
X0143236Y0038881D01*
X0143321Y0038902D01*
X0143408Y0038919D01*
X0143495Y0038932D01*
X0143583Y0038941D01*
X0143671Y0038946D01*
X0143759Y0038947D01*
X0143847Y0038944D01*
X0143935Y0038937D01*
X0144023Y0038926D01*
X0144110Y0038911D01*
X0144196Y0038892D01*
X0144281Y0038870D01*
X0144365Y0038843D01*
X0144448Y0038813D01*
X0144529Y0038779D01*
X0144609Y0038741D01*
X0144687Y0038700D01*
X0144763Y0038655D01*
X0144837Y0038607D01*
X0144909Y0038556D01*
X0144978Y0038502D01*
X0145045Y0038444D01*
X0145109Y0038383D01*
X0145170Y0038320D01*
X0145228Y0038254D01*
X0145284Y0038185D01*
X0145336Y0038114D01*
X0145385Y0038041D01*
X0145430Y0037965D01*
X0145472Y0037888D01*
X0145511Y0037808D01*
X0145546Y0037727D01*
X0145577Y0037645D01*
X0145604Y0037561D01*
X0145628Y0037476D01*
X0145648Y0037390D01*
X0145664Y0037303D01*
X0145676Y0037216D01*
X0145684Y0037128D01*
X0145688Y0037040D01*
X0145688Y0036952D01*
X0145684Y0036864D01*
X0145676Y0036776D01*
X0145664Y0036689D01*
X0145648Y0036602D01*
X0145628Y0036516D01*
X0145604Y0036431D01*
X0145577Y0036347D01*
X0145546Y0036265D01*
X0145511Y0036184D01*
X0145472Y0036104D01*
X0145430Y0036027D01*
X0145385Y0035951D01*
X0145336Y0035878D01*
X0145284Y0035807D01*
X0145228Y0035738D01*
X0145170Y0035672D01*
X0145109Y0035609D01*
X0145045Y0035548D01*
X0144978Y0035490D01*
X0144909Y0035436D01*
X0144837Y0035385D01*
X0144763Y0035337D01*
X0144687Y0035292D01*
X0144609Y0035251D01*
X0144529Y0035213D01*
X0144448Y0035179D01*
X0144365Y0035149D01*
X0144281Y0035122D01*
X0144196Y0035100D01*
X0144110Y0035081D01*
X0144023Y0035066D01*
X0143935Y0035055D01*
X0143847Y0035048D01*
X0143759Y0035045D01*
X0143671Y0035046D01*
X0143583Y0035051D01*
X0143495Y0035060D01*
X0143408Y0035073D01*
X0143321Y0035090D01*
X0143236Y0035111D01*
X0143151Y0035135D01*
X0143067Y0035163D01*
X0142985Y0035196D01*
X0142905Y0035231D01*
X0142826Y0035271D01*
X0142749Y0035314D01*
X0142674Y0035360D01*
X0142601Y0035410D01*
X0142530Y0035463D01*
X0142462Y0035519D01*
X0142397Y0035578D01*
X0142334Y0035640D01*
X0142274Y0035705D01*
X0142218Y0035772D01*
X0142164Y0035842D01*
X0142113Y0035914D01*
X0142066Y0035989D01*
X0142022Y0036065D01*
X0141982Y0036144D01*
X0141945Y0036224D01*
X0141912Y0036306D01*
X0141883Y0036389D01*
X0141857Y0036473D01*
X0141836Y0036559D01*
X0141818Y0036645D01*
X0141804Y0036732D01*
X0141794Y0036820D01*
X0141788Y0036908D01*
X0141786Y0036996D01*
X0141786Y0028996D02*
X0141788Y0029084D01*
X0141794Y0029172D01*
X0141804Y0029260D01*
X0141818Y0029347D01*
X0141836Y0029433D01*
X0141857Y0029519D01*
X0141883Y0029603D01*
X0141912Y0029686D01*
X0141945Y0029768D01*
X0141982Y0029848D01*
X0142022Y0029927D01*
X0142066Y0030003D01*
X0142113Y0030078D01*
X0142164Y0030150D01*
X0142218Y0030220D01*
X0142274Y0030287D01*
X0142334Y0030352D01*
X0142397Y0030414D01*
X0142462Y0030473D01*
X0142530Y0030529D01*
X0142601Y0030582D01*
X0142674Y0030632D01*
X0142749Y0030678D01*
X0142826Y0030721D01*
X0142905Y0030761D01*
X0142985Y0030796D01*
X0143067Y0030829D01*
X0143151Y0030857D01*
X0143236Y0030881D01*
X0143321Y0030902D01*
X0143408Y0030919D01*
X0143495Y0030932D01*
X0143583Y0030941D01*
X0143671Y0030946D01*
X0143759Y0030947D01*
X0143847Y0030944D01*
X0143935Y0030937D01*
X0144023Y0030926D01*
X0144110Y0030911D01*
X0144196Y0030892D01*
X0144281Y0030870D01*
X0144365Y0030843D01*
X0144448Y0030813D01*
X0144529Y0030779D01*
X0144609Y0030741D01*
X0144687Y0030700D01*
X0144763Y0030655D01*
X0144837Y0030607D01*
X0144909Y0030556D01*
X0144978Y0030502D01*
X0145045Y0030444D01*
X0145109Y0030383D01*
X0145170Y0030320D01*
X0145228Y0030254D01*
X0145284Y0030185D01*
X0145336Y0030114D01*
X0145385Y0030041D01*
X0145430Y0029965D01*
X0145472Y0029888D01*
X0145511Y0029808D01*
X0145546Y0029727D01*
X0145577Y0029645D01*
X0145604Y0029561D01*
X0145628Y0029476D01*
X0145648Y0029390D01*
X0145664Y0029303D01*
X0145676Y0029216D01*
X0145684Y0029128D01*
X0145688Y0029040D01*
X0145688Y0028952D01*
X0145684Y0028864D01*
X0145676Y0028776D01*
X0145664Y0028689D01*
X0145648Y0028602D01*
X0145628Y0028516D01*
X0145604Y0028431D01*
X0145577Y0028347D01*
X0145546Y0028265D01*
X0145511Y0028184D01*
X0145472Y0028104D01*
X0145430Y0028027D01*
X0145385Y0027951D01*
X0145336Y0027878D01*
X0145284Y0027807D01*
X0145228Y0027738D01*
X0145170Y0027672D01*
X0145109Y0027609D01*
X0145045Y0027548D01*
X0144978Y0027490D01*
X0144909Y0027436D01*
X0144837Y0027385D01*
X0144763Y0027337D01*
X0144687Y0027292D01*
X0144609Y0027251D01*
X0144529Y0027213D01*
X0144448Y0027179D01*
X0144365Y0027149D01*
X0144281Y0027122D01*
X0144196Y0027100D01*
X0144110Y0027081D01*
X0144023Y0027066D01*
X0143935Y0027055D01*
X0143847Y0027048D01*
X0143759Y0027045D01*
X0143671Y0027046D01*
X0143583Y0027051D01*
X0143495Y0027060D01*
X0143408Y0027073D01*
X0143321Y0027090D01*
X0143236Y0027111D01*
X0143151Y0027135D01*
X0143067Y0027163D01*
X0142985Y0027196D01*
X0142905Y0027231D01*
X0142826Y0027271D01*
X0142749Y0027314D01*
X0142674Y0027360D01*
X0142601Y0027410D01*
X0142530Y0027463D01*
X0142462Y0027519D01*
X0142397Y0027578D01*
X0142334Y0027640D01*
X0142274Y0027705D01*
X0142218Y0027772D01*
X0142164Y0027842D01*
X0142113Y0027914D01*
X0142066Y0027989D01*
X0142022Y0028065D01*
X0141982Y0028144D01*
X0141945Y0028224D01*
X0141912Y0028306D01*
X0141883Y0028389D01*
X0141857Y0028473D01*
X0141836Y0028559D01*
X0141818Y0028645D01*
X0141804Y0028732D01*
X0141794Y0028820D01*
X0141788Y0028908D01*
X0141786Y0028996D01*
X0161786Y0032996D02*
X0161788Y0033084D01*
X0161794Y0033172D01*
X0161804Y0033260D01*
X0161818Y0033347D01*
X0161836Y0033433D01*
X0161857Y0033519D01*
X0161883Y0033603D01*
X0161912Y0033686D01*
X0161945Y0033768D01*
X0161982Y0033848D01*
X0162022Y0033927D01*
X0162066Y0034003D01*
X0162113Y0034078D01*
X0162164Y0034150D01*
X0162218Y0034220D01*
X0162274Y0034287D01*
X0162334Y0034352D01*
X0162397Y0034414D01*
X0162462Y0034473D01*
X0162530Y0034529D01*
X0162601Y0034582D01*
X0162674Y0034632D01*
X0162749Y0034678D01*
X0162826Y0034721D01*
X0162905Y0034761D01*
X0162985Y0034796D01*
X0163067Y0034829D01*
X0163151Y0034857D01*
X0163236Y0034881D01*
X0163321Y0034902D01*
X0163408Y0034919D01*
X0163495Y0034932D01*
X0163583Y0034941D01*
X0163671Y0034946D01*
X0163759Y0034947D01*
X0163847Y0034944D01*
X0163935Y0034937D01*
X0164023Y0034926D01*
X0164110Y0034911D01*
X0164196Y0034892D01*
X0164281Y0034870D01*
X0164365Y0034843D01*
X0164448Y0034813D01*
X0164529Y0034779D01*
X0164609Y0034741D01*
X0164687Y0034700D01*
X0164763Y0034655D01*
X0164837Y0034607D01*
X0164909Y0034556D01*
X0164978Y0034502D01*
X0165045Y0034444D01*
X0165109Y0034383D01*
X0165170Y0034320D01*
X0165228Y0034254D01*
X0165284Y0034185D01*
X0165336Y0034114D01*
X0165385Y0034041D01*
X0165430Y0033965D01*
X0165472Y0033888D01*
X0165511Y0033808D01*
X0165546Y0033727D01*
X0165577Y0033645D01*
X0165604Y0033561D01*
X0165628Y0033476D01*
X0165648Y0033390D01*
X0165664Y0033303D01*
X0165676Y0033216D01*
X0165684Y0033128D01*
X0165688Y0033040D01*
X0165688Y0032952D01*
X0165684Y0032864D01*
X0165676Y0032776D01*
X0165664Y0032689D01*
X0165648Y0032602D01*
X0165628Y0032516D01*
X0165604Y0032431D01*
X0165577Y0032347D01*
X0165546Y0032265D01*
X0165511Y0032184D01*
X0165472Y0032104D01*
X0165430Y0032027D01*
X0165385Y0031951D01*
X0165336Y0031878D01*
X0165284Y0031807D01*
X0165228Y0031738D01*
X0165170Y0031672D01*
X0165109Y0031609D01*
X0165045Y0031548D01*
X0164978Y0031490D01*
X0164909Y0031436D01*
X0164837Y0031385D01*
X0164763Y0031337D01*
X0164687Y0031292D01*
X0164609Y0031251D01*
X0164529Y0031213D01*
X0164448Y0031179D01*
X0164365Y0031149D01*
X0164281Y0031122D01*
X0164196Y0031100D01*
X0164110Y0031081D01*
X0164023Y0031066D01*
X0163935Y0031055D01*
X0163847Y0031048D01*
X0163759Y0031045D01*
X0163671Y0031046D01*
X0163583Y0031051D01*
X0163495Y0031060D01*
X0163408Y0031073D01*
X0163321Y0031090D01*
X0163236Y0031111D01*
X0163151Y0031135D01*
X0163067Y0031163D01*
X0162985Y0031196D01*
X0162905Y0031231D01*
X0162826Y0031271D01*
X0162749Y0031314D01*
X0162674Y0031360D01*
X0162601Y0031410D01*
X0162530Y0031463D01*
X0162462Y0031519D01*
X0162397Y0031578D01*
X0162334Y0031640D01*
X0162274Y0031705D01*
X0162218Y0031772D01*
X0162164Y0031842D01*
X0162113Y0031914D01*
X0162066Y0031989D01*
X0162022Y0032065D01*
X0161982Y0032144D01*
X0161945Y0032224D01*
X0161912Y0032306D01*
X0161883Y0032389D01*
X0161857Y0032473D01*
X0161836Y0032559D01*
X0161818Y0032645D01*
X0161804Y0032732D01*
X0161794Y0032820D01*
X0161788Y0032908D01*
X0161786Y0032996D01*
X0170666Y0365673D02*
X0170668Y0365804D01*
X0170674Y0365936D01*
X0170684Y0366067D01*
X0170698Y0366198D01*
X0170716Y0366328D01*
X0170738Y0366457D01*
X0170763Y0366586D01*
X0170793Y0366714D01*
X0170827Y0366841D01*
X0170864Y0366968D01*
X0170905Y0367092D01*
X0170950Y0367216D01*
X0170999Y0367338D01*
X0171051Y0367459D01*
X0171107Y0367577D01*
X0171167Y0367695D01*
X0171230Y0367810D01*
X0171297Y0367923D01*
X0171367Y0368035D01*
X0171440Y0368144D01*
X0171516Y0368250D01*
X0171596Y0368355D01*
X0171679Y0368457D01*
X0171765Y0368556D01*
X0171854Y0368653D01*
X0171946Y0368747D01*
X0172041Y0368838D01*
X0172138Y0368927D01*
X0172238Y0369012D01*
X0172341Y0369094D01*
X0172446Y0369173D01*
X0172553Y0369249D01*
X0172663Y0369321D01*
X0172775Y0369390D01*
X0172889Y0369456D01*
X0173004Y0369518D01*
X0173122Y0369577D01*
X0173241Y0369632D01*
X0173362Y0369684D01*
X0173485Y0369731D01*
X0173609Y0369775D01*
X0173734Y0369816D01*
X0173860Y0369852D01*
X0173988Y0369885D01*
X0174116Y0369913D01*
X0174245Y0369938D01*
X0174375Y0369959D01*
X0174505Y0369976D01*
X0174636Y0369989D01*
X0174767Y0369998D01*
X0174898Y0370003D01*
X0175030Y0370004D01*
X0175161Y0370001D01*
X0175293Y0369994D01*
X0175424Y0369983D01*
X0175554Y0369968D01*
X0175684Y0369949D01*
X0175814Y0369926D01*
X0175942Y0369900D01*
X0176070Y0369869D01*
X0176197Y0369834D01*
X0176323Y0369796D01*
X0176447Y0369754D01*
X0176571Y0369708D01*
X0176692Y0369658D01*
X0176812Y0369605D01*
X0176931Y0369548D01*
X0177048Y0369488D01*
X0177162Y0369424D01*
X0177275Y0369356D01*
X0177386Y0369285D01*
X0177495Y0369211D01*
X0177601Y0369134D01*
X0177705Y0369053D01*
X0177806Y0368970D01*
X0177905Y0368883D01*
X0178001Y0368793D01*
X0178094Y0368700D01*
X0178185Y0368605D01*
X0178272Y0368507D01*
X0178357Y0368406D01*
X0178438Y0368303D01*
X0178516Y0368197D01*
X0178591Y0368089D01*
X0178663Y0367979D01*
X0178731Y0367867D01*
X0178796Y0367753D01*
X0178857Y0367636D01*
X0178915Y0367518D01*
X0178969Y0367398D01*
X0179020Y0367277D01*
X0179067Y0367154D01*
X0179110Y0367030D01*
X0179149Y0366905D01*
X0179185Y0366778D01*
X0179216Y0366650D01*
X0179244Y0366522D01*
X0179268Y0366393D01*
X0179288Y0366263D01*
X0179304Y0366132D01*
X0179316Y0366001D01*
X0179324Y0365870D01*
X0179328Y0365739D01*
X0179328Y0365607D01*
X0179324Y0365476D01*
X0179316Y0365345D01*
X0179304Y0365214D01*
X0179288Y0365083D01*
X0179268Y0364953D01*
X0179244Y0364824D01*
X0179216Y0364696D01*
X0179185Y0364568D01*
X0179149Y0364441D01*
X0179110Y0364316D01*
X0179067Y0364192D01*
X0179020Y0364069D01*
X0178969Y0363948D01*
X0178915Y0363828D01*
X0178857Y0363710D01*
X0178796Y0363593D01*
X0178731Y0363479D01*
X0178663Y0363367D01*
X0178591Y0363257D01*
X0178516Y0363149D01*
X0178438Y0363043D01*
X0178357Y0362940D01*
X0178272Y0362839D01*
X0178185Y0362741D01*
X0178094Y0362646D01*
X0178001Y0362553D01*
X0177905Y0362463D01*
X0177806Y0362376D01*
X0177705Y0362293D01*
X0177601Y0362212D01*
X0177495Y0362135D01*
X0177386Y0362061D01*
X0177275Y0361990D01*
X0177163Y0361922D01*
X0177048Y0361858D01*
X0176931Y0361798D01*
X0176812Y0361741D01*
X0176692Y0361688D01*
X0176571Y0361638D01*
X0176447Y0361592D01*
X0176323Y0361550D01*
X0176197Y0361512D01*
X0176070Y0361477D01*
X0175942Y0361446D01*
X0175814Y0361420D01*
X0175684Y0361397D01*
X0175554Y0361378D01*
X0175424Y0361363D01*
X0175293Y0361352D01*
X0175161Y0361345D01*
X0175030Y0361342D01*
X0174898Y0361343D01*
X0174767Y0361348D01*
X0174636Y0361357D01*
X0174505Y0361370D01*
X0174375Y0361387D01*
X0174245Y0361408D01*
X0174116Y0361433D01*
X0173988Y0361461D01*
X0173860Y0361494D01*
X0173734Y0361530D01*
X0173609Y0361571D01*
X0173485Y0361615D01*
X0173362Y0361662D01*
X0173241Y0361714D01*
X0173122Y0361769D01*
X0173004Y0361828D01*
X0172889Y0361890D01*
X0172775Y0361956D01*
X0172663Y0362025D01*
X0172553Y0362097D01*
X0172446Y0362173D01*
X0172341Y0362252D01*
X0172238Y0362334D01*
X0172138Y0362419D01*
X0172041Y0362508D01*
X0171946Y0362599D01*
X0171854Y0362693D01*
X0171765Y0362790D01*
X0171679Y0362889D01*
X0171596Y0362991D01*
X0171516Y0363096D01*
X0171440Y0363202D01*
X0171367Y0363311D01*
X0171297Y0363423D01*
X0171230Y0363536D01*
X0171167Y0363651D01*
X0171107Y0363769D01*
X0171051Y0363887D01*
X0170999Y0364008D01*
X0170950Y0364130D01*
X0170905Y0364254D01*
X0170864Y0364378D01*
X0170827Y0364505D01*
X0170793Y0364632D01*
X0170763Y0364760D01*
X0170738Y0364889D01*
X0170716Y0365018D01*
X0170698Y0365148D01*
X0170684Y0365279D01*
X0170674Y0365410D01*
X0170668Y0365542D01*
X0170666Y0365673D01*
X0028933Y0365673D02*
X0028935Y0365804D01*
X0028941Y0365936D01*
X0028951Y0366067D01*
X0028965Y0366198D01*
X0028983Y0366328D01*
X0029005Y0366457D01*
X0029030Y0366586D01*
X0029060Y0366714D01*
X0029094Y0366841D01*
X0029131Y0366968D01*
X0029172Y0367092D01*
X0029217Y0367216D01*
X0029266Y0367338D01*
X0029318Y0367459D01*
X0029374Y0367577D01*
X0029434Y0367695D01*
X0029497Y0367810D01*
X0029564Y0367923D01*
X0029634Y0368035D01*
X0029707Y0368144D01*
X0029783Y0368250D01*
X0029863Y0368355D01*
X0029946Y0368457D01*
X0030032Y0368556D01*
X0030121Y0368653D01*
X0030213Y0368747D01*
X0030308Y0368838D01*
X0030405Y0368927D01*
X0030505Y0369012D01*
X0030608Y0369094D01*
X0030713Y0369173D01*
X0030820Y0369249D01*
X0030930Y0369321D01*
X0031042Y0369390D01*
X0031156Y0369456D01*
X0031271Y0369518D01*
X0031389Y0369577D01*
X0031508Y0369632D01*
X0031629Y0369684D01*
X0031752Y0369731D01*
X0031876Y0369775D01*
X0032001Y0369816D01*
X0032127Y0369852D01*
X0032255Y0369885D01*
X0032383Y0369913D01*
X0032512Y0369938D01*
X0032642Y0369959D01*
X0032772Y0369976D01*
X0032903Y0369989D01*
X0033034Y0369998D01*
X0033165Y0370003D01*
X0033297Y0370004D01*
X0033428Y0370001D01*
X0033560Y0369994D01*
X0033691Y0369983D01*
X0033821Y0369968D01*
X0033951Y0369949D01*
X0034081Y0369926D01*
X0034209Y0369900D01*
X0034337Y0369869D01*
X0034464Y0369834D01*
X0034590Y0369796D01*
X0034714Y0369754D01*
X0034838Y0369708D01*
X0034959Y0369658D01*
X0035079Y0369605D01*
X0035198Y0369548D01*
X0035315Y0369488D01*
X0035429Y0369424D01*
X0035542Y0369356D01*
X0035653Y0369285D01*
X0035762Y0369211D01*
X0035868Y0369134D01*
X0035972Y0369053D01*
X0036073Y0368970D01*
X0036172Y0368883D01*
X0036268Y0368793D01*
X0036361Y0368700D01*
X0036452Y0368605D01*
X0036539Y0368507D01*
X0036624Y0368406D01*
X0036705Y0368303D01*
X0036783Y0368197D01*
X0036858Y0368089D01*
X0036930Y0367979D01*
X0036998Y0367867D01*
X0037063Y0367753D01*
X0037124Y0367636D01*
X0037182Y0367518D01*
X0037236Y0367398D01*
X0037287Y0367277D01*
X0037334Y0367154D01*
X0037377Y0367030D01*
X0037416Y0366905D01*
X0037452Y0366778D01*
X0037483Y0366650D01*
X0037511Y0366522D01*
X0037535Y0366393D01*
X0037555Y0366263D01*
X0037571Y0366132D01*
X0037583Y0366001D01*
X0037591Y0365870D01*
X0037595Y0365739D01*
X0037595Y0365607D01*
X0037591Y0365476D01*
X0037583Y0365345D01*
X0037571Y0365214D01*
X0037555Y0365083D01*
X0037535Y0364953D01*
X0037511Y0364824D01*
X0037483Y0364696D01*
X0037452Y0364568D01*
X0037416Y0364441D01*
X0037377Y0364316D01*
X0037334Y0364192D01*
X0037287Y0364069D01*
X0037236Y0363948D01*
X0037182Y0363828D01*
X0037124Y0363710D01*
X0037063Y0363593D01*
X0036998Y0363479D01*
X0036930Y0363367D01*
X0036858Y0363257D01*
X0036783Y0363149D01*
X0036705Y0363043D01*
X0036624Y0362940D01*
X0036539Y0362839D01*
X0036452Y0362741D01*
X0036361Y0362646D01*
X0036268Y0362553D01*
X0036172Y0362463D01*
X0036073Y0362376D01*
X0035972Y0362293D01*
X0035868Y0362212D01*
X0035762Y0362135D01*
X0035653Y0362061D01*
X0035542Y0361990D01*
X0035430Y0361922D01*
X0035315Y0361858D01*
X0035198Y0361798D01*
X0035079Y0361741D01*
X0034959Y0361688D01*
X0034838Y0361638D01*
X0034714Y0361592D01*
X0034590Y0361550D01*
X0034464Y0361512D01*
X0034337Y0361477D01*
X0034209Y0361446D01*
X0034081Y0361420D01*
X0033951Y0361397D01*
X0033821Y0361378D01*
X0033691Y0361363D01*
X0033560Y0361352D01*
X0033428Y0361345D01*
X0033297Y0361342D01*
X0033165Y0361343D01*
X0033034Y0361348D01*
X0032903Y0361357D01*
X0032772Y0361370D01*
X0032642Y0361387D01*
X0032512Y0361408D01*
X0032383Y0361433D01*
X0032255Y0361461D01*
X0032127Y0361494D01*
X0032001Y0361530D01*
X0031876Y0361571D01*
X0031752Y0361615D01*
X0031629Y0361662D01*
X0031508Y0361714D01*
X0031389Y0361769D01*
X0031271Y0361828D01*
X0031156Y0361890D01*
X0031042Y0361956D01*
X0030930Y0362025D01*
X0030820Y0362097D01*
X0030713Y0362173D01*
X0030608Y0362252D01*
X0030505Y0362334D01*
X0030405Y0362419D01*
X0030308Y0362508D01*
X0030213Y0362599D01*
X0030121Y0362693D01*
X0030032Y0362790D01*
X0029946Y0362889D01*
X0029863Y0362991D01*
X0029783Y0363096D01*
X0029707Y0363202D01*
X0029634Y0363311D01*
X0029564Y0363423D01*
X0029497Y0363536D01*
X0029434Y0363651D01*
X0029374Y0363769D01*
X0029318Y0363887D01*
X0029266Y0364008D01*
X0029217Y0364130D01*
X0029172Y0364254D01*
X0029131Y0364378D01*
X0029094Y0364505D01*
X0029060Y0364632D01*
X0029030Y0364760D01*
X0029005Y0364889D01*
X0028983Y0365018D01*
X0028965Y0365148D01*
X0028951Y0365279D01*
X0028941Y0365410D01*
X0028935Y0365542D01*
X0028933Y0365673D01*
M02*
