G75*
%MOIN*%
%OFA0B0*%
%FSLAX25Y25*%
%IPPOS*%
%LPD*%
%AMOC8*
5,1,8,0,0,1.08239X$1,22.5*
%
%ADD10C,0.09161*%
%ADD11C,0.02469*%
%ADD12C,0.02681*%
%ADD13C,0.00500*%
%ADD14C,0.04402*%
%ADD15R,0.01300X0.01300*%
%ADD16C,0.00800*%
%ADD17C,0.06406*%
%ADD18C,0.10343*%
%ADD19R,0.14280X0.14280*%
%ADD20R,0.15067X0.12311*%
%ADD21R,0.14280X0.16642*%
%ADD22R,0.14280X0.23335*%
%ADD23R,0.24122X0.18217*%
%ADD24R,0.18217X0.11917*%
%ADD25R,0.18217X0.12311*%
%ADD26R,0.06799X0.07587*%
D10*
X0025784Y0009768D03*
X0025784Y0105437D03*
X0033264Y0365673D03*
X0174997Y0365673D03*
D11*
X0159249Y0122563D03*
X0154820Y0122563D03*
X0150390Y0122563D03*
X0145961Y0122563D03*
X0141532Y0122563D03*
X0141532Y0114689D03*
X0145961Y0114689D03*
X0150390Y0114689D03*
X0154820Y0114689D03*
X0159249Y0114689D03*
X0066729Y0114689D03*
X0062300Y0114689D03*
X0057871Y0114689D03*
X0053442Y0114689D03*
X0049012Y0114689D03*
X0049012Y0122563D03*
X0053442Y0122563D03*
X0057871Y0122563D03*
X0062300Y0122563D03*
X0066729Y0122563D03*
D12*
X0124209Y0065870D03*
X0124209Y0061146D03*
X0124209Y0056421D03*
X0124209Y0051697D03*
X0128934Y0051697D03*
X0128934Y0056421D03*
X0128934Y0061146D03*
X0128934Y0065870D03*
X0133658Y0065870D03*
X0133658Y0061146D03*
X0133658Y0056421D03*
X0133658Y0051697D03*
X0138383Y0051697D03*
X0138383Y0056421D03*
X0138383Y0061146D03*
X0138383Y0065870D03*
D13*
X0094879Y0061736D02*
X0094879Y0059768D01*
X0094485Y0058980D01*
X0094091Y0058587D01*
X0093304Y0058193D01*
X0092516Y0058193D01*
X0091729Y0058587D01*
X0091335Y0058980D01*
X0090942Y0059768D01*
X0090942Y0061736D01*
X0091335Y0062524D01*
X0091729Y0062917D01*
X0092516Y0063311D01*
X0093304Y0063311D01*
X0094091Y0062917D01*
X0094485Y0062524D01*
X0094879Y0061736D01*
X0094879Y0061667D02*
X0090942Y0061667D01*
X0090942Y0061168D02*
X0094879Y0061168D01*
X0094879Y0060670D02*
X0090942Y0060670D01*
X0090942Y0060171D02*
X0094879Y0060171D01*
X0094831Y0059673D02*
X0090989Y0059673D01*
X0091238Y0059174D02*
X0094582Y0059174D01*
X0094180Y0058676D02*
X0091640Y0058676D01*
X0092516Y0056028D02*
X0091729Y0055634D01*
X0091335Y0055240D01*
X0090942Y0054453D01*
X0090942Y0052484D01*
X0091335Y0051697D01*
X0091729Y0051303D01*
X0092516Y0050909D01*
X0093304Y0050909D01*
X0094091Y0051303D01*
X0094485Y0051697D01*
X0094879Y0052484D01*
X0094879Y0054453D01*
X0094485Y0055240D01*
X0094091Y0055634D01*
X0093304Y0056028D01*
X0092516Y0056028D01*
X0091830Y0055684D02*
X0093990Y0055684D01*
X0094512Y0055186D02*
X0091308Y0055186D01*
X0091059Y0054687D02*
X0094761Y0054687D01*
X0094879Y0054189D02*
X0090942Y0054189D01*
X0090942Y0053690D02*
X0094879Y0053690D01*
X0094879Y0053192D02*
X0090942Y0053192D01*
X0090942Y0052693D02*
X0094879Y0052693D01*
X0094734Y0052195D02*
X0091086Y0052195D01*
X0091336Y0051696D02*
X0094484Y0051696D01*
X0093881Y0051198D02*
X0091940Y0051198D01*
X0091156Y0062165D02*
X0094664Y0062165D01*
X0094345Y0062664D02*
X0091475Y0062664D01*
X0092219Y0063162D02*
X0093602Y0063162D01*
X0077162Y0042445D02*
X0077556Y0042051D01*
X0077949Y0041264D01*
X0077949Y0040476D01*
X0077556Y0039689D01*
X0077162Y0039295D01*
X0076375Y0038902D01*
X0074406Y0038902D01*
X0073619Y0039295D01*
X0073225Y0039689D01*
X0072831Y0040476D01*
X0072831Y0041264D01*
X0073225Y0042051D01*
X0073619Y0042445D01*
X0074406Y0042839D01*
X0076375Y0042839D01*
X0077162Y0042445D01*
X0077382Y0042225D02*
X0073399Y0042225D01*
X0073063Y0041726D02*
X0077718Y0041726D01*
X0077949Y0041228D02*
X0072831Y0041228D01*
X0072831Y0040729D02*
X0077949Y0040729D01*
X0077827Y0040231D02*
X0072954Y0040231D01*
X0073203Y0039732D02*
X0077577Y0039732D01*
X0077039Y0039234D02*
X0073742Y0039234D01*
X0074175Y0042723D02*
X0076605Y0042723D01*
X0070469Y0041264D02*
X0070469Y0040476D01*
X0070075Y0039689D01*
X0069682Y0039295D01*
X0068894Y0038902D01*
X0066926Y0038902D01*
X0066138Y0039295D01*
X0065745Y0039689D01*
X0065351Y0040476D01*
X0065351Y0041264D01*
X0065745Y0042051D01*
X0066138Y0042445D01*
X0066926Y0042839D01*
X0068894Y0042839D01*
X0069682Y0042445D01*
X0070075Y0042051D01*
X0070469Y0041264D01*
X0070469Y0041228D02*
X0065351Y0041228D01*
X0065351Y0040729D02*
X0070469Y0040729D01*
X0070346Y0040231D02*
X0065474Y0040231D01*
X0065723Y0039732D02*
X0070097Y0039732D01*
X0069558Y0039234D02*
X0066262Y0039234D01*
X0065582Y0041726D02*
X0070238Y0041726D01*
X0069902Y0042225D02*
X0065918Y0042225D01*
X0066695Y0042723D02*
X0069125Y0042723D01*
X0056886Y0041264D02*
X0056493Y0042051D01*
X0056099Y0042445D01*
X0055312Y0042839D01*
X0053343Y0042839D01*
X0052556Y0042445D01*
X0052162Y0042051D01*
X0051768Y0041264D01*
X0051768Y0040476D01*
X0052162Y0039689D01*
X0052556Y0039295D01*
X0053343Y0038902D01*
X0055312Y0038902D01*
X0056099Y0039295D01*
X0056493Y0039689D01*
X0056886Y0040476D01*
X0056886Y0041264D01*
X0056886Y0041228D02*
X0051768Y0041228D01*
X0051768Y0040729D02*
X0056886Y0040729D01*
X0056764Y0040231D02*
X0051891Y0040231D01*
X0052140Y0039732D02*
X0056514Y0039732D01*
X0055976Y0039234D02*
X0052679Y0039234D01*
X0052000Y0041726D02*
X0056655Y0041726D01*
X0056319Y0042225D02*
X0052336Y0042225D01*
X0053112Y0042723D02*
X0055542Y0042723D01*
X0049406Y0041264D02*
X0049406Y0040476D01*
X0049012Y0039689D01*
X0048619Y0039295D01*
X0047831Y0038902D01*
X0045863Y0038902D01*
X0045075Y0039295D01*
X0044682Y0039689D01*
X0044288Y0040476D01*
X0044288Y0041264D01*
X0044682Y0042051D01*
X0045075Y0042445D01*
X0045863Y0042839D01*
X0047831Y0042839D01*
X0048619Y0042445D01*
X0049012Y0042051D01*
X0049406Y0041264D01*
X0049406Y0041228D02*
X0044288Y0041228D01*
X0044288Y0040729D02*
X0049406Y0040729D01*
X0049283Y0040231D02*
X0044411Y0040231D01*
X0044660Y0039732D02*
X0049034Y0039732D01*
X0048495Y0039234D02*
X0045199Y0039234D01*
X0044519Y0041726D02*
X0049175Y0041726D01*
X0048839Y0042225D02*
X0044855Y0042225D01*
X0045632Y0042723D02*
X0048062Y0042723D01*
X0035823Y0042248D02*
X0035823Y0040280D01*
X0035430Y0039492D01*
X0035036Y0039098D01*
X0034249Y0038705D01*
X0033461Y0038705D01*
X0032674Y0039098D01*
X0032280Y0039492D01*
X0031886Y0040280D01*
X0031886Y0042248D01*
X0032280Y0043035D01*
X0032674Y0043429D01*
X0033461Y0043823D01*
X0034249Y0043823D01*
X0035036Y0043429D01*
X0035430Y0043035D01*
X0035823Y0042248D01*
X0035823Y0042225D02*
X0031886Y0042225D01*
X0031886Y0041726D02*
X0035823Y0041726D01*
X0035823Y0041228D02*
X0031886Y0041228D01*
X0031886Y0040729D02*
X0035823Y0040729D01*
X0035799Y0040231D02*
X0031911Y0040231D01*
X0032160Y0039732D02*
X0035550Y0039732D01*
X0035171Y0039234D02*
X0032539Y0039234D01*
X0033401Y0038735D02*
X0034309Y0038735D01*
X0035586Y0042723D02*
X0032124Y0042723D01*
X0032466Y0043222D02*
X0035244Y0043222D01*
X0034454Y0043720D02*
X0033256Y0043720D01*
X0033461Y0046185D02*
X0034249Y0046185D01*
X0035036Y0046579D01*
X0035430Y0046972D01*
X0035823Y0047760D01*
X0035823Y0049728D01*
X0035430Y0050516D01*
X0035036Y0050909D01*
X0034249Y0051303D01*
X0033461Y0051303D01*
X0032674Y0050909D01*
X0032280Y0050516D01*
X0031886Y0049728D01*
X0031886Y0047760D01*
X0032280Y0046972D01*
X0032674Y0046579D01*
X0033461Y0046185D01*
X0033406Y0046213D02*
X0034304Y0046213D01*
X0035169Y0046711D02*
X0032541Y0046711D01*
X0032162Y0047210D02*
X0035548Y0047210D01*
X0035798Y0047708D02*
X0031912Y0047708D01*
X0031886Y0048207D02*
X0035823Y0048207D01*
X0035823Y0048705D02*
X0031886Y0048705D01*
X0031886Y0049204D02*
X0035823Y0049204D01*
X0035823Y0049702D02*
X0031886Y0049702D01*
X0032123Y0050201D02*
X0035587Y0050201D01*
X0035246Y0050699D02*
X0032464Y0050699D01*
X0033251Y0051198D02*
X0034459Y0051198D01*
X0034249Y0055634D02*
X0035036Y0056028D01*
X0035430Y0056421D01*
X0035823Y0057209D01*
X0035823Y0059177D01*
X0035430Y0059965D01*
X0035036Y0060358D01*
X0034249Y0060752D01*
X0033461Y0060752D01*
X0032674Y0060358D01*
X0032280Y0059965D01*
X0031886Y0059177D01*
X0031886Y0057209D01*
X0032280Y0056421D01*
X0032674Y0056028D01*
X0033461Y0055634D01*
X0034249Y0055634D01*
X0034350Y0055684D02*
X0033360Y0055684D01*
X0032518Y0056183D02*
X0035192Y0056183D01*
X0035560Y0056682D02*
X0032150Y0056682D01*
X0031901Y0057180D02*
X0035809Y0057180D01*
X0035823Y0057679D02*
X0031886Y0057679D01*
X0031886Y0058177D02*
X0035823Y0058177D01*
X0035823Y0058676D02*
X0031886Y0058676D01*
X0031886Y0059174D02*
X0035823Y0059174D01*
X0035576Y0059673D02*
X0032134Y0059673D01*
X0032487Y0060171D02*
X0035223Y0060171D01*
X0034413Y0060670D02*
X0033297Y0060670D01*
X0033461Y0063114D02*
X0034249Y0063114D01*
X0035036Y0063508D01*
X0035430Y0063902D01*
X0035823Y0064689D01*
X0035823Y0066657D01*
X0035430Y0067445D01*
X0035036Y0067839D01*
X0034249Y0068232D01*
X0033461Y0068232D01*
X0032674Y0067839D01*
X0032280Y0067445D01*
X0031886Y0066657D01*
X0031886Y0064689D01*
X0032280Y0063902D01*
X0032674Y0063508D01*
X0033461Y0063114D01*
X0033365Y0063162D02*
X0034345Y0063162D01*
X0035189Y0063661D02*
X0032521Y0063661D01*
X0032151Y0064159D02*
X0035559Y0064159D01*
X0035808Y0064658D02*
X0031902Y0064658D01*
X0031886Y0065156D02*
X0035823Y0065156D01*
X0035823Y0065655D02*
X0031886Y0065655D01*
X0031886Y0066153D02*
X0035823Y0066153D01*
X0035823Y0066652D02*
X0031886Y0066652D01*
X0032133Y0067150D02*
X0035577Y0067150D01*
X0035226Y0067649D02*
X0032484Y0067649D01*
X0033291Y0068147D02*
X0034419Y0068147D01*
X0034249Y0072169D02*
X0035036Y0072563D01*
X0035430Y0072957D01*
X0035823Y0073744D01*
X0035823Y0075713D01*
X0035430Y0076500D01*
X0035036Y0076894D01*
X0034249Y0077287D01*
X0033461Y0077287D01*
X0032674Y0076894D01*
X0032280Y0076500D01*
X0031886Y0075713D01*
X0031886Y0073744D01*
X0032280Y0072957D01*
X0032674Y0072563D01*
X0033461Y0072169D01*
X0034249Y0072169D01*
X0035107Y0072634D02*
X0032603Y0072634D01*
X0032192Y0073132D02*
X0035518Y0073132D01*
X0035767Y0073631D02*
X0031943Y0073631D01*
X0031886Y0074129D02*
X0035823Y0074129D01*
X0035823Y0074628D02*
X0031886Y0074628D01*
X0031886Y0075126D02*
X0035823Y0075126D01*
X0035823Y0075625D02*
X0031886Y0075625D01*
X0032092Y0076123D02*
X0035618Y0076123D01*
X0035308Y0076622D02*
X0032402Y0076622D01*
X0033127Y0077120D02*
X0034583Y0077120D01*
X0034249Y0079650D02*
X0035036Y0080043D01*
X0035430Y0080437D01*
X0035823Y0081224D01*
X0035823Y0083193D01*
X0035430Y0083980D01*
X0035036Y0084374D01*
X0034249Y0084768D01*
X0033461Y0084768D01*
X0032674Y0084374D01*
X0032280Y0083980D01*
X0031886Y0083193D01*
X0031886Y0081224D01*
X0032280Y0080437D01*
X0032674Y0080043D01*
X0033461Y0079650D01*
X0034249Y0079650D01*
X0035104Y0080112D02*
X0032606Y0080112D01*
X0032194Y0080610D02*
X0035516Y0080610D01*
X0035766Y0081109D02*
X0031944Y0081109D01*
X0031886Y0081607D02*
X0035823Y0081607D01*
X0035823Y0082106D02*
X0031886Y0082106D01*
X0031886Y0082604D02*
X0035823Y0082604D01*
X0035823Y0083103D02*
X0031886Y0083103D01*
X0032091Y0083601D02*
X0035619Y0083601D01*
X0035310Y0084100D02*
X0032399Y0084100D01*
X0033122Y0084598D02*
X0034588Y0084598D01*
D14*
X0143737Y0036996D03*
X0143737Y0028996D03*
X0163737Y0032996D03*
D15*
X0099025Y0092839D03*
X0097425Y0092839D03*
X0097044Y0044918D03*
X0097044Y0043318D03*
D16*
X0094689Y0041259D02*
X0099399Y0041259D01*
X0099271Y0041104D02*
X0099663Y0041581D01*
X0099954Y0042125D01*
X0100133Y0042716D01*
X0100194Y0043331D01*
X0100194Y0044906D01*
X0100133Y0045520D01*
X0099954Y0046111D01*
X0099663Y0046655D01*
X0099271Y0047133D01*
X0098794Y0047524D01*
X0098249Y0047815D01*
X0097658Y0047995D01*
X0097044Y0048055D01*
X0096430Y0047995D01*
X0095839Y0047815D01*
X0095294Y0047524D01*
X0094817Y0047133D01*
X0094425Y0046655D01*
X0094134Y0046111D01*
X0093955Y0045520D01*
X0093894Y0044906D01*
X0093894Y0043331D01*
X0093955Y0042716D01*
X0094134Y0042125D01*
X0094425Y0041581D01*
X0094817Y0041104D01*
X0095294Y0040712D01*
X0095839Y0040421D01*
X0096430Y0040242D01*
X0097044Y0040181D01*
X0097658Y0040242D01*
X0098249Y0040421D01*
X0098794Y0040712D01*
X0099271Y0041104D01*
X0098323Y0040460D02*
X0095765Y0040460D01*
X0094170Y0042057D02*
X0099917Y0042057D01*
X0100147Y0042856D02*
X0093941Y0042856D01*
X0093894Y0043654D02*
X0100194Y0043654D01*
X0100194Y0044453D02*
X0093894Y0044453D01*
X0093928Y0045251D02*
X0100159Y0045251D01*
X0099972Y0046050D02*
X0094116Y0046050D01*
X0094584Y0046848D02*
X0099504Y0046848D01*
X0098564Y0047647D02*
X0095524Y0047647D01*
X0097438Y0089689D02*
X0099012Y0089689D01*
X0099627Y0089749D01*
X0100218Y0089929D01*
X0100762Y0090220D01*
X0101240Y0090611D01*
X0101631Y0091089D01*
X0101922Y0091633D01*
X0102102Y0092224D01*
X0102162Y0092839D01*
X0102102Y0093453D01*
X0101922Y0094044D01*
X0101631Y0094588D01*
X0101240Y0095066D01*
X0100762Y0095457D01*
X0100218Y0095748D01*
X0099627Y0095928D01*
X0099012Y0095988D01*
X0097438Y0095988D01*
X0096823Y0095928D01*
X0096232Y0095748D01*
X0095688Y0095457D01*
X0095211Y0095066D01*
X0094819Y0094588D01*
X0094528Y0094044D01*
X0094349Y0093453D01*
X0094288Y0092839D01*
X0094349Y0092224D01*
X0094528Y0091633D01*
X0094819Y0091089D01*
X0095211Y0090611D01*
X0095688Y0090220D01*
X0096232Y0089929D01*
X0096823Y0089749D01*
X0097438Y0089689D01*
X0096159Y0089968D02*
X0100291Y0089968D01*
X0101367Y0090767D02*
X0095083Y0090767D01*
X0094564Y0091565D02*
X0101886Y0091565D01*
X0102115Y0092364D02*
X0094335Y0092364D01*
X0094320Y0093162D02*
X0102130Y0093162D01*
X0101948Y0093961D02*
X0094503Y0093961D01*
X0094959Y0094759D02*
X0101491Y0094759D01*
X0100575Y0095558D02*
X0095876Y0095558D01*
D17*
X0099131Y0108783D03*
X0109131Y0108783D03*
X0119131Y0108783D03*
X0129131Y0108783D03*
X0139131Y0108783D03*
X0139131Y0128469D03*
X0129131Y0128469D03*
X0089131Y0108783D03*
X0079131Y0108783D03*
X0069131Y0108783D03*
X0069131Y0128469D03*
X0079131Y0128469D03*
X0079131Y0018311D03*
X0079131Y0008311D03*
X0089131Y0008311D03*
X0089131Y0018311D03*
X0099131Y0018311D03*
X0099131Y0008311D03*
X0109131Y0008311D03*
X0109131Y0018311D03*
X0119131Y0018311D03*
X0119131Y0008311D03*
X0129131Y0008311D03*
X0129131Y0018311D03*
X0139131Y0018311D03*
X0139131Y0008311D03*
X0149131Y0008311D03*
X0149131Y0018311D03*
X0069131Y0018311D03*
X0069131Y0008311D03*
X0059131Y0008311D03*
X0059131Y0018311D03*
D18*
X0068698Y0278272D03*
X0068698Y0351106D03*
X0139564Y0351106D03*
D19*
X0128737Y0352287D03*
X0128737Y0352287D03*
X0079524Y0352287D03*
X0079524Y0352287D03*
X0104131Y0222366D03*
X0104131Y0181028D03*
D20*
X0083264Y0201894D03*
X0125784Y0201894D03*
X0142320Y0312130D03*
X0066729Y0312130D03*
D21*
X0085627Y0351500D03*
X0122635Y0351500D03*
D22*
X0130115Y0306618D03*
X0078934Y0306618D03*
D23*
X0104524Y0168429D03*
D24*
X0084839Y0312130D03*
X0084839Y0312327D03*
X0124209Y0312327D03*
X0124209Y0312130D03*
D25*
X0104524Y0225713D03*
X0104524Y0213705D03*
D26*
G36*
X0118290Y0089602D02*
X0113483Y0094409D01*
X0118846Y0099772D01*
X0123653Y0094965D01*
X0118290Y0089602D01*
G37*
G36*
X0120517Y0076239D02*
X0115710Y0081046D01*
X0121073Y0086409D01*
X0125880Y0081602D01*
X0120517Y0076239D01*
G37*
G36*
X0114949Y0070671D02*
X0110142Y0075478D01*
X0115505Y0080841D01*
X0120312Y0076034D01*
X0114949Y0070671D01*
G37*
G36*
X0109381Y0065103D02*
X0104574Y0069910D01*
X0109937Y0075273D01*
X0114744Y0070466D01*
X0109381Y0065103D01*
G37*
G36*
X0103813Y0059536D02*
X0099006Y0064343D01*
X0104369Y0069706D01*
X0109176Y0064899D01*
X0103813Y0059536D01*
G37*
G36*
X0096018Y0067331D02*
X0091211Y0072138D01*
X0096574Y0077501D01*
X0101381Y0072694D01*
X0096018Y0067331D01*
G37*
G36*
X0101586Y0072898D02*
X0096779Y0077705D01*
X0102142Y0083068D01*
X0106949Y0078261D01*
X0101586Y0072898D01*
G37*
G36*
X0107154Y0078466D02*
X0102347Y0083273D01*
X0107710Y0088636D01*
X0112517Y0083829D01*
X0107154Y0078466D01*
G37*
G36*
X0112722Y0084034D02*
X0107915Y0088841D01*
X0113278Y0094204D01*
X0118085Y0089397D01*
X0112722Y0084034D01*
G37*
G36*
X0126084Y0081807D02*
X0121277Y0086614D01*
X0126640Y0091977D01*
X0131447Y0087170D01*
X0126084Y0081807D01*
G37*
M02*
