G75*
%MOIN*%
%OFA0B0*%
%FSLAX25Y25*%
%IPPOS*%
%LPD*%
%AMOC8*
5,1,8,0,0,1.08239X$1,22.5*
%
%ADD10C,0.00300*%
%ADD11C,0.01181*%
%ADD12C,0.00500*%
%ADD13C,0.00600*%
%ADD14C,0.01782*%
%ADD15C,0.00800*%
D10*
X0025737Y0022713D02*
X0027188Y0022713D01*
X0027672Y0023197D01*
X0027672Y0023680D01*
X0027188Y0024164D01*
X0025737Y0024164D01*
X0025737Y0022713D02*
X0025737Y0025615D01*
X0027188Y0025615D01*
X0027672Y0025132D01*
X0027672Y0024648D01*
X0027188Y0024164D01*
X0028684Y0023197D02*
X0029168Y0022713D01*
X0030135Y0022713D01*
X0030619Y0023197D01*
X0030619Y0025615D01*
X0031630Y0025615D02*
X0033565Y0025615D01*
X0032598Y0025615D02*
X0032598Y0022713D01*
X0035544Y0022713D02*
X0035544Y0025615D01*
X0034577Y0025615D02*
X0036512Y0025615D01*
X0037523Y0025132D02*
X0037523Y0023197D01*
X0038007Y0022713D01*
X0038975Y0022713D01*
X0039458Y0023197D01*
X0039458Y0025132D01*
X0038975Y0025615D01*
X0038007Y0025615D01*
X0037523Y0025132D01*
X0040470Y0025615D02*
X0040470Y0022713D01*
X0042405Y0022713D02*
X0040470Y0025615D01*
X0042405Y0025615D02*
X0042405Y0022713D01*
X0043416Y0022713D02*
X0045351Y0022713D01*
X0044384Y0022713D02*
X0044384Y0025615D01*
X0043416Y0024648D01*
X0055068Y0037083D02*
X0055068Y0040723D01*
X0056888Y0040723D01*
X0057495Y0040116D01*
X0057495Y0038903D01*
X0056888Y0038296D01*
X0055068Y0038296D01*
X0056281Y0038296D02*
X0057495Y0037083D01*
X0058693Y0037690D02*
X0059300Y0037083D01*
X0060513Y0037083D01*
X0061120Y0037690D01*
X0061120Y0038903D01*
X0060513Y0039510D01*
X0059906Y0039510D01*
X0058693Y0038903D01*
X0058693Y0040723D01*
X0061120Y0040723D01*
X0060513Y0042989D02*
X0059300Y0042989D01*
X0058693Y0043595D01*
X0058693Y0044809D01*
X0060513Y0044809D01*
X0061120Y0044202D01*
X0061120Y0043595D01*
X0060513Y0042989D01*
X0058693Y0044809D02*
X0059906Y0046022D01*
X0061120Y0046629D01*
X0057495Y0046022D02*
X0057495Y0044809D01*
X0056888Y0044202D01*
X0055068Y0044202D01*
X0056281Y0044202D02*
X0057495Y0042989D01*
X0055068Y0042989D02*
X0055068Y0046629D01*
X0056888Y0046629D01*
X0057495Y0046022D01*
X0061367Y0032899D02*
X0061367Y0029996D01*
X0063302Y0029996D01*
X0064314Y0029996D02*
X0064314Y0032899D01*
X0066249Y0032899D01*
X0067260Y0032899D02*
X0067260Y0029996D01*
X0068711Y0029996D01*
X0069195Y0030480D01*
X0069195Y0032415D01*
X0068711Y0032899D01*
X0067260Y0032899D01*
X0065281Y0031448D02*
X0064314Y0031448D01*
X0064314Y0029996D02*
X0066249Y0029996D01*
X0070207Y0029996D02*
X0072142Y0029996D01*
X0071174Y0029996D02*
X0071174Y0032899D01*
X0070207Y0031931D01*
X0084596Y0078422D02*
X0084596Y0082062D01*
X0086416Y0082062D01*
X0087022Y0081455D01*
X0087022Y0080242D01*
X0086416Y0079635D01*
X0084596Y0079635D01*
X0085809Y0079635D02*
X0087022Y0078422D01*
X0088221Y0080242D02*
X0090647Y0080242D01*
X0090041Y0082062D02*
X0088221Y0080242D01*
X0090041Y0078422D02*
X0090041Y0082062D01*
X0090041Y0084327D02*
X0088827Y0084327D01*
X0088221Y0084934D01*
X0087022Y0084327D02*
X0085809Y0085541D01*
X0086416Y0085541D02*
X0084596Y0085541D01*
X0084596Y0084327D02*
X0084596Y0087967D01*
X0086416Y0087967D01*
X0087022Y0087361D01*
X0087022Y0086147D01*
X0086416Y0085541D01*
X0088221Y0087361D02*
X0088827Y0087967D01*
X0090041Y0087967D01*
X0090647Y0087361D01*
X0090647Y0086754D01*
X0090041Y0086147D01*
X0090647Y0085541D01*
X0090647Y0084934D01*
X0090041Y0084327D01*
X0090041Y0086147D02*
X0089434Y0086147D01*
X0088221Y0091217D02*
X0090647Y0093644D01*
X0090647Y0094250D01*
X0090041Y0094857D01*
X0088827Y0094857D01*
X0088221Y0094250D01*
X0087022Y0094250D02*
X0087022Y0093037D01*
X0086416Y0092430D01*
X0084596Y0092430D01*
X0085809Y0092430D02*
X0087022Y0091217D01*
X0088221Y0091217D02*
X0090647Y0091217D01*
X0087022Y0094250D02*
X0086416Y0094857D01*
X0084596Y0094857D01*
X0084596Y0091217D01*
X0084596Y0098107D02*
X0084596Y0101747D01*
X0086416Y0101747D01*
X0087022Y0101140D01*
X0087022Y0099927D01*
X0086416Y0099320D01*
X0084596Y0099320D01*
X0085809Y0099320D02*
X0087022Y0098107D01*
X0088221Y0098107D02*
X0090647Y0098107D01*
X0089434Y0098107D02*
X0089434Y0101747D01*
X0088221Y0100533D01*
X0028684Y0025615D02*
X0028684Y0023197D01*
X0024847Y0236886D02*
X0021798Y0236886D01*
X0021798Y0238411D01*
X0022306Y0238919D01*
X0023322Y0238919D01*
X0023830Y0238411D01*
X0023830Y0236886D01*
X0023830Y0237903D02*
X0024847Y0238919D01*
X0024847Y0239968D02*
X0024847Y0242000D01*
X0024847Y0243049D02*
X0021798Y0243049D01*
X0021798Y0245082D01*
X0023322Y0244065D02*
X0023322Y0243049D01*
X0021798Y0242000D02*
X0021798Y0239968D01*
X0024847Y0239968D01*
X0023322Y0239968D02*
X0023322Y0240984D01*
X0023322Y0246130D02*
X0023322Y0248163D01*
X0021798Y0249212D02*
X0021798Y0250228D01*
X0021798Y0249720D02*
X0024847Y0249720D01*
X0024847Y0249212D02*
X0024847Y0250228D01*
X0024847Y0251266D02*
X0021798Y0251266D01*
X0024847Y0253299D01*
X0021798Y0253299D01*
X0023322Y0254347D02*
X0023322Y0256380D01*
X0023322Y0257429D02*
X0023322Y0258953D01*
X0023830Y0259461D01*
X0024339Y0259461D01*
X0024847Y0258953D01*
X0024847Y0257429D01*
X0021798Y0257429D01*
X0021798Y0258953D01*
X0022306Y0259461D01*
X0022814Y0259461D01*
X0023322Y0258953D01*
X0021798Y0260510D02*
X0024847Y0260510D01*
X0024847Y0262543D01*
X0024847Y0263591D02*
X0024847Y0265624D01*
X0023322Y0264608D02*
X0023322Y0263591D01*
X0021798Y0263591D02*
X0024847Y0263591D01*
X0021798Y0263591D02*
X0021798Y0265624D01*
X0023322Y0266673D02*
X0023322Y0268706D01*
X0021798Y0269754D02*
X0024847Y0271787D01*
X0021798Y0271787D01*
X0022306Y0272836D02*
X0022814Y0272836D01*
X0023322Y0273344D01*
X0023322Y0274360D01*
X0023830Y0274868D01*
X0024339Y0274868D01*
X0024847Y0274360D01*
X0024847Y0273344D01*
X0024339Y0272836D01*
X0022306Y0272836D02*
X0021798Y0273344D01*
X0021798Y0274360D01*
X0022306Y0274868D01*
X0023322Y0278998D02*
X0023322Y0281031D01*
X0023322Y0282080D02*
X0023322Y0284112D01*
X0022814Y0285161D02*
X0021798Y0286177D01*
X0024847Y0286177D01*
X0024847Y0285161D02*
X0024847Y0287194D01*
X0024847Y0292989D02*
X0021798Y0292989D01*
X0021798Y0294513D01*
X0022306Y0295021D01*
X0023322Y0295021D01*
X0023830Y0294513D01*
X0023830Y0292989D01*
X0023322Y0296070D02*
X0022814Y0296578D01*
X0022814Y0297594D01*
X0023322Y0298103D01*
X0024339Y0298103D01*
X0024847Y0297594D01*
X0024847Y0296578D01*
X0024339Y0296070D01*
X0023322Y0296070D01*
X0022814Y0299151D02*
X0024339Y0299151D01*
X0024847Y0299659D01*
X0024339Y0300168D01*
X0024847Y0300676D01*
X0024339Y0301184D01*
X0022814Y0301184D01*
X0023322Y0302233D02*
X0022814Y0302741D01*
X0022814Y0303757D01*
X0023322Y0304265D01*
X0023830Y0304265D01*
X0023830Y0302233D01*
X0023322Y0302233D02*
X0024339Y0302233D01*
X0024847Y0302741D01*
X0024847Y0303757D01*
X0024847Y0305314D02*
X0022814Y0305314D01*
X0023830Y0305314D02*
X0022814Y0306330D01*
X0022814Y0306839D01*
X0023322Y0307882D02*
X0023322Y0308898D01*
X0021798Y0307882D02*
X0024847Y0307882D01*
X0021798Y0307882D02*
X0021798Y0309915D01*
X0022814Y0310963D02*
X0022814Y0311471D01*
X0024847Y0311471D01*
X0024847Y0310963D02*
X0024847Y0311980D01*
X0024847Y0313017D02*
X0024847Y0314034D01*
X0024847Y0313526D02*
X0021798Y0313526D01*
X0021798Y0313017D01*
X0021798Y0311471D02*
X0021289Y0311471D01*
X0022814Y0315072D02*
X0022814Y0315580D01*
X0023322Y0316088D01*
X0022814Y0316596D01*
X0023322Y0317104D01*
X0024847Y0317104D01*
X0024847Y0316088D02*
X0023322Y0316088D01*
X0022814Y0315072D02*
X0024847Y0315072D01*
X0024339Y0321234D02*
X0024847Y0321743D01*
X0024847Y0322759D01*
X0024339Y0323267D01*
X0023830Y0323267D01*
X0023322Y0322759D01*
X0023322Y0321743D01*
X0022814Y0321234D01*
X0022306Y0321234D01*
X0021798Y0321743D01*
X0021798Y0322759D01*
X0022306Y0323267D01*
X0023322Y0324316D02*
X0022814Y0324824D01*
X0022814Y0325840D01*
X0023322Y0326349D01*
X0024339Y0326349D01*
X0024847Y0325840D01*
X0024847Y0324824D01*
X0024339Y0324316D01*
X0023322Y0324316D01*
X0021798Y0327397D02*
X0021798Y0327905D01*
X0024847Y0327905D01*
X0024847Y0327397D02*
X0024847Y0328414D01*
X0024339Y0329451D02*
X0023830Y0329960D01*
X0023830Y0331484D01*
X0023322Y0331484D02*
X0024847Y0331484D01*
X0024847Y0329960D01*
X0024339Y0329451D01*
X0022814Y0329960D02*
X0022814Y0330976D01*
X0023322Y0331484D01*
X0022814Y0332533D02*
X0024847Y0332533D01*
X0023830Y0332533D02*
X0022814Y0333549D01*
X0022814Y0334057D01*
X0043765Y0367792D02*
X0044273Y0368300D01*
X0044781Y0367792D01*
X0045290Y0368300D01*
X0045290Y0369824D01*
X0043257Y0369824D02*
X0043257Y0368300D01*
X0043765Y0367792D01*
X0043765Y0372811D02*
X0043765Y0375860D01*
X0043257Y0375860D02*
X0044273Y0375860D01*
X0045311Y0374844D02*
X0046836Y0374844D01*
X0047344Y0374336D01*
X0047344Y0372811D01*
X0048393Y0373320D02*
X0048393Y0374336D01*
X0048901Y0374844D01*
X0050425Y0374844D01*
X0050425Y0375860D02*
X0050425Y0372811D01*
X0048901Y0372811D01*
X0048393Y0373320D01*
X0048371Y0370841D02*
X0046338Y0367792D01*
X0045311Y0372811D02*
X0045311Y0374844D01*
X0044273Y0372811D02*
X0043257Y0372811D01*
X0051474Y0373320D02*
X0051982Y0372811D01*
X0052998Y0372811D01*
X0053507Y0373320D01*
X0053507Y0374336D01*
X0052998Y0374844D01*
X0051982Y0374844D01*
X0051474Y0374336D01*
X0051474Y0373320D01*
X0052501Y0370841D02*
X0054534Y0367792D01*
X0054534Y0370841D01*
X0055582Y0369316D02*
X0055582Y0368300D01*
X0056091Y0367792D01*
X0057107Y0367792D01*
X0057615Y0368300D01*
X0057615Y0369316D01*
X0057107Y0369824D01*
X0056091Y0369824D01*
X0055582Y0369316D01*
X0052501Y0367792D02*
X0052501Y0370841D01*
X0054555Y0373320D02*
X0055063Y0372811D01*
X0056080Y0372811D01*
X0056588Y0373320D01*
X0056588Y0374336D01*
X0056080Y0374844D01*
X0055063Y0374844D01*
X0054555Y0374336D01*
X0054555Y0373320D01*
X0057637Y0373828D02*
X0058653Y0374844D01*
X0059161Y0374844D01*
X0057637Y0374844D02*
X0057637Y0372811D01*
X0058664Y0369824D02*
X0058664Y0367792D01*
X0058664Y0368808D02*
X0059680Y0369824D01*
X0060188Y0369824D01*
X0061232Y0369316D02*
X0061740Y0369824D01*
X0063264Y0369824D01*
X0063264Y0370841D02*
X0063264Y0367792D01*
X0061740Y0367792D01*
X0061232Y0368300D01*
X0061232Y0369316D01*
X0063794Y0372811D02*
X0063286Y0373320D01*
X0063794Y0372811D02*
X0064810Y0372811D01*
X0065319Y0373320D01*
X0065319Y0373828D01*
X0064810Y0374336D01*
X0063794Y0374336D01*
X0063286Y0374844D01*
X0063286Y0375352D01*
X0063794Y0375860D01*
X0064810Y0375860D01*
X0065319Y0375352D01*
X0066367Y0374336D02*
X0066367Y0373320D01*
X0066875Y0372811D01*
X0067892Y0372811D01*
X0068400Y0373320D01*
X0068400Y0374336D01*
X0067892Y0374844D01*
X0066875Y0374844D01*
X0066367Y0374336D01*
X0064821Y0371349D02*
X0064821Y0370841D01*
X0064821Y0369824D02*
X0064821Y0367792D01*
X0064313Y0367792D02*
X0065329Y0367792D01*
X0066367Y0368300D02*
X0066875Y0367792D01*
X0068400Y0367792D01*
X0068400Y0369824D02*
X0066875Y0369824D01*
X0066367Y0369316D01*
X0066367Y0368300D01*
X0064821Y0369824D02*
X0064313Y0369824D01*
X0069449Y0372811D02*
X0070465Y0372811D01*
X0069957Y0372811D02*
X0069957Y0375860D01*
X0069449Y0375860D01*
X0072011Y0374844D02*
X0073027Y0374844D01*
X0073536Y0374336D01*
X0073536Y0372811D01*
X0072011Y0372811D01*
X0071503Y0373320D01*
X0072011Y0373828D01*
X0073536Y0373828D01*
X0074584Y0373828D02*
X0075601Y0374844D01*
X0076109Y0374844D01*
X0074584Y0374844D02*
X0074584Y0372811D01*
X0074055Y0370841D02*
X0072530Y0370841D01*
X0072530Y0367792D01*
X0074055Y0367792D01*
X0074563Y0368300D01*
X0074563Y0368808D01*
X0074055Y0369316D01*
X0072530Y0369316D01*
X0074055Y0369316D02*
X0074563Y0369824D01*
X0074563Y0370333D01*
X0074055Y0370841D01*
X0075611Y0370841D02*
X0075611Y0367792D01*
X0077644Y0367792D01*
X0078693Y0367792D02*
X0080725Y0367792D01*
X0079709Y0369316D02*
X0078693Y0369316D01*
X0078693Y0367792D02*
X0078693Y0370841D01*
X0080725Y0370841D01*
X0080233Y0372811D02*
X0080233Y0375860D01*
X0081758Y0375860D01*
X0082266Y0375352D01*
X0082266Y0374336D01*
X0081758Y0373828D01*
X0080233Y0373828D01*
X0081250Y0373828D02*
X0082266Y0372811D01*
X0083315Y0373320D02*
X0083315Y0374336D01*
X0083823Y0374844D01*
X0084839Y0374844D01*
X0085347Y0374336D01*
X0085347Y0373828D01*
X0083315Y0373828D01*
X0083315Y0373320D02*
X0083823Y0372811D01*
X0084839Y0372811D01*
X0086904Y0372811D02*
X0086904Y0375352D01*
X0087412Y0375860D01*
X0087412Y0374336D02*
X0086396Y0374336D01*
X0086380Y0369824D02*
X0086888Y0369316D01*
X0086888Y0367792D01*
X0085364Y0367792D01*
X0084855Y0368300D01*
X0085364Y0368808D01*
X0086888Y0368808D01*
X0086380Y0369824D02*
X0085364Y0369824D01*
X0087937Y0369824D02*
X0089461Y0369824D01*
X0089970Y0369316D01*
X0089970Y0367792D01*
X0091018Y0368300D02*
X0091018Y0369316D01*
X0091526Y0369824D01*
X0093051Y0369824D01*
X0093051Y0370841D02*
X0093051Y0367792D01*
X0091526Y0367792D01*
X0091018Y0368300D01*
X0091532Y0372811D02*
X0091532Y0374844D01*
X0091532Y0373828D02*
X0092548Y0374844D01*
X0093056Y0374844D01*
X0094100Y0374336D02*
X0094608Y0374844D01*
X0095624Y0374844D01*
X0096132Y0374336D01*
X0096132Y0373828D01*
X0094100Y0373828D01*
X0094100Y0373320D02*
X0094100Y0374336D01*
X0094100Y0373320D02*
X0094608Y0372811D01*
X0095624Y0372811D01*
X0097181Y0372811D02*
X0097181Y0374844D01*
X0098705Y0374844D01*
X0099214Y0374336D01*
X0099214Y0372811D01*
X0100262Y0373320D02*
X0100770Y0372811D01*
X0102295Y0372811D01*
X0103344Y0373320D02*
X0103344Y0374336D01*
X0103852Y0374844D01*
X0104868Y0374844D01*
X0105376Y0374336D01*
X0105376Y0373828D01*
X0103344Y0373828D01*
X0103344Y0373320D02*
X0103852Y0372811D01*
X0104868Y0372811D01*
X0104868Y0369824D02*
X0103344Y0369824D01*
X0103344Y0366775D01*
X0103344Y0367792D02*
X0104868Y0367792D01*
X0105376Y0368300D01*
X0105376Y0369316D01*
X0104868Y0369824D01*
X0106425Y0369316D02*
X0106933Y0369824D01*
X0107950Y0369824D01*
X0108458Y0369316D01*
X0108458Y0368808D01*
X0106425Y0368808D01*
X0106425Y0368300D02*
X0106425Y0369316D01*
X0106425Y0368300D02*
X0106933Y0367792D01*
X0107950Y0367792D01*
X0109506Y0368300D02*
X0110015Y0368808D01*
X0111539Y0368808D01*
X0111539Y0369316D02*
X0111539Y0367792D01*
X0110015Y0367792D01*
X0109506Y0368300D01*
X0110015Y0369824D02*
X0111031Y0369824D01*
X0111539Y0369316D01*
X0112588Y0369316D02*
X0113096Y0369824D01*
X0114621Y0369824D01*
X0114112Y0368808D02*
X0113096Y0368808D01*
X0112588Y0369316D01*
X0112588Y0367792D02*
X0114112Y0367792D01*
X0114621Y0368300D01*
X0114112Y0368808D01*
X0114112Y0372811D02*
X0113096Y0372811D01*
X0112588Y0373320D01*
X0112588Y0374336D01*
X0113096Y0374844D01*
X0114112Y0374844D01*
X0114621Y0374336D01*
X0114621Y0373828D01*
X0112588Y0373828D01*
X0111539Y0373320D02*
X0111539Y0375352D01*
X0111031Y0375860D01*
X0109506Y0375860D01*
X0109506Y0372811D01*
X0111031Y0372811D01*
X0111539Y0373320D01*
X0115669Y0372811D02*
X0117194Y0372811D01*
X0117702Y0373320D01*
X0117194Y0373828D01*
X0116177Y0373828D01*
X0115669Y0374336D01*
X0116177Y0374844D01*
X0117702Y0374844D01*
X0118751Y0374844D02*
X0119259Y0374844D01*
X0119259Y0372811D01*
X0118751Y0372811D02*
X0119767Y0372811D01*
X0120805Y0373320D02*
X0121313Y0372811D01*
X0122837Y0372811D01*
X0122837Y0372303D02*
X0122837Y0374844D01*
X0121313Y0374844D01*
X0120805Y0374336D01*
X0120805Y0373320D01*
X0121821Y0371795D02*
X0122329Y0371795D01*
X0122837Y0372303D01*
X0123886Y0372811D02*
X0123886Y0374844D01*
X0125411Y0374844D01*
X0125919Y0374336D01*
X0125919Y0372811D01*
X0125421Y0369824D02*
X0126438Y0369824D01*
X0126946Y0369316D01*
X0126946Y0368808D01*
X0124913Y0368808D01*
X0124913Y0368300D02*
X0124913Y0369316D01*
X0125421Y0369824D01*
X0124913Y0368300D02*
X0125421Y0367792D01*
X0126438Y0367792D01*
X0127995Y0367792D02*
X0127995Y0369824D01*
X0127995Y0368808D02*
X0129011Y0369824D01*
X0129519Y0369824D01*
X0130562Y0369316D02*
X0130562Y0368300D01*
X0131071Y0367792D01*
X0132595Y0367792D01*
X0132595Y0367284D02*
X0132595Y0369824D01*
X0131071Y0369824D01*
X0130562Y0369316D01*
X0131579Y0366775D02*
X0132087Y0366775D01*
X0132595Y0367284D01*
X0133644Y0368300D02*
X0134152Y0367792D01*
X0135677Y0367792D01*
X0135677Y0367284D02*
X0135677Y0369824D01*
X0133644Y0369824D02*
X0133644Y0368300D01*
X0134660Y0366775D02*
X0135168Y0366775D01*
X0135677Y0367284D01*
X0139807Y0367792D02*
X0139807Y0370841D01*
X0139807Y0369316D02*
X0141839Y0369316D01*
X0142888Y0368300D02*
X0143396Y0368808D01*
X0144921Y0368808D01*
X0144921Y0369316D02*
X0144921Y0367792D01*
X0143396Y0367792D01*
X0142888Y0368300D01*
X0141839Y0367792D02*
X0141839Y0370841D01*
X0143396Y0369824D02*
X0144413Y0369824D01*
X0144921Y0369316D01*
X0145969Y0368808D02*
X0146986Y0369824D01*
X0147494Y0369824D01*
X0148537Y0369824D02*
X0149554Y0367792D01*
X0150570Y0369824D01*
X0151619Y0369316D02*
X0152127Y0369824D01*
X0153143Y0369824D01*
X0153651Y0369316D01*
X0153651Y0368808D01*
X0151619Y0368808D01*
X0151619Y0368300D02*
X0151619Y0369316D01*
X0151619Y0368300D02*
X0152127Y0367792D01*
X0153143Y0367792D01*
X0154700Y0367792D02*
X0156224Y0367792D01*
X0156733Y0368300D01*
X0156224Y0368808D01*
X0155208Y0368808D01*
X0154700Y0369316D01*
X0155208Y0369824D01*
X0156733Y0369824D01*
X0157781Y0369824D02*
X0158798Y0369824D01*
X0158289Y0370333D02*
X0158289Y0368300D01*
X0158798Y0367792D01*
X0159836Y0368300D02*
X0159836Y0369316D01*
X0160344Y0369824D01*
X0161360Y0369824D01*
X0161868Y0369316D01*
X0161868Y0368808D01*
X0159836Y0368808D01*
X0159836Y0368300D02*
X0160344Y0367792D01*
X0161360Y0367792D01*
X0162917Y0367792D02*
X0162917Y0369824D01*
X0162917Y0368808D02*
X0163933Y0369824D01*
X0164441Y0369824D01*
X0145969Y0369824D02*
X0145969Y0367792D01*
X0123865Y0367792D02*
X0123865Y0369316D01*
X0123356Y0369824D01*
X0121832Y0369824D01*
X0121832Y0367792D01*
X0120783Y0367792D02*
X0118751Y0367792D01*
X0118751Y0370841D01*
X0120783Y0370841D01*
X0119767Y0369316D02*
X0118751Y0369316D01*
X0119259Y0375860D02*
X0119259Y0376369D01*
X0102295Y0374844D02*
X0100770Y0374844D01*
X0100262Y0374336D01*
X0100262Y0373320D01*
X0099214Y0370841D02*
X0097181Y0370841D01*
X0097181Y0367792D01*
X0099214Y0367792D01*
X0098197Y0369316D02*
X0097181Y0369316D01*
X0100262Y0369316D02*
X0102295Y0369316D01*
X0090483Y0373828D02*
X0088450Y0373828D01*
X0088450Y0374336D02*
X0088959Y0374844D01*
X0089975Y0374844D01*
X0090483Y0374336D01*
X0090483Y0373828D01*
X0089975Y0372811D02*
X0088959Y0372811D01*
X0088450Y0373320D01*
X0088450Y0374336D01*
X0087937Y0369824D02*
X0087937Y0367792D01*
X0024847Y0280523D02*
X0021798Y0280523D01*
X0023322Y0278998D01*
X0024847Y0269754D02*
X0021798Y0269754D01*
X0174413Y0058004D02*
X0174897Y0058004D01*
X0175864Y0058004D02*
X0177799Y0058004D01*
X0177799Y0057520D02*
X0177799Y0058488D01*
X0177799Y0059485D02*
X0175864Y0059485D01*
X0175864Y0060936D01*
X0176348Y0061419D01*
X0177799Y0061419D01*
X0177799Y0062431D02*
X0174897Y0062431D01*
X0175864Y0063882D02*
X0176832Y0062431D01*
X0177799Y0063882D01*
X0177316Y0064886D02*
X0177799Y0065370D01*
X0177799Y0066821D01*
X0178283Y0066821D02*
X0178767Y0066338D01*
X0178767Y0065854D01*
X0178283Y0066821D02*
X0175864Y0066821D01*
X0175864Y0064886D02*
X0177316Y0064886D01*
X0175864Y0058004D02*
X0175864Y0057520D01*
X0174897Y0056040D02*
X0177799Y0056040D01*
X0177799Y0056523D02*
X0177799Y0055556D01*
X0177316Y0054544D02*
X0177799Y0054061D01*
X0177799Y0052609D01*
X0174897Y0052609D01*
X0174897Y0054061D01*
X0175381Y0054544D01*
X0175864Y0054544D01*
X0176348Y0054061D01*
X0176348Y0052609D01*
X0176348Y0054061D02*
X0176832Y0054544D01*
X0177316Y0054544D01*
X0174897Y0055556D02*
X0174897Y0056040D01*
X0174897Y0048651D02*
X0174897Y0046716D01*
X0177799Y0046716D01*
X0177799Y0045705D02*
X0176832Y0044737D01*
X0176832Y0045221D02*
X0176832Y0043770D01*
X0177799Y0043770D02*
X0174897Y0043770D01*
X0174897Y0045221D01*
X0175381Y0045705D01*
X0176348Y0045705D01*
X0176832Y0045221D01*
X0176348Y0046716D02*
X0176348Y0047684D01*
X0176348Y0042758D02*
X0177799Y0042758D01*
X0176348Y0042758D02*
X0175864Y0042274D01*
X0175864Y0040823D01*
X0177799Y0040823D01*
D11*
X0165548Y0040870D02*
X0160351Y0040870D01*
X0156414Y0040870D02*
X0151217Y0040870D01*
X0147280Y0040870D02*
X0142083Y0040870D01*
X0138146Y0040870D02*
X0132949Y0040870D01*
X0129012Y0040870D02*
X0123816Y0040870D01*
X0121271Y0038325D01*
X0118487Y0035541D02*
X0115942Y0032996D01*
X0111020Y0032996D01*
X0111020Y0038902D01*
X0107491Y0042431D01*
X0104707Y0045215D02*
X0101178Y0048744D01*
X0095075Y0048744D01*
X0095075Y0053311D01*
X0095075Y0057248D02*
X0095075Y0061815D01*
X0095075Y0065752D02*
X0095075Y0070319D01*
X0095075Y0074256D02*
X0095075Y0078823D01*
X0095075Y0082760D02*
X0095075Y0087327D01*
X0099373Y0087308D01*
X0103310Y0087291D02*
X0107608Y0087273D01*
X0111545Y0087255D02*
X0115843Y0087237D01*
X0119780Y0087220D02*
X0124078Y0087201D01*
X0128015Y0087184D02*
X0132313Y0087166D01*
X0136250Y0087149D02*
X0140548Y0087130D01*
X0140548Y0090673D01*
X0140548Y0094610D02*
X0140548Y0098154D01*
X0146257Y0098154D01*
X0150194Y0098154D02*
X0155902Y0098154D01*
X0159839Y0098154D02*
X0165548Y0098154D01*
X0165548Y0093345D01*
X0165548Y0089408D02*
X0165548Y0084599D01*
X0165548Y0080662D02*
X0165548Y0075853D01*
X0165548Y0071916D02*
X0165548Y0067107D01*
X0165548Y0063170D02*
X0165548Y0058362D01*
X0165548Y0054425D02*
X0165548Y0049616D01*
X0165548Y0045679D02*
X0165548Y0040870D01*
X0078540Y0048744D02*
X0078540Y0053337D01*
X0078540Y0057274D02*
X0078540Y0061867D01*
X0078540Y0065804D02*
X0078540Y0070398D01*
X0075995Y0072943D01*
X0073211Y0075727D02*
X0070666Y0078272D01*
X0062792Y0078272D01*
X0062792Y0083521D01*
X0062792Y0087458D02*
X0062792Y0092707D01*
X0062792Y0096644D02*
X0062792Y0101894D01*
X0058855Y0101894D01*
X0054918Y0101894D02*
X0050981Y0101894D01*
X0047044Y0101894D02*
X0043107Y0101894D01*
X0039170Y0101894D02*
X0035233Y0101894D01*
X0031296Y0101894D02*
X0027359Y0101894D01*
X0027359Y0097675D01*
X0027359Y0093738D02*
X0027359Y0089520D01*
X0027359Y0085583D02*
X0027359Y0081365D01*
X0027359Y0077428D02*
X0027359Y0073210D01*
X0027359Y0069273D02*
X0027359Y0065055D01*
X0027359Y0061118D02*
X0027359Y0056899D01*
X0027359Y0052962D02*
X0027359Y0048744D01*
X0031296Y0048744D01*
X0035233Y0048744D02*
X0039170Y0048744D01*
X0043107Y0048744D02*
X0047044Y0048744D01*
X0050981Y0048744D02*
X0054918Y0048744D01*
X0058855Y0048744D02*
X0062792Y0048744D01*
X0066729Y0048744D02*
X0070666Y0048744D01*
X0074603Y0048744D02*
X0078540Y0048744D01*
D12*
X0019565Y0048994D02*
X0017762Y0050797D01*
X0019565Y0052601D01*
X0023172Y0052601D01*
X0023172Y0054432D02*
X0023172Y0058039D01*
X0023172Y0059870D02*
X0017762Y0059870D01*
X0019565Y0061673D01*
X0017762Y0063476D01*
X0023172Y0063476D01*
X0023172Y0065307D02*
X0023172Y0068914D01*
X0023172Y0067111D02*
X0017762Y0067111D01*
X0019565Y0065307D01*
X0018663Y0070745D02*
X0017762Y0071647D01*
X0017762Y0073450D01*
X0018663Y0074352D01*
X0022270Y0070745D01*
X0023172Y0071647D01*
X0023172Y0073450D01*
X0022270Y0074352D01*
X0018663Y0074352D01*
X0018663Y0076183D02*
X0019565Y0076183D01*
X0020467Y0077084D01*
X0020467Y0079789D01*
X0022270Y0079789D02*
X0018663Y0079789D01*
X0017762Y0078888D01*
X0017762Y0077084D01*
X0018663Y0076183D01*
X0018663Y0070745D02*
X0022270Y0070745D01*
X0022270Y0076183D02*
X0023172Y0077084D01*
X0023172Y0078888D01*
X0022270Y0079789D01*
X0020467Y0081620D02*
X0020467Y0085227D01*
X0019565Y0087058D02*
X0017762Y0088861D01*
X0023172Y0088861D01*
X0023172Y0087058D02*
X0023172Y0090665D01*
X0023172Y0084325D02*
X0017762Y0084325D01*
X0020467Y0081620D01*
X0017762Y0058039D02*
X0017762Y0054432D01*
X0023172Y0054432D01*
X0020467Y0054432D02*
X0020467Y0056235D01*
X0020467Y0052601D02*
X0020467Y0048994D01*
X0019565Y0048994D02*
X0023172Y0048994D01*
X0032280Y0143232D02*
X0175981Y0143232D01*
X0175981Y0355831D01*
X0032280Y0355831D01*
X0032280Y0143232D01*
X0037694Y0147169D02*
X0037694Y0170791D01*
X0171060Y0170791D01*
X0171060Y0147169D01*
X0037694Y0147169D01*
X0037694Y0178665D02*
X0049505Y0178665D01*
X0057379Y0178665D01*
X0053442Y0182602D01*
X0049505Y0178665D01*
X0053442Y0182602D01*
X0053442Y0249531D01*
X0049505Y0257406D02*
X0057379Y0257406D01*
X0053442Y0261343D01*
X0049505Y0257406D01*
X0053442Y0261343D01*
X0053442Y0316461D01*
X0057871Y0340575D02*
X0069682Y0340575D01*
X0037694Y0351894D02*
X0037694Y0328272D01*
X0171060Y0328272D01*
X0171060Y0351894D01*
X0037694Y0351894D01*
X0053442Y0261343D02*
X0057379Y0257406D01*
X0069190Y0257406D01*
X0057379Y0257406D02*
X0049505Y0257406D01*
X0037694Y0257406D01*
X0049681Y0257582D02*
X0057203Y0257582D01*
X0056704Y0258080D02*
X0050179Y0258080D01*
X0050678Y0258579D02*
X0056206Y0258579D01*
X0055707Y0259077D02*
X0051176Y0259077D01*
X0051675Y0259576D02*
X0055209Y0259576D01*
X0054710Y0260074D02*
X0052173Y0260074D01*
X0052672Y0260573D02*
X0054211Y0260573D01*
X0053713Y0261071D02*
X0053170Y0261071D01*
X0089367Y0257406D02*
X0101178Y0257406D01*
X0109052Y0257406D01*
X0105115Y0261343D01*
X0101178Y0257406D01*
X0105115Y0261343D01*
X0105115Y0316461D01*
X0105115Y0261343D02*
X0109052Y0257406D01*
X0120863Y0257406D01*
X0109052Y0257406D02*
X0101178Y0257406D01*
X0101354Y0257582D02*
X0108876Y0257582D01*
X0108377Y0258080D02*
X0101852Y0258080D01*
X0102351Y0258579D02*
X0107879Y0258579D01*
X0107380Y0259077D02*
X0102849Y0259077D01*
X0103348Y0259576D02*
X0106882Y0259576D01*
X0106383Y0260074D02*
X0103846Y0260074D01*
X0104345Y0260573D02*
X0105885Y0260573D01*
X0105386Y0261071D02*
X0104843Y0261071D01*
X0105115Y0249531D02*
X0105115Y0182602D01*
X0101178Y0178665D01*
X0109052Y0178665D01*
X0105115Y0182602D01*
X0101178Y0178665D01*
X0109052Y0178665D01*
X0105115Y0182602D01*
X0104819Y0182306D02*
X0105411Y0182306D01*
X0105909Y0181808D02*
X0104320Y0181808D01*
X0103822Y0181309D02*
X0106408Y0181309D01*
X0106906Y0180811D02*
X0103323Y0180811D01*
X0102825Y0180312D02*
X0107405Y0180312D01*
X0107903Y0179814D02*
X0102326Y0179814D01*
X0101828Y0179315D02*
X0108402Y0179315D01*
X0108900Y0178817D02*
X0101329Y0178817D01*
X0101178Y0178665D02*
X0089367Y0178665D01*
X0097241Y0158980D02*
X0112989Y0158980D01*
X0105115Y0151106D02*
X0105115Y0166854D01*
X0109052Y0178665D02*
X0120863Y0178665D01*
X0140548Y0178665D02*
X0152359Y0178665D01*
X0156296Y0182602D01*
X0160233Y0178665D01*
X0152359Y0178665D01*
X0156296Y0182602D01*
X0156296Y0249531D01*
X0152359Y0257406D02*
X0160233Y0257406D01*
X0156296Y0261343D01*
X0152359Y0257406D01*
X0156296Y0261343D01*
X0156296Y0316461D01*
X0151867Y0341067D02*
X0140056Y0341067D01*
X0156296Y0261343D02*
X0160233Y0257406D01*
X0171060Y0257406D01*
X0160233Y0257406D02*
X0152359Y0257406D01*
X0140548Y0257406D01*
X0152535Y0257582D02*
X0160057Y0257582D01*
X0159558Y0258080D02*
X0153033Y0258080D01*
X0153532Y0258579D02*
X0159060Y0258579D01*
X0158561Y0259077D02*
X0154031Y0259077D01*
X0154529Y0259576D02*
X0158063Y0259576D01*
X0157564Y0260074D02*
X0155028Y0260074D01*
X0155526Y0260573D02*
X0157066Y0260573D01*
X0156567Y0261071D02*
X0156025Y0261071D01*
X0156296Y0182602D02*
X0160233Y0178665D01*
X0171060Y0178665D01*
X0160233Y0178665D02*
X0152359Y0178665D01*
X0152510Y0178817D02*
X0160082Y0178817D01*
X0159583Y0179315D02*
X0153009Y0179315D01*
X0153507Y0179814D02*
X0159084Y0179814D01*
X0158586Y0180312D02*
X0154006Y0180312D01*
X0154504Y0180811D02*
X0158087Y0180811D01*
X0157589Y0181309D02*
X0155003Y0181309D01*
X0155501Y0181808D02*
X0157090Y0181808D01*
X0156592Y0182306D02*
X0156000Y0182306D01*
X0143107Y0070594D02*
X0140745Y0070594D01*
X0143107Y0070594D02*
X0143107Y0068232D01*
X0143107Y0049335D02*
X0143107Y0046972D01*
X0140745Y0046972D01*
X0121847Y0046972D02*
X0119485Y0046972D01*
X0119485Y0049335D01*
X0119485Y0068232D02*
X0119485Y0070594D01*
X0121847Y0070594D01*
X0069190Y0178665D02*
X0057379Y0178665D01*
X0053442Y0182602D01*
X0053146Y0182306D02*
X0053738Y0182306D01*
X0054236Y0181808D02*
X0052647Y0181808D01*
X0052149Y0181309D02*
X0054735Y0181309D01*
X0055233Y0180811D02*
X0051650Y0180811D01*
X0051152Y0180312D02*
X0055732Y0180312D01*
X0056230Y0179814D02*
X0050653Y0179814D01*
X0050155Y0179315D02*
X0056729Y0179315D01*
X0057227Y0178817D02*
X0049656Y0178817D01*
X0049505Y0178665D02*
X0057379Y0178665D01*
D13*
X0118240Y0070594D02*
X0118242Y0070664D01*
X0118248Y0070735D01*
X0118258Y0070804D01*
X0118272Y0070873D01*
X0118290Y0070942D01*
X0118311Y0071009D01*
X0118336Y0071075D01*
X0118365Y0071139D01*
X0118398Y0071201D01*
X0118434Y0071262D01*
X0118474Y0071320D01*
X0118516Y0071376D01*
X0118562Y0071430D01*
X0118611Y0071481D01*
X0118662Y0071529D01*
X0118717Y0071574D01*
X0118773Y0071616D01*
X0118832Y0071654D01*
X0118893Y0071689D01*
X0118956Y0071721D01*
X0119021Y0071749D01*
X0119087Y0071774D01*
X0119154Y0071794D01*
X0119223Y0071811D01*
X0119292Y0071824D01*
X0119362Y0071833D01*
X0119432Y0071838D01*
X0119503Y0071839D01*
X0119573Y0071836D01*
X0119643Y0071829D01*
X0119713Y0071818D01*
X0119782Y0071803D01*
X0119850Y0071784D01*
X0119916Y0071762D01*
X0119982Y0071736D01*
X0120046Y0071706D01*
X0120108Y0071672D01*
X0120168Y0071635D01*
X0120225Y0071595D01*
X0120281Y0071551D01*
X0120334Y0071505D01*
X0120384Y0071455D01*
X0120431Y0071403D01*
X0120475Y0071348D01*
X0120516Y0071291D01*
X0120554Y0071232D01*
X0120589Y0071170D01*
X0120619Y0071107D01*
X0120647Y0071042D01*
X0120670Y0070975D01*
X0120690Y0070908D01*
X0120706Y0070839D01*
X0120718Y0070770D01*
X0120726Y0070700D01*
X0120730Y0070629D01*
X0120730Y0070559D01*
X0120726Y0070488D01*
X0120718Y0070418D01*
X0120706Y0070349D01*
X0120690Y0070280D01*
X0120670Y0070213D01*
X0120647Y0070146D01*
X0120619Y0070081D01*
X0120589Y0070018D01*
X0120554Y0069956D01*
X0120516Y0069897D01*
X0120475Y0069840D01*
X0120431Y0069785D01*
X0120384Y0069733D01*
X0120334Y0069683D01*
X0120281Y0069637D01*
X0120225Y0069593D01*
X0120168Y0069553D01*
X0120107Y0069516D01*
X0120046Y0069482D01*
X0119982Y0069452D01*
X0119916Y0069426D01*
X0119850Y0069404D01*
X0119782Y0069385D01*
X0119713Y0069370D01*
X0119643Y0069359D01*
X0119573Y0069352D01*
X0119503Y0069349D01*
X0119432Y0069350D01*
X0119362Y0069355D01*
X0119292Y0069364D01*
X0119223Y0069377D01*
X0119154Y0069394D01*
X0119087Y0069414D01*
X0119021Y0069439D01*
X0118956Y0069467D01*
X0118893Y0069499D01*
X0118832Y0069534D01*
X0118773Y0069572D01*
X0118717Y0069614D01*
X0118662Y0069659D01*
X0118611Y0069707D01*
X0118562Y0069758D01*
X0118516Y0069812D01*
X0118474Y0069868D01*
X0118434Y0069926D01*
X0118398Y0069987D01*
X0118365Y0070049D01*
X0118336Y0070113D01*
X0118311Y0070179D01*
X0118290Y0070246D01*
X0118272Y0070315D01*
X0118258Y0070384D01*
X0118248Y0070453D01*
X0118242Y0070524D01*
X0118240Y0070594D01*
X0151040Y0079453D02*
X0151040Y0087327D01*
X0167110Y0087159D02*
X0168178Y0086092D01*
X0167110Y0087159D02*
X0167110Y0089294D01*
X0168178Y0090362D01*
X0169245Y0090362D01*
X0173516Y0086092D01*
X0173516Y0090362D01*
X0172448Y0083917D02*
X0173516Y0082849D01*
X0173516Y0080714D01*
X0172448Y0079646D01*
X0172448Y0077471D02*
X0173516Y0076403D01*
X0173516Y0074268D01*
X0172448Y0073201D01*
X0171380Y0073201D01*
X0170313Y0074268D01*
X0170313Y0076403D01*
X0171380Y0077471D01*
X0172448Y0077471D01*
X0170313Y0076403D02*
X0169245Y0077471D01*
X0168178Y0077471D01*
X0167110Y0076403D01*
X0167110Y0074268D01*
X0168178Y0073201D01*
X0169245Y0073201D01*
X0170313Y0074268D01*
X0169245Y0071026D02*
X0168178Y0071026D01*
X0167110Y0069958D01*
X0167110Y0067823D01*
X0168178Y0066755D01*
X0167110Y0064580D02*
X0167110Y0060310D01*
X0170313Y0060310D01*
X0169245Y0062445D01*
X0169245Y0063512D01*
X0170313Y0064580D01*
X0172448Y0064580D01*
X0173516Y0063512D01*
X0173516Y0061377D01*
X0172448Y0060310D01*
X0170313Y0055999D02*
X0170313Y0053864D01*
X0170313Y0051689D02*
X0168178Y0051689D01*
X0167110Y0050621D01*
X0167110Y0047419D01*
X0173516Y0047419D01*
X0171380Y0047419D02*
X0171380Y0050621D01*
X0170313Y0051689D01*
X0171380Y0049554D02*
X0173516Y0051689D01*
X0173516Y0053864D02*
X0167110Y0053864D01*
X0167110Y0058135D01*
X0173516Y0066755D02*
X0169245Y0071026D01*
X0173516Y0071026D02*
X0173516Y0066755D01*
X0168178Y0079646D02*
X0167110Y0080714D01*
X0167110Y0082849D01*
X0168178Y0083917D01*
X0169245Y0083917D01*
X0170313Y0082849D01*
X0171380Y0083917D01*
X0172448Y0083917D01*
X0170313Y0082849D02*
X0170313Y0081781D01*
X0173516Y0045244D02*
X0167110Y0045244D01*
X0167110Y0040973D02*
X0173516Y0045244D01*
X0173516Y0040973D02*
X0167110Y0040973D01*
X0060627Y0028272D02*
X0056690Y0028272D01*
D14*
X0047284Y0075622D03*
D15*
X0049012Y0075319D02*
X0049012Y0076894D01*
X0050587Y0076894D01*
X0049012Y0059177D02*
X0049012Y0057602D01*
X0050587Y0057602D01*
X0066729Y0057602D02*
X0068304Y0057602D01*
X0068304Y0059177D01*
X0068304Y0075319D02*
X0068304Y0076894D01*
X0066729Y0076894D01*
M02*
