%
M48
M72
T01C0.0098
T02C0.0118
T03C0.0197
T04C0.0390
T05C0.0394
T06C0.0866
%
T01
X5466Y6325
X5866Y6725
X6266Y7125
X6266Y6325
X5466Y7125
T02
X4744Y7748
X4330Y7945
X3779Y9008
X3752Y10044
X4606Y10780
X4606Y11075
X5123Y10780
X5566Y10780
X5197Y10150
X5123Y12748
X5566Y12748
X6476Y16882
X5689Y20819
X5689Y24756
X5689Y28693
X5689Y32630
X9626Y28693
X9626Y24756
X8445Y21607
X11476Y14638
X12362Y10111
X13326Y8437
X13307Y7493
X13366Y6587
X13366Y6115
X13366Y5642
X13366Y5170
X12893Y5170
X12893Y5642
X12893Y6115
X12893Y6587
X12421Y6587
X12421Y6115
X12421Y5642
X12421Y5170
X11948Y4717
X12519Y3575
X12598Y2788
X12893Y2729
X13366Y2729
X13641Y3300
X13858Y2748
X14448Y4166
X13838Y5170
X13838Y5642
X13838Y6115
X13838Y6587
X14354Y7304
X15177Y6390
X16338Y5426
X16338Y5111
X16338Y4796
X16338Y4481
X16338Y4166
X16338Y2847
X16338Y2532
X16338Y2217
X16338Y1882
X16338Y1548
X16338Y1213
X16338Y878
X14389Y1331
X12145Y2394
X11968Y3122
X11673Y2532
X11250Y3408
X10334Y5524
X9232Y6784
X8504Y5347
X8090Y4323
X7628Y4510
X7637Y5229
X7795Y6134
X8090Y6311
X7303Y6764
X6791Y7552
X6941Y7957
X8287Y10386
X10098Y8457
X10295Y8674
X10256Y9756
X10531Y9953
X11023Y9402
X11948Y7000
X13996Y10111
X14375Y10386
X14818Y10386
X15260Y10386
X15703Y10386
X16122Y9382
X16122Y8989
X16122Y8595
X14783Y9540
X14468Y9540
X14153Y9540
X14375Y13748
X14818Y13748
X15260Y13748
X15703Y13748
X14308Y14878
X13563Y20819
X13563Y24756
X13563Y28693
X13563Y32630
X2775Y7158
X2771Y6477
X2141Y6378
X2874Y4835
X2874Y3821
X3445Y2945
X4015Y3536
X4153Y4540
X4547Y5130
X4409Y5465
X4389Y6115
X4665Y5918
X4724Y5603
X3956Y5622
X3681Y5307
X3917Y6804
X5531Y4540
X5945Y4170
X6122Y4953
X4803Y3575
X5256Y2532
X5000Y2217
X4234Y2323
X7499Y3201
X7775Y2827
X8011Y3221
X8956Y4185
X9291Y3870
T03
X6673Y11469
X6230Y11469
X5787Y11469
X5344Y11469
X4901Y11469
X4901Y12256
X5344Y12256
X5787Y12256
X6230Y12256
X6673Y12256
X14153Y12256
X14596Y12256
X15039Y12256
X15482Y12256
X15925Y12256
X15925Y11469
X15482Y11469
X15039Y11469
X14596Y11469
X14153Y11469
T04
X14374Y3700
X14374Y2900
X16374Y3300
T05
X14913Y1831
X14913Y831
X13913Y831
X13913Y1831
X12913Y1831
X12913Y831
X11913Y831
X11913Y1831
X10913Y1831
X10913Y831
X9913Y831
X9913Y1831
X8913Y1831
X8913Y831
X7913Y831
X7913Y1831
X6913Y1831
X6913Y831
X5913Y831
X5913Y1831
X6913Y10878
X7913Y10878
X8913Y10878
X9913Y10878
X10913Y10878
X11913Y10878
X12913Y10878
X13913Y10878
X13913Y12847
X12913Y12847
X7913Y12847
X6913Y12847
T06
X2578Y977
X2578Y10544
X3326Y36567
X17500Y36567
M30
