G75*
%MOIN*%
%OFA0B0*%
%FSLAX25Y25*%
%IPPOS*%
%LPD*%
%AMOC8*
5,1,8,0,0,1.08239X$1,22.5*
%
%ADD10C,0.09843*%
%ADD11R,0.13780X0.13780*%
%ADD12R,0.14567X0.11811*%
%ADD13R,0.13780X0.16142*%
%ADD14R,0.13780X0.22835*%
%ADD15R,0.23622X0.17717*%
%ADD16R,0.17717X0.11417*%
%ADD17R,0.17717X0.11811*%
%ADD18R,0.06299X0.07087*%
D10*
X0068698Y0278272D03*
X0068698Y0351106D03*
X0139564Y0351106D03*
D11*
X0128737Y0352287D03*
X0128737Y0352287D03*
X0079524Y0352287D03*
X0079524Y0352287D03*
X0104131Y0222366D03*
X0104131Y0181028D03*
D12*
X0083264Y0201894D03*
X0125784Y0201894D03*
X0142320Y0312130D03*
X0066729Y0312130D03*
D13*
X0085627Y0351500D03*
X0122635Y0351500D03*
D14*
X0130115Y0306618D03*
X0078934Y0306618D03*
D15*
X0104524Y0168429D03*
D16*
X0084839Y0312130D03*
X0084839Y0312327D03*
X0124209Y0312327D03*
X0124209Y0312130D03*
D17*
X0104524Y0225713D03*
X0104524Y0213705D03*
D18*
G36*
X0096018Y0067685D02*
X0091565Y0072138D01*
X0096574Y0077147D01*
X0101027Y0072694D01*
X0096018Y0067685D01*
G37*
G36*
X0101586Y0073252D02*
X0097133Y0077705D01*
X0102142Y0082714D01*
X0106595Y0078261D01*
X0101586Y0073252D01*
G37*
G36*
X0103813Y0059890D02*
X0099360Y0064343D01*
X0104369Y0069352D01*
X0108822Y0064899D01*
X0103813Y0059890D01*
G37*
G36*
X0109381Y0065457D02*
X0104928Y0069910D01*
X0109937Y0074919D01*
X0114390Y0070466D01*
X0109381Y0065457D01*
G37*
G36*
X0114949Y0071025D02*
X0110496Y0075478D01*
X0115505Y0080487D01*
X0119958Y0076034D01*
X0114949Y0071025D01*
G37*
G36*
X0120517Y0076593D02*
X0116064Y0081046D01*
X0121073Y0086055D01*
X0125526Y0081602D01*
X0120517Y0076593D01*
G37*
G36*
X0126084Y0082161D02*
X0121631Y0086614D01*
X0126640Y0091623D01*
X0131093Y0087170D01*
X0126084Y0082161D01*
G37*
G36*
X0118290Y0089956D02*
X0113837Y0094409D01*
X0118846Y0099418D01*
X0123299Y0094965D01*
X0118290Y0089956D01*
G37*
G36*
X0112722Y0084388D02*
X0108269Y0088841D01*
X0113278Y0093850D01*
X0117731Y0089397D01*
X0112722Y0084388D01*
G37*
G36*
X0107154Y0078820D02*
X0102701Y0083273D01*
X0107710Y0088282D01*
X0112163Y0083829D01*
X0107154Y0078820D01*
G37*
M02*
