G75*
%MOIN*%
%OFA0B0*%
%FSLAX25Y25*%
%IPPOS*%
%LPD*%
%AMOC8*
5,1,8,0,0,1.08239X$1,22.5*
%
%ADD10C,0.00000*%
D10*
X0017516Y0021728D02*
X0017516Y0133933D01*
X0049012Y0133933D01*
X0049012Y0143776D01*
X0017516Y0143776D01*
X0017516Y0401650D01*
X0190745Y0401650D01*
X0190745Y0143776D01*
X0159249Y0143776D01*
X0159249Y0133933D01*
X0190745Y0133933D01*
X0190745Y0021728D01*
X0017516Y0021728D01*
X0021453Y0029996D02*
X0021455Y0030127D01*
X0021461Y0030259D01*
X0021471Y0030390D01*
X0021485Y0030521D01*
X0021503Y0030651D01*
X0021525Y0030780D01*
X0021550Y0030909D01*
X0021580Y0031037D01*
X0021614Y0031164D01*
X0021651Y0031291D01*
X0021692Y0031415D01*
X0021737Y0031539D01*
X0021786Y0031661D01*
X0021838Y0031782D01*
X0021894Y0031900D01*
X0021954Y0032018D01*
X0022017Y0032133D01*
X0022084Y0032246D01*
X0022154Y0032358D01*
X0022227Y0032467D01*
X0022303Y0032573D01*
X0022383Y0032678D01*
X0022466Y0032780D01*
X0022552Y0032879D01*
X0022641Y0032976D01*
X0022733Y0033070D01*
X0022828Y0033161D01*
X0022925Y0033250D01*
X0023025Y0033335D01*
X0023128Y0033417D01*
X0023233Y0033496D01*
X0023340Y0033572D01*
X0023450Y0033644D01*
X0023562Y0033713D01*
X0023676Y0033779D01*
X0023791Y0033841D01*
X0023909Y0033900D01*
X0024028Y0033955D01*
X0024149Y0034007D01*
X0024272Y0034054D01*
X0024396Y0034098D01*
X0024521Y0034139D01*
X0024647Y0034175D01*
X0024775Y0034208D01*
X0024903Y0034236D01*
X0025032Y0034261D01*
X0025162Y0034282D01*
X0025292Y0034299D01*
X0025423Y0034312D01*
X0025554Y0034321D01*
X0025685Y0034326D01*
X0025817Y0034327D01*
X0025948Y0034324D01*
X0026080Y0034317D01*
X0026211Y0034306D01*
X0026341Y0034291D01*
X0026471Y0034272D01*
X0026601Y0034249D01*
X0026729Y0034223D01*
X0026857Y0034192D01*
X0026984Y0034157D01*
X0027110Y0034119D01*
X0027234Y0034077D01*
X0027358Y0034031D01*
X0027479Y0033981D01*
X0027599Y0033928D01*
X0027718Y0033871D01*
X0027835Y0033811D01*
X0027949Y0033747D01*
X0028062Y0033679D01*
X0028173Y0033608D01*
X0028282Y0033534D01*
X0028388Y0033457D01*
X0028492Y0033376D01*
X0028593Y0033293D01*
X0028692Y0033206D01*
X0028788Y0033116D01*
X0028881Y0033023D01*
X0028972Y0032928D01*
X0029059Y0032830D01*
X0029144Y0032729D01*
X0029225Y0032626D01*
X0029303Y0032520D01*
X0029378Y0032412D01*
X0029450Y0032302D01*
X0029518Y0032190D01*
X0029583Y0032076D01*
X0029644Y0031959D01*
X0029702Y0031841D01*
X0029756Y0031721D01*
X0029807Y0031600D01*
X0029854Y0031477D01*
X0029897Y0031353D01*
X0029936Y0031228D01*
X0029972Y0031101D01*
X0030003Y0030973D01*
X0030031Y0030845D01*
X0030055Y0030716D01*
X0030075Y0030586D01*
X0030091Y0030455D01*
X0030103Y0030324D01*
X0030111Y0030193D01*
X0030115Y0030062D01*
X0030115Y0029930D01*
X0030111Y0029799D01*
X0030103Y0029668D01*
X0030091Y0029537D01*
X0030075Y0029406D01*
X0030055Y0029276D01*
X0030031Y0029147D01*
X0030003Y0029019D01*
X0029972Y0028891D01*
X0029936Y0028764D01*
X0029897Y0028639D01*
X0029854Y0028515D01*
X0029807Y0028392D01*
X0029756Y0028271D01*
X0029702Y0028151D01*
X0029644Y0028033D01*
X0029583Y0027916D01*
X0029518Y0027802D01*
X0029450Y0027690D01*
X0029378Y0027580D01*
X0029303Y0027472D01*
X0029225Y0027366D01*
X0029144Y0027263D01*
X0029059Y0027162D01*
X0028972Y0027064D01*
X0028881Y0026969D01*
X0028788Y0026876D01*
X0028692Y0026786D01*
X0028593Y0026699D01*
X0028492Y0026616D01*
X0028388Y0026535D01*
X0028282Y0026458D01*
X0028173Y0026384D01*
X0028062Y0026313D01*
X0027950Y0026245D01*
X0027835Y0026181D01*
X0027718Y0026121D01*
X0027599Y0026064D01*
X0027479Y0026011D01*
X0027358Y0025961D01*
X0027234Y0025915D01*
X0027110Y0025873D01*
X0026984Y0025835D01*
X0026857Y0025800D01*
X0026729Y0025769D01*
X0026601Y0025743D01*
X0026471Y0025720D01*
X0026341Y0025701D01*
X0026211Y0025686D01*
X0026080Y0025675D01*
X0025948Y0025668D01*
X0025817Y0025665D01*
X0025685Y0025666D01*
X0025554Y0025671D01*
X0025423Y0025680D01*
X0025292Y0025693D01*
X0025162Y0025710D01*
X0025032Y0025731D01*
X0024903Y0025756D01*
X0024775Y0025784D01*
X0024647Y0025817D01*
X0024521Y0025853D01*
X0024396Y0025894D01*
X0024272Y0025938D01*
X0024149Y0025985D01*
X0024028Y0026037D01*
X0023909Y0026092D01*
X0023791Y0026151D01*
X0023676Y0026213D01*
X0023562Y0026279D01*
X0023450Y0026348D01*
X0023340Y0026420D01*
X0023233Y0026496D01*
X0023128Y0026575D01*
X0023025Y0026657D01*
X0022925Y0026742D01*
X0022828Y0026831D01*
X0022733Y0026922D01*
X0022641Y0027016D01*
X0022552Y0027113D01*
X0022466Y0027212D01*
X0022383Y0027314D01*
X0022303Y0027419D01*
X0022227Y0027525D01*
X0022154Y0027634D01*
X0022084Y0027746D01*
X0022017Y0027859D01*
X0021954Y0027974D01*
X0021894Y0028092D01*
X0021838Y0028210D01*
X0021786Y0028331D01*
X0021737Y0028453D01*
X0021692Y0028577D01*
X0021651Y0028701D01*
X0021614Y0028828D01*
X0021580Y0028955D01*
X0021550Y0029083D01*
X0021525Y0029212D01*
X0021503Y0029341D01*
X0021485Y0029471D01*
X0021471Y0029602D01*
X0021461Y0029733D01*
X0021455Y0029865D01*
X0021453Y0029996D01*
X0021453Y0125665D02*
X0021455Y0125796D01*
X0021461Y0125928D01*
X0021471Y0126059D01*
X0021485Y0126190D01*
X0021503Y0126320D01*
X0021525Y0126449D01*
X0021550Y0126578D01*
X0021580Y0126706D01*
X0021614Y0126833D01*
X0021651Y0126960D01*
X0021692Y0127084D01*
X0021737Y0127208D01*
X0021786Y0127330D01*
X0021838Y0127451D01*
X0021894Y0127569D01*
X0021954Y0127687D01*
X0022017Y0127802D01*
X0022084Y0127915D01*
X0022154Y0128027D01*
X0022227Y0128136D01*
X0022303Y0128242D01*
X0022383Y0128347D01*
X0022466Y0128449D01*
X0022552Y0128548D01*
X0022641Y0128645D01*
X0022733Y0128739D01*
X0022828Y0128830D01*
X0022925Y0128919D01*
X0023025Y0129004D01*
X0023128Y0129086D01*
X0023233Y0129165D01*
X0023340Y0129241D01*
X0023450Y0129313D01*
X0023562Y0129382D01*
X0023676Y0129448D01*
X0023791Y0129510D01*
X0023909Y0129569D01*
X0024028Y0129624D01*
X0024149Y0129676D01*
X0024272Y0129723D01*
X0024396Y0129767D01*
X0024521Y0129808D01*
X0024647Y0129844D01*
X0024775Y0129877D01*
X0024903Y0129905D01*
X0025032Y0129930D01*
X0025162Y0129951D01*
X0025292Y0129968D01*
X0025423Y0129981D01*
X0025554Y0129990D01*
X0025685Y0129995D01*
X0025817Y0129996D01*
X0025948Y0129993D01*
X0026080Y0129986D01*
X0026211Y0129975D01*
X0026341Y0129960D01*
X0026471Y0129941D01*
X0026601Y0129918D01*
X0026729Y0129892D01*
X0026857Y0129861D01*
X0026984Y0129826D01*
X0027110Y0129788D01*
X0027234Y0129746D01*
X0027358Y0129700D01*
X0027479Y0129650D01*
X0027599Y0129597D01*
X0027718Y0129540D01*
X0027835Y0129480D01*
X0027949Y0129416D01*
X0028062Y0129348D01*
X0028173Y0129277D01*
X0028282Y0129203D01*
X0028388Y0129126D01*
X0028492Y0129045D01*
X0028593Y0128962D01*
X0028692Y0128875D01*
X0028788Y0128785D01*
X0028881Y0128692D01*
X0028972Y0128597D01*
X0029059Y0128499D01*
X0029144Y0128398D01*
X0029225Y0128295D01*
X0029303Y0128189D01*
X0029378Y0128081D01*
X0029450Y0127971D01*
X0029518Y0127859D01*
X0029583Y0127745D01*
X0029644Y0127628D01*
X0029702Y0127510D01*
X0029756Y0127390D01*
X0029807Y0127269D01*
X0029854Y0127146D01*
X0029897Y0127022D01*
X0029936Y0126897D01*
X0029972Y0126770D01*
X0030003Y0126642D01*
X0030031Y0126514D01*
X0030055Y0126385D01*
X0030075Y0126255D01*
X0030091Y0126124D01*
X0030103Y0125993D01*
X0030111Y0125862D01*
X0030115Y0125731D01*
X0030115Y0125599D01*
X0030111Y0125468D01*
X0030103Y0125337D01*
X0030091Y0125206D01*
X0030075Y0125075D01*
X0030055Y0124945D01*
X0030031Y0124816D01*
X0030003Y0124688D01*
X0029972Y0124560D01*
X0029936Y0124433D01*
X0029897Y0124308D01*
X0029854Y0124184D01*
X0029807Y0124061D01*
X0029756Y0123940D01*
X0029702Y0123820D01*
X0029644Y0123702D01*
X0029583Y0123585D01*
X0029518Y0123471D01*
X0029450Y0123359D01*
X0029378Y0123249D01*
X0029303Y0123141D01*
X0029225Y0123035D01*
X0029144Y0122932D01*
X0029059Y0122831D01*
X0028972Y0122733D01*
X0028881Y0122638D01*
X0028788Y0122545D01*
X0028692Y0122455D01*
X0028593Y0122368D01*
X0028492Y0122285D01*
X0028388Y0122204D01*
X0028282Y0122127D01*
X0028173Y0122053D01*
X0028062Y0121982D01*
X0027950Y0121914D01*
X0027835Y0121850D01*
X0027718Y0121790D01*
X0027599Y0121733D01*
X0027479Y0121680D01*
X0027358Y0121630D01*
X0027234Y0121584D01*
X0027110Y0121542D01*
X0026984Y0121504D01*
X0026857Y0121469D01*
X0026729Y0121438D01*
X0026601Y0121412D01*
X0026471Y0121389D01*
X0026341Y0121370D01*
X0026211Y0121355D01*
X0026080Y0121344D01*
X0025948Y0121337D01*
X0025817Y0121334D01*
X0025685Y0121335D01*
X0025554Y0121340D01*
X0025423Y0121349D01*
X0025292Y0121362D01*
X0025162Y0121379D01*
X0025032Y0121400D01*
X0024903Y0121425D01*
X0024775Y0121453D01*
X0024647Y0121486D01*
X0024521Y0121522D01*
X0024396Y0121563D01*
X0024272Y0121607D01*
X0024149Y0121654D01*
X0024028Y0121706D01*
X0023909Y0121761D01*
X0023791Y0121820D01*
X0023676Y0121882D01*
X0023562Y0121948D01*
X0023450Y0122017D01*
X0023340Y0122089D01*
X0023233Y0122165D01*
X0023128Y0122244D01*
X0023025Y0122326D01*
X0022925Y0122411D01*
X0022828Y0122500D01*
X0022733Y0122591D01*
X0022641Y0122685D01*
X0022552Y0122782D01*
X0022466Y0122881D01*
X0022383Y0122983D01*
X0022303Y0123088D01*
X0022227Y0123194D01*
X0022154Y0123303D01*
X0022084Y0123415D01*
X0022017Y0123528D01*
X0021954Y0123643D01*
X0021894Y0123761D01*
X0021838Y0123879D01*
X0021786Y0124000D01*
X0021737Y0124122D01*
X0021692Y0124246D01*
X0021651Y0124370D01*
X0021614Y0124497D01*
X0021580Y0124624D01*
X0021550Y0124752D01*
X0021525Y0124881D01*
X0021503Y0125010D01*
X0021485Y0125140D01*
X0021471Y0125271D01*
X0021461Y0125402D01*
X0021455Y0125534D01*
X0021453Y0125665D01*
X0048028Y0134917D02*
X0048030Y0134979D01*
X0048036Y0135042D01*
X0048046Y0135103D01*
X0048060Y0135164D01*
X0048077Y0135224D01*
X0048098Y0135283D01*
X0048124Y0135340D01*
X0048152Y0135395D01*
X0048184Y0135449D01*
X0048220Y0135500D01*
X0048258Y0135550D01*
X0048300Y0135596D01*
X0048344Y0135640D01*
X0048392Y0135681D01*
X0048441Y0135719D01*
X0048493Y0135753D01*
X0048547Y0135784D01*
X0048603Y0135812D01*
X0048661Y0135836D01*
X0048720Y0135857D01*
X0048780Y0135873D01*
X0048841Y0135886D01*
X0048903Y0135895D01*
X0048965Y0135900D01*
X0049028Y0135901D01*
X0049090Y0135898D01*
X0049152Y0135891D01*
X0049214Y0135880D01*
X0049274Y0135865D01*
X0049334Y0135847D01*
X0049392Y0135825D01*
X0049449Y0135799D01*
X0049504Y0135769D01*
X0049557Y0135736D01*
X0049608Y0135700D01*
X0049656Y0135661D01*
X0049702Y0135618D01*
X0049745Y0135573D01*
X0049785Y0135525D01*
X0049822Y0135475D01*
X0049856Y0135422D01*
X0049887Y0135368D01*
X0049913Y0135312D01*
X0049937Y0135254D01*
X0049956Y0135194D01*
X0049972Y0135134D01*
X0049984Y0135072D01*
X0049992Y0135011D01*
X0049996Y0134948D01*
X0049996Y0134886D01*
X0049992Y0134823D01*
X0049984Y0134762D01*
X0049972Y0134700D01*
X0049956Y0134640D01*
X0049937Y0134580D01*
X0049913Y0134522D01*
X0049887Y0134466D01*
X0049856Y0134412D01*
X0049822Y0134359D01*
X0049785Y0134309D01*
X0049745Y0134261D01*
X0049702Y0134216D01*
X0049656Y0134173D01*
X0049608Y0134134D01*
X0049557Y0134098D01*
X0049504Y0134065D01*
X0049449Y0134035D01*
X0049392Y0134009D01*
X0049334Y0133987D01*
X0049274Y0133969D01*
X0049214Y0133954D01*
X0049152Y0133943D01*
X0049090Y0133936D01*
X0049028Y0133933D01*
X0048965Y0133934D01*
X0048903Y0133939D01*
X0048841Y0133948D01*
X0048780Y0133961D01*
X0048720Y0133977D01*
X0048661Y0133998D01*
X0048603Y0134022D01*
X0048547Y0134050D01*
X0048493Y0134081D01*
X0048441Y0134115D01*
X0048392Y0134153D01*
X0048344Y0134194D01*
X0048300Y0134238D01*
X0048258Y0134284D01*
X0048220Y0134334D01*
X0048184Y0134385D01*
X0048152Y0134439D01*
X0048124Y0134494D01*
X0048098Y0134551D01*
X0048077Y0134610D01*
X0048060Y0134670D01*
X0048046Y0134731D01*
X0048036Y0134792D01*
X0048030Y0134855D01*
X0048028Y0134917D01*
X0052458Y0134917D02*
X0052460Y0134979D01*
X0052466Y0135042D01*
X0052476Y0135103D01*
X0052490Y0135164D01*
X0052507Y0135224D01*
X0052528Y0135283D01*
X0052554Y0135340D01*
X0052582Y0135395D01*
X0052614Y0135449D01*
X0052650Y0135500D01*
X0052688Y0135550D01*
X0052730Y0135596D01*
X0052774Y0135640D01*
X0052822Y0135681D01*
X0052871Y0135719D01*
X0052923Y0135753D01*
X0052977Y0135784D01*
X0053033Y0135812D01*
X0053091Y0135836D01*
X0053150Y0135857D01*
X0053210Y0135873D01*
X0053271Y0135886D01*
X0053333Y0135895D01*
X0053395Y0135900D01*
X0053458Y0135901D01*
X0053520Y0135898D01*
X0053582Y0135891D01*
X0053644Y0135880D01*
X0053704Y0135865D01*
X0053764Y0135847D01*
X0053822Y0135825D01*
X0053879Y0135799D01*
X0053934Y0135769D01*
X0053987Y0135736D01*
X0054038Y0135700D01*
X0054086Y0135661D01*
X0054132Y0135618D01*
X0054175Y0135573D01*
X0054215Y0135525D01*
X0054252Y0135475D01*
X0054286Y0135422D01*
X0054317Y0135368D01*
X0054343Y0135312D01*
X0054367Y0135254D01*
X0054386Y0135194D01*
X0054402Y0135134D01*
X0054414Y0135072D01*
X0054422Y0135011D01*
X0054426Y0134948D01*
X0054426Y0134886D01*
X0054422Y0134823D01*
X0054414Y0134762D01*
X0054402Y0134700D01*
X0054386Y0134640D01*
X0054367Y0134580D01*
X0054343Y0134522D01*
X0054317Y0134466D01*
X0054286Y0134412D01*
X0054252Y0134359D01*
X0054215Y0134309D01*
X0054175Y0134261D01*
X0054132Y0134216D01*
X0054086Y0134173D01*
X0054038Y0134134D01*
X0053987Y0134098D01*
X0053934Y0134065D01*
X0053879Y0134035D01*
X0053822Y0134009D01*
X0053764Y0133987D01*
X0053704Y0133969D01*
X0053644Y0133954D01*
X0053582Y0133943D01*
X0053520Y0133936D01*
X0053458Y0133933D01*
X0053395Y0133934D01*
X0053333Y0133939D01*
X0053271Y0133948D01*
X0053210Y0133961D01*
X0053150Y0133977D01*
X0053091Y0133998D01*
X0053033Y0134022D01*
X0052977Y0134050D01*
X0052923Y0134081D01*
X0052871Y0134115D01*
X0052822Y0134153D01*
X0052774Y0134194D01*
X0052730Y0134238D01*
X0052688Y0134284D01*
X0052650Y0134334D01*
X0052614Y0134385D01*
X0052582Y0134439D01*
X0052554Y0134494D01*
X0052528Y0134551D01*
X0052507Y0134610D01*
X0052490Y0134670D01*
X0052476Y0134731D01*
X0052466Y0134792D01*
X0052460Y0134855D01*
X0052458Y0134917D01*
X0052458Y0142791D02*
X0052460Y0142853D01*
X0052466Y0142916D01*
X0052476Y0142977D01*
X0052490Y0143038D01*
X0052507Y0143098D01*
X0052528Y0143157D01*
X0052554Y0143214D01*
X0052582Y0143269D01*
X0052614Y0143323D01*
X0052650Y0143374D01*
X0052688Y0143424D01*
X0052730Y0143470D01*
X0052774Y0143514D01*
X0052822Y0143555D01*
X0052871Y0143593D01*
X0052923Y0143627D01*
X0052977Y0143658D01*
X0053033Y0143686D01*
X0053091Y0143710D01*
X0053150Y0143731D01*
X0053210Y0143747D01*
X0053271Y0143760D01*
X0053333Y0143769D01*
X0053395Y0143774D01*
X0053458Y0143775D01*
X0053520Y0143772D01*
X0053582Y0143765D01*
X0053644Y0143754D01*
X0053704Y0143739D01*
X0053764Y0143721D01*
X0053822Y0143699D01*
X0053879Y0143673D01*
X0053934Y0143643D01*
X0053987Y0143610D01*
X0054038Y0143574D01*
X0054086Y0143535D01*
X0054132Y0143492D01*
X0054175Y0143447D01*
X0054215Y0143399D01*
X0054252Y0143349D01*
X0054286Y0143296D01*
X0054317Y0143242D01*
X0054343Y0143186D01*
X0054367Y0143128D01*
X0054386Y0143068D01*
X0054402Y0143008D01*
X0054414Y0142946D01*
X0054422Y0142885D01*
X0054426Y0142822D01*
X0054426Y0142760D01*
X0054422Y0142697D01*
X0054414Y0142636D01*
X0054402Y0142574D01*
X0054386Y0142514D01*
X0054367Y0142454D01*
X0054343Y0142396D01*
X0054317Y0142340D01*
X0054286Y0142286D01*
X0054252Y0142233D01*
X0054215Y0142183D01*
X0054175Y0142135D01*
X0054132Y0142090D01*
X0054086Y0142047D01*
X0054038Y0142008D01*
X0053987Y0141972D01*
X0053934Y0141939D01*
X0053879Y0141909D01*
X0053822Y0141883D01*
X0053764Y0141861D01*
X0053704Y0141843D01*
X0053644Y0141828D01*
X0053582Y0141817D01*
X0053520Y0141810D01*
X0053458Y0141807D01*
X0053395Y0141808D01*
X0053333Y0141813D01*
X0053271Y0141822D01*
X0053210Y0141835D01*
X0053150Y0141851D01*
X0053091Y0141872D01*
X0053033Y0141896D01*
X0052977Y0141924D01*
X0052923Y0141955D01*
X0052871Y0141989D01*
X0052822Y0142027D01*
X0052774Y0142068D01*
X0052730Y0142112D01*
X0052688Y0142158D01*
X0052650Y0142208D01*
X0052614Y0142259D01*
X0052582Y0142313D01*
X0052554Y0142368D01*
X0052528Y0142425D01*
X0052507Y0142484D01*
X0052490Y0142544D01*
X0052476Y0142605D01*
X0052466Y0142666D01*
X0052460Y0142729D01*
X0052458Y0142791D01*
X0048028Y0142791D02*
X0048030Y0142853D01*
X0048036Y0142916D01*
X0048046Y0142977D01*
X0048060Y0143038D01*
X0048077Y0143098D01*
X0048098Y0143157D01*
X0048124Y0143214D01*
X0048152Y0143269D01*
X0048184Y0143323D01*
X0048220Y0143374D01*
X0048258Y0143424D01*
X0048300Y0143470D01*
X0048344Y0143514D01*
X0048392Y0143555D01*
X0048441Y0143593D01*
X0048493Y0143627D01*
X0048547Y0143658D01*
X0048603Y0143686D01*
X0048661Y0143710D01*
X0048720Y0143731D01*
X0048780Y0143747D01*
X0048841Y0143760D01*
X0048903Y0143769D01*
X0048965Y0143774D01*
X0049028Y0143775D01*
X0049090Y0143772D01*
X0049152Y0143765D01*
X0049214Y0143754D01*
X0049274Y0143739D01*
X0049334Y0143721D01*
X0049392Y0143699D01*
X0049449Y0143673D01*
X0049504Y0143643D01*
X0049557Y0143610D01*
X0049608Y0143574D01*
X0049656Y0143535D01*
X0049702Y0143492D01*
X0049745Y0143447D01*
X0049785Y0143399D01*
X0049822Y0143349D01*
X0049856Y0143296D01*
X0049887Y0143242D01*
X0049913Y0143186D01*
X0049937Y0143128D01*
X0049956Y0143068D01*
X0049972Y0143008D01*
X0049984Y0142946D01*
X0049992Y0142885D01*
X0049996Y0142822D01*
X0049996Y0142760D01*
X0049992Y0142697D01*
X0049984Y0142636D01*
X0049972Y0142574D01*
X0049956Y0142514D01*
X0049937Y0142454D01*
X0049913Y0142396D01*
X0049887Y0142340D01*
X0049856Y0142286D01*
X0049822Y0142233D01*
X0049785Y0142183D01*
X0049745Y0142135D01*
X0049702Y0142090D01*
X0049656Y0142047D01*
X0049608Y0142008D01*
X0049557Y0141972D01*
X0049504Y0141939D01*
X0049449Y0141909D01*
X0049392Y0141883D01*
X0049334Y0141861D01*
X0049274Y0141843D01*
X0049214Y0141828D01*
X0049152Y0141817D01*
X0049090Y0141810D01*
X0049028Y0141807D01*
X0048965Y0141808D01*
X0048903Y0141813D01*
X0048841Y0141822D01*
X0048780Y0141835D01*
X0048720Y0141851D01*
X0048661Y0141872D01*
X0048603Y0141896D01*
X0048547Y0141924D01*
X0048493Y0141955D01*
X0048441Y0141989D01*
X0048392Y0142027D01*
X0048344Y0142068D01*
X0048300Y0142112D01*
X0048258Y0142158D01*
X0048220Y0142208D01*
X0048184Y0142259D01*
X0048152Y0142313D01*
X0048124Y0142368D01*
X0048098Y0142425D01*
X0048077Y0142484D01*
X0048060Y0142544D01*
X0048046Y0142605D01*
X0048036Y0142666D01*
X0048030Y0142729D01*
X0048028Y0142791D01*
X0056887Y0142791D02*
X0056889Y0142853D01*
X0056895Y0142916D01*
X0056905Y0142977D01*
X0056919Y0143038D01*
X0056936Y0143098D01*
X0056957Y0143157D01*
X0056983Y0143214D01*
X0057011Y0143269D01*
X0057043Y0143323D01*
X0057079Y0143374D01*
X0057117Y0143424D01*
X0057159Y0143470D01*
X0057203Y0143514D01*
X0057251Y0143555D01*
X0057300Y0143593D01*
X0057352Y0143627D01*
X0057406Y0143658D01*
X0057462Y0143686D01*
X0057520Y0143710D01*
X0057579Y0143731D01*
X0057639Y0143747D01*
X0057700Y0143760D01*
X0057762Y0143769D01*
X0057824Y0143774D01*
X0057887Y0143775D01*
X0057949Y0143772D01*
X0058011Y0143765D01*
X0058073Y0143754D01*
X0058133Y0143739D01*
X0058193Y0143721D01*
X0058251Y0143699D01*
X0058308Y0143673D01*
X0058363Y0143643D01*
X0058416Y0143610D01*
X0058467Y0143574D01*
X0058515Y0143535D01*
X0058561Y0143492D01*
X0058604Y0143447D01*
X0058644Y0143399D01*
X0058681Y0143349D01*
X0058715Y0143296D01*
X0058746Y0143242D01*
X0058772Y0143186D01*
X0058796Y0143128D01*
X0058815Y0143068D01*
X0058831Y0143008D01*
X0058843Y0142946D01*
X0058851Y0142885D01*
X0058855Y0142822D01*
X0058855Y0142760D01*
X0058851Y0142697D01*
X0058843Y0142636D01*
X0058831Y0142574D01*
X0058815Y0142514D01*
X0058796Y0142454D01*
X0058772Y0142396D01*
X0058746Y0142340D01*
X0058715Y0142286D01*
X0058681Y0142233D01*
X0058644Y0142183D01*
X0058604Y0142135D01*
X0058561Y0142090D01*
X0058515Y0142047D01*
X0058467Y0142008D01*
X0058416Y0141972D01*
X0058363Y0141939D01*
X0058308Y0141909D01*
X0058251Y0141883D01*
X0058193Y0141861D01*
X0058133Y0141843D01*
X0058073Y0141828D01*
X0058011Y0141817D01*
X0057949Y0141810D01*
X0057887Y0141807D01*
X0057824Y0141808D01*
X0057762Y0141813D01*
X0057700Y0141822D01*
X0057639Y0141835D01*
X0057579Y0141851D01*
X0057520Y0141872D01*
X0057462Y0141896D01*
X0057406Y0141924D01*
X0057352Y0141955D01*
X0057300Y0141989D01*
X0057251Y0142027D01*
X0057203Y0142068D01*
X0057159Y0142112D01*
X0057117Y0142158D01*
X0057079Y0142208D01*
X0057043Y0142259D01*
X0057011Y0142313D01*
X0056983Y0142368D01*
X0056957Y0142425D01*
X0056936Y0142484D01*
X0056919Y0142544D01*
X0056905Y0142605D01*
X0056895Y0142666D01*
X0056889Y0142729D01*
X0056887Y0142791D01*
X0056887Y0134917D02*
X0056889Y0134979D01*
X0056895Y0135042D01*
X0056905Y0135103D01*
X0056919Y0135164D01*
X0056936Y0135224D01*
X0056957Y0135283D01*
X0056983Y0135340D01*
X0057011Y0135395D01*
X0057043Y0135449D01*
X0057079Y0135500D01*
X0057117Y0135550D01*
X0057159Y0135596D01*
X0057203Y0135640D01*
X0057251Y0135681D01*
X0057300Y0135719D01*
X0057352Y0135753D01*
X0057406Y0135784D01*
X0057462Y0135812D01*
X0057520Y0135836D01*
X0057579Y0135857D01*
X0057639Y0135873D01*
X0057700Y0135886D01*
X0057762Y0135895D01*
X0057824Y0135900D01*
X0057887Y0135901D01*
X0057949Y0135898D01*
X0058011Y0135891D01*
X0058073Y0135880D01*
X0058133Y0135865D01*
X0058193Y0135847D01*
X0058251Y0135825D01*
X0058308Y0135799D01*
X0058363Y0135769D01*
X0058416Y0135736D01*
X0058467Y0135700D01*
X0058515Y0135661D01*
X0058561Y0135618D01*
X0058604Y0135573D01*
X0058644Y0135525D01*
X0058681Y0135475D01*
X0058715Y0135422D01*
X0058746Y0135368D01*
X0058772Y0135312D01*
X0058796Y0135254D01*
X0058815Y0135194D01*
X0058831Y0135134D01*
X0058843Y0135072D01*
X0058851Y0135011D01*
X0058855Y0134948D01*
X0058855Y0134886D01*
X0058851Y0134823D01*
X0058843Y0134762D01*
X0058831Y0134700D01*
X0058815Y0134640D01*
X0058796Y0134580D01*
X0058772Y0134522D01*
X0058746Y0134466D01*
X0058715Y0134412D01*
X0058681Y0134359D01*
X0058644Y0134309D01*
X0058604Y0134261D01*
X0058561Y0134216D01*
X0058515Y0134173D01*
X0058467Y0134134D01*
X0058416Y0134098D01*
X0058363Y0134065D01*
X0058308Y0134035D01*
X0058251Y0134009D01*
X0058193Y0133987D01*
X0058133Y0133969D01*
X0058073Y0133954D01*
X0058011Y0133943D01*
X0057949Y0133936D01*
X0057887Y0133933D01*
X0057824Y0133934D01*
X0057762Y0133939D01*
X0057700Y0133948D01*
X0057639Y0133961D01*
X0057579Y0133977D01*
X0057520Y0133998D01*
X0057462Y0134022D01*
X0057406Y0134050D01*
X0057352Y0134081D01*
X0057300Y0134115D01*
X0057251Y0134153D01*
X0057203Y0134194D01*
X0057159Y0134238D01*
X0057117Y0134284D01*
X0057079Y0134334D01*
X0057043Y0134385D01*
X0057011Y0134439D01*
X0056983Y0134494D01*
X0056957Y0134551D01*
X0056936Y0134610D01*
X0056919Y0134670D01*
X0056905Y0134731D01*
X0056895Y0134792D01*
X0056889Y0134855D01*
X0056887Y0134917D01*
X0061316Y0134917D02*
X0061318Y0134979D01*
X0061324Y0135042D01*
X0061334Y0135103D01*
X0061348Y0135164D01*
X0061365Y0135224D01*
X0061386Y0135283D01*
X0061412Y0135340D01*
X0061440Y0135395D01*
X0061472Y0135449D01*
X0061508Y0135500D01*
X0061546Y0135550D01*
X0061588Y0135596D01*
X0061632Y0135640D01*
X0061680Y0135681D01*
X0061729Y0135719D01*
X0061781Y0135753D01*
X0061835Y0135784D01*
X0061891Y0135812D01*
X0061949Y0135836D01*
X0062008Y0135857D01*
X0062068Y0135873D01*
X0062129Y0135886D01*
X0062191Y0135895D01*
X0062253Y0135900D01*
X0062316Y0135901D01*
X0062378Y0135898D01*
X0062440Y0135891D01*
X0062502Y0135880D01*
X0062562Y0135865D01*
X0062622Y0135847D01*
X0062680Y0135825D01*
X0062737Y0135799D01*
X0062792Y0135769D01*
X0062845Y0135736D01*
X0062896Y0135700D01*
X0062944Y0135661D01*
X0062990Y0135618D01*
X0063033Y0135573D01*
X0063073Y0135525D01*
X0063110Y0135475D01*
X0063144Y0135422D01*
X0063175Y0135368D01*
X0063201Y0135312D01*
X0063225Y0135254D01*
X0063244Y0135194D01*
X0063260Y0135134D01*
X0063272Y0135072D01*
X0063280Y0135011D01*
X0063284Y0134948D01*
X0063284Y0134886D01*
X0063280Y0134823D01*
X0063272Y0134762D01*
X0063260Y0134700D01*
X0063244Y0134640D01*
X0063225Y0134580D01*
X0063201Y0134522D01*
X0063175Y0134466D01*
X0063144Y0134412D01*
X0063110Y0134359D01*
X0063073Y0134309D01*
X0063033Y0134261D01*
X0062990Y0134216D01*
X0062944Y0134173D01*
X0062896Y0134134D01*
X0062845Y0134098D01*
X0062792Y0134065D01*
X0062737Y0134035D01*
X0062680Y0134009D01*
X0062622Y0133987D01*
X0062562Y0133969D01*
X0062502Y0133954D01*
X0062440Y0133943D01*
X0062378Y0133936D01*
X0062316Y0133933D01*
X0062253Y0133934D01*
X0062191Y0133939D01*
X0062129Y0133948D01*
X0062068Y0133961D01*
X0062008Y0133977D01*
X0061949Y0133998D01*
X0061891Y0134022D01*
X0061835Y0134050D01*
X0061781Y0134081D01*
X0061729Y0134115D01*
X0061680Y0134153D01*
X0061632Y0134194D01*
X0061588Y0134238D01*
X0061546Y0134284D01*
X0061508Y0134334D01*
X0061472Y0134385D01*
X0061440Y0134439D01*
X0061412Y0134494D01*
X0061386Y0134551D01*
X0061365Y0134610D01*
X0061348Y0134670D01*
X0061334Y0134731D01*
X0061324Y0134792D01*
X0061318Y0134855D01*
X0061316Y0134917D01*
X0061316Y0142791D02*
X0061318Y0142853D01*
X0061324Y0142916D01*
X0061334Y0142977D01*
X0061348Y0143038D01*
X0061365Y0143098D01*
X0061386Y0143157D01*
X0061412Y0143214D01*
X0061440Y0143269D01*
X0061472Y0143323D01*
X0061508Y0143374D01*
X0061546Y0143424D01*
X0061588Y0143470D01*
X0061632Y0143514D01*
X0061680Y0143555D01*
X0061729Y0143593D01*
X0061781Y0143627D01*
X0061835Y0143658D01*
X0061891Y0143686D01*
X0061949Y0143710D01*
X0062008Y0143731D01*
X0062068Y0143747D01*
X0062129Y0143760D01*
X0062191Y0143769D01*
X0062253Y0143774D01*
X0062316Y0143775D01*
X0062378Y0143772D01*
X0062440Y0143765D01*
X0062502Y0143754D01*
X0062562Y0143739D01*
X0062622Y0143721D01*
X0062680Y0143699D01*
X0062737Y0143673D01*
X0062792Y0143643D01*
X0062845Y0143610D01*
X0062896Y0143574D01*
X0062944Y0143535D01*
X0062990Y0143492D01*
X0063033Y0143447D01*
X0063073Y0143399D01*
X0063110Y0143349D01*
X0063144Y0143296D01*
X0063175Y0143242D01*
X0063201Y0143186D01*
X0063225Y0143128D01*
X0063244Y0143068D01*
X0063260Y0143008D01*
X0063272Y0142946D01*
X0063280Y0142885D01*
X0063284Y0142822D01*
X0063284Y0142760D01*
X0063280Y0142697D01*
X0063272Y0142636D01*
X0063260Y0142574D01*
X0063244Y0142514D01*
X0063225Y0142454D01*
X0063201Y0142396D01*
X0063175Y0142340D01*
X0063144Y0142286D01*
X0063110Y0142233D01*
X0063073Y0142183D01*
X0063033Y0142135D01*
X0062990Y0142090D01*
X0062944Y0142047D01*
X0062896Y0142008D01*
X0062845Y0141972D01*
X0062792Y0141939D01*
X0062737Y0141909D01*
X0062680Y0141883D01*
X0062622Y0141861D01*
X0062562Y0141843D01*
X0062502Y0141828D01*
X0062440Y0141817D01*
X0062378Y0141810D01*
X0062316Y0141807D01*
X0062253Y0141808D01*
X0062191Y0141813D01*
X0062129Y0141822D01*
X0062068Y0141835D01*
X0062008Y0141851D01*
X0061949Y0141872D01*
X0061891Y0141896D01*
X0061835Y0141924D01*
X0061781Y0141955D01*
X0061729Y0141989D01*
X0061680Y0142027D01*
X0061632Y0142068D01*
X0061588Y0142112D01*
X0061546Y0142158D01*
X0061508Y0142208D01*
X0061472Y0142259D01*
X0061440Y0142313D01*
X0061412Y0142368D01*
X0061386Y0142425D01*
X0061365Y0142484D01*
X0061348Y0142544D01*
X0061334Y0142605D01*
X0061324Y0142666D01*
X0061318Y0142729D01*
X0061316Y0142791D01*
X0065745Y0142791D02*
X0065747Y0142853D01*
X0065753Y0142916D01*
X0065763Y0142977D01*
X0065777Y0143038D01*
X0065794Y0143098D01*
X0065815Y0143157D01*
X0065841Y0143214D01*
X0065869Y0143269D01*
X0065901Y0143323D01*
X0065937Y0143374D01*
X0065975Y0143424D01*
X0066017Y0143470D01*
X0066061Y0143514D01*
X0066109Y0143555D01*
X0066158Y0143593D01*
X0066210Y0143627D01*
X0066264Y0143658D01*
X0066320Y0143686D01*
X0066378Y0143710D01*
X0066437Y0143731D01*
X0066497Y0143747D01*
X0066558Y0143760D01*
X0066620Y0143769D01*
X0066682Y0143774D01*
X0066745Y0143775D01*
X0066807Y0143772D01*
X0066869Y0143765D01*
X0066931Y0143754D01*
X0066991Y0143739D01*
X0067051Y0143721D01*
X0067109Y0143699D01*
X0067166Y0143673D01*
X0067221Y0143643D01*
X0067274Y0143610D01*
X0067325Y0143574D01*
X0067373Y0143535D01*
X0067419Y0143492D01*
X0067462Y0143447D01*
X0067502Y0143399D01*
X0067539Y0143349D01*
X0067573Y0143296D01*
X0067604Y0143242D01*
X0067630Y0143186D01*
X0067654Y0143128D01*
X0067673Y0143068D01*
X0067689Y0143008D01*
X0067701Y0142946D01*
X0067709Y0142885D01*
X0067713Y0142822D01*
X0067713Y0142760D01*
X0067709Y0142697D01*
X0067701Y0142636D01*
X0067689Y0142574D01*
X0067673Y0142514D01*
X0067654Y0142454D01*
X0067630Y0142396D01*
X0067604Y0142340D01*
X0067573Y0142286D01*
X0067539Y0142233D01*
X0067502Y0142183D01*
X0067462Y0142135D01*
X0067419Y0142090D01*
X0067373Y0142047D01*
X0067325Y0142008D01*
X0067274Y0141972D01*
X0067221Y0141939D01*
X0067166Y0141909D01*
X0067109Y0141883D01*
X0067051Y0141861D01*
X0066991Y0141843D01*
X0066931Y0141828D01*
X0066869Y0141817D01*
X0066807Y0141810D01*
X0066745Y0141807D01*
X0066682Y0141808D01*
X0066620Y0141813D01*
X0066558Y0141822D01*
X0066497Y0141835D01*
X0066437Y0141851D01*
X0066378Y0141872D01*
X0066320Y0141896D01*
X0066264Y0141924D01*
X0066210Y0141955D01*
X0066158Y0141989D01*
X0066109Y0142027D01*
X0066061Y0142068D01*
X0066017Y0142112D01*
X0065975Y0142158D01*
X0065937Y0142208D01*
X0065901Y0142259D01*
X0065869Y0142313D01*
X0065841Y0142368D01*
X0065815Y0142425D01*
X0065794Y0142484D01*
X0065777Y0142544D01*
X0065763Y0142605D01*
X0065753Y0142666D01*
X0065747Y0142729D01*
X0065745Y0142791D01*
X0066729Y0143776D02*
X0066729Y0133933D01*
X0141532Y0133933D01*
X0141532Y0143776D01*
X0066729Y0143776D01*
X0065745Y0134917D02*
X0065747Y0134979D01*
X0065753Y0135042D01*
X0065763Y0135103D01*
X0065777Y0135164D01*
X0065794Y0135224D01*
X0065815Y0135283D01*
X0065841Y0135340D01*
X0065869Y0135395D01*
X0065901Y0135449D01*
X0065937Y0135500D01*
X0065975Y0135550D01*
X0066017Y0135596D01*
X0066061Y0135640D01*
X0066109Y0135681D01*
X0066158Y0135719D01*
X0066210Y0135753D01*
X0066264Y0135784D01*
X0066320Y0135812D01*
X0066378Y0135836D01*
X0066437Y0135857D01*
X0066497Y0135873D01*
X0066558Y0135886D01*
X0066620Y0135895D01*
X0066682Y0135900D01*
X0066745Y0135901D01*
X0066807Y0135898D01*
X0066869Y0135891D01*
X0066931Y0135880D01*
X0066991Y0135865D01*
X0067051Y0135847D01*
X0067109Y0135825D01*
X0067166Y0135799D01*
X0067221Y0135769D01*
X0067274Y0135736D01*
X0067325Y0135700D01*
X0067373Y0135661D01*
X0067419Y0135618D01*
X0067462Y0135573D01*
X0067502Y0135525D01*
X0067539Y0135475D01*
X0067573Y0135422D01*
X0067604Y0135368D01*
X0067630Y0135312D01*
X0067654Y0135254D01*
X0067673Y0135194D01*
X0067689Y0135134D01*
X0067701Y0135072D01*
X0067709Y0135011D01*
X0067713Y0134948D01*
X0067713Y0134886D01*
X0067709Y0134823D01*
X0067701Y0134762D01*
X0067689Y0134700D01*
X0067673Y0134640D01*
X0067654Y0134580D01*
X0067630Y0134522D01*
X0067604Y0134466D01*
X0067573Y0134412D01*
X0067539Y0134359D01*
X0067502Y0134309D01*
X0067462Y0134261D01*
X0067419Y0134216D01*
X0067373Y0134173D01*
X0067325Y0134134D01*
X0067274Y0134098D01*
X0067221Y0134065D01*
X0067166Y0134035D01*
X0067109Y0134009D01*
X0067051Y0133987D01*
X0066991Y0133969D01*
X0066931Y0133954D01*
X0066869Y0133943D01*
X0066807Y0133936D01*
X0066745Y0133933D01*
X0066682Y0133934D01*
X0066620Y0133939D01*
X0066558Y0133948D01*
X0066497Y0133961D01*
X0066437Y0133977D01*
X0066378Y0133998D01*
X0066320Y0134022D01*
X0066264Y0134050D01*
X0066210Y0134081D01*
X0066158Y0134115D01*
X0066109Y0134153D01*
X0066061Y0134194D01*
X0066017Y0134238D01*
X0065975Y0134284D01*
X0065937Y0134334D01*
X0065901Y0134385D01*
X0065869Y0134439D01*
X0065841Y0134494D01*
X0065815Y0134551D01*
X0065794Y0134610D01*
X0065777Y0134670D01*
X0065763Y0134731D01*
X0065753Y0134792D01*
X0065747Y0134855D01*
X0065745Y0134917D01*
X0135581Y0040665D02*
X0135583Y0040753D01*
X0135589Y0040841D01*
X0135599Y0040929D01*
X0135613Y0041016D01*
X0135631Y0041102D01*
X0135652Y0041188D01*
X0135678Y0041272D01*
X0135707Y0041355D01*
X0135740Y0041437D01*
X0135777Y0041517D01*
X0135817Y0041596D01*
X0135861Y0041672D01*
X0135908Y0041747D01*
X0135959Y0041819D01*
X0136013Y0041889D01*
X0136069Y0041956D01*
X0136129Y0042021D01*
X0136192Y0042083D01*
X0136257Y0042142D01*
X0136325Y0042198D01*
X0136396Y0042251D01*
X0136469Y0042301D01*
X0136544Y0042347D01*
X0136621Y0042390D01*
X0136700Y0042430D01*
X0136780Y0042465D01*
X0136862Y0042498D01*
X0136946Y0042526D01*
X0137031Y0042550D01*
X0137116Y0042571D01*
X0137203Y0042588D01*
X0137290Y0042601D01*
X0137378Y0042610D01*
X0137466Y0042615D01*
X0137554Y0042616D01*
X0137642Y0042613D01*
X0137730Y0042606D01*
X0137818Y0042595D01*
X0137905Y0042580D01*
X0137991Y0042561D01*
X0138076Y0042539D01*
X0138160Y0042512D01*
X0138243Y0042482D01*
X0138324Y0042448D01*
X0138404Y0042410D01*
X0138482Y0042369D01*
X0138558Y0042324D01*
X0138632Y0042276D01*
X0138704Y0042225D01*
X0138773Y0042171D01*
X0138840Y0042113D01*
X0138904Y0042052D01*
X0138965Y0041989D01*
X0139023Y0041923D01*
X0139079Y0041854D01*
X0139131Y0041783D01*
X0139180Y0041710D01*
X0139225Y0041634D01*
X0139267Y0041557D01*
X0139306Y0041477D01*
X0139341Y0041396D01*
X0139372Y0041314D01*
X0139399Y0041230D01*
X0139423Y0041145D01*
X0139443Y0041059D01*
X0139459Y0040972D01*
X0139471Y0040885D01*
X0139479Y0040797D01*
X0139483Y0040709D01*
X0139483Y0040621D01*
X0139479Y0040533D01*
X0139471Y0040445D01*
X0139459Y0040358D01*
X0139443Y0040271D01*
X0139423Y0040185D01*
X0139399Y0040100D01*
X0139372Y0040016D01*
X0139341Y0039934D01*
X0139306Y0039853D01*
X0139267Y0039773D01*
X0139225Y0039696D01*
X0139180Y0039620D01*
X0139131Y0039547D01*
X0139079Y0039476D01*
X0139023Y0039407D01*
X0138965Y0039341D01*
X0138904Y0039278D01*
X0138840Y0039217D01*
X0138773Y0039159D01*
X0138704Y0039105D01*
X0138632Y0039054D01*
X0138558Y0039006D01*
X0138482Y0038961D01*
X0138404Y0038920D01*
X0138324Y0038882D01*
X0138243Y0038848D01*
X0138160Y0038818D01*
X0138076Y0038791D01*
X0137991Y0038769D01*
X0137905Y0038750D01*
X0137818Y0038735D01*
X0137730Y0038724D01*
X0137642Y0038717D01*
X0137554Y0038714D01*
X0137466Y0038715D01*
X0137378Y0038720D01*
X0137290Y0038729D01*
X0137203Y0038742D01*
X0137116Y0038759D01*
X0137031Y0038780D01*
X0136946Y0038804D01*
X0136862Y0038832D01*
X0136780Y0038865D01*
X0136700Y0038900D01*
X0136621Y0038940D01*
X0136544Y0038983D01*
X0136469Y0039029D01*
X0136396Y0039079D01*
X0136325Y0039132D01*
X0136257Y0039188D01*
X0136192Y0039247D01*
X0136129Y0039309D01*
X0136069Y0039374D01*
X0136013Y0039441D01*
X0135959Y0039511D01*
X0135908Y0039583D01*
X0135861Y0039658D01*
X0135817Y0039734D01*
X0135777Y0039813D01*
X0135740Y0039893D01*
X0135707Y0039975D01*
X0135678Y0040058D01*
X0135652Y0040142D01*
X0135631Y0040228D01*
X0135613Y0040314D01*
X0135599Y0040401D01*
X0135589Y0040489D01*
X0135583Y0040577D01*
X0135581Y0040665D01*
X0143581Y0040665D02*
X0143583Y0040753D01*
X0143589Y0040841D01*
X0143599Y0040929D01*
X0143613Y0041016D01*
X0143631Y0041102D01*
X0143652Y0041188D01*
X0143678Y0041272D01*
X0143707Y0041355D01*
X0143740Y0041437D01*
X0143777Y0041517D01*
X0143817Y0041596D01*
X0143861Y0041672D01*
X0143908Y0041747D01*
X0143959Y0041819D01*
X0144013Y0041889D01*
X0144069Y0041956D01*
X0144129Y0042021D01*
X0144192Y0042083D01*
X0144257Y0042142D01*
X0144325Y0042198D01*
X0144396Y0042251D01*
X0144469Y0042301D01*
X0144544Y0042347D01*
X0144621Y0042390D01*
X0144700Y0042430D01*
X0144780Y0042465D01*
X0144862Y0042498D01*
X0144946Y0042526D01*
X0145031Y0042550D01*
X0145116Y0042571D01*
X0145203Y0042588D01*
X0145290Y0042601D01*
X0145378Y0042610D01*
X0145466Y0042615D01*
X0145554Y0042616D01*
X0145642Y0042613D01*
X0145730Y0042606D01*
X0145818Y0042595D01*
X0145905Y0042580D01*
X0145991Y0042561D01*
X0146076Y0042539D01*
X0146160Y0042512D01*
X0146243Y0042482D01*
X0146324Y0042448D01*
X0146404Y0042410D01*
X0146482Y0042369D01*
X0146558Y0042324D01*
X0146632Y0042276D01*
X0146704Y0042225D01*
X0146773Y0042171D01*
X0146840Y0042113D01*
X0146904Y0042052D01*
X0146965Y0041989D01*
X0147023Y0041923D01*
X0147079Y0041854D01*
X0147131Y0041783D01*
X0147180Y0041710D01*
X0147225Y0041634D01*
X0147267Y0041557D01*
X0147306Y0041477D01*
X0147341Y0041396D01*
X0147372Y0041314D01*
X0147399Y0041230D01*
X0147423Y0041145D01*
X0147443Y0041059D01*
X0147459Y0040972D01*
X0147471Y0040885D01*
X0147479Y0040797D01*
X0147483Y0040709D01*
X0147483Y0040621D01*
X0147479Y0040533D01*
X0147471Y0040445D01*
X0147459Y0040358D01*
X0147443Y0040271D01*
X0147423Y0040185D01*
X0147399Y0040100D01*
X0147372Y0040016D01*
X0147341Y0039934D01*
X0147306Y0039853D01*
X0147267Y0039773D01*
X0147225Y0039696D01*
X0147180Y0039620D01*
X0147131Y0039547D01*
X0147079Y0039476D01*
X0147023Y0039407D01*
X0146965Y0039341D01*
X0146904Y0039278D01*
X0146840Y0039217D01*
X0146773Y0039159D01*
X0146704Y0039105D01*
X0146632Y0039054D01*
X0146558Y0039006D01*
X0146482Y0038961D01*
X0146404Y0038920D01*
X0146324Y0038882D01*
X0146243Y0038848D01*
X0146160Y0038818D01*
X0146076Y0038791D01*
X0145991Y0038769D01*
X0145905Y0038750D01*
X0145818Y0038735D01*
X0145730Y0038724D01*
X0145642Y0038717D01*
X0145554Y0038714D01*
X0145466Y0038715D01*
X0145378Y0038720D01*
X0145290Y0038729D01*
X0145203Y0038742D01*
X0145116Y0038759D01*
X0145031Y0038780D01*
X0144946Y0038804D01*
X0144862Y0038832D01*
X0144780Y0038865D01*
X0144700Y0038900D01*
X0144621Y0038940D01*
X0144544Y0038983D01*
X0144469Y0039029D01*
X0144396Y0039079D01*
X0144325Y0039132D01*
X0144257Y0039188D01*
X0144192Y0039247D01*
X0144129Y0039309D01*
X0144069Y0039374D01*
X0144013Y0039441D01*
X0143959Y0039511D01*
X0143908Y0039583D01*
X0143861Y0039658D01*
X0143817Y0039734D01*
X0143777Y0039813D01*
X0143740Y0039893D01*
X0143707Y0039975D01*
X0143678Y0040058D01*
X0143652Y0040142D01*
X0143631Y0040228D01*
X0143613Y0040314D01*
X0143599Y0040401D01*
X0143589Y0040489D01*
X0143583Y0040577D01*
X0143581Y0040665D01*
X0139581Y0060665D02*
X0139583Y0060753D01*
X0139589Y0060841D01*
X0139599Y0060929D01*
X0139613Y0061016D01*
X0139631Y0061102D01*
X0139652Y0061188D01*
X0139678Y0061272D01*
X0139707Y0061355D01*
X0139740Y0061437D01*
X0139777Y0061517D01*
X0139817Y0061596D01*
X0139861Y0061672D01*
X0139908Y0061747D01*
X0139959Y0061819D01*
X0140013Y0061889D01*
X0140069Y0061956D01*
X0140129Y0062021D01*
X0140192Y0062083D01*
X0140257Y0062142D01*
X0140325Y0062198D01*
X0140396Y0062251D01*
X0140469Y0062301D01*
X0140544Y0062347D01*
X0140621Y0062390D01*
X0140700Y0062430D01*
X0140780Y0062465D01*
X0140862Y0062498D01*
X0140946Y0062526D01*
X0141031Y0062550D01*
X0141116Y0062571D01*
X0141203Y0062588D01*
X0141290Y0062601D01*
X0141378Y0062610D01*
X0141466Y0062615D01*
X0141554Y0062616D01*
X0141642Y0062613D01*
X0141730Y0062606D01*
X0141818Y0062595D01*
X0141905Y0062580D01*
X0141991Y0062561D01*
X0142076Y0062539D01*
X0142160Y0062512D01*
X0142243Y0062482D01*
X0142324Y0062448D01*
X0142404Y0062410D01*
X0142482Y0062369D01*
X0142558Y0062324D01*
X0142632Y0062276D01*
X0142704Y0062225D01*
X0142773Y0062171D01*
X0142840Y0062113D01*
X0142904Y0062052D01*
X0142965Y0061989D01*
X0143023Y0061923D01*
X0143079Y0061854D01*
X0143131Y0061783D01*
X0143180Y0061710D01*
X0143225Y0061634D01*
X0143267Y0061557D01*
X0143306Y0061477D01*
X0143341Y0061396D01*
X0143372Y0061314D01*
X0143399Y0061230D01*
X0143423Y0061145D01*
X0143443Y0061059D01*
X0143459Y0060972D01*
X0143471Y0060885D01*
X0143479Y0060797D01*
X0143483Y0060709D01*
X0143483Y0060621D01*
X0143479Y0060533D01*
X0143471Y0060445D01*
X0143459Y0060358D01*
X0143443Y0060271D01*
X0143423Y0060185D01*
X0143399Y0060100D01*
X0143372Y0060016D01*
X0143341Y0059934D01*
X0143306Y0059853D01*
X0143267Y0059773D01*
X0143225Y0059696D01*
X0143180Y0059620D01*
X0143131Y0059547D01*
X0143079Y0059476D01*
X0143023Y0059407D01*
X0142965Y0059341D01*
X0142904Y0059278D01*
X0142840Y0059217D01*
X0142773Y0059159D01*
X0142704Y0059105D01*
X0142632Y0059054D01*
X0142558Y0059006D01*
X0142482Y0058961D01*
X0142404Y0058920D01*
X0142324Y0058882D01*
X0142243Y0058848D01*
X0142160Y0058818D01*
X0142076Y0058791D01*
X0141991Y0058769D01*
X0141905Y0058750D01*
X0141818Y0058735D01*
X0141730Y0058724D01*
X0141642Y0058717D01*
X0141554Y0058714D01*
X0141466Y0058715D01*
X0141378Y0058720D01*
X0141290Y0058729D01*
X0141203Y0058742D01*
X0141116Y0058759D01*
X0141031Y0058780D01*
X0140946Y0058804D01*
X0140862Y0058832D01*
X0140780Y0058865D01*
X0140700Y0058900D01*
X0140621Y0058940D01*
X0140544Y0058983D01*
X0140469Y0059029D01*
X0140396Y0059079D01*
X0140325Y0059132D01*
X0140257Y0059188D01*
X0140192Y0059247D01*
X0140129Y0059309D01*
X0140069Y0059374D01*
X0140013Y0059441D01*
X0139959Y0059511D01*
X0139908Y0059583D01*
X0139861Y0059658D01*
X0139817Y0059734D01*
X0139777Y0059813D01*
X0139740Y0059893D01*
X0139707Y0059975D01*
X0139678Y0060058D01*
X0139652Y0060142D01*
X0139631Y0060228D01*
X0139613Y0060314D01*
X0139599Y0060401D01*
X0139589Y0060489D01*
X0139583Y0060577D01*
X0139581Y0060665D01*
X0140548Y0134917D02*
X0140550Y0134979D01*
X0140556Y0135042D01*
X0140566Y0135103D01*
X0140580Y0135164D01*
X0140597Y0135224D01*
X0140618Y0135283D01*
X0140644Y0135340D01*
X0140672Y0135395D01*
X0140704Y0135449D01*
X0140740Y0135500D01*
X0140778Y0135550D01*
X0140820Y0135596D01*
X0140864Y0135640D01*
X0140912Y0135681D01*
X0140961Y0135719D01*
X0141013Y0135753D01*
X0141067Y0135784D01*
X0141123Y0135812D01*
X0141181Y0135836D01*
X0141240Y0135857D01*
X0141300Y0135873D01*
X0141361Y0135886D01*
X0141423Y0135895D01*
X0141485Y0135900D01*
X0141548Y0135901D01*
X0141610Y0135898D01*
X0141672Y0135891D01*
X0141734Y0135880D01*
X0141794Y0135865D01*
X0141854Y0135847D01*
X0141912Y0135825D01*
X0141969Y0135799D01*
X0142024Y0135769D01*
X0142077Y0135736D01*
X0142128Y0135700D01*
X0142176Y0135661D01*
X0142222Y0135618D01*
X0142265Y0135573D01*
X0142305Y0135525D01*
X0142342Y0135475D01*
X0142376Y0135422D01*
X0142407Y0135368D01*
X0142433Y0135312D01*
X0142457Y0135254D01*
X0142476Y0135194D01*
X0142492Y0135134D01*
X0142504Y0135072D01*
X0142512Y0135011D01*
X0142516Y0134948D01*
X0142516Y0134886D01*
X0142512Y0134823D01*
X0142504Y0134762D01*
X0142492Y0134700D01*
X0142476Y0134640D01*
X0142457Y0134580D01*
X0142433Y0134522D01*
X0142407Y0134466D01*
X0142376Y0134412D01*
X0142342Y0134359D01*
X0142305Y0134309D01*
X0142265Y0134261D01*
X0142222Y0134216D01*
X0142176Y0134173D01*
X0142128Y0134134D01*
X0142077Y0134098D01*
X0142024Y0134065D01*
X0141969Y0134035D01*
X0141912Y0134009D01*
X0141854Y0133987D01*
X0141794Y0133969D01*
X0141734Y0133954D01*
X0141672Y0133943D01*
X0141610Y0133936D01*
X0141548Y0133933D01*
X0141485Y0133934D01*
X0141423Y0133939D01*
X0141361Y0133948D01*
X0141300Y0133961D01*
X0141240Y0133977D01*
X0141181Y0133998D01*
X0141123Y0134022D01*
X0141067Y0134050D01*
X0141013Y0134081D01*
X0140961Y0134115D01*
X0140912Y0134153D01*
X0140864Y0134194D01*
X0140820Y0134238D01*
X0140778Y0134284D01*
X0140740Y0134334D01*
X0140704Y0134385D01*
X0140672Y0134439D01*
X0140644Y0134494D01*
X0140618Y0134551D01*
X0140597Y0134610D01*
X0140580Y0134670D01*
X0140566Y0134731D01*
X0140556Y0134792D01*
X0140550Y0134855D01*
X0140548Y0134917D01*
X0140548Y0142791D02*
X0140550Y0142853D01*
X0140556Y0142916D01*
X0140566Y0142977D01*
X0140580Y0143038D01*
X0140597Y0143098D01*
X0140618Y0143157D01*
X0140644Y0143214D01*
X0140672Y0143269D01*
X0140704Y0143323D01*
X0140740Y0143374D01*
X0140778Y0143424D01*
X0140820Y0143470D01*
X0140864Y0143514D01*
X0140912Y0143555D01*
X0140961Y0143593D01*
X0141013Y0143627D01*
X0141067Y0143658D01*
X0141123Y0143686D01*
X0141181Y0143710D01*
X0141240Y0143731D01*
X0141300Y0143747D01*
X0141361Y0143760D01*
X0141423Y0143769D01*
X0141485Y0143774D01*
X0141548Y0143775D01*
X0141610Y0143772D01*
X0141672Y0143765D01*
X0141734Y0143754D01*
X0141794Y0143739D01*
X0141854Y0143721D01*
X0141912Y0143699D01*
X0141969Y0143673D01*
X0142024Y0143643D01*
X0142077Y0143610D01*
X0142128Y0143574D01*
X0142176Y0143535D01*
X0142222Y0143492D01*
X0142265Y0143447D01*
X0142305Y0143399D01*
X0142342Y0143349D01*
X0142376Y0143296D01*
X0142407Y0143242D01*
X0142433Y0143186D01*
X0142457Y0143128D01*
X0142476Y0143068D01*
X0142492Y0143008D01*
X0142504Y0142946D01*
X0142512Y0142885D01*
X0142516Y0142822D01*
X0142516Y0142760D01*
X0142512Y0142697D01*
X0142504Y0142636D01*
X0142492Y0142574D01*
X0142476Y0142514D01*
X0142457Y0142454D01*
X0142433Y0142396D01*
X0142407Y0142340D01*
X0142376Y0142286D01*
X0142342Y0142233D01*
X0142305Y0142183D01*
X0142265Y0142135D01*
X0142222Y0142090D01*
X0142176Y0142047D01*
X0142128Y0142008D01*
X0142077Y0141972D01*
X0142024Y0141939D01*
X0141969Y0141909D01*
X0141912Y0141883D01*
X0141854Y0141861D01*
X0141794Y0141843D01*
X0141734Y0141828D01*
X0141672Y0141817D01*
X0141610Y0141810D01*
X0141548Y0141807D01*
X0141485Y0141808D01*
X0141423Y0141813D01*
X0141361Y0141822D01*
X0141300Y0141835D01*
X0141240Y0141851D01*
X0141181Y0141872D01*
X0141123Y0141896D01*
X0141067Y0141924D01*
X0141013Y0141955D01*
X0140961Y0141989D01*
X0140912Y0142027D01*
X0140864Y0142068D01*
X0140820Y0142112D01*
X0140778Y0142158D01*
X0140740Y0142208D01*
X0140704Y0142259D01*
X0140672Y0142313D01*
X0140644Y0142368D01*
X0140618Y0142425D01*
X0140597Y0142484D01*
X0140580Y0142544D01*
X0140566Y0142605D01*
X0140556Y0142666D01*
X0140550Y0142729D01*
X0140548Y0142791D01*
X0144977Y0142791D02*
X0144979Y0142853D01*
X0144985Y0142916D01*
X0144995Y0142977D01*
X0145009Y0143038D01*
X0145026Y0143098D01*
X0145047Y0143157D01*
X0145073Y0143214D01*
X0145101Y0143269D01*
X0145133Y0143323D01*
X0145169Y0143374D01*
X0145207Y0143424D01*
X0145249Y0143470D01*
X0145293Y0143514D01*
X0145341Y0143555D01*
X0145390Y0143593D01*
X0145442Y0143627D01*
X0145496Y0143658D01*
X0145552Y0143686D01*
X0145610Y0143710D01*
X0145669Y0143731D01*
X0145729Y0143747D01*
X0145790Y0143760D01*
X0145852Y0143769D01*
X0145914Y0143774D01*
X0145977Y0143775D01*
X0146039Y0143772D01*
X0146101Y0143765D01*
X0146163Y0143754D01*
X0146223Y0143739D01*
X0146283Y0143721D01*
X0146341Y0143699D01*
X0146398Y0143673D01*
X0146453Y0143643D01*
X0146506Y0143610D01*
X0146557Y0143574D01*
X0146605Y0143535D01*
X0146651Y0143492D01*
X0146694Y0143447D01*
X0146734Y0143399D01*
X0146771Y0143349D01*
X0146805Y0143296D01*
X0146836Y0143242D01*
X0146862Y0143186D01*
X0146886Y0143128D01*
X0146905Y0143068D01*
X0146921Y0143008D01*
X0146933Y0142946D01*
X0146941Y0142885D01*
X0146945Y0142822D01*
X0146945Y0142760D01*
X0146941Y0142697D01*
X0146933Y0142636D01*
X0146921Y0142574D01*
X0146905Y0142514D01*
X0146886Y0142454D01*
X0146862Y0142396D01*
X0146836Y0142340D01*
X0146805Y0142286D01*
X0146771Y0142233D01*
X0146734Y0142183D01*
X0146694Y0142135D01*
X0146651Y0142090D01*
X0146605Y0142047D01*
X0146557Y0142008D01*
X0146506Y0141972D01*
X0146453Y0141939D01*
X0146398Y0141909D01*
X0146341Y0141883D01*
X0146283Y0141861D01*
X0146223Y0141843D01*
X0146163Y0141828D01*
X0146101Y0141817D01*
X0146039Y0141810D01*
X0145977Y0141807D01*
X0145914Y0141808D01*
X0145852Y0141813D01*
X0145790Y0141822D01*
X0145729Y0141835D01*
X0145669Y0141851D01*
X0145610Y0141872D01*
X0145552Y0141896D01*
X0145496Y0141924D01*
X0145442Y0141955D01*
X0145390Y0141989D01*
X0145341Y0142027D01*
X0145293Y0142068D01*
X0145249Y0142112D01*
X0145207Y0142158D01*
X0145169Y0142208D01*
X0145133Y0142259D01*
X0145101Y0142313D01*
X0145073Y0142368D01*
X0145047Y0142425D01*
X0145026Y0142484D01*
X0145009Y0142544D01*
X0144995Y0142605D01*
X0144985Y0142666D01*
X0144979Y0142729D01*
X0144977Y0142791D01*
X0144977Y0134917D02*
X0144979Y0134979D01*
X0144985Y0135042D01*
X0144995Y0135103D01*
X0145009Y0135164D01*
X0145026Y0135224D01*
X0145047Y0135283D01*
X0145073Y0135340D01*
X0145101Y0135395D01*
X0145133Y0135449D01*
X0145169Y0135500D01*
X0145207Y0135550D01*
X0145249Y0135596D01*
X0145293Y0135640D01*
X0145341Y0135681D01*
X0145390Y0135719D01*
X0145442Y0135753D01*
X0145496Y0135784D01*
X0145552Y0135812D01*
X0145610Y0135836D01*
X0145669Y0135857D01*
X0145729Y0135873D01*
X0145790Y0135886D01*
X0145852Y0135895D01*
X0145914Y0135900D01*
X0145977Y0135901D01*
X0146039Y0135898D01*
X0146101Y0135891D01*
X0146163Y0135880D01*
X0146223Y0135865D01*
X0146283Y0135847D01*
X0146341Y0135825D01*
X0146398Y0135799D01*
X0146453Y0135769D01*
X0146506Y0135736D01*
X0146557Y0135700D01*
X0146605Y0135661D01*
X0146651Y0135618D01*
X0146694Y0135573D01*
X0146734Y0135525D01*
X0146771Y0135475D01*
X0146805Y0135422D01*
X0146836Y0135368D01*
X0146862Y0135312D01*
X0146886Y0135254D01*
X0146905Y0135194D01*
X0146921Y0135134D01*
X0146933Y0135072D01*
X0146941Y0135011D01*
X0146945Y0134948D01*
X0146945Y0134886D01*
X0146941Y0134823D01*
X0146933Y0134762D01*
X0146921Y0134700D01*
X0146905Y0134640D01*
X0146886Y0134580D01*
X0146862Y0134522D01*
X0146836Y0134466D01*
X0146805Y0134412D01*
X0146771Y0134359D01*
X0146734Y0134309D01*
X0146694Y0134261D01*
X0146651Y0134216D01*
X0146605Y0134173D01*
X0146557Y0134134D01*
X0146506Y0134098D01*
X0146453Y0134065D01*
X0146398Y0134035D01*
X0146341Y0134009D01*
X0146283Y0133987D01*
X0146223Y0133969D01*
X0146163Y0133954D01*
X0146101Y0133943D01*
X0146039Y0133936D01*
X0145977Y0133933D01*
X0145914Y0133934D01*
X0145852Y0133939D01*
X0145790Y0133948D01*
X0145729Y0133961D01*
X0145669Y0133977D01*
X0145610Y0133998D01*
X0145552Y0134022D01*
X0145496Y0134050D01*
X0145442Y0134081D01*
X0145390Y0134115D01*
X0145341Y0134153D01*
X0145293Y0134194D01*
X0145249Y0134238D01*
X0145207Y0134284D01*
X0145169Y0134334D01*
X0145133Y0134385D01*
X0145101Y0134439D01*
X0145073Y0134494D01*
X0145047Y0134551D01*
X0145026Y0134610D01*
X0145009Y0134670D01*
X0144995Y0134731D01*
X0144985Y0134792D01*
X0144979Y0134855D01*
X0144977Y0134917D01*
X0149406Y0134917D02*
X0149408Y0134979D01*
X0149414Y0135042D01*
X0149424Y0135103D01*
X0149438Y0135164D01*
X0149455Y0135224D01*
X0149476Y0135283D01*
X0149502Y0135340D01*
X0149530Y0135395D01*
X0149562Y0135449D01*
X0149598Y0135500D01*
X0149636Y0135550D01*
X0149678Y0135596D01*
X0149722Y0135640D01*
X0149770Y0135681D01*
X0149819Y0135719D01*
X0149871Y0135753D01*
X0149925Y0135784D01*
X0149981Y0135812D01*
X0150039Y0135836D01*
X0150098Y0135857D01*
X0150158Y0135873D01*
X0150219Y0135886D01*
X0150281Y0135895D01*
X0150343Y0135900D01*
X0150406Y0135901D01*
X0150468Y0135898D01*
X0150530Y0135891D01*
X0150592Y0135880D01*
X0150652Y0135865D01*
X0150712Y0135847D01*
X0150770Y0135825D01*
X0150827Y0135799D01*
X0150882Y0135769D01*
X0150935Y0135736D01*
X0150986Y0135700D01*
X0151034Y0135661D01*
X0151080Y0135618D01*
X0151123Y0135573D01*
X0151163Y0135525D01*
X0151200Y0135475D01*
X0151234Y0135422D01*
X0151265Y0135368D01*
X0151291Y0135312D01*
X0151315Y0135254D01*
X0151334Y0135194D01*
X0151350Y0135134D01*
X0151362Y0135072D01*
X0151370Y0135011D01*
X0151374Y0134948D01*
X0151374Y0134886D01*
X0151370Y0134823D01*
X0151362Y0134762D01*
X0151350Y0134700D01*
X0151334Y0134640D01*
X0151315Y0134580D01*
X0151291Y0134522D01*
X0151265Y0134466D01*
X0151234Y0134412D01*
X0151200Y0134359D01*
X0151163Y0134309D01*
X0151123Y0134261D01*
X0151080Y0134216D01*
X0151034Y0134173D01*
X0150986Y0134134D01*
X0150935Y0134098D01*
X0150882Y0134065D01*
X0150827Y0134035D01*
X0150770Y0134009D01*
X0150712Y0133987D01*
X0150652Y0133969D01*
X0150592Y0133954D01*
X0150530Y0133943D01*
X0150468Y0133936D01*
X0150406Y0133933D01*
X0150343Y0133934D01*
X0150281Y0133939D01*
X0150219Y0133948D01*
X0150158Y0133961D01*
X0150098Y0133977D01*
X0150039Y0133998D01*
X0149981Y0134022D01*
X0149925Y0134050D01*
X0149871Y0134081D01*
X0149819Y0134115D01*
X0149770Y0134153D01*
X0149722Y0134194D01*
X0149678Y0134238D01*
X0149636Y0134284D01*
X0149598Y0134334D01*
X0149562Y0134385D01*
X0149530Y0134439D01*
X0149502Y0134494D01*
X0149476Y0134551D01*
X0149455Y0134610D01*
X0149438Y0134670D01*
X0149424Y0134731D01*
X0149414Y0134792D01*
X0149408Y0134855D01*
X0149406Y0134917D01*
X0149406Y0142791D02*
X0149408Y0142853D01*
X0149414Y0142916D01*
X0149424Y0142977D01*
X0149438Y0143038D01*
X0149455Y0143098D01*
X0149476Y0143157D01*
X0149502Y0143214D01*
X0149530Y0143269D01*
X0149562Y0143323D01*
X0149598Y0143374D01*
X0149636Y0143424D01*
X0149678Y0143470D01*
X0149722Y0143514D01*
X0149770Y0143555D01*
X0149819Y0143593D01*
X0149871Y0143627D01*
X0149925Y0143658D01*
X0149981Y0143686D01*
X0150039Y0143710D01*
X0150098Y0143731D01*
X0150158Y0143747D01*
X0150219Y0143760D01*
X0150281Y0143769D01*
X0150343Y0143774D01*
X0150406Y0143775D01*
X0150468Y0143772D01*
X0150530Y0143765D01*
X0150592Y0143754D01*
X0150652Y0143739D01*
X0150712Y0143721D01*
X0150770Y0143699D01*
X0150827Y0143673D01*
X0150882Y0143643D01*
X0150935Y0143610D01*
X0150986Y0143574D01*
X0151034Y0143535D01*
X0151080Y0143492D01*
X0151123Y0143447D01*
X0151163Y0143399D01*
X0151200Y0143349D01*
X0151234Y0143296D01*
X0151265Y0143242D01*
X0151291Y0143186D01*
X0151315Y0143128D01*
X0151334Y0143068D01*
X0151350Y0143008D01*
X0151362Y0142946D01*
X0151370Y0142885D01*
X0151374Y0142822D01*
X0151374Y0142760D01*
X0151370Y0142697D01*
X0151362Y0142636D01*
X0151350Y0142574D01*
X0151334Y0142514D01*
X0151315Y0142454D01*
X0151291Y0142396D01*
X0151265Y0142340D01*
X0151234Y0142286D01*
X0151200Y0142233D01*
X0151163Y0142183D01*
X0151123Y0142135D01*
X0151080Y0142090D01*
X0151034Y0142047D01*
X0150986Y0142008D01*
X0150935Y0141972D01*
X0150882Y0141939D01*
X0150827Y0141909D01*
X0150770Y0141883D01*
X0150712Y0141861D01*
X0150652Y0141843D01*
X0150592Y0141828D01*
X0150530Y0141817D01*
X0150468Y0141810D01*
X0150406Y0141807D01*
X0150343Y0141808D01*
X0150281Y0141813D01*
X0150219Y0141822D01*
X0150158Y0141835D01*
X0150098Y0141851D01*
X0150039Y0141872D01*
X0149981Y0141896D01*
X0149925Y0141924D01*
X0149871Y0141955D01*
X0149819Y0141989D01*
X0149770Y0142027D01*
X0149722Y0142068D01*
X0149678Y0142112D01*
X0149636Y0142158D01*
X0149598Y0142208D01*
X0149562Y0142259D01*
X0149530Y0142313D01*
X0149502Y0142368D01*
X0149476Y0142425D01*
X0149455Y0142484D01*
X0149438Y0142544D01*
X0149424Y0142605D01*
X0149414Y0142666D01*
X0149408Y0142729D01*
X0149406Y0142791D01*
X0153836Y0142791D02*
X0153838Y0142853D01*
X0153844Y0142916D01*
X0153854Y0142977D01*
X0153868Y0143038D01*
X0153885Y0143098D01*
X0153906Y0143157D01*
X0153932Y0143214D01*
X0153960Y0143269D01*
X0153992Y0143323D01*
X0154028Y0143374D01*
X0154066Y0143424D01*
X0154108Y0143470D01*
X0154152Y0143514D01*
X0154200Y0143555D01*
X0154249Y0143593D01*
X0154301Y0143627D01*
X0154355Y0143658D01*
X0154411Y0143686D01*
X0154469Y0143710D01*
X0154528Y0143731D01*
X0154588Y0143747D01*
X0154649Y0143760D01*
X0154711Y0143769D01*
X0154773Y0143774D01*
X0154836Y0143775D01*
X0154898Y0143772D01*
X0154960Y0143765D01*
X0155022Y0143754D01*
X0155082Y0143739D01*
X0155142Y0143721D01*
X0155200Y0143699D01*
X0155257Y0143673D01*
X0155312Y0143643D01*
X0155365Y0143610D01*
X0155416Y0143574D01*
X0155464Y0143535D01*
X0155510Y0143492D01*
X0155553Y0143447D01*
X0155593Y0143399D01*
X0155630Y0143349D01*
X0155664Y0143296D01*
X0155695Y0143242D01*
X0155721Y0143186D01*
X0155745Y0143128D01*
X0155764Y0143068D01*
X0155780Y0143008D01*
X0155792Y0142946D01*
X0155800Y0142885D01*
X0155804Y0142822D01*
X0155804Y0142760D01*
X0155800Y0142697D01*
X0155792Y0142636D01*
X0155780Y0142574D01*
X0155764Y0142514D01*
X0155745Y0142454D01*
X0155721Y0142396D01*
X0155695Y0142340D01*
X0155664Y0142286D01*
X0155630Y0142233D01*
X0155593Y0142183D01*
X0155553Y0142135D01*
X0155510Y0142090D01*
X0155464Y0142047D01*
X0155416Y0142008D01*
X0155365Y0141972D01*
X0155312Y0141939D01*
X0155257Y0141909D01*
X0155200Y0141883D01*
X0155142Y0141861D01*
X0155082Y0141843D01*
X0155022Y0141828D01*
X0154960Y0141817D01*
X0154898Y0141810D01*
X0154836Y0141807D01*
X0154773Y0141808D01*
X0154711Y0141813D01*
X0154649Y0141822D01*
X0154588Y0141835D01*
X0154528Y0141851D01*
X0154469Y0141872D01*
X0154411Y0141896D01*
X0154355Y0141924D01*
X0154301Y0141955D01*
X0154249Y0141989D01*
X0154200Y0142027D01*
X0154152Y0142068D01*
X0154108Y0142112D01*
X0154066Y0142158D01*
X0154028Y0142208D01*
X0153992Y0142259D01*
X0153960Y0142313D01*
X0153932Y0142368D01*
X0153906Y0142425D01*
X0153885Y0142484D01*
X0153868Y0142544D01*
X0153854Y0142605D01*
X0153844Y0142666D01*
X0153838Y0142729D01*
X0153836Y0142791D01*
X0158265Y0142791D02*
X0158267Y0142853D01*
X0158273Y0142916D01*
X0158283Y0142977D01*
X0158297Y0143038D01*
X0158314Y0143098D01*
X0158335Y0143157D01*
X0158361Y0143214D01*
X0158389Y0143269D01*
X0158421Y0143323D01*
X0158457Y0143374D01*
X0158495Y0143424D01*
X0158537Y0143470D01*
X0158581Y0143514D01*
X0158629Y0143555D01*
X0158678Y0143593D01*
X0158730Y0143627D01*
X0158784Y0143658D01*
X0158840Y0143686D01*
X0158898Y0143710D01*
X0158957Y0143731D01*
X0159017Y0143747D01*
X0159078Y0143760D01*
X0159140Y0143769D01*
X0159202Y0143774D01*
X0159265Y0143775D01*
X0159327Y0143772D01*
X0159389Y0143765D01*
X0159451Y0143754D01*
X0159511Y0143739D01*
X0159571Y0143721D01*
X0159629Y0143699D01*
X0159686Y0143673D01*
X0159741Y0143643D01*
X0159794Y0143610D01*
X0159845Y0143574D01*
X0159893Y0143535D01*
X0159939Y0143492D01*
X0159982Y0143447D01*
X0160022Y0143399D01*
X0160059Y0143349D01*
X0160093Y0143296D01*
X0160124Y0143242D01*
X0160150Y0143186D01*
X0160174Y0143128D01*
X0160193Y0143068D01*
X0160209Y0143008D01*
X0160221Y0142946D01*
X0160229Y0142885D01*
X0160233Y0142822D01*
X0160233Y0142760D01*
X0160229Y0142697D01*
X0160221Y0142636D01*
X0160209Y0142574D01*
X0160193Y0142514D01*
X0160174Y0142454D01*
X0160150Y0142396D01*
X0160124Y0142340D01*
X0160093Y0142286D01*
X0160059Y0142233D01*
X0160022Y0142183D01*
X0159982Y0142135D01*
X0159939Y0142090D01*
X0159893Y0142047D01*
X0159845Y0142008D01*
X0159794Y0141972D01*
X0159741Y0141939D01*
X0159686Y0141909D01*
X0159629Y0141883D01*
X0159571Y0141861D01*
X0159511Y0141843D01*
X0159451Y0141828D01*
X0159389Y0141817D01*
X0159327Y0141810D01*
X0159265Y0141807D01*
X0159202Y0141808D01*
X0159140Y0141813D01*
X0159078Y0141822D01*
X0159017Y0141835D01*
X0158957Y0141851D01*
X0158898Y0141872D01*
X0158840Y0141896D01*
X0158784Y0141924D01*
X0158730Y0141955D01*
X0158678Y0141989D01*
X0158629Y0142027D01*
X0158581Y0142068D01*
X0158537Y0142112D01*
X0158495Y0142158D01*
X0158457Y0142208D01*
X0158421Y0142259D01*
X0158389Y0142313D01*
X0158361Y0142368D01*
X0158335Y0142425D01*
X0158314Y0142484D01*
X0158297Y0142544D01*
X0158283Y0142605D01*
X0158273Y0142666D01*
X0158267Y0142729D01*
X0158265Y0142791D01*
X0158265Y0134917D02*
X0158267Y0134979D01*
X0158273Y0135042D01*
X0158283Y0135103D01*
X0158297Y0135164D01*
X0158314Y0135224D01*
X0158335Y0135283D01*
X0158361Y0135340D01*
X0158389Y0135395D01*
X0158421Y0135449D01*
X0158457Y0135500D01*
X0158495Y0135550D01*
X0158537Y0135596D01*
X0158581Y0135640D01*
X0158629Y0135681D01*
X0158678Y0135719D01*
X0158730Y0135753D01*
X0158784Y0135784D01*
X0158840Y0135812D01*
X0158898Y0135836D01*
X0158957Y0135857D01*
X0159017Y0135873D01*
X0159078Y0135886D01*
X0159140Y0135895D01*
X0159202Y0135900D01*
X0159265Y0135901D01*
X0159327Y0135898D01*
X0159389Y0135891D01*
X0159451Y0135880D01*
X0159511Y0135865D01*
X0159571Y0135847D01*
X0159629Y0135825D01*
X0159686Y0135799D01*
X0159741Y0135769D01*
X0159794Y0135736D01*
X0159845Y0135700D01*
X0159893Y0135661D01*
X0159939Y0135618D01*
X0159982Y0135573D01*
X0160022Y0135525D01*
X0160059Y0135475D01*
X0160093Y0135422D01*
X0160124Y0135368D01*
X0160150Y0135312D01*
X0160174Y0135254D01*
X0160193Y0135194D01*
X0160209Y0135134D01*
X0160221Y0135072D01*
X0160229Y0135011D01*
X0160233Y0134948D01*
X0160233Y0134886D01*
X0160229Y0134823D01*
X0160221Y0134762D01*
X0160209Y0134700D01*
X0160193Y0134640D01*
X0160174Y0134580D01*
X0160150Y0134522D01*
X0160124Y0134466D01*
X0160093Y0134412D01*
X0160059Y0134359D01*
X0160022Y0134309D01*
X0159982Y0134261D01*
X0159939Y0134216D01*
X0159893Y0134173D01*
X0159845Y0134134D01*
X0159794Y0134098D01*
X0159741Y0134065D01*
X0159686Y0134035D01*
X0159629Y0134009D01*
X0159571Y0133987D01*
X0159511Y0133969D01*
X0159451Y0133954D01*
X0159389Y0133943D01*
X0159327Y0133936D01*
X0159265Y0133933D01*
X0159202Y0133934D01*
X0159140Y0133939D01*
X0159078Y0133948D01*
X0159017Y0133961D01*
X0158957Y0133977D01*
X0158898Y0133998D01*
X0158840Y0134022D01*
X0158784Y0134050D01*
X0158730Y0134081D01*
X0158678Y0134115D01*
X0158629Y0134153D01*
X0158581Y0134194D01*
X0158537Y0134238D01*
X0158495Y0134284D01*
X0158457Y0134334D01*
X0158421Y0134385D01*
X0158389Y0134439D01*
X0158361Y0134494D01*
X0158335Y0134551D01*
X0158314Y0134610D01*
X0158297Y0134670D01*
X0158283Y0134731D01*
X0158273Y0134792D01*
X0158267Y0134855D01*
X0158265Y0134917D01*
X0153836Y0134917D02*
X0153838Y0134979D01*
X0153844Y0135042D01*
X0153854Y0135103D01*
X0153868Y0135164D01*
X0153885Y0135224D01*
X0153906Y0135283D01*
X0153932Y0135340D01*
X0153960Y0135395D01*
X0153992Y0135449D01*
X0154028Y0135500D01*
X0154066Y0135550D01*
X0154108Y0135596D01*
X0154152Y0135640D01*
X0154200Y0135681D01*
X0154249Y0135719D01*
X0154301Y0135753D01*
X0154355Y0135784D01*
X0154411Y0135812D01*
X0154469Y0135836D01*
X0154528Y0135857D01*
X0154588Y0135873D01*
X0154649Y0135886D01*
X0154711Y0135895D01*
X0154773Y0135900D01*
X0154836Y0135901D01*
X0154898Y0135898D01*
X0154960Y0135891D01*
X0155022Y0135880D01*
X0155082Y0135865D01*
X0155142Y0135847D01*
X0155200Y0135825D01*
X0155257Y0135799D01*
X0155312Y0135769D01*
X0155365Y0135736D01*
X0155416Y0135700D01*
X0155464Y0135661D01*
X0155510Y0135618D01*
X0155553Y0135573D01*
X0155593Y0135525D01*
X0155630Y0135475D01*
X0155664Y0135422D01*
X0155695Y0135368D01*
X0155721Y0135312D01*
X0155745Y0135254D01*
X0155764Y0135194D01*
X0155780Y0135134D01*
X0155792Y0135072D01*
X0155800Y0135011D01*
X0155804Y0134948D01*
X0155804Y0134886D01*
X0155800Y0134823D01*
X0155792Y0134762D01*
X0155780Y0134700D01*
X0155764Y0134640D01*
X0155745Y0134580D01*
X0155721Y0134522D01*
X0155695Y0134466D01*
X0155664Y0134412D01*
X0155630Y0134359D01*
X0155593Y0134309D01*
X0155553Y0134261D01*
X0155510Y0134216D01*
X0155464Y0134173D01*
X0155416Y0134134D01*
X0155365Y0134098D01*
X0155312Y0134065D01*
X0155257Y0134035D01*
X0155200Y0134009D01*
X0155142Y0133987D01*
X0155082Y0133969D01*
X0155022Y0133954D01*
X0154960Y0133943D01*
X0154898Y0133936D01*
X0154836Y0133933D01*
X0154773Y0133934D01*
X0154711Y0133939D01*
X0154649Y0133948D01*
X0154588Y0133961D01*
X0154528Y0133977D01*
X0154469Y0133998D01*
X0154411Y0134022D01*
X0154355Y0134050D01*
X0154301Y0134081D01*
X0154249Y0134115D01*
X0154200Y0134153D01*
X0154152Y0134194D01*
X0154108Y0134238D01*
X0154066Y0134284D01*
X0154028Y0134334D01*
X0153992Y0134385D01*
X0153960Y0134439D01*
X0153932Y0134494D01*
X0153906Y0134551D01*
X0153885Y0134610D01*
X0153868Y0134670D01*
X0153854Y0134731D01*
X0153844Y0134792D01*
X0153838Y0134855D01*
X0153836Y0134917D01*
X0170666Y0385902D02*
X0170668Y0386033D01*
X0170674Y0386165D01*
X0170684Y0386296D01*
X0170698Y0386427D01*
X0170716Y0386557D01*
X0170738Y0386686D01*
X0170763Y0386815D01*
X0170793Y0386943D01*
X0170827Y0387070D01*
X0170864Y0387197D01*
X0170905Y0387321D01*
X0170950Y0387445D01*
X0170999Y0387567D01*
X0171051Y0387688D01*
X0171107Y0387806D01*
X0171167Y0387924D01*
X0171230Y0388039D01*
X0171297Y0388152D01*
X0171367Y0388264D01*
X0171440Y0388373D01*
X0171516Y0388479D01*
X0171596Y0388584D01*
X0171679Y0388686D01*
X0171765Y0388785D01*
X0171854Y0388882D01*
X0171946Y0388976D01*
X0172041Y0389067D01*
X0172138Y0389156D01*
X0172238Y0389241D01*
X0172341Y0389323D01*
X0172446Y0389402D01*
X0172553Y0389478D01*
X0172663Y0389550D01*
X0172775Y0389619D01*
X0172889Y0389685D01*
X0173004Y0389747D01*
X0173122Y0389806D01*
X0173241Y0389861D01*
X0173362Y0389913D01*
X0173485Y0389960D01*
X0173609Y0390004D01*
X0173734Y0390045D01*
X0173860Y0390081D01*
X0173988Y0390114D01*
X0174116Y0390142D01*
X0174245Y0390167D01*
X0174375Y0390188D01*
X0174505Y0390205D01*
X0174636Y0390218D01*
X0174767Y0390227D01*
X0174898Y0390232D01*
X0175030Y0390233D01*
X0175161Y0390230D01*
X0175293Y0390223D01*
X0175424Y0390212D01*
X0175554Y0390197D01*
X0175684Y0390178D01*
X0175814Y0390155D01*
X0175942Y0390129D01*
X0176070Y0390098D01*
X0176197Y0390063D01*
X0176323Y0390025D01*
X0176447Y0389983D01*
X0176571Y0389937D01*
X0176692Y0389887D01*
X0176812Y0389834D01*
X0176931Y0389777D01*
X0177048Y0389717D01*
X0177162Y0389653D01*
X0177275Y0389585D01*
X0177386Y0389514D01*
X0177495Y0389440D01*
X0177601Y0389363D01*
X0177705Y0389282D01*
X0177806Y0389199D01*
X0177905Y0389112D01*
X0178001Y0389022D01*
X0178094Y0388929D01*
X0178185Y0388834D01*
X0178272Y0388736D01*
X0178357Y0388635D01*
X0178438Y0388532D01*
X0178516Y0388426D01*
X0178591Y0388318D01*
X0178663Y0388208D01*
X0178731Y0388096D01*
X0178796Y0387982D01*
X0178857Y0387865D01*
X0178915Y0387747D01*
X0178969Y0387627D01*
X0179020Y0387506D01*
X0179067Y0387383D01*
X0179110Y0387259D01*
X0179149Y0387134D01*
X0179185Y0387007D01*
X0179216Y0386879D01*
X0179244Y0386751D01*
X0179268Y0386622D01*
X0179288Y0386492D01*
X0179304Y0386361D01*
X0179316Y0386230D01*
X0179324Y0386099D01*
X0179328Y0385968D01*
X0179328Y0385836D01*
X0179324Y0385705D01*
X0179316Y0385574D01*
X0179304Y0385443D01*
X0179288Y0385312D01*
X0179268Y0385182D01*
X0179244Y0385053D01*
X0179216Y0384925D01*
X0179185Y0384797D01*
X0179149Y0384670D01*
X0179110Y0384545D01*
X0179067Y0384421D01*
X0179020Y0384298D01*
X0178969Y0384177D01*
X0178915Y0384057D01*
X0178857Y0383939D01*
X0178796Y0383822D01*
X0178731Y0383708D01*
X0178663Y0383596D01*
X0178591Y0383486D01*
X0178516Y0383378D01*
X0178438Y0383272D01*
X0178357Y0383169D01*
X0178272Y0383068D01*
X0178185Y0382970D01*
X0178094Y0382875D01*
X0178001Y0382782D01*
X0177905Y0382692D01*
X0177806Y0382605D01*
X0177705Y0382522D01*
X0177601Y0382441D01*
X0177495Y0382364D01*
X0177386Y0382290D01*
X0177275Y0382219D01*
X0177163Y0382151D01*
X0177048Y0382087D01*
X0176931Y0382027D01*
X0176812Y0381970D01*
X0176692Y0381917D01*
X0176571Y0381867D01*
X0176447Y0381821D01*
X0176323Y0381779D01*
X0176197Y0381741D01*
X0176070Y0381706D01*
X0175942Y0381675D01*
X0175814Y0381649D01*
X0175684Y0381626D01*
X0175554Y0381607D01*
X0175424Y0381592D01*
X0175293Y0381581D01*
X0175161Y0381574D01*
X0175030Y0381571D01*
X0174898Y0381572D01*
X0174767Y0381577D01*
X0174636Y0381586D01*
X0174505Y0381599D01*
X0174375Y0381616D01*
X0174245Y0381637D01*
X0174116Y0381662D01*
X0173988Y0381690D01*
X0173860Y0381723D01*
X0173734Y0381759D01*
X0173609Y0381800D01*
X0173485Y0381844D01*
X0173362Y0381891D01*
X0173241Y0381943D01*
X0173122Y0381998D01*
X0173004Y0382057D01*
X0172889Y0382119D01*
X0172775Y0382185D01*
X0172663Y0382254D01*
X0172553Y0382326D01*
X0172446Y0382402D01*
X0172341Y0382481D01*
X0172238Y0382563D01*
X0172138Y0382648D01*
X0172041Y0382737D01*
X0171946Y0382828D01*
X0171854Y0382922D01*
X0171765Y0383019D01*
X0171679Y0383118D01*
X0171596Y0383220D01*
X0171516Y0383325D01*
X0171440Y0383431D01*
X0171367Y0383540D01*
X0171297Y0383652D01*
X0171230Y0383765D01*
X0171167Y0383880D01*
X0171107Y0383998D01*
X0171051Y0384116D01*
X0170999Y0384237D01*
X0170950Y0384359D01*
X0170905Y0384483D01*
X0170864Y0384607D01*
X0170827Y0384734D01*
X0170793Y0384861D01*
X0170763Y0384989D01*
X0170738Y0385118D01*
X0170716Y0385247D01*
X0170698Y0385377D01*
X0170684Y0385508D01*
X0170674Y0385639D01*
X0170668Y0385771D01*
X0170666Y0385902D01*
X0028933Y0385902D02*
X0028935Y0386033D01*
X0028941Y0386165D01*
X0028951Y0386296D01*
X0028965Y0386427D01*
X0028983Y0386557D01*
X0029005Y0386686D01*
X0029030Y0386815D01*
X0029060Y0386943D01*
X0029094Y0387070D01*
X0029131Y0387197D01*
X0029172Y0387321D01*
X0029217Y0387445D01*
X0029266Y0387567D01*
X0029318Y0387688D01*
X0029374Y0387806D01*
X0029434Y0387924D01*
X0029497Y0388039D01*
X0029564Y0388152D01*
X0029634Y0388264D01*
X0029707Y0388373D01*
X0029783Y0388479D01*
X0029863Y0388584D01*
X0029946Y0388686D01*
X0030032Y0388785D01*
X0030121Y0388882D01*
X0030213Y0388976D01*
X0030308Y0389067D01*
X0030405Y0389156D01*
X0030505Y0389241D01*
X0030608Y0389323D01*
X0030713Y0389402D01*
X0030820Y0389478D01*
X0030930Y0389550D01*
X0031042Y0389619D01*
X0031156Y0389685D01*
X0031271Y0389747D01*
X0031389Y0389806D01*
X0031508Y0389861D01*
X0031629Y0389913D01*
X0031752Y0389960D01*
X0031876Y0390004D01*
X0032001Y0390045D01*
X0032127Y0390081D01*
X0032255Y0390114D01*
X0032383Y0390142D01*
X0032512Y0390167D01*
X0032642Y0390188D01*
X0032772Y0390205D01*
X0032903Y0390218D01*
X0033034Y0390227D01*
X0033165Y0390232D01*
X0033297Y0390233D01*
X0033428Y0390230D01*
X0033560Y0390223D01*
X0033691Y0390212D01*
X0033821Y0390197D01*
X0033951Y0390178D01*
X0034081Y0390155D01*
X0034209Y0390129D01*
X0034337Y0390098D01*
X0034464Y0390063D01*
X0034590Y0390025D01*
X0034714Y0389983D01*
X0034838Y0389937D01*
X0034959Y0389887D01*
X0035079Y0389834D01*
X0035198Y0389777D01*
X0035315Y0389717D01*
X0035429Y0389653D01*
X0035542Y0389585D01*
X0035653Y0389514D01*
X0035762Y0389440D01*
X0035868Y0389363D01*
X0035972Y0389282D01*
X0036073Y0389199D01*
X0036172Y0389112D01*
X0036268Y0389022D01*
X0036361Y0388929D01*
X0036452Y0388834D01*
X0036539Y0388736D01*
X0036624Y0388635D01*
X0036705Y0388532D01*
X0036783Y0388426D01*
X0036858Y0388318D01*
X0036930Y0388208D01*
X0036998Y0388096D01*
X0037063Y0387982D01*
X0037124Y0387865D01*
X0037182Y0387747D01*
X0037236Y0387627D01*
X0037287Y0387506D01*
X0037334Y0387383D01*
X0037377Y0387259D01*
X0037416Y0387134D01*
X0037452Y0387007D01*
X0037483Y0386879D01*
X0037511Y0386751D01*
X0037535Y0386622D01*
X0037555Y0386492D01*
X0037571Y0386361D01*
X0037583Y0386230D01*
X0037591Y0386099D01*
X0037595Y0385968D01*
X0037595Y0385836D01*
X0037591Y0385705D01*
X0037583Y0385574D01*
X0037571Y0385443D01*
X0037555Y0385312D01*
X0037535Y0385182D01*
X0037511Y0385053D01*
X0037483Y0384925D01*
X0037452Y0384797D01*
X0037416Y0384670D01*
X0037377Y0384545D01*
X0037334Y0384421D01*
X0037287Y0384298D01*
X0037236Y0384177D01*
X0037182Y0384057D01*
X0037124Y0383939D01*
X0037063Y0383822D01*
X0036998Y0383708D01*
X0036930Y0383596D01*
X0036858Y0383486D01*
X0036783Y0383378D01*
X0036705Y0383272D01*
X0036624Y0383169D01*
X0036539Y0383068D01*
X0036452Y0382970D01*
X0036361Y0382875D01*
X0036268Y0382782D01*
X0036172Y0382692D01*
X0036073Y0382605D01*
X0035972Y0382522D01*
X0035868Y0382441D01*
X0035762Y0382364D01*
X0035653Y0382290D01*
X0035542Y0382219D01*
X0035430Y0382151D01*
X0035315Y0382087D01*
X0035198Y0382027D01*
X0035079Y0381970D01*
X0034959Y0381917D01*
X0034838Y0381867D01*
X0034714Y0381821D01*
X0034590Y0381779D01*
X0034464Y0381741D01*
X0034337Y0381706D01*
X0034209Y0381675D01*
X0034081Y0381649D01*
X0033951Y0381626D01*
X0033821Y0381607D01*
X0033691Y0381592D01*
X0033560Y0381581D01*
X0033428Y0381574D01*
X0033297Y0381571D01*
X0033165Y0381572D01*
X0033034Y0381577D01*
X0032903Y0381586D01*
X0032772Y0381599D01*
X0032642Y0381616D01*
X0032512Y0381637D01*
X0032383Y0381662D01*
X0032255Y0381690D01*
X0032127Y0381723D01*
X0032001Y0381759D01*
X0031876Y0381800D01*
X0031752Y0381844D01*
X0031629Y0381891D01*
X0031508Y0381943D01*
X0031389Y0381998D01*
X0031271Y0382057D01*
X0031156Y0382119D01*
X0031042Y0382185D01*
X0030930Y0382254D01*
X0030820Y0382326D01*
X0030713Y0382402D01*
X0030608Y0382481D01*
X0030505Y0382563D01*
X0030405Y0382648D01*
X0030308Y0382737D01*
X0030213Y0382828D01*
X0030121Y0382922D01*
X0030032Y0383019D01*
X0029946Y0383118D01*
X0029863Y0383220D01*
X0029783Y0383325D01*
X0029707Y0383431D01*
X0029634Y0383540D01*
X0029564Y0383652D01*
X0029497Y0383765D01*
X0029434Y0383880D01*
X0029374Y0383998D01*
X0029318Y0384116D01*
X0029266Y0384237D01*
X0029217Y0384359D01*
X0029172Y0384483D01*
X0029131Y0384607D01*
X0029094Y0384734D01*
X0029060Y0384861D01*
X0029030Y0384989D01*
X0029005Y0385118D01*
X0028983Y0385247D01*
X0028965Y0385377D01*
X0028951Y0385508D01*
X0028941Y0385639D01*
X0028935Y0385771D01*
X0028933Y0385902D01*
M02*
