G75*
%MOIN*%
%OFA0B0*%
%FSLAX25Y25*%
%IPPOS*%
%LPD*%
%AMOC8*
5,1,8,0,0,1.08239X$1,22.5*
%
%ADD10C,0.09161*%
%ADD11C,0.02469*%
%ADD12R,0.04437X0.04831*%
%ADD13R,0.04831X0.04437*%
%ADD14R,0.17323X0.17323*%
%ADD15C,0.02681*%
%ADD16C,0.00394*%
%ADD17R,0.03937X0.04331*%
%ADD18C,0.00841*%
%ADD19C,0.01330*%
%ADD20C,0.00500*%
%ADD21R,0.17717X0.04114*%
%ADD22C,0.00630*%
%ADD23C,0.03598*%
%ADD24C,0.04402*%
%ADD25R,0.03650X0.03650*%
%ADD26R,0.06799X0.04831*%
%ADD27R,0.07587X0.04437*%
%ADD28C,0.06406*%
%ADD29R,0.06799X0.07587*%
%ADD30R,0.03650X0.04043*%
%ADD31R,0.39870X0.20185*%
%ADD32R,0.20185X0.20185*%
D10*
X0025784Y0029996D03*
X0025784Y0125665D03*
X0033264Y0385902D03*
X0174997Y0385902D03*
D11*
X0159249Y0142791D03*
X0154820Y0142791D03*
X0150390Y0142791D03*
X0145961Y0142791D03*
X0145961Y0134917D03*
X0150390Y0134917D03*
X0154820Y0134917D03*
X0159249Y0134917D03*
X0141532Y0134917D03*
X0141532Y0142791D03*
X0066729Y0142791D03*
X0062300Y0142791D03*
X0057871Y0142791D03*
X0057871Y0134917D03*
X0062300Y0134917D03*
X0066729Y0134917D03*
X0053442Y0134917D03*
X0049012Y0134917D03*
X0049012Y0142791D03*
X0053442Y0142791D03*
D12*
X0044682Y0116807D03*
X0044682Y0110114D03*
X0033855Y0091020D03*
X0033855Y0084327D03*
X0063875Y0065232D03*
X0063875Y0059130D03*
X0070568Y0059130D03*
X0070568Y0065232D03*
X0073453Y0046335D03*
X0066760Y0046335D03*
X0084938Y0083244D03*
X0091631Y0083244D03*
X0098973Y0081846D03*
X0099052Y0087791D03*
X0099052Y0094484D03*
X0106965Y0097870D03*
X0106965Y0104563D03*
X0112241Y0104563D03*
X0112241Y0097870D03*
X0117477Y0097870D03*
X0117477Y0104563D03*
X0123540Y0104563D03*
X0123540Y0097870D03*
X0128973Y0097870D03*
X0128973Y0104563D03*
X0137477Y0104563D03*
X0137477Y0097870D03*
X0149564Y0079602D03*
X0149564Y0072909D03*
X0155745Y0079209D03*
X0155745Y0085902D03*
X0154327Y0093579D03*
X0154327Y0100272D03*
X0156099Y0108185D03*
X0156099Y0114878D03*
X0159800Y0100272D03*
X0159800Y0093579D03*
X0161453Y0085902D03*
X0161453Y0079209D03*
X0098973Y0075154D03*
X0081493Y0100469D03*
X0081493Y0106768D03*
X0081493Y0113264D03*
X0081493Y0119760D03*
X0074800Y0119760D03*
X0074800Y0113264D03*
X0074800Y0106768D03*
X0074800Y0100469D03*
D13*
X0077162Y0076846D03*
X0070469Y0076846D03*
X0057083Y0071531D03*
X0050390Y0071531D03*
X0052556Y0056177D03*
X0052556Y0049484D03*
X0035627Y0078224D03*
X0028934Y0078224D03*
X0032280Y0096531D03*
X0038973Y0096531D03*
X0051572Y0110114D03*
X0051572Y0116807D03*
X0058658Y0116807D03*
X0058658Y0110114D03*
X0097635Y0065626D03*
X0097635Y0058933D03*
G36*
X0111284Y0057609D02*
X0114699Y0061024D01*
X0117836Y0057887D01*
X0114421Y0054472D01*
X0111284Y0057609D01*
G37*
G36*
X0116016Y0062341D02*
X0119431Y0065756D01*
X0122568Y0062619D01*
X0119153Y0059204D01*
X0116016Y0062341D01*
G37*
X0143698Y0111492D03*
X0150390Y0111492D03*
D14*
X0131296Y0079012D03*
D15*
X0133658Y0081374D03*
X0133658Y0076650D03*
X0128934Y0076650D03*
X0128934Y0081374D03*
X0128934Y0086098D03*
X0133658Y0086098D03*
X0138383Y0086098D03*
X0138383Y0081374D03*
X0138383Y0076650D03*
X0138383Y0071925D03*
X0133658Y0071925D03*
X0128934Y0071925D03*
X0124209Y0071925D03*
X0124209Y0076650D03*
X0124209Y0081374D03*
X0124209Y0086098D03*
D16*
X0121335Y0086096D02*
X0118422Y0086096D01*
X0118422Y0085823D02*
X0118422Y0086413D01*
X0121335Y0086413D01*
X0121335Y0085823D01*
X0118422Y0085823D01*
X0118422Y0084839D02*
X0118422Y0084248D01*
X0121335Y0084248D01*
X0121335Y0084839D01*
X0118422Y0084839D01*
X0118422Y0084527D02*
X0121335Y0084527D01*
X0121335Y0083264D02*
X0121335Y0082673D01*
X0118422Y0082673D01*
X0118422Y0083264D01*
X0121335Y0083264D01*
X0121335Y0082958D02*
X0118422Y0082958D01*
X0118422Y0081689D02*
X0118422Y0081098D01*
X0121335Y0081098D01*
X0121335Y0081689D01*
X0118422Y0081689D01*
X0118422Y0081389D02*
X0121335Y0081389D01*
X0121335Y0080114D02*
X0121335Y0079524D01*
X0118422Y0079524D01*
X0118422Y0080114D01*
X0121335Y0080114D01*
X0121335Y0079820D02*
X0118422Y0079820D01*
X0118422Y0078539D02*
X0118422Y0077949D01*
X0121335Y0077949D01*
X0121335Y0078539D01*
X0118422Y0078539D01*
X0118422Y0078252D02*
X0121335Y0078252D01*
X0121335Y0076965D02*
X0121335Y0076374D01*
X0118422Y0076374D01*
X0118422Y0076965D01*
X0121335Y0076965D01*
X0121335Y0076683D02*
X0118422Y0076683D01*
X0118422Y0075390D02*
X0118422Y0074799D01*
X0121335Y0074799D01*
X0121335Y0075390D01*
X0118422Y0075390D01*
X0118422Y0075114D02*
X0121335Y0075114D01*
X0121335Y0073815D02*
X0121335Y0073224D01*
X0118422Y0073224D01*
X0118422Y0073815D01*
X0121335Y0073815D01*
X0121335Y0073545D02*
X0118422Y0073545D01*
X0118422Y0072240D02*
X0118422Y0071650D01*
X0121335Y0071650D01*
X0121335Y0072240D01*
X0118422Y0072240D01*
X0118422Y0071976D02*
X0121335Y0071976D01*
X0121335Y0070665D02*
X0121335Y0070075D01*
X0118422Y0070075D01*
X0118422Y0070665D01*
X0121335Y0070665D01*
X0121335Y0070407D02*
X0118422Y0070407D01*
X0122320Y0069051D02*
X0122320Y0066138D01*
X0122910Y0066138D01*
X0122910Y0069051D01*
X0122320Y0069051D01*
X0122320Y0068838D02*
X0122910Y0068838D01*
X0122910Y0068446D02*
X0122320Y0068446D01*
X0122320Y0068054D02*
X0122910Y0068054D01*
X0122910Y0067662D02*
X0122320Y0067662D01*
X0122320Y0067270D02*
X0122910Y0067270D01*
X0122910Y0066877D02*
X0122320Y0066877D01*
X0122320Y0066485D02*
X0122910Y0066485D01*
X0123894Y0066485D02*
X0124485Y0066485D01*
X0124485Y0066138D02*
X0123894Y0066138D01*
X0123894Y0069051D01*
X0124485Y0069051D01*
X0124485Y0066138D01*
X0124485Y0066877D02*
X0123894Y0066877D01*
X0123894Y0067270D02*
X0124485Y0067270D01*
X0124485Y0067662D02*
X0123894Y0067662D01*
X0123894Y0068054D02*
X0124485Y0068054D01*
X0124485Y0068446D02*
X0123894Y0068446D01*
X0123894Y0068838D02*
X0124485Y0068838D01*
X0125469Y0068838D02*
X0126060Y0068838D01*
X0126060Y0069051D02*
X0126060Y0066138D01*
X0125469Y0066138D01*
X0125469Y0069051D01*
X0126060Y0069051D01*
X0126060Y0068446D02*
X0125469Y0068446D01*
X0125469Y0068054D02*
X0126060Y0068054D01*
X0126060Y0067662D02*
X0125469Y0067662D01*
X0125469Y0067270D02*
X0126060Y0067270D01*
X0126060Y0066877D02*
X0125469Y0066877D01*
X0125469Y0066485D02*
X0126060Y0066485D01*
X0127044Y0066485D02*
X0127635Y0066485D01*
X0127635Y0066138D02*
X0127044Y0066138D01*
X0127044Y0069051D01*
X0127635Y0069051D01*
X0127635Y0066138D01*
X0127635Y0066877D02*
X0127044Y0066877D01*
X0127044Y0067270D02*
X0127635Y0067270D01*
X0127635Y0067662D02*
X0127044Y0067662D01*
X0127044Y0068054D02*
X0127635Y0068054D01*
X0127635Y0068446D02*
X0127044Y0068446D01*
X0127044Y0068838D02*
X0127635Y0068838D01*
X0128619Y0068838D02*
X0129209Y0068838D01*
X0129209Y0069051D02*
X0129209Y0066138D01*
X0128619Y0066138D01*
X0128619Y0069051D01*
X0129209Y0069051D01*
X0129209Y0068446D02*
X0128619Y0068446D01*
X0128619Y0068054D02*
X0129209Y0068054D01*
X0129209Y0067662D02*
X0128619Y0067662D01*
X0128619Y0067270D02*
X0129209Y0067270D01*
X0129209Y0066877D02*
X0128619Y0066877D01*
X0128619Y0066485D02*
X0129209Y0066485D01*
X0130194Y0066485D02*
X0130784Y0066485D01*
X0130784Y0066138D02*
X0130194Y0066138D01*
X0130194Y0069051D01*
X0130784Y0069051D01*
X0130784Y0066138D01*
X0130784Y0066877D02*
X0130194Y0066877D01*
X0130194Y0067270D02*
X0130784Y0067270D01*
X0130784Y0067662D02*
X0130194Y0067662D01*
X0130194Y0068054D02*
X0130784Y0068054D01*
X0130784Y0068446D02*
X0130194Y0068446D01*
X0130194Y0068838D02*
X0130784Y0068838D01*
X0131768Y0068838D02*
X0132359Y0068838D01*
X0132359Y0069051D02*
X0132359Y0066138D01*
X0131768Y0066138D01*
X0131768Y0069051D01*
X0132359Y0069051D01*
X0132359Y0068446D02*
X0131768Y0068446D01*
X0131768Y0068054D02*
X0132359Y0068054D01*
X0132359Y0067662D02*
X0131768Y0067662D01*
X0131768Y0067270D02*
X0132359Y0067270D01*
X0132359Y0066877D02*
X0131768Y0066877D01*
X0131768Y0066485D02*
X0132359Y0066485D01*
X0133343Y0066485D02*
X0133934Y0066485D01*
X0133934Y0066138D02*
X0133343Y0066138D01*
X0133343Y0069051D01*
X0133934Y0069051D01*
X0133934Y0066138D01*
X0133934Y0066877D02*
X0133343Y0066877D01*
X0133343Y0067270D02*
X0133934Y0067270D01*
X0133934Y0067662D02*
X0133343Y0067662D01*
X0133343Y0068054D02*
X0133934Y0068054D01*
X0133934Y0068446D02*
X0133343Y0068446D01*
X0133343Y0068838D02*
X0133934Y0068838D01*
X0134918Y0068838D02*
X0135509Y0068838D01*
X0135509Y0069051D02*
X0135509Y0066138D01*
X0134918Y0066138D01*
X0134918Y0069051D01*
X0135509Y0069051D01*
X0135509Y0068446D02*
X0134918Y0068446D01*
X0134918Y0068054D02*
X0135509Y0068054D01*
X0135509Y0067662D02*
X0134918Y0067662D01*
X0134918Y0067270D02*
X0135509Y0067270D01*
X0135509Y0066877D02*
X0134918Y0066877D01*
X0134918Y0066485D02*
X0135509Y0066485D01*
X0136493Y0066485D02*
X0137083Y0066485D01*
X0137083Y0066138D02*
X0136493Y0066138D01*
X0136493Y0069051D01*
X0137083Y0069051D01*
X0137083Y0066138D01*
X0137083Y0066877D02*
X0136493Y0066877D01*
X0136493Y0067270D02*
X0137083Y0067270D01*
X0137083Y0067662D02*
X0136493Y0067662D01*
X0136493Y0068054D02*
X0137083Y0068054D01*
X0137083Y0068446D02*
X0136493Y0068446D01*
X0136493Y0068838D02*
X0137083Y0068838D01*
X0138068Y0068838D02*
X0138658Y0068838D01*
X0138658Y0069051D02*
X0138658Y0066138D01*
X0138068Y0066138D01*
X0138068Y0069051D01*
X0138658Y0069051D01*
X0138658Y0068446D02*
X0138068Y0068446D01*
X0138068Y0068054D02*
X0138658Y0068054D01*
X0138658Y0067662D02*
X0138068Y0067662D01*
X0138068Y0067270D02*
X0138658Y0067270D01*
X0138658Y0066877D02*
X0138068Y0066877D01*
X0138068Y0066485D02*
X0138658Y0066485D01*
X0139642Y0066485D02*
X0140233Y0066485D01*
X0140233Y0066138D02*
X0139642Y0066138D01*
X0139642Y0069051D01*
X0140233Y0069051D01*
X0140233Y0066138D01*
X0140233Y0066877D02*
X0139642Y0066877D01*
X0139642Y0067270D02*
X0140233Y0067270D01*
X0140233Y0067662D02*
X0139642Y0067662D01*
X0139642Y0068054D02*
X0140233Y0068054D01*
X0140233Y0068446D02*
X0139642Y0068446D01*
X0139642Y0068838D02*
X0140233Y0068838D01*
X0141257Y0070075D02*
X0141257Y0070665D01*
X0144170Y0070665D01*
X0144170Y0070075D01*
X0141257Y0070075D01*
X0141257Y0070407D02*
X0144170Y0070407D01*
X0144170Y0071650D02*
X0141257Y0071650D01*
X0141257Y0072240D01*
X0144170Y0072240D01*
X0144170Y0071650D01*
X0144170Y0071976D02*
X0141257Y0071976D01*
X0141257Y0073224D02*
X0141257Y0073815D01*
X0144170Y0073815D01*
X0144170Y0073224D01*
X0141257Y0073224D01*
X0141257Y0073545D02*
X0144170Y0073545D01*
X0144170Y0074799D02*
X0141257Y0074799D01*
X0141257Y0075390D01*
X0144170Y0075390D01*
X0144170Y0074799D01*
X0144170Y0075114D02*
X0141257Y0075114D01*
X0141257Y0076374D02*
X0141257Y0076965D01*
X0144170Y0076965D01*
X0144170Y0076374D01*
X0141257Y0076374D01*
X0141257Y0076683D02*
X0144170Y0076683D01*
X0144170Y0077949D02*
X0141257Y0077949D01*
X0141257Y0078539D01*
X0144170Y0078539D01*
X0144170Y0077949D01*
X0144170Y0078252D02*
X0141257Y0078252D01*
X0141257Y0079524D02*
X0141257Y0080114D01*
X0144170Y0080114D01*
X0144170Y0079524D01*
X0141257Y0079524D01*
X0141257Y0079820D02*
X0144170Y0079820D01*
X0144170Y0081098D02*
X0141257Y0081098D01*
X0141257Y0081689D01*
X0144170Y0081689D01*
X0144170Y0081098D01*
X0144170Y0081389D02*
X0141257Y0081389D01*
X0141257Y0082673D02*
X0141257Y0083264D01*
X0144170Y0083264D01*
X0144170Y0082673D01*
X0141257Y0082673D01*
X0141257Y0082958D02*
X0144170Y0082958D01*
X0144170Y0084248D02*
X0141257Y0084248D01*
X0141257Y0084839D01*
X0144170Y0084839D01*
X0144170Y0084248D01*
X0144170Y0084527D02*
X0141257Y0084527D01*
X0141257Y0085823D02*
X0141257Y0086413D01*
X0144170Y0086413D01*
X0144170Y0085823D01*
X0141257Y0085823D01*
X0141257Y0086096D02*
X0144170Y0086096D01*
X0144170Y0087398D02*
X0141257Y0087398D01*
X0141257Y0087988D01*
X0144170Y0087988D01*
X0144170Y0087398D01*
X0144170Y0087665D02*
X0141257Y0087665D01*
X0140233Y0088972D02*
X0139642Y0088972D01*
X0139642Y0091886D01*
X0140233Y0091886D01*
X0140233Y0088972D01*
X0140233Y0089233D02*
X0139642Y0089233D01*
X0139642Y0089626D02*
X0140233Y0089626D01*
X0140233Y0090018D02*
X0139642Y0090018D01*
X0139642Y0090410D02*
X0140233Y0090410D01*
X0140233Y0090802D02*
X0139642Y0090802D01*
X0139642Y0091195D02*
X0140233Y0091195D01*
X0140233Y0091587D02*
X0139642Y0091587D01*
X0138658Y0091587D02*
X0138068Y0091587D01*
X0138068Y0091886D02*
X0138658Y0091886D01*
X0138658Y0088972D01*
X0138068Y0088972D01*
X0138068Y0091886D01*
X0138068Y0091195D02*
X0138658Y0091195D01*
X0138658Y0090802D02*
X0138068Y0090802D01*
X0138068Y0090410D02*
X0138658Y0090410D01*
X0138658Y0090018D02*
X0138068Y0090018D01*
X0138068Y0089626D02*
X0138658Y0089626D01*
X0138658Y0089233D02*
X0138068Y0089233D01*
X0137083Y0089233D02*
X0136493Y0089233D01*
X0136493Y0088972D02*
X0137083Y0088972D01*
X0137083Y0091886D01*
X0136493Y0091886D01*
X0136493Y0088972D01*
X0136493Y0089626D02*
X0137083Y0089626D01*
X0137083Y0090018D02*
X0136493Y0090018D01*
X0136493Y0090410D02*
X0137083Y0090410D01*
X0137083Y0090802D02*
X0136493Y0090802D01*
X0136493Y0091195D02*
X0137083Y0091195D01*
X0137083Y0091587D02*
X0136493Y0091587D01*
X0135509Y0091587D02*
X0134918Y0091587D01*
X0134918Y0091886D02*
X0135509Y0091886D01*
X0135509Y0088972D01*
X0134918Y0088972D01*
X0134918Y0091886D01*
X0134918Y0091195D02*
X0135509Y0091195D01*
X0135509Y0090802D02*
X0134918Y0090802D01*
X0134918Y0090410D02*
X0135509Y0090410D01*
X0135509Y0090018D02*
X0134918Y0090018D01*
X0134918Y0089626D02*
X0135509Y0089626D01*
X0135509Y0089233D02*
X0134918Y0089233D01*
X0133934Y0089233D02*
X0133343Y0089233D01*
X0133343Y0088972D02*
X0133934Y0088972D01*
X0133934Y0091886D01*
X0133343Y0091886D01*
X0133343Y0088972D01*
X0133343Y0089626D02*
X0133934Y0089626D01*
X0133934Y0090018D02*
X0133343Y0090018D01*
X0133343Y0090410D02*
X0133934Y0090410D01*
X0133934Y0090802D02*
X0133343Y0090802D01*
X0133343Y0091195D02*
X0133934Y0091195D01*
X0133934Y0091587D02*
X0133343Y0091587D01*
X0132359Y0091587D02*
X0131768Y0091587D01*
X0131768Y0091886D02*
X0132359Y0091886D01*
X0132359Y0088972D01*
X0131768Y0088972D01*
X0131768Y0091886D01*
X0131768Y0091195D02*
X0132359Y0091195D01*
X0132359Y0090802D02*
X0131768Y0090802D01*
X0131768Y0090410D02*
X0132359Y0090410D01*
X0132359Y0090018D02*
X0131768Y0090018D01*
X0131768Y0089626D02*
X0132359Y0089626D01*
X0132359Y0089233D02*
X0131768Y0089233D01*
X0130784Y0089233D02*
X0130194Y0089233D01*
X0130194Y0088972D02*
X0130784Y0088972D01*
X0130784Y0091886D01*
X0130194Y0091886D01*
X0130194Y0088972D01*
X0130194Y0089626D02*
X0130784Y0089626D01*
X0130784Y0090018D02*
X0130194Y0090018D01*
X0130194Y0090410D02*
X0130784Y0090410D01*
X0130784Y0090802D02*
X0130194Y0090802D01*
X0130194Y0091195D02*
X0130784Y0091195D01*
X0130784Y0091587D02*
X0130194Y0091587D01*
X0129209Y0091587D02*
X0128619Y0091587D01*
X0128619Y0091886D02*
X0129209Y0091886D01*
X0129209Y0088972D01*
X0128619Y0088972D01*
X0128619Y0091886D01*
X0128619Y0091195D02*
X0129209Y0091195D01*
X0129209Y0090802D02*
X0128619Y0090802D01*
X0128619Y0090410D02*
X0129209Y0090410D01*
X0129209Y0090018D02*
X0128619Y0090018D01*
X0128619Y0089626D02*
X0129209Y0089626D01*
X0129209Y0089233D02*
X0128619Y0089233D01*
X0127635Y0089233D02*
X0127044Y0089233D01*
X0127044Y0088972D02*
X0127635Y0088972D01*
X0127635Y0091886D01*
X0127044Y0091886D01*
X0127044Y0088972D01*
X0127044Y0089626D02*
X0127635Y0089626D01*
X0127635Y0090018D02*
X0127044Y0090018D01*
X0127044Y0090410D02*
X0127635Y0090410D01*
X0127635Y0090802D02*
X0127044Y0090802D01*
X0127044Y0091195D02*
X0127635Y0091195D01*
X0127635Y0091587D02*
X0127044Y0091587D01*
X0126060Y0091587D02*
X0125469Y0091587D01*
X0125469Y0091886D02*
X0126060Y0091886D01*
X0126060Y0088972D01*
X0125469Y0088972D01*
X0125469Y0091886D01*
X0125469Y0091195D02*
X0126060Y0091195D01*
X0126060Y0090802D02*
X0125469Y0090802D01*
X0125469Y0090410D02*
X0126060Y0090410D01*
X0126060Y0090018D02*
X0125469Y0090018D01*
X0125469Y0089626D02*
X0126060Y0089626D01*
X0126060Y0089233D02*
X0125469Y0089233D01*
X0124485Y0089233D02*
X0123894Y0089233D01*
X0123894Y0088972D02*
X0124485Y0088972D01*
X0124485Y0091886D01*
X0123894Y0091886D01*
X0123894Y0088972D01*
X0123894Y0089626D02*
X0124485Y0089626D01*
X0124485Y0090018D02*
X0123894Y0090018D01*
X0123894Y0090410D02*
X0124485Y0090410D01*
X0124485Y0090802D02*
X0123894Y0090802D01*
X0123894Y0091195D02*
X0124485Y0091195D01*
X0124485Y0091587D02*
X0123894Y0091587D01*
X0122910Y0091587D02*
X0122320Y0091587D01*
X0122320Y0091886D02*
X0122910Y0091886D01*
X0122910Y0088972D01*
X0122320Y0088972D01*
X0122320Y0091886D01*
X0122320Y0091195D02*
X0122910Y0091195D01*
X0122910Y0090802D02*
X0122320Y0090802D01*
X0122320Y0090410D02*
X0122910Y0090410D01*
X0122910Y0090018D02*
X0122320Y0090018D01*
X0122320Y0089626D02*
X0122910Y0089626D01*
X0122910Y0089233D02*
X0122320Y0089233D01*
X0121335Y0087988D02*
X0121335Y0087398D01*
X0118422Y0087398D01*
X0118422Y0087988D01*
X0121335Y0087988D01*
X0121335Y0087665D02*
X0118422Y0087665D01*
D17*
X0143953Y0100764D03*
X0143953Y0106472D03*
X0148481Y0106472D03*
X0148481Y0100764D03*
D18*
X0069314Y0093802D02*
X0066112Y0093802D01*
X0069314Y0093802D02*
X0069314Y0092962D01*
X0066112Y0092962D01*
X0066112Y0093802D01*
X0069314Y0093802D01*
X0069314Y0091833D02*
X0066112Y0091833D01*
X0069314Y0091833D02*
X0069314Y0090993D01*
X0066112Y0090993D01*
X0066112Y0091833D01*
X0069314Y0091833D01*
X0069314Y0089865D02*
X0066112Y0089865D01*
X0069314Y0089865D02*
X0069314Y0089025D01*
X0066112Y0089025D01*
X0066112Y0089865D01*
X0069314Y0089865D01*
X0069314Y0087896D02*
X0066112Y0087896D01*
X0069314Y0087896D02*
X0069314Y0087056D01*
X0066112Y0087056D01*
X0066112Y0087896D01*
X0069314Y0087896D01*
X0069314Y0085928D02*
X0066112Y0085928D01*
X0069314Y0085928D02*
X0069314Y0085088D01*
X0066112Y0085088D01*
X0066112Y0085928D01*
X0069314Y0085928D01*
X0069314Y0083959D02*
X0066112Y0083959D01*
X0069314Y0083959D02*
X0069314Y0083119D01*
X0066112Y0083119D01*
X0066112Y0083959D01*
X0069314Y0083959D01*
X0069314Y0081991D02*
X0066112Y0081991D01*
X0069314Y0081991D02*
X0069314Y0081151D01*
X0066112Y0081151D01*
X0066112Y0081991D01*
X0069314Y0081991D01*
X0064984Y0080022D02*
X0064984Y0076820D01*
X0064144Y0076820D01*
X0064144Y0080022D01*
X0064984Y0080022D01*
X0064984Y0077660D02*
X0064144Y0077660D01*
X0064144Y0078500D02*
X0064984Y0078500D01*
X0064984Y0079340D02*
X0064144Y0079340D01*
X0063015Y0080022D02*
X0063015Y0076820D01*
X0062175Y0076820D01*
X0062175Y0080022D01*
X0063015Y0080022D01*
X0063015Y0077660D02*
X0062175Y0077660D01*
X0062175Y0078500D02*
X0063015Y0078500D01*
X0063015Y0079340D02*
X0062175Y0079340D01*
X0061047Y0080022D02*
X0061047Y0076820D01*
X0060207Y0076820D01*
X0060207Y0080022D01*
X0061047Y0080022D01*
X0061047Y0077660D02*
X0060207Y0077660D01*
X0060207Y0078500D02*
X0061047Y0078500D01*
X0061047Y0079340D02*
X0060207Y0079340D01*
X0059078Y0080022D02*
X0059078Y0076820D01*
X0058238Y0076820D01*
X0058238Y0080022D01*
X0059078Y0080022D01*
X0059078Y0077660D02*
X0058238Y0077660D01*
X0058238Y0078500D02*
X0059078Y0078500D01*
X0059078Y0079340D02*
X0058238Y0079340D01*
X0057110Y0080022D02*
X0057110Y0076820D01*
X0056270Y0076820D01*
X0056270Y0080022D01*
X0057110Y0080022D01*
X0057110Y0077660D02*
X0056270Y0077660D01*
X0056270Y0078500D02*
X0057110Y0078500D01*
X0057110Y0079340D02*
X0056270Y0079340D01*
X0055141Y0080022D02*
X0055141Y0076820D01*
X0054301Y0076820D01*
X0054301Y0080022D01*
X0055141Y0080022D01*
X0055141Y0077660D02*
X0054301Y0077660D01*
X0054301Y0078500D02*
X0055141Y0078500D01*
X0055141Y0079340D02*
X0054301Y0079340D01*
X0053173Y0080022D02*
X0053173Y0076820D01*
X0052333Y0076820D01*
X0052333Y0080022D01*
X0053173Y0080022D01*
X0053173Y0077660D02*
X0052333Y0077660D01*
X0052333Y0078500D02*
X0053173Y0078500D01*
X0053173Y0079340D02*
X0052333Y0079340D01*
X0051204Y0081151D02*
X0048002Y0081151D01*
X0048002Y0081991D01*
X0051204Y0081991D01*
X0051204Y0081151D01*
X0051204Y0081991D02*
X0048002Y0081991D01*
X0048002Y0083119D02*
X0051204Y0083119D01*
X0048002Y0083119D02*
X0048002Y0083959D01*
X0051204Y0083959D01*
X0051204Y0083119D01*
X0051204Y0083959D02*
X0048002Y0083959D01*
X0048002Y0085088D02*
X0051204Y0085088D01*
X0048002Y0085088D02*
X0048002Y0085928D01*
X0051204Y0085928D01*
X0051204Y0085088D01*
X0051204Y0085928D02*
X0048002Y0085928D01*
X0048002Y0087056D02*
X0051204Y0087056D01*
X0048002Y0087056D02*
X0048002Y0087896D01*
X0051204Y0087896D01*
X0051204Y0087056D01*
X0051204Y0087896D02*
X0048002Y0087896D01*
X0048002Y0089025D02*
X0051204Y0089025D01*
X0048002Y0089025D02*
X0048002Y0089865D01*
X0051204Y0089865D01*
X0051204Y0089025D01*
X0051204Y0089865D02*
X0048002Y0089865D01*
X0048002Y0090993D02*
X0051204Y0090993D01*
X0048002Y0090993D02*
X0048002Y0091833D01*
X0051204Y0091833D01*
X0051204Y0090993D01*
X0051204Y0091833D02*
X0048002Y0091833D01*
X0048002Y0092962D02*
X0051204Y0092962D01*
X0048002Y0092962D02*
X0048002Y0093802D01*
X0051204Y0093802D01*
X0051204Y0092962D01*
X0051204Y0093802D02*
X0048002Y0093802D01*
X0052333Y0094930D02*
X0052333Y0098132D01*
X0053173Y0098132D01*
X0053173Y0094930D01*
X0052333Y0094930D01*
X0052333Y0095770D02*
X0053173Y0095770D01*
X0053173Y0096610D02*
X0052333Y0096610D01*
X0052333Y0097450D02*
X0053173Y0097450D01*
X0054301Y0098132D02*
X0054301Y0094930D01*
X0054301Y0098132D02*
X0055141Y0098132D01*
X0055141Y0094930D01*
X0054301Y0094930D01*
X0054301Y0095770D02*
X0055141Y0095770D01*
X0055141Y0096610D02*
X0054301Y0096610D01*
X0054301Y0097450D02*
X0055141Y0097450D01*
X0056270Y0098132D02*
X0056270Y0094930D01*
X0056270Y0098132D02*
X0057110Y0098132D01*
X0057110Y0094930D01*
X0056270Y0094930D01*
X0056270Y0095770D02*
X0057110Y0095770D01*
X0057110Y0096610D02*
X0056270Y0096610D01*
X0056270Y0097450D02*
X0057110Y0097450D01*
X0058238Y0098132D02*
X0058238Y0094930D01*
X0058238Y0098132D02*
X0059078Y0098132D01*
X0059078Y0094930D01*
X0058238Y0094930D01*
X0058238Y0095770D02*
X0059078Y0095770D01*
X0059078Y0096610D02*
X0058238Y0096610D01*
X0058238Y0097450D02*
X0059078Y0097450D01*
X0060207Y0098132D02*
X0060207Y0094930D01*
X0060207Y0098132D02*
X0061047Y0098132D01*
X0061047Y0094930D01*
X0060207Y0094930D01*
X0060207Y0095770D02*
X0061047Y0095770D01*
X0061047Y0096610D02*
X0060207Y0096610D01*
X0060207Y0097450D02*
X0061047Y0097450D01*
X0062175Y0098132D02*
X0062175Y0094930D01*
X0062175Y0098132D02*
X0063015Y0098132D01*
X0063015Y0094930D01*
X0062175Y0094930D01*
X0062175Y0095770D02*
X0063015Y0095770D01*
X0063015Y0096610D02*
X0062175Y0096610D01*
X0062175Y0097450D02*
X0063015Y0097450D01*
X0064144Y0098132D02*
X0064144Y0094930D01*
X0064144Y0098132D02*
X0064984Y0098132D01*
X0064984Y0094930D01*
X0064144Y0094930D01*
X0064144Y0095770D02*
X0064984Y0095770D01*
X0064984Y0096610D02*
X0064144Y0096610D01*
X0064144Y0097450D02*
X0064984Y0097450D01*
D19*
X0064640Y0081494D02*
X0052676Y0081494D01*
X0052676Y0093458D01*
X0064640Y0093458D01*
X0064640Y0081494D01*
X0064640Y0082823D02*
X0052676Y0082823D01*
X0052676Y0084152D02*
X0064640Y0084152D01*
X0064640Y0085481D02*
X0052676Y0085481D01*
X0052676Y0086810D02*
X0064640Y0086810D01*
X0064640Y0088139D02*
X0052676Y0088139D01*
X0052676Y0089468D02*
X0064640Y0089468D01*
X0064640Y0090797D02*
X0052676Y0090797D01*
X0052676Y0092126D02*
X0064640Y0092126D01*
X0064640Y0093455D02*
X0052676Y0093455D01*
D20*
X0045390Y0038382D02*
X0043422Y0038382D01*
X0042635Y0037988D01*
X0042241Y0037594D01*
X0041847Y0036807D01*
X0041847Y0036020D01*
X0042241Y0035232D01*
X0042635Y0034839D01*
X0043422Y0034445D01*
X0045390Y0034445D01*
X0046178Y0034839D01*
X0046572Y0035232D01*
X0046965Y0036020D01*
X0046965Y0036807D01*
X0046572Y0037594D01*
X0046178Y0037988D01*
X0045390Y0038382D01*
X0046102Y0038026D02*
X0042710Y0038026D01*
X0042207Y0037527D02*
X0046605Y0037527D01*
X0046854Y0037029D02*
X0041958Y0037029D01*
X0041847Y0036530D02*
X0046965Y0036530D01*
X0046965Y0036032D02*
X0041847Y0036032D01*
X0042090Y0035533D02*
X0046722Y0035533D01*
X0046374Y0035035D02*
X0042438Y0035035D01*
X0043239Y0034536D02*
X0045573Y0034536D01*
X0045390Y0029524D02*
X0043422Y0029524D01*
X0042635Y0029130D01*
X0042241Y0028736D01*
X0041847Y0027949D01*
X0041847Y0027161D01*
X0042241Y0026374D01*
X0042635Y0025980D01*
X0043422Y0025587D01*
X0045390Y0025587D01*
X0046178Y0025980D01*
X0046572Y0026374D01*
X0046965Y0027161D01*
X0046965Y0027949D01*
X0046572Y0028736D01*
X0046178Y0029130D01*
X0045390Y0029524D01*
X0046255Y0029053D02*
X0042557Y0029053D01*
X0042150Y0028554D02*
X0046662Y0028554D01*
X0046912Y0028056D02*
X0041901Y0028056D01*
X0041847Y0027557D02*
X0046965Y0027557D01*
X0046914Y0027059D02*
X0041898Y0027059D01*
X0042148Y0026560D02*
X0046665Y0026560D01*
X0046259Y0026062D02*
X0042553Y0026062D01*
X0061532Y0027161D02*
X0061532Y0027949D01*
X0061926Y0028736D01*
X0062320Y0029130D01*
X0063107Y0029524D01*
X0065075Y0029524D01*
X0065863Y0029130D01*
X0066257Y0028736D01*
X0066650Y0027949D01*
X0066650Y0027161D01*
X0066257Y0026374D01*
X0065863Y0025980D01*
X0065075Y0025587D01*
X0063107Y0025587D01*
X0062320Y0025980D01*
X0061926Y0026374D01*
X0061532Y0027161D01*
X0061584Y0027059D02*
X0066599Y0027059D01*
X0066650Y0027557D02*
X0061532Y0027557D01*
X0061586Y0028056D02*
X0066597Y0028056D01*
X0066348Y0028554D02*
X0061835Y0028554D01*
X0062242Y0029053D02*
X0065940Y0029053D01*
X0066350Y0026560D02*
X0061833Y0026560D01*
X0062238Y0026062D02*
X0065944Y0026062D01*
X0065075Y0034445D02*
X0063107Y0034445D01*
X0062320Y0034839D01*
X0061926Y0035232D01*
X0061532Y0036020D01*
X0061532Y0036807D01*
X0061926Y0037594D01*
X0062320Y0037988D01*
X0063107Y0038382D01*
X0065075Y0038382D01*
X0065863Y0037988D01*
X0066257Y0037594D01*
X0066650Y0036807D01*
X0066650Y0036020D01*
X0066257Y0035232D01*
X0065863Y0034839D01*
X0065075Y0034445D01*
X0065258Y0034536D02*
X0062924Y0034536D01*
X0062123Y0035035D02*
X0066059Y0035035D01*
X0066407Y0035533D02*
X0061775Y0035533D01*
X0061532Y0036032D02*
X0066650Y0036032D01*
X0066650Y0036530D02*
X0061532Y0036530D01*
X0061643Y0037029D02*
X0066539Y0037029D01*
X0066290Y0037527D02*
X0061892Y0037527D01*
X0062395Y0038026D02*
X0065787Y0038026D01*
X0074623Y0029228D02*
X0075410Y0029622D01*
X0077379Y0029622D01*
X0078166Y0029228D01*
X0078560Y0028835D01*
X0078953Y0028047D01*
X0078953Y0027260D01*
X0078560Y0026472D01*
X0078166Y0026079D01*
X0077379Y0025685D01*
X0075410Y0025685D01*
X0074623Y0026079D01*
X0074229Y0026472D01*
X0073835Y0027260D01*
X0073835Y0028047D01*
X0074229Y0028835D01*
X0074623Y0029228D01*
X0074447Y0029053D02*
X0078342Y0029053D01*
X0078700Y0028554D02*
X0074089Y0028554D01*
X0073840Y0028056D02*
X0078949Y0028056D01*
X0078953Y0027557D02*
X0073835Y0027557D01*
X0073936Y0027059D02*
X0078853Y0027059D01*
X0078604Y0026560D02*
X0074185Y0026560D01*
X0074657Y0026062D02*
X0078132Y0026062D01*
X0077520Y0029551D02*
X0075269Y0029551D01*
X0081611Y0035232D02*
X0081217Y0036020D01*
X0081217Y0036807D01*
X0081611Y0037594D01*
X0082005Y0037988D01*
X0082792Y0038382D01*
X0084760Y0038382D01*
X0085548Y0037988D01*
X0085942Y0037594D01*
X0086335Y0036807D01*
X0086335Y0036020D01*
X0085942Y0035232D01*
X0085548Y0034839D01*
X0084760Y0034445D01*
X0082792Y0034445D01*
X0082005Y0034839D01*
X0081611Y0035232D01*
X0081808Y0035035D02*
X0085744Y0035035D01*
X0086092Y0035533D02*
X0081460Y0035533D01*
X0081217Y0036032D02*
X0086335Y0036032D01*
X0086335Y0036530D02*
X0081217Y0036530D01*
X0081328Y0037029D02*
X0086224Y0037029D01*
X0085975Y0037527D02*
X0081577Y0037527D01*
X0082080Y0038026D02*
X0085472Y0038026D01*
X0084944Y0034536D02*
X0082609Y0034536D01*
D21*
X0032674Y0103313D03*
X0032674Y0116778D03*
D22*
X0033009Y0115035D02*
X0032162Y0115035D01*
X0031394Y0114878D01*
X0031001Y0114701D01*
X0030627Y0114524D01*
X0030331Y0114366D01*
X0030154Y0114248D01*
X0029898Y0114071D01*
X0029623Y0113854D01*
X0029308Y0113579D01*
X0029072Y0113343D01*
X0028835Y0113047D01*
X0028619Y0112732D01*
X0028461Y0112516D01*
X0028304Y0112201D01*
X0024131Y0112201D01*
X0024131Y0115232D01*
X0041217Y0115232D01*
X0041217Y0112201D01*
X0037083Y0112201D01*
X0036906Y0112496D01*
X0036768Y0112752D01*
X0036631Y0112949D01*
X0036316Y0113343D01*
X0036079Y0113598D01*
X0035627Y0114012D01*
X0035174Y0114307D01*
X0034721Y0114524D01*
X0034072Y0114780D01*
X0033678Y0114898D01*
X0033107Y0115016D01*
X0033009Y0115035D01*
X0034509Y0114607D02*
X0041217Y0114607D01*
X0041217Y0113979D02*
X0035663Y0113979D01*
X0036308Y0113350D02*
X0041217Y0113350D01*
X0041217Y0112722D02*
X0036785Y0112722D01*
X0037044Y0108028D02*
X0041217Y0108028D01*
X0041217Y0104996D01*
X0024131Y0104996D01*
X0024131Y0108028D01*
X0028264Y0108028D01*
X0028442Y0107732D01*
X0028579Y0107476D01*
X0028717Y0107280D01*
X0029032Y0106886D01*
X0029268Y0106630D01*
X0029721Y0106217D01*
X0030174Y0105921D01*
X0030627Y0105705D01*
X0031276Y0105449D01*
X0031670Y0105331D01*
X0032241Y0105213D01*
X0032339Y0105193D01*
X0033186Y0105193D01*
X0033953Y0105350D01*
X0034347Y0105528D01*
X0034721Y0105705D01*
X0035016Y0105862D01*
X0035194Y0105980D01*
X0035449Y0106157D01*
X0035725Y0106374D01*
X0036040Y0106650D01*
X0036276Y0106886D01*
X0036512Y0107181D01*
X0036729Y0107496D01*
X0036886Y0107713D01*
X0037044Y0108028D01*
X0036873Y0107694D02*
X0041217Y0107694D01*
X0041217Y0107066D02*
X0036420Y0107066D01*
X0035798Y0106438D02*
X0041217Y0106438D01*
X0041217Y0105809D02*
X0034917Y0105809D01*
X0030803Y0114607D02*
X0024131Y0114607D01*
X0024131Y0113979D02*
X0029781Y0113979D01*
X0029079Y0113350D02*
X0024131Y0113350D01*
X0024131Y0112722D02*
X0028611Y0112722D01*
X0028462Y0107694D02*
X0024131Y0107694D01*
X0024131Y0107066D02*
X0028888Y0107066D01*
X0029479Y0106438D02*
X0024131Y0106438D01*
X0024131Y0105809D02*
X0030408Y0105809D01*
X0024131Y0105181D02*
X0041217Y0105181D01*
D23*
X0139032Y0055665D03*
X0139032Y0050665D03*
X0139032Y0045665D03*
X0144032Y0045665D03*
X0144032Y0050665D03*
X0144032Y0055665D03*
D24*
X0141532Y0060665D03*
X0137532Y0040665D03*
X0145532Y0040665D03*
D25*
X0058658Y0046039D03*
X0058658Y0052535D03*
D26*
X0024012Y0049484D03*
X0024012Y0061689D03*
X0045272Y0061689D03*
X0045272Y0049484D03*
D27*
X0105548Y0081177D03*
X0105548Y0091020D03*
D28*
X0109131Y0129012D03*
X0099131Y0129012D03*
X0089131Y0129012D03*
X0079131Y0129012D03*
X0079131Y0148697D03*
X0069131Y0148697D03*
X0069131Y0129012D03*
X0119131Y0129012D03*
X0129131Y0129012D03*
X0129131Y0148697D03*
X0139131Y0148697D03*
X0139131Y0129012D03*
D29*
X0135233Y0112280D03*
X0124209Y0112280D03*
X0115548Y0112280D03*
X0104524Y0112280D03*
D30*
X0092123Y0078421D03*
X0088383Y0070547D03*
X0084642Y0078421D03*
X0080902Y0067791D03*
X0077162Y0059917D03*
X0084642Y0059917D03*
D31*
X0105115Y0356374D03*
D32*
X0159249Y0175272D03*
X0049012Y0175272D03*
M02*
