G75*
%MOIN*%
%OFA0B0*%
%FSLAX25Y25*%
%IPPOS*%
%LPD*%
%AMOC8*
5,1,8,0,0,1.08239X$1,22.5*
%
%ADD10C,0.09161*%
%ADD11C,0.02469*%
%ADD12C,0.02681*%
%ADD13C,0.04402*%
%ADD14R,0.01300X0.01300*%
%ADD15C,0.00800*%
%ADD16C,0.06406*%
%ADD17C,0.10343*%
%ADD18R,0.14280X0.14280*%
%ADD19R,0.15067X0.12311*%
%ADD20R,0.14280X0.16642*%
%ADD21R,0.14280X0.23335*%
%ADD22R,0.24122X0.18217*%
%ADD23R,0.18217X0.11917*%
%ADD24R,0.18217X0.12311*%
%ADD25R,0.06799X0.07587*%
D10*
X0025784Y0029996D03*
X0025784Y0125665D03*
X0033264Y0385902D03*
X0174997Y0385902D03*
D11*
X0159249Y0142791D03*
X0154820Y0142791D03*
X0150390Y0142791D03*
X0145961Y0142791D03*
X0145961Y0134917D03*
X0150390Y0134917D03*
X0154820Y0134917D03*
X0159249Y0134917D03*
X0141532Y0134917D03*
X0141532Y0142791D03*
X0066729Y0142791D03*
X0062300Y0142791D03*
X0057871Y0142791D03*
X0057871Y0134917D03*
X0062300Y0134917D03*
X0066729Y0134917D03*
X0053442Y0134917D03*
X0049012Y0134917D03*
X0049012Y0142791D03*
X0053442Y0142791D03*
D12*
X0124209Y0086098D03*
X0124209Y0081374D03*
X0124209Y0076650D03*
X0124209Y0071925D03*
X0128934Y0071925D03*
X0133658Y0071925D03*
X0133658Y0076650D03*
X0133658Y0081374D03*
X0133658Y0086098D03*
X0128934Y0086098D03*
X0128934Y0081374D03*
X0128934Y0076650D03*
X0138383Y0076650D03*
X0138383Y0081374D03*
X0138383Y0086098D03*
X0138383Y0071925D03*
D13*
X0141532Y0060665D03*
X0137532Y0040665D03*
X0145532Y0040665D03*
D14*
X0099025Y0113067D03*
X0097425Y0113067D03*
D15*
X0094320Y0113391D02*
X0102130Y0113391D01*
X0102102Y0113681D02*
X0101922Y0114272D01*
X0101631Y0114817D01*
X0101240Y0115294D01*
X0100762Y0115686D01*
X0100218Y0115977D01*
X0099627Y0116156D01*
X0099012Y0116217D01*
X0097438Y0116217D01*
X0096823Y0116156D01*
X0096232Y0115977D01*
X0095688Y0115686D01*
X0095211Y0115294D01*
X0094819Y0114817D01*
X0094528Y0114272D01*
X0094349Y0113681D01*
X0094288Y0113067D01*
X0094349Y0112452D01*
X0094528Y0111862D01*
X0094819Y0111317D01*
X0095211Y0110840D01*
X0095688Y0110448D01*
X0096232Y0110157D01*
X0096823Y0109978D01*
X0097438Y0109917D01*
X0099012Y0109917D01*
X0099627Y0109978D01*
X0100218Y0110157D01*
X0100762Y0110448D01*
X0101240Y0110840D01*
X0101631Y0111317D01*
X0101922Y0111862D01*
X0102102Y0112452D01*
X0102162Y0113067D01*
X0102102Y0113681D01*
X0101948Y0114189D02*
X0094503Y0114189D01*
X0094959Y0114988D02*
X0101491Y0114988D01*
X0100575Y0115786D02*
X0095876Y0115786D01*
X0094335Y0112592D02*
X0102115Y0112592D01*
X0101886Y0111793D02*
X0094564Y0111793D01*
X0095083Y0110995D02*
X0101367Y0110995D01*
X0100291Y0110196D02*
X0096159Y0110196D01*
D16*
X0099131Y0129012D03*
X0109131Y0129012D03*
X0119131Y0129012D03*
X0129131Y0129012D03*
X0129131Y0148697D03*
X0139131Y0148697D03*
X0139131Y0129012D03*
X0089131Y0129012D03*
X0079131Y0129012D03*
X0079131Y0148697D03*
X0069131Y0148697D03*
X0069131Y0129012D03*
D17*
X0068698Y0298500D03*
X0068698Y0371335D03*
X0139564Y0371335D03*
D18*
X0128737Y0372516D03*
X0128737Y0372516D03*
X0079524Y0372516D03*
X0079524Y0372516D03*
X0104131Y0242594D03*
X0104131Y0201256D03*
D19*
X0083264Y0222122D03*
X0125784Y0222122D03*
X0142320Y0332358D03*
X0066729Y0332358D03*
D20*
X0085627Y0371728D03*
X0122635Y0371728D03*
D21*
X0130115Y0326846D03*
X0078934Y0326846D03*
D22*
X0104524Y0188657D03*
D23*
X0084839Y0332358D03*
X0084839Y0332555D03*
X0124209Y0332555D03*
X0124209Y0332358D03*
D24*
X0104524Y0245941D03*
X0104524Y0233933D03*
D25*
G36*
X0118290Y0109830D02*
X0113483Y0114637D01*
X0118846Y0120000D01*
X0123653Y0115193D01*
X0118290Y0109830D01*
G37*
G36*
X0120517Y0096467D02*
X0115710Y0101274D01*
X0121073Y0106637D01*
X0125880Y0101830D01*
X0120517Y0096467D01*
G37*
G36*
X0114949Y0090900D02*
X0110142Y0095707D01*
X0115505Y0101070D01*
X0120312Y0096263D01*
X0114949Y0090900D01*
G37*
G36*
X0109381Y0085332D02*
X0104574Y0090139D01*
X0109937Y0095502D01*
X0114744Y0090695D01*
X0109381Y0085332D01*
G37*
G36*
X0103813Y0079764D02*
X0099006Y0084571D01*
X0104369Y0089934D01*
X0109176Y0085127D01*
X0103813Y0079764D01*
G37*
G36*
X0096018Y0087559D02*
X0091211Y0092366D01*
X0096574Y0097729D01*
X0101381Y0092922D01*
X0096018Y0087559D01*
G37*
G36*
X0101586Y0093127D02*
X0096779Y0097934D01*
X0102142Y0103297D01*
X0106949Y0098490D01*
X0101586Y0093127D01*
G37*
G36*
X0107154Y0098694D02*
X0102347Y0103501D01*
X0107710Y0108864D01*
X0112517Y0104057D01*
X0107154Y0098694D01*
G37*
G36*
X0112722Y0104262D02*
X0107915Y0109069D01*
X0113278Y0114432D01*
X0118085Y0109625D01*
X0112722Y0104262D01*
G37*
G36*
X0126084Y0102035D02*
X0121277Y0106842D01*
X0126640Y0112205D01*
X0131447Y0107398D01*
X0126084Y0102035D01*
G37*
M02*
