G75*
%MOIN*%
%OFA0B0*%
%FSLAX25Y25*%
%IPPOS*%
%LPD*%
%AMOC8*
5,1,8,0,0,1.08239X$1,22.5*
%
%ADD10C,0.00300*%
%ADD11C,0.01181*%
%ADD12C,0.00500*%
%ADD13C,0.00600*%
%ADD14C,0.00512*%
%ADD15C,0.01782*%
%ADD16C,0.00800*%
%ADD17C,0.00400*%
D10*
X0025737Y0042941D02*
X0027188Y0042941D01*
X0027672Y0043425D01*
X0027672Y0043909D01*
X0027188Y0044393D01*
X0025737Y0044393D01*
X0025737Y0045844D02*
X0027188Y0045844D01*
X0027672Y0045360D01*
X0027672Y0044876D01*
X0027188Y0044393D01*
X0028684Y0043425D02*
X0028684Y0045844D01*
X0030619Y0045844D02*
X0030619Y0043425D01*
X0030135Y0042941D01*
X0029168Y0042941D01*
X0028684Y0043425D01*
X0025737Y0042941D02*
X0025737Y0045844D01*
X0031630Y0045844D02*
X0033565Y0045844D01*
X0032598Y0045844D02*
X0032598Y0042941D01*
X0035544Y0042941D02*
X0035544Y0045844D01*
X0034577Y0045844D02*
X0036512Y0045844D01*
X0037523Y0045360D02*
X0037523Y0043425D01*
X0038007Y0042941D01*
X0038975Y0042941D01*
X0039458Y0043425D01*
X0039458Y0045360D01*
X0038975Y0045844D01*
X0038007Y0045844D01*
X0037523Y0045360D01*
X0040470Y0045844D02*
X0040470Y0042941D01*
X0042405Y0042941D02*
X0040470Y0045844D01*
X0042405Y0045844D02*
X0042405Y0042941D01*
X0043416Y0042941D02*
X0045351Y0042941D01*
X0044384Y0042941D02*
X0044384Y0045844D01*
X0043416Y0044876D01*
X0055068Y0057311D02*
X0055068Y0060952D01*
X0056888Y0060952D01*
X0057495Y0060345D01*
X0057495Y0059131D01*
X0056888Y0058525D01*
X0055068Y0058525D01*
X0056281Y0058525D02*
X0057495Y0057311D01*
X0058693Y0057918D02*
X0059300Y0057311D01*
X0060513Y0057311D01*
X0061120Y0057918D01*
X0061120Y0059131D01*
X0060513Y0059738D01*
X0059906Y0059738D01*
X0058693Y0059131D01*
X0058693Y0060952D01*
X0061120Y0060952D01*
X0060513Y0063217D02*
X0061120Y0063824D01*
X0061120Y0064430D01*
X0060513Y0065037D01*
X0058693Y0065037D01*
X0058693Y0063824D01*
X0059300Y0063217D01*
X0060513Y0063217D01*
X0058693Y0065037D02*
X0059906Y0066250D01*
X0061120Y0066857D01*
X0057495Y0066250D02*
X0057495Y0065037D01*
X0056888Y0064430D01*
X0055068Y0064430D01*
X0055068Y0063217D02*
X0055068Y0066857D01*
X0056888Y0066857D01*
X0057495Y0066250D01*
X0056281Y0064430D02*
X0057495Y0063217D01*
X0061367Y0053127D02*
X0061367Y0050225D01*
X0063302Y0050225D01*
X0064314Y0050225D02*
X0064314Y0053127D01*
X0066249Y0053127D01*
X0067260Y0053127D02*
X0067260Y0050225D01*
X0068711Y0050225D01*
X0069195Y0050709D01*
X0069195Y0052644D01*
X0068711Y0053127D01*
X0067260Y0053127D01*
X0065281Y0051676D02*
X0064314Y0051676D01*
X0064314Y0050225D02*
X0066249Y0050225D01*
X0070207Y0050225D02*
X0072142Y0050225D01*
X0071174Y0050225D02*
X0071174Y0053127D01*
X0070207Y0052160D01*
X0084596Y0098650D02*
X0084596Y0102290D01*
X0086416Y0102290D01*
X0087022Y0101683D01*
X0087022Y0100470D01*
X0086416Y0099863D01*
X0084596Y0099863D01*
X0085809Y0099863D02*
X0087022Y0098650D01*
X0088221Y0100470D02*
X0090647Y0100470D01*
X0090041Y0098650D02*
X0090041Y0102290D01*
X0088221Y0100470D01*
X0088827Y0104556D02*
X0088221Y0105162D01*
X0088827Y0104556D02*
X0090041Y0104556D01*
X0090647Y0105162D01*
X0090647Y0105769D01*
X0090041Y0106376D01*
X0089434Y0106376D01*
X0090041Y0106376D02*
X0090647Y0106982D01*
X0090647Y0107589D01*
X0090041Y0108196D01*
X0088827Y0108196D01*
X0088221Y0107589D01*
X0087022Y0107589D02*
X0087022Y0106376D01*
X0086416Y0105769D01*
X0084596Y0105769D01*
X0085809Y0105769D02*
X0087022Y0104556D01*
X0084596Y0104556D02*
X0084596Y0108196D01*
X0086416Y0108196D01*
X0087022Y0107589D01*
X0087022Y0111445D02*
X0085809Y0112659D01*
X0086416Y0112659D02*
X0084596Y0112659D01*
X0084596Y0111445D02*
X0084596Y0115085D01*
X0086416Y0115085D01*
X0087022Y0114479D01*
X0087022Y0113265D01*
X0086416Y0112659D01*
X0088221Y0111445D02*
X0090647Y0113872D01*
X0090647Y0114479D01*
X0090041Y0115085D01*
X0088827Y0115085D01*
X0088221Y0114479D01*
X0088221Y0111445D02*
X0090647Y0111445D01*
X0090647Y0118335D02*
X0088221Y0118335D01*
X0087022Y0118335D02*
X0085809Y0119548D01*
X0086416Y0119548D02*
X0084596Y0119548D01*
X0084596Y0118335D02*
X0084596Y0121975D01*
X0086416Y0121975D01*
X0087022Y0121368D01*
X0087022Y0120155D01*
X0086416Y0119548D01*
X0088221Y0120762D02*
X0089434Y0121975D01*
X0089434Y0118335D01*
X0024847Y0169319D02*
X0024847Y0171788D01*
X0024847Y0173002D02*
X0024847Y0175471D01*
X0024847Y0176686D02*
X0022378Y0179154D01*
X0021761Y0179154D01*
X0021144Y0178537D01*
X0021144Y0177303D01*
X0021761Y0176686D01*
X0024847Y0176686D02*
X0024847Y0179154D01*
X0024230Y0180369D02*
X0021761Y0182837D01*
X0024230Y0182837D01*
X0024847Y0182220D01*
X0024847Y0180986D01*
X0024230Y0180369D01*
X0021761Y0180369D01*
X0021144Y0180986D01*
X0021144Y0182220D01*
X0021761Y0182837D01*
X0021761Y0184052D02*
X0021144Y0184669D01*
X0021144Y0185903D01*
X0021761Y0186521D01*
X0024230Y0184052D01*
X0024847Y0184669D01*
X0024847Y0185903D01*
X0024230Y0186521D01*
X0021761Y0186521D01*
X0022995Y0187735D02*
X0022995Y0190204D01*
X0021761Y0191418D02*
X0021144Y0192035D01*
X0021144Y0193270D01*
X0021761Y0193887D01*
X0022378Y0193887D01*
X0024847Y0191418D01*
X0024847Y0193887D01*
X0024847Y0195101D02*
X0024847Y0195718D01*
X0024230Y0195718D01*
X0024230Y0195101D01*
X0024847Y0195101D01*
X0022995Y0196943D02*
X0022995Y0199412D01*
X0022995Y0200626D02*
X0022995Y0203095D01*
X0021761Y0204309D02*
X0021144Y0204926D01*
X0021144Y0206161D01*
X0021761Y0206778D01*
X0022378Y0206778D01*
X0022995Y0206161D01*
X0023612Y0206778D01*
X0024230Y0206778D01*
X0024847Y0206161D01*
X0024847Y0204926D01*
X0024230Y0204309D01*
X0022995Y0205544D02*
X0022995Y0206161D01*
X0024230Y0207992D02*
X0021761Y0210461D01*
X0021144Y0210461D01*
X0021144Y0207992D01*
X0024230Y0207992D02*
X0024847Y0207992D01*
X0024847Y0198794D02*
X0021144Y0198794D01*
X0022995Y0196943D01*
X0021761Y0184052D02*
X0024230Y0184052D01*
X0024847Y0173002D02*
X0021144Y0173002D01*
X0021144Y0169319D02*
X0024847Y0169319D01*
X0024847Y0257115D02*
X0021798Y0257115D01*
X0021798Y0258639D01*
X0022306Y0259147D01*
X0023322Y0259147D01*
X0023830Y0258639D01*
X0023830Y0257115D01*
X0023830Y0258131D02*
X0024847Y0259147D01*
X0024847Y0260196D02*
X0024847Y0262229D01*
X0024847Y0263277D02*
X0021798Y0263277D01*
X0021798Y0265310D01*
X0023322Y0264294D02*
X0023322Y0263277D01*
X0021798Y0262229D02*
X0021798Y0260196D01*
X0024847Y0260196D01*
X0023322Y0260196D02*
X0023322Y0261212D01*
X0023322Y0266359D02*
X0023322Y0268391D01*
X0021798Y0269440D02*
X0021798Y0270456D01*
X0021798Y0269948D02*
X0024847Y0269948D01*
X0024847Y0269440D02*
X0024847Y0270456D01*
X0024847Y0271494D02*
X0021798Y0271494D01*
X0024847Y0273527D01*
X0021798Y0273527D01*
X0023322Y0274576D02*
X0023322Y0276608D01*
X0023322Y0277657D02*
X0023322Y0279182D01*
X0023830Y0279690D01*
X0024339Y0279690D01*
X0024847Y0279182D01*
X0024847Y0277657D01*
X0021798Y0277657D01*
X0021798Y0279182D01*
X0022306Y0279690D01*
X0022814Y0279690D01*
X0023322Y0279182D01*
X0021798Y0280738D02*
X0024847Y0280738D01*
X0024847Y0282771D01*
X0024847Y0283820D02*
X0024847Y0285852D01*
X0023322Y0284836D02*
X0023322Y0283820D01*
X0021798Y0283820D02*
X0024847Y0283820D01*
X0021798Y0283820D02*
X0021798Y0285852D01*
X0023322Y0286901D02*
X0023322Y0288934D01*
X0024847Y0289983D02*
X0021798Y0289983D01*
X0024847Y0292015D01*
X0021798Y0292015D01*
X0022306Y0293064D02*
X0022814Y0293064D01*
X0023322Y0293572D01*
X0023322Y0294588D01*
X0023830Y0295097D01*
X0024339Y0295097D01*
X0024847Y0294588D01*
X0024847Y0293572D01*
X0024339Y0293064D01*
X0022306Y0293064D02*
X0021798Y0293572D01*
X0021798Y0294588D01*
X0022306Y0295097D01*
X0023322Y0299227D02*
X0021798Y0300751D01*
X0024847Y0300751D01*
X0023322Y0301259D02*
X0023322Y0299227D01*
X0023322Y0302308D02*
X0023322Y0304341D01*
X0022814Y0305389D02*
X0021798Y0306406D01*
X0024847Y0306406D01*
X0024847Y0307422D02*
X0024847Y0305389D01*
X0024847Y0313217D02*
X0021798Y0313217D01*
X0021798Y0314741D01*
X0022306Y0315250D01*
X0023322Y0315250D01*
X0023830Y0314741D01*
X0023830Y0313217D01*
X0023322Y0316298D02*
X0022814Y0316806D01*
X0022814Y0317823D01*
X0023322Y0318331D01*
X0024339Y0318331D01*
X0024847Y0317823D01*
X0024847Y0316806D01*
X0024339Y0316298D01*
X0023322Y0316298D01*
X0022814Y0319380D02*
X0024339Y0319380D01*
X0024847Y0319888D01*
X0024339Y0320396D01*
X0024847Y0320904D01*
X0024339Y0321412D01*
X0022814Y0321412D01*
X0023322Y0322461D02*
X0022814Y0322969D01*
X0022814Y0323986D01*
X0023322Y0324494D01*
X0023830Y0324494D01*
X0023830Y0322461D01*
X0023322Y0322461D02*
X0024339Y0322461D01*
X0024847Y0322969D01*
X0024847Y0323986D01*
X0024847Y0325542D02*
X0022814Y0325542D01*
X0023830Y0325542D02*
X0022814Y0326559D01*
X0022814Y0327067D01*
X0023322Y0328110D02*
X0023322Y0329127D01*
X0021798Y0330143D02*
X0021798Y0328110D01*
X0024847Y0328110D01*
X0024847Y0331192D02*
X0024847Y0332208D01*
X0024847Y0331700D02*
X0022814Y0331700D01*
X0022814Y0331192D01*
X0021798Y0331700D02*
X0021289Y0331700D01*
X0021798Y0333246D02*
X0021798Y0333754D01*
X0024847Y0333754D01*
X0024847Y0333246D02*
X0024847Y0334262D01*
X0024847Y0335300D02*
X0022814Y0335300D01*
X0022814Y0335808D01*
X0023322Y0336316D01*
X0022814Y0336825D01*
X0023322Y0337333D01*
X0024847Y0337333D01*
X0024847Y0336316D02*
X0023322Y0336316D01*
X0022814Y0341463D02*
X0023322Y0341971D01*
X0023322Y0342987D01*
X0023830Y0343496D01*
X0024339Y0343496D01*
X0024847Y0342987D01*
X0024847Y0341971D01*
X0024339Y0341463D01*
X0022814Y0341463D02*
X0022306Y0341463D01*
X0021798Y0341971D01*
X0021798Y0342987D01*
X0022306Y0343496D01*
X0023322Y0344544D02*
X0022814Y0345052D01*
X0022814Y0346069D01*
X0023322Y0346577D01*
X0024339Y0346577D01*
X0024847Y0346069D01*
X0024847Y0345052D01*
X0024339Y0344544D01*
X0023322Y0344544D01*
X0021798Y0347626D02*
X0021798Y0348134D01*
X0024847Y0348134D01*
X0024847Y0347626D02*
X0024847Y0348642D01*
X0024339Y0349680D02*
X0023830Y0350188D01*
X0023830Y0351713D01*
X0023322Y0351713D02*
X0024847Y0351713D01*
X0024847Y0350188D01*
X0024339Y0349680D01*
X0022814Y0350188D02*
X0022814Y0351204D01*
X0023322Y0351713D01*
X0022814Y0352761D02*
X0024847Y0352761D01*
X0023830Y0352761D02*
X0022814Y0353778D01*
X0022814Y0354286D01*
X0043765Y0388020D02*
X0044273Y0388528D01*
X0044781Y0388020D01*
X0045290Y0388528D01*
X0045290Y0390053D01*
X0043257Y0390053D02*
X0043257Y0388528D01*
X0043765Y0388020D01*
X0043765Y0393040D02*
X0043765Y0396089D01*
X0043257Y0396089D02*
X0044273Y0396089D01*
X0045311Y0395072D02*
X0046836Y0395072D01*
X0047344Y0394564D01*
X0047344Y0393040D01*
X0048393Y0393548D02*
X0048393Y0394564D01*
X0048901Y0395072D01*
X0050425Y0395072D01*
X0050425Y0396089D02*
X0050425Y0393040D01*
X0048901Y0393040D01*
X0048393Y0393548D01*
X0048371Y0391069D02*
X0046338Y0388020D01*
X0045311Y0393040D02*
X0045311Y0395072D01*
X0044273Y0393040D02*
X0043257Y0393040D01*
X0051474Y0393548D02*
X0051982Y0393040D01*
X0052998Y0393040D01*
X0053507Y0393548D01*
X0053507Y0394564D01*
X0052998Y0395072D01*
X0051982Y0395072D01*
X0051474Y0394564D01*
X0051474Y0393548D01*
X0052501Y0391069D02*
X0052501Y0388020D01*
X0054534Y0388020D02*
X0052501Y0391069D01*
X0054534Y0391069D02*
X0054534Y0388020D01*
X0055582Y0388528D02*
X0056091Y0388020D01*
X0057107Y0388020D01*
X0057615Y0388528D01*
X0057615Y0389545D01*
X0057107Y0390053D01*
X0056091Y0390053D01*
X0055582Y0389545D01*
X0055582Y0388528D01*
X0056080Y0393040D02*
X0055063Y0393040D01*
X0054555Y0393548D01*
X0054555Y0394564D01*
X0055063Y0395072D01*
X0056080Y0395072D01*
X0056588Y0394564D01*
X0056588Y0393548D01*
X0056080Y0393040D01*
X0057637Y0393040D02*
X0057637Y0395072D01*
X0057637Y0394056D02*
X0058653Y0395072D01*
X0059161Y0395072D01*
X0058664Y0390053D02*
X0058664Y0388020D01*
X0058664Y0389036D02*
X0059680Y0390053D01*
X0060188Y0390053D01*
X0061232Y0389545D02*
X0061740Y0390053D01*
X0063264Y0390053D01*
X0063264Y0391069D02*
X0063264Y0388020D01*
X0061740Y0388020D01*
X0061232Y0388528D01*
X0061232Y0389545D01*
X0063794Y0393040D02*
X0063286Y0393548D01*
X0063794Y0393040D02*
X0064810Y0393040D01*
X0065319Y0393548D01*
X0065319Y0394056D01*
X0064810Y0394564D01*
X0063794Y0394564D01*
X0063286Y0395072D01*
X0063286Y0395581D01*
X0063794Y0396089D01*
X0064810Y0396089D01*
X0065319Y0395581D01*
X0066367Y0394564D02*
X0066367Y0393548D01*
X0066875Y0393040D01*
X0067892Y0393040D01*
X0068400Y0393548D01*
X0068400Y0394564D01*
X0067892Y0395072D01*
X0066875Y0395072D01*
X0066367Y0394564D01*
X0064821Y0391577D02*
X0064821Y0391069D01*
X0064821Y0390053D02*
X0064821Y0388020D01*
X0064313Y0388020D02*
X0065329Y0388020D01*
X0066367Y0388528D02*
X0066875Y0388020D01*
X0068400Y0388020D01*
X0068400Y0390053D02*
X0066875Y0390053D01*
X0066367Y0389545D01*
X0066367Y0388528D01*
X0064821Y0390053D02*
X0064313Y0390053D01*
X0069449Y0393040D02*
X0070465Y0393040D01*
X0069957Y0393040D02*
X0069957Y0396089D01*
X0069449Y0396089D01*
X0072011Y0395072D02*
X0073027Y0395072D01*
X0073536Y0394564D01*
X0073536Y0393040D01*
X0072011Y0393040D01*
X0071503Y0393548D01*
X0072011Y0394056D01*
X0073536Y0394056D01*
X0074584Y0394056D02*
X0075601Y0395072D01*
X0076109Y0395072D01*
X0074584Y0395072D02*
X0074584Y0393040D01*
X0074055Y0391069D02*
X0074563Y0390561D01*
X0074563Y0390053D01*
X0074055Y0389545D01*
X0072530Y0389545D01*
X0072530Y0391069D02*
X0072530Y0388020D01*
X0074055Y0388020D01*
X0074563Y0388528D01*
X0074563Y0389036D01*
X0074055Y0389545D01*
X0074055Y0391069D02*
X0072530Y0391069D01*
X0075611Y0391069D02*
X0075611Y0388020D01*
X0077644Y0388020D01*
X0078693Y0388020D02*
X0080725Y0388020D01*
X0079709Y0389545D02*
X0078693Y0389545D01*
X0078693Y0391069D02*
X0078693Y0388020D01*
X0078693Y0391069D02*
X0080725Y0391069D01*
X0080233Y0393040D02*
X0080233Y0396089D01*
X0081758Y0396089D01*
X0082266Y0395581D01*
X0082266Y0394564D01*
X0081758Y0394056D01*
X0080233Y0394056D01*
X0081250Y0394056D02*
X0082266Y0393040D01*
X0083315Y0393548D02*
X0083315Y0394564D01*
X0083823Y0395072D01*
X0084839Y0395072D01*
X0085347Y0394564D01*
X0085347Y0394056D01*
X0083315Y0394056D01*
X0083315Y0393548D02*
X0083823Y0393040D01*
X0084839Y0393040D01*
X0086904Y0393040D02*
X0086904Y0395581D01*
X0087412Y0396089D01*
X0087412Y0394564D02*
X0086396Y0394564D01*
X0086380Y0390053D02*
X0086888Y0389545D01*
X0086888Y0388020D01*
X0085364Y0388020D01*
X0084855Y0388528D01*
X0085364Y0389036D01*
X0086888Y0389036D01*
X0086380Y0390053D02*
X0085364Y0390053D01*
X0087937Y0390053D02*
X0089461Y0390053D01*
X0089970Y0389545D01*
X0089970Y0388020D01*
X0091018Y0388528D02*
X0091018Y0389545D01*
X0091526Y0390053D01*
X0093051Y0390053D01*
X0093051Y0391069D02*
X0093051Y0388020D01*
X0091526Y0388020D01*
X0091018Y0388528D01*
X0091532Y0393040D02*
X0091532Y0395072D01*
X0091532Y0394056D02*
X0092548Y0395072D01*
X0093056Y0395072D01*
X0094100Y0394564D02*
X0094608Y0395072D01*
X0095624Y0395072D01*
X0096132Y0394564D01*
X0096132Y0394056D01*
X0094100Y0394056D01*
X0094100Y0393548D02*
X0094100Y0394564D01*
X0094100Y0393548D02*
X0094608Y0393040D01*
X0095624Y0393040D01*
X0097181Y0393040D02*
X0097181Y0395072D01*
X0098705Y0395072D01*
X0099214Y0394564D01*
X0099214Y0393040D01*
X0100262Y0393548D02*
X0100770Y0393040D01*
X0102295Y0393040D01*
X0103344Y0393548D02*
X0103344Y0394564D01*
X0103852Y0395072D01*
X0104868Y0395072D01*
X0105376Y0394564D01*
X0105376Y0394056D01*
X0103344Y0394056D01*
X0103344Y0393548D02*
X0103852Y0393040D01*
X0104868Y0393040D01*
X0104868Y0390053D02*
X0103344Y0390053D01*
X0103344Y0387004D01*
X0103344Y0388020D02*
X0104868Y0388020D01*
X0105376Y0388528D01*
X0105376Y0389545D01*
X0104868Y0390053D01*
X0106425Y0389545D02*
X0106933Y0390053D01*
X0107950Y0390053D01*
X0108458Y0389545D01*
X0108458Y0389036D01*
X0106425Y0389036D01*
X0106425Y0388528D02*
X0106425Y0389545D01*
X0106425Y0388528D02*
X0106933Y0388020D01*
X0107950Y0388020D01*
X0109506Y0388528D02*
X0110015Y0389036D01*
X0111539Y0389036D01*
X0111539Y0389545D02*
X0111539Y0388020D01*
X0110015Y0388020D01*
X0109506Y0388528D01*
X0110015Y0390053D02*
X0111031Y0390053D01*
X0111539Y0389545D01*
X0112588Y0389545D02*
X0113096Y0390053D01*
X0114621Y0390053D01*
X0114112Y0389036D02*
X0113096Y0389036D01*
X0112588Y0389545D01*
X0112588Y0388020D02*
X0114112Y0388020D01*
X0114621Y0388528D01*
X0114112Y0389036D01*
X0114112Y0393040D02*
X0113096Y0393040D01*
X0112588Y0393548D01*
X0112588Y0394564D01*
X0113096Y0395072D01*
X0114112Y0395072D01*
X0114621Y0394564D01*
X0114621Y0394056D01*
X0112588Y0394056D01*
X0111539Y0393548D02*
X0111539Y0395581D01*
X0111031Y0396089D01*
X0109506Y0396089D01*
X0109506Y0393040D01*
X0111031Y0393040D01*
X0111539Y0393548D01*
X0115669Y0393040D02*
X0117194Y0393040D01*
X0117702Y0393548D01*
X0117194Y0394056D01*
X0116177Y0394056D01*
X0115669Y0394564D01*
X0116177Y0395072D01*
X0117702Y0395072D01*
X0118751Y0395072D02*
X0119259Y0395072D01*
X0119259Y0393040D01*
X0118751Y0393040D02*
X0119767Y0393040D01*
X0120805Y0393548D02*
X0121313Y0393040D01*
X0122837Y0393040D01*
X0122837Y0392532D02*
X0122837Y0395072D01*
X0121313Y0395072D01*
X0120805Y0394564D01*
X0120805Y0393548D01*
X0121821Y0392023D02*
X0122329Y0392023D01*
X0122837Y0392532D01*
X0123886Y0393040D02*
X0123886Y0395072D01*
X0125411Y0395072D01*
X0125919Y0394564D01*
X0125919Y0393040D01*
X0125421Y0390053D02*
X0126438Y0390053D01*
X0126946Y0389545D01*
X0126946Y0389036D01*
X0124913Y0389036D01*
X0124913Y0388528D02*
X0124913Y0389545D01*
X0125421Y0390053D01*
X0124913Y0388528D02*
X0125421Y0388020D01*
X0126438Y0388020D01*
X0127995Y0388020D02*
X0127995Y0390053D01*
X0129011Y0390053D02*
X0127995Y0389036D01*
X0129011Y0390053D02*
X0129519Y0390053D01*
X0130562Y0389545D02*
X0130562Y0388528D01*
X0131071Y0388020D01*
X0132595Y0388020D01*
X0132595Y0387512D02*
X0132595Y0390053D01*
X0131071Y0390053D01*
X0130562Y0389545D01*
X0131579Y0387004D02*
X0132087Y0387004D01*
X0132595Y0387512D01*
X0133644Y0388528D02*
X0134152Y0388020D01*
X0135677Y0388020D01*
X0135677Y0387512D02*
X0135168Y0387004D01*
X0134660Y0387004D01*
X0135677Y0387512D02*
X0135677Y0390053D01*
X0133644Y0390053D02*
X0133644Y0388528D01*
X0139807Y0388020D02*
X0139807Y0391069D01*
X0139807Y0389545D02*
X0141839Y0389545D01*
X0142888Y0388528D02*
X0143396Y0389036D01*
X0144921Y0389036D01*
X0144921Y0389545D02*
X0144921Y0388020D01*
X0143396Y0388020D01*
X0142888Y0388528D01*
X0141839Y0388020D02*
X0141839Y0391069D01*
X0143396Y0390053D02*
X0144413Y0390053D01*
X0144921Y0389545D01*
X0145969Y0390053D02*
X0145969Y0388020D01*
X0145969Y0389036D02*
X0146986Y0390053D01*
X0147494Y0390053D01*
X0148537Y0390053D02*
X0149554Y0388020D01*
X0150570Y0390053D01*
X0151619Y0389545D02*
X0152127Y0390053D01*
X0153143Y0390053D01*
X0153651Y0389545D01*
X0153651Y0389036D01*
X0151619Y0389036D01*
X0151619Y0388528D02*
X0151619Y0389545D01*
X0151619Y0388528D02*
X0152127Y0388020D01*
X0153143Y0388020D01*
X0154700Y0388020D02*
X0156224Y0388020D01*
X0156733Y0388528D01*
X0156224Y0389036D01*
X0155208Y0389036D01*
X0154700Y0389545D01*
X0155208Y0390053D01*
X0156733Y0390053D01*
X0157781Y0390053D02*
X0158798Y0390053D01*
X0158289Y0390561D02*
X0158289Y0388528D01*
X0158798Y0388020D01*
X0159836Y0388528D02*
X0159836Y0389545D01*
X0160344Y0390053D01*
X0161360Y0390053D01*
X0161868Y0389545D01*
X0161868Y0389036D01*
X0159836Y0389036D01*
X0159836Y0388528D02*
X0160344Y0388020D01*
X0161360Y0388020D01*
X0162917Y0388020D02*
X0162917Y0390053D01*
X0163933Y0390053D02*
X0162917Y0389036D01*
X0163933Y0390053D02*
X0164441Y0390053D01*
X0123865Y0389545D02*
X0123865Y0388020D01*
X0123865Y0389545D02*
X0123356Y0390053D01*
X0121832Y0390053D01*
X0121832Y0388020D01*
X0120783Y0388020D02*
X0118751Y0388020D01*
X0118751Y0391069D01*
X0120783Y0391069D01*
X0119767Y0389545D02*
X0118751Y0389545D01*
X0119259Y0396089D02*
X0119259Y0396597D01*
X0102295Y0395072D02*
X0100770Y0395072D01*
X0100262Y0394564D01*
X0100262Y0393548D01*
X0099214Y0391069D02*
X0097181Y0391069D01*
X0097181Y0388020D01*
X0099214Y0388020D01*
X0098197Y0389545D02*
X0097181Y0389545D01*
X0100262Y0389545D02*
X0102295Y0389545D01*
X0090483Y0394056D02*
X0088450Y0394056D01*
X0088450Y0393548D02*
X0088450Y0394564D01*
X0088959Y0395072D01*
X0089975Y0395072D01*
X0090483Y0394564D01*
X0090483Y0394056D01*
X0089975Y0393040D02*
X0088959Y0393040D01*
X0088450Y0393548D01*
X0087937Y0390053D02*
X0087937Y0388020D01*
X0175864Y0087050D02*
X0178283Y0087050D01*
X0178767Y0086566D01*
X0178767Y0086082D01*
X0177799Y0085599D02*
X0177799Y0087050D01*
X0177799Y0085599D02*
X0177316Y0085115D01*
X0175864Y0085115D01*
X0175864Y0084111D02*
X0176832Y0082659D01*
X0177799Y0084111D01*
X0177799Y0082659D02*
X0174897Y0082659D01*
X0176348Y0081648D02*
X0177799Y0081648D01*
X0176348Y0081648D02*
X0175864Y0081164D01*
X0175864Y0079713D01*
X0177799Y0079713D01*
X0177799Y0078716D02*
X0177799Y0077749D01*
X0177799Y0078232D02*
X0175864Y0078232D01*
X0175864Y0077749D01*
X0174897Y0078232D02*
X0174413Y0078232D01*
X0174897Y0076268D02*
X0177799Y0076268D01*
X0177799Y0075784D02*
X0177799Y0076752D01*
X0177316Y0074773D02*
X0177799Y0074289D01*
X0177799Y0072838D01*
X0174897Y0072838D01*
X0174897Y0074289D01*
X0175381Y0074773D01*
X0175864Y0074773D01*
X0176348Y0074289D01*
X0176348Y0072838D01*
X0176348Y0074289D02*
X0176832Y0074773D01*
X0177316Y0074773D01*
X0174897Y0075784D02*
X0174897Y0076268D01*
X0174897Y0068880D02*
X0174897Y0066945D01*
X0177799Y0066945D01*
X0177799Y0065933D02*
X0176832Y0064966D01*
X0176832Y0065449D02*
X0176832Y0063998D01*
X0177799Y0063998D02*
X0174897Y0063998D01*
X0174897Y0065449D01*
X0175381Y0065933D01*
X0176348Y0065933D01*
X0176832Y0065449D01*
X0176348Y0066945D02*
X0176348Y0067912D01*
X0176348Y0062987D02*
X0177799Y0062987D01*
X0176348Y0062987D02*
X0175864Y0062503D01*
X0175864Y0061052D01*
X0177799Y0061052D01*
D11*
X0165548Y0061098D02*
X0160351Y0061098D01*
X0156414Y0061098D02*
X0151217Y0061098D01*
X0147280Y0061098D02*
X0142083Y0061098D01*
X0138146Y0061098D02*
X0132949Y0061098D01*
X0129012Y0061098D02*
X0123816Y0061098D01*
X0121271Y0058553D01*
X0118487Y0055769D02*
X0115942Y0053224D01*
X0111020Y0053224D01*
X0111020Y0059130D01*
X0107491Y0062659D01*
X0104707Y0065443D02*
X0101178Y0068972D01*
X0095075Y0068972D01*
X0095075Y0073539D01*
X0095075Y0077476D02*
X0095075Y0082043D01*
X0095075Y0085980D02*
X0095075Y0090547D01*
X0095075Y0094484D02*
X0095075Y0099051D01*
X0095075Y0102988D02*
X0095075Y0107555D01*
X0099373Y0107537D01*
X0103310Y0107519D02*
X0107608Y0107501D01*
X0111545Y0107484D02*
X0115843Y0107465D01*
X0119780Y0107448D02*
X0124078Y0107430D01*
X0128015Y0107413D02*
X0132313Y0107394D01*
X0136250Y0107377D02*
X0140548Y0107358D01*
X0140548Y0110902D01*
X0140548Y0114839D02*
X0140548Y0118382D01*
X0146257Y0118382D01*
X0150194Y0118382D02*
X0155902Y0118382D01*
X0159839Y0118382D02*
X0165548Y0118382D01*
X0165548Y0113573D01*
X0165548Y0109636D02*
X0165548Y0104827D01*
X0165548Y0100890D02*
X0165548Y0096082D01*
X0165548Y0092145D02*
X0165548Y0087336D01*
X0165548Y0083399D02*
X0165548Y0078590D01*
X0165548Y0074653D02*
X0165548Y0069844D01*
X0165548Y0065907D02*
X0165548Y0061098D01*
X0078540Y0068972D02*
X0078540Y0073566D01*
X0078540Y0077503D02*
X0078540Y0082096D01*
X0078540Y0086033D02*
X0078540Y0090626D01*
X0075995Y0093171D01*
X0073211Y0095955D02*
X0070666Y0098500D01*
X0062792Y0098500D01*
X0062792Y0103749D01*
X0062792Y0107686D02*
X0062792Y0112936D01*
X0062792Y0116873D02*
X0062792Y0122122D01*
X0058855Y0122122D01*
X0054918Y0122122D02*
X0050981Y0122122D01*
X0047044Y0122122D02*
X0043107Y0122122D01*
X0039170Y0122122D02*
X0035233Y0122122D01*
X0031296Y0122122D02*
X0027359Y0122122D01*
X0027359Y0117904D01*
X0027359Y0113967D02*
X0027359Y0109749D01*
X0027359Y0105812D02*
X0027359Y0101593D01*
X0027359Y0097656D02*
X0027359Y0093438D01*
X0027359Y0089501D02*
X0027359Y0085283D01*
X0027359Y0081346D02*
X0027359Y0077128D01*
X0027359Y0073191D02*
X0027359Y0068972D01*
X0031296Y0068972D01*
X0035233Y0068972D02*
X0039170Y0068972D01*
X0043107Y0068972D02*
X0047044Y0068972D01*
X0050981Y0068972D02*
X0054918Y0068972D01*
X0058855Y0068972D02*
X0062792Y0068972D01*
X0066729Y0068972D02*
X0070666Y0068972D01*
X0074603Y0068972D02*
X0078540Y0068972D01*
D12*
X0119485Y0069563D02*
X0119485Y0067201D01*
X0121847Y0067201D01*
X0119485Y0088461D02*
X0119485Y0090823D01*
X0121847Y0090823D01*
X0140745Y0090823D02*
X0143107Y0090823D01*
X0143107Y0088461D01*
X0143107Y0069563D02*
X0143107Y0067201D01*
X0140745Y0067201D01*
X0175981Y0159524D02*
X0032280Y0159524D01*
X0032280Y0372122D01*
X0175981Y0372122D01*
X0175981Y0159524D01*
X0171060Y0163461D02*
X0171060Y0187083D01*
X0037694Y0187083D01*
X0037694Y0163461D01*
X0171060Y0163461D01*
X0171060Y0194957D02*
X0160233Y0194957D01*
X0156296Y0198894D01*
X0152359Y0194957D01*
X0160233Y0194957D01*
X0156296Y0198894D01*
X0156296Y0265823D01*
X0152359Y0273697D02*
X0160233Y0273697D01*
X0156296Y0277634D01*
X0152359Y0273697D01*
X0156296Y0277634D01*
X0156296Y0332752D01*
X0151867Y0357358D02*
X0140056Y0357358D01*
X0171060Y0368185D02*
X0171060Y0344563D01*
X0037694Y0344563D01*
X0037694Y0368185D01*
X0171060Y0368185D01*
X0156296Y0277634D02*
X0160233Y0273697D01*
X0171060Y0273697D01*
X0160233Y0273697D02*
X0152359Y0273697D01*
X0140548Y0273697D01*
X0152484Y0273822D02*
X0160108Y0273822D01*
X0159609Y0274320D02*
X0152982Y0274320D01*
X0153481Y0274819D02*
X0159111Y0274819D01*
X0158612Y0275317D02*
X0153979Y0275317D01*
X0154478Y0275816D02*
X0158114Y0275816D01*
X0157615Y0276314D02*
X0154976Y0276314D01*
X0155475Y0276813D02*
X0157117Y0276813D01*
X0156618Y0277311D02*
X0155973Y0277311D01*
X0120863Y0273697D02*
X0109052Y0273697D01*
X0101178Y0273697D01*
X0105115Y0277634D01*
X0109052Y0273697D01*
X0105115Y0277634D01*
X0105115Y0332752D01*
X0105115Y0277634D02*
X0101178Y0273697D01*
X0109052Y0273697D01*
X0108927Y0273822D02*
X0101303Y0273822D01*
X0101178Y0273697D02*
X0089367Y0273697D01*
X0101801Y0274320D02*
X0108428Y0274320D01*
X0107930Y0274819D02*
X0102300Y0274819D01*
X0102798Y0275317D02*
X0107431Y0275317D01*
X0106933Y0275816D02*
X0103297Y0275816D01*
X0103795Y0276314D02*
X0106434Y0276314D01*
X0105936Y0276813D02*
X0104294Y0276813D01*
X0104792Y0277311D02*
X0105437Y0277311D01*
X0105115Y0265823D02*
X0105115Y0198894D01*
X0101178Y0194957D01*
X0109052Y0194957D01*
X0105115Y0198894D01*
X0101178Y0194957D01*
X0109052Y0194957D01*
X0105115Y0198894D01*
X0104768Y0198547D02*
X0105462Y0198547D01*
X0105960Y0198048D02*
X0104269Y0198048D01*
X0103771Y0197550D02*
X0106459Y0197550D01*
X0106957Y0197051D02*
X0103272Y0197051D01*
X0102774Y0196553D02*
X0107456Y0196553D01*
X0107954Y0196054D02*
X0102275Y0196054D01*
X0101777Y0195556D02*
X0108453Y0195556D01*
X0108951Y0195057D02*
X0101278Y0195057D01*
X0101178Y0194957D02*
X0089367Y0194957D01*
X0097241Y0175272D02*
X0112989Y0175272D01*
X0105115Y0167398D02*
X0105115Y0183146D01*
X0109052Y0194957D02*
X0120863Y0194957D01*
X0140548Y0194957D02*
X0152359Y0194957D01*
X0156296Y0198894D01*
X0155949Y0198547D02*
X0156643Y0198547D01*
X0157142Y0198048D02*
X0155450Y0198048D01*
X0154952Y0197550D02*
X0157640Y0197550D01*
X0158139Y0197051D02*
X0154453Y0197051D01*
X0153955Y0196553D02*
X0158637Y0196553D01*
X0159136Y0196054D02*
X0153456Y0196054D01*
X0152958Y0195556D02*
X0159634Y0195556D01*
X0160133Y0195057D02*
X0152459Y0195057D01*
X0152359Y0194957D02*
X0160233Y0194957D01*
X0069190Y0194957D02*
X0057379Y0194957D01*
X0049505Y0194957D01*
X0053442Y0198894D01*
X0057379Y0194957D01*
X0053442Y0198894D01*
X0053442Y0265823D01*
X0049505Y0273697D02*
X0057379Y0273697D01*
X0053442Y0277634D01*
X0049505Y0273697D01*
X0053442Y0277634D01*
X0053442Y0332752D01*
X0057871Y0356866D02*
X0069682Y0356866D01*
X0053442Y0277634D02*
X0057379Y0273697D01*
X0069190Y0273697D01*
X0057379Y0273697D02*
X0049505Y0273697D01*
X0037694Y0273697D01*
X0049630Y0273822D02*
X0057254Y0273822D01*
X0056755Y0274320D02*
X0050128Y0274320D01*
X0050627Y0274819D02*
X0056257Y0274819D01*
X0055758Y0275317D02*
X0051125Y0275317D01*
X0051624Y0275816D02*
X0055260Y0275816D01*
X0054761Y0276314D02*
X0052122Y0276314D01*
X0052621Y0276813D02*
X0054263Y0276813D01*
X0053764Y0277311D02*
X0053119Y0277311D01*
X0053442Y0198894D02*
X0049505Y0194957D01*
X0057379Y0194957D01*
X0057278Y0195057D02*
X0049605Y0195057D01*
X0049505Y0194957D02*
X0037694Y0194957D01*
X0050103Y0195556D02*
X0056780Y0195556D01*
X0056281Y0196054D02*
X0050602Y0196054D01*
X0051100Y0196553D02*
X0055783Y0196553D01*
X0055284Y0197051D02*
X0051599Y0197051D01*
X0052097Y0197550D02*
X0054786Y0197550D01*
X0054287Y0198048D02*
X0052596Y0198048D01*
X0053095Y0198547D02*
X0053789Y0198547D01*
X0023959Y0110893D02*
X0023959Y0107286D01*
X0023959Y0109090D02*
X0018549Y0109090D01*
X0020353Y0107286D01*
X0021254Y0105455D02*
X0021254Y0101849D01*
X0018549Y0104554D01*
X0023959Y0104554D01*
X0023058Y0100018D02*
X0019451Y0100018D01*
X0018549Y0099116D01*
X0018549Y0097313D01*
X0019451Y0096411D01*
X0020353Y0096411D01*
X0021254Y0097313D01*
X0021254Y0100018D01*
X0023058Y0100018D02*
X0023959Y0099116D01*
X0023959Y0097313D01*
X0023058Y0096411D01*
X0023058Y0094580D02*
X0023959Y0093678D01*
X0023959Y0091875D01*
X0023058Y0090973D01*
X0019451Y0094580D01*
X0023058Y0094580D01*
X0023058Y0090973D02*
X0019451Y0090973D01*
X0018549Y0091875D01*
X0018549Y0093678D01*
X0019451Y0094580D01*
X0023959Y0089142D02*
X0023959Y0085536D01*
X0023959Y0087339D02*
X0018549Y0087339D01*
X0020353Y0085536D01*
X0018549Y0083705D02*
X0023959Y0083705D01*
X0023959Y0080098D02*
X0018549Y0080098D01*
X0020353Y0081901D01*
X0018549Y0083705D01*
X0018549Y0078267D02*
X0018549Y0074660D01*
X0023959Y0074660D01*
X0023959Y0078267D01*
X0021254Y0076464D02*
X0021254Y0074660D01*
X0021254Y0072829D02*
X0021254Y0069222D01*
X0020353Y0069222D02*
X0018549Y0071026D01*
X0020353Y0072829D01*
X0023959Y0072829D01*
X0023959Y0069222D02*
X0020353Y0069222D01*
D13*
X0056690Y0048500D02*
X0060627Y0048500D01*
X0115577Y0024623D02*
X0117713Y0026759D01*
X0117713Y0020353D01*
X0119848Y0020353D02*
X0115577Y0020353D01*
X0122023Y0021421D02*
X0123091Y0020353D01*
X0125226Y0020353D01*
X0126293Y0021421D01*
X0126293Y0022488D01*
X0125226Y0023556D01*
X0122023Y0023556D01*
X0122023Y0021421D01*
X0122023Y0023556D02*
X0124158Y0025691D01*
X0126293Y0026759D01*
X0128468Y0021421D02*
X0129536Y0021421D01*
X0129536Y0020353D01*
X0128468Y0020353D01*
X0128468Y0021421D01*
X0131691Y0021421D02*
X0135962Y0025691D01*
X0135962Y0021421D01*
X0134894Y0020353D01*
X0132759Y0020353D01*
X0131691Y0021421D01*
X0131691Y0025691D01*
X0132759Y0026759D01*
X0134894Y0026759D01*
X0135962Y0025691D01*
X0138137Y0025691D02*
X0138137Y0021421D01*
X0142407Y0025691D01*
X0142407Y0021421D01*
X0141339Y0020353D01*
X0139204Y0020353D01*
X0138137Y0021421D01*
X0138137Y0025691D02*
X0139204Y0026759D01*
X0141339Y0026759D01*
X0142407Y0025691D01*
X0150281Y0051950D02*
X0153484Y0051950D01*
X0152417Y0054085D01*
X0152417Y0055152D01*
X0153484Y0056220D01*
X0155619Y0056220D01*
X0156687Y0055152D01*
X0156687Y0053017D01*
X0155619Y0051950D01*
X0155619Y0058395D02*
X0155619Y0059463D01*
X0156687Y0059463D01*
X0156687Y0058395D01*
X0155619Y0058395D01*
X0155619Y0061618D02*
X0151349Y0065888D01*
X0155619Y0065888D01*
X0156687Y0064821D01*
X0156687Y0062685D01*
X0155619Y0061618D01*
X0151349Y0061618D01*
X0150281Y0062685D01*
X0150281Y0064821D01*
X0151349Y0065888D01*
X0151349Y0068063D02*
X0150281Y0069131D01*
X0150281Y0071266D01*
X0151349Y0072334D01*
X0155619Y0068063D01*
X0156687Y0069131D01*
X0156687Y0071266D01*
X0155619Y0072334D01*
X0151349Y0072334D01*
X0151349Y0068063D02*
X0155619Y0068063D01*
X0150281Y0056220D02*
X0150281Y0051950D01*
X0167110Y0061202D02*
X0173516Y0065472D01*
X0167110Y0065472D01*
X0167110Y0067647D02*
X0167110Y0070850D01*
X0168178Y0071917D01*
X0170313Y0071917D01*
X0171380Y0070850D01*
X0171380Y0067647D01*
X0171380Y0069782D02*
X0173516Y0071917D01*
X0173516Y0074093D02*
X0167110Y0074093D01*
X0167110Y0078363D01*
X0167110Y0080538D02*
X0170313Y0080538D01*
X0169245Y0082673D01*
X0169245Y0083741D01*
X0170313Y0084808D01*
X0172448Y0084808D01*
X0173516Y0083741D01*
X0173516Y0081606D01*
X0172448Y0080538D01*
X0170313Y0076228D02*
X0170313Y0074093D01*
X0167110Y0080538D02*
X0167110Y0084808D01*
X0168178Y0086984D02*
X0167110Y0088051D01*
X0167110Y0090186D01*
X0168178Y0091254D01*
X0169245Y0091254D01*
X0173516Y0086984D01*
X0173516Y0091254D01*
X0172448Y0093429D02*
X0171380Y0093429D01*
X0170313Y0094497D01*
X0170313Y0096632D01*
X0171380Y0097699D01*
X0172448Y0097699D01*
X0173516Y0096632D01*
X0173516Y0094497D01*
X0172448Y0093429D01*
X0170313Y0094497D02*
X0169245Y0093429D01*
X0168178Y0093429D01*
X0167110Y0094497D01*
X0167110Y0096632D01*
X0168178Y0097699D01*
X0169245Y0097699D01*
X0170313Y0096632D01*
X0172448Y0099875D02*
X0173516Y0100942D01*
X0173516Y0103077D01*
X0172448Y0104145D01*
X0171380Y0104145D01*
X0170313Y0103077D01*
X0170313Y0102010D01*
X0170313Y0103077D02*
X0169245Y0104145D01*
X0168178Y0104145D01*
X0167110Y0103077D01*
X0167110Y0100942D01*
X0168178Y0099875D01*
X0168178Y0106320D02*
X0167110Y0107388D01*
X0167110Y0109523D01*
X0168178Y0110590D01*
X0169245Y0110590D01*
X0173516Y0106320D01*
X0173516Y0110590D01*
X0173516Y0067647D02*
X0167110Y0067647D01*
X0167110Y0061202D02*
X0173516Y0061202D01*
X0151040Y0099681D02*
X0151040Y0107555D01*
X0118240Y0090823D02*
X0118242Y0090893D01*
X0118248Y0090964D01*
X0118258Y0091033D01*
X0118272Y0091102D01*
X0118290Y0091171D01*
X0118311Y0091238D01*
X0118336Y0091304D01*
X0118365Y0091368D01*
X0118398Y0091430D01*
X0118434Y0091491D01*
X0118474Y0091549D01*
X0118516Y0091605D01*
X0118562Y0091659D01*
X0118611Y0091710D01*
X0118662Y0091758D01*
X0118717Y0091803D01*
X0118773Y0091845D01*
X0118832Y0091883D01*
X0118893Y0091918D01*
X0118956Y0091950D01*
X0119021Y0091978D01*
X0119087Y0092003D01*
X0119154Y0092023D01*
X0119223Y0092040D01*
X0119292Y0092053D01*
X0119362Y0092062D01*
X0119432Y0092067D01*
X0119503Y0092068D01*
X0119573Y0092065D01*
X0119643Y0092058D01*
X0119713Y0092047D01*
X0119782Y0092032D01*
X0119850Y0092013D01*
X0119916Y0091991D01*
X0119982Y0091965D01*
X0120046Y0091935D01*
X0120108Y0091901D01*
X0120168Y0091864D01*
X0120225Y0091824D01*
X0120281Y0091780D01*
X0120334Y0091734D01*
X0120384Y0091684D01*
X0120431Y0091632D01*
X0120475Y0091577D01*
X0120516Y0091520D01*
X0120554Y0091461D01*
X0120589Y0091399D01*
X0120619Y0091336D01*
X0120647Y0091271D01*
X0120670Y0091204D01*
X0120690Y0091137D01*
X0120706Y0091068D01*
X0120718Y0090999D01*
X0120726Y0090929D01*
X0120730Y0090858D01*
X0120730Y0090788D01*
X0120726Y0090717D01*
X0120718Y0090647D01*
X0120706Y0090578D01*
X0120690Y0090509D01*
X0120670Y0090442D01*
X0120647Y0090375D01*
X0120619Y0090310D01*
X0120589Y0090247D01*
X0120554Y0090185D01*
X0120516Y0090126D01*
X0120475Y0090069D01*
X0120431Y0090014D01*
X0120384Y0089962D01*
X0120334Y0089912D01*
X0120281Y0089866D01*
X0120225Y0089822D01*
X0120168Y0089782D01*
X0120107Y0089745D01*
X0120046Y0089711D01*
X0119982Y0089681D01*
X0119916Y0089655D01*
X0119850Y0089633D01*
X0119782Y0089614D01*
X0119713Y0089599D01*
X0119643Y0089588D01*
X0119573Y0089581D01*
X0119503Y0089578D01*
X0119432Y0089579D01*
X0119362Y0089584D01*
X0119292Y0089593D01*
X0119223Y0089606D01*
X0119154Y0089623D01*
X0119087Y0089643D01*
X0119021Y0089668D01*
X0118956Y0089696D01*
X0118893Y0089728D01*
X0118832Y0089763D01*
X0118773Y0089801D01*
X0118717Y0089843D01*
X0118662Y0089888D01*
X0118611Y0089936D01*
X0118562Y0089987D01*
X0118516Y0090041D01*
X0118474Y0090097D01*
X0118434Y0090155D01*
X0118398Y0090216D01*
X0118365Y0090278D01*
X0118336Y0090342D01*
X0118311Y0090408D01*
X0118290Y0090475D01*
X0118272Y0090544D01*
X0118258Y0090613D01*
X0118248Y0090682D01*
X0118242Y0090753D01*
X0118240Y0090823D01*
D14*
X0096257Y0041413D02*
X0096257Y0010114D01*
X0096512Y0017791D02*
X0106493Y0016768D01*
X0106493Y0016534D02*
X0096512Y0017791D01*
X0106493Y0018815D01*
X0106493Y0019048D02*
X0106493Y0016534D01*
X0106493Y0017280D02*
X0096512Y0017791D01*
X0106493Y0018303D01*
X0106493Y0019048D02*
X0096512Y0017791D01*
X0158993Y0017791D01*
X0149012Y0016768D01*
X0149012Y0016534D02*
X0158993Y0017791D01*
X0149012Y0018815D01*
X0149012Y0019048D02*
X0149012Y0016534D01*
X0149012Y0017280D02*
X0158993Y0017791D01*
X0149012Y0018303D01*
X0149012Y0019048D02*
X0158993Y0017791D01*
X0159249Y0021472D02*
X0160272Y0011492D01*
X0160506Y0011492D02*
X0159249Y0021472D01*
X0158225Y0011492D01*
X0157992Y0011492D02*
X0160506Y0011492D01*
X0159760Y0011492D02*
X0159249Y0021472D01*
X0158737Y0011492D01*
X0157992Y0011492D02*
X0159249Y0021472D01*
X0159249Y0001256D01*
X0159249Y0010114D02*
X0159249Y0041413D01*
X0159249Y0041669D02*
X0160272Y0051650D01*
X0160506Y0051650D02*
X0159249Y0041669D01*
X0158225Y0051650D01*
X0157992Y0051650D02*
X0160506Y0051650D01*
X0159760Y0051650D02*
X0159249Y0041669D01*
X0158737Y0051650D01*
X0157992Y0051650D02*
X0159249Y0041669D01*
X0159249Y0071118D01*
X0166926Y0041413D02*
X0096257Y0041413D01*
X0096257Y0021728D02*
X0166926Y0021728D01*
D15*
X0047284Y0095850D03*
D16*
X0049012Y0095547D02*
X0049012Y0097122D01*
X0050587Y0097122D01*
X0049012Y0079406D02*
X0049012Y0077831D01*
X0050587Y0077831D01*
X0066729Y0077831D02*
X0068304Y0077831D01*
X0068304Y0079406D01*
X0068304Y0095547D02*
X0068304Y0097122D01*
X0066729Y0097122D01*
D17*
X0066283Y0041230D02*
X0066283Y0038161D01*
X0066283Y0039696D02*
X0061679Y0039696D01*
X0063214Y0038161D01*
X0058286Y0038928D02*
X0057519Y0038161D01*
X0054449Y0041230D01*
X0057519Y0041230D01*
X0058286Y0040463D01*
X0058286Y0038928D01*
X0057519Y0038161D02*
X0054449Y0038161D01*
X0053682Y0038928D01*
X0053682Y0040463D01*
X0054449Y0041230D01*
X0054449Y0032372D02*
X0057519Y0029303D01*
X0058286Y0030070D01*
X0058286Y0031605D01*
X0057519Y0032372D01*
X0054449Y0032372D01*
X0053682Y0031605D01*
X0053682Y0030070D01*
X0054449Y0029303D01*
X0057519Y0029303D01*
X0061679Y0030837D02*
X0066283Y0030837D01*
X0066283Y0029303D02*
X0066283Y0032372D01*
X0063214Y0029303D02*
X0061679Y0030837D01*
X0073465Y0030169D02*
X0073465Y0031703D01*
X0074233Y0032470D01*
X0077302Y0029401D01*
X0078069Y0030169D01*
X0078069Y0031703D01*
X0077302Y0032470D01*
X0074233Y0032470D01*
X0073465Y0030169D02*
X0074233Y0029401D01*
X0077302Y0029401D01*
X0081462Y0030936D02*
X0086066Y0030936D01*
X0086066Y0032470D02*
X0086066Y0029401D01*
X0082997Y0029401D02*
X0081462Y0030936D01*
X0082899Y0038161D02*
X0081364Y0039696D01*
X0085968Y0039696D01*
X0085968Y0041230D02*
X0085968Y0038161D01*
X0077971Y0038928D02*
X0077204Y0038161D01*
X0074134Y0041230D01*
X0077204Y0041230D01*
X0077971Y0040463D01*
X0077971Y0038928D01*
X0077204Y0038161D02*
X0074134Y0038161D01*
X0073367Y0038928D01*
X0073367Y0040463D01*
X0074134Y0041230D01*
X0046598Y0041230D02*
X0046598Y0038161D01*
X0046598Y0039696D02*
X0041994Y0039696D01*
X0043529Y0038161D01*
X0038601Y0038928D02*
X0037834Y0038161D01*
X0034764Y0041230D01*
X0037834Y0041230D01*
X0038601Y0040463D01*
X0038601Y0038928D01*
X0037834Y0038161D02*
X0034764Y0038161D01*
X0033997Y0038928D01*
X0033997Y0040463D01*
X0034764Y0041230D01*
X0034764Y0032372D02*
X0037834Y0029303D01*
X0038601Y0030070D01*
X0038601Y0031605D01*
X0037834Y0032372D01*
X0034764Y0032372D01*
X0033997Y0031605D01*
X0033997Y0030070D01*
X0034764Y0029303D01*
X0037834Y0029303D01*
X0041994Y0030837D02*
X0046598Y0030837D01*
X0046598Y0029303D02*
X0046598Y0032372D01*
X0043529Y0029303D02*
X0041994Y0030837D01*
M02*
