G75*
%MOIN*%
%OFA0B0*%
%FSLAX25Y25*%
%IPPOS*%
%LPD*%
%AMOC8*
5,1,8,0,0,1.08239X$1,22.5*
%
%ADD10C,0.00300*%
%ADD11C,0.00600*%
%ADD12R,0.06600X0.00050*%
%ADD13R,0.01900X0.00050*%
%ADD14R,0.06650X0.00050*%
%ADD15R,0.06700X0.00050*%
%ADD16R,0.06750X0.00050*%
%ADD17R,0.01950X0.00050*%
%ADD18R,0.02000X0.00050*%
%ADD19R,0.02050X0.00050*%
%ADD20R,0.02100X0.00050*%
%ADD21R,0.02150X0.00050*%
%ADD22R,0.02200X0.00050*%
%ADD23R,0.02250X0.00050*%
%ADD24R,0.02300X0.00050*%
%ADD25R,0.02350X0.00050*%
%ADD26R,0.02400X0.00050*%
%ADD27R,0.02450X0.00050*%
%ADD28R,0.06800X0.00050*%
%ADD29R,0.02500X0.00050*%
%ADD30R,0.02550X0.00050*%
%ADD31R,0.02600X0.00050*%
%ADD32R,0.01250X0.00050*%
%ADD33R,0.01200X0.00050*%
%ADD34R,0.02650X0.00050*%
%ADD35R,0.02700X0.00050*%
%ADD36R,0.02750X0.00050*%
%ADD37R,0.02800X0.00050*%
%ADD38R,0.02850X0.00050*%
%ADD39R,0.02900X0.00050*%
%ADD40R,0.02950X0.00050*%
%ADD41R,0.03000X0.00050*%
%ADD42R,0.03050X0.00050*%
%ADD43R,0.03100X0.00050*%
%ADD44R,0.03150X0.00050*%
%ADD45R,0.03200X0.00050*%
%ADD46R,0.03250X0.00050*%
%ADD47R,0.03300X0.00050*%
%ADD48R,0.03350X0.00050*%
%ADD49R,0.03400X0.00050*%
%ADD50R,0.03450X0.00050*%
%ADD51R,0.03500X0.00050*%
%ADD52R,0.19800X0.00050*%
%ADD53R,0.01300X0.00050*%
%ADD54R,0.19850X0.00050*%
%ADD55R,0.01350X0.00050*%
%ADD56R,0.01400X0.00050*%
%ADD57R,0.01450X0.00050*%
%ADD58R,0.01500X0.00050*%
%ADD59R,0.01550X0.00050*%
%ADD60R,0.01600X0.00050*%
%ADD61R,0.01700X0.00050*%
%ADD62R,0.01800X0.00050*%
%ADD63R,0.04050X0.00050*%
%ADD64R,0.04000X0.00050*%
%ADD65R,0.03950X0.00050*%
%ADD66R,0.03900X0.00050*%
%ADD67R,0.03850X0.00050*%
%ADD68R,0.03750X0.00050*%
%ADD69R,0.03650X0.00050*%
%ADD70R,0.03600X0.00050*%
%ADD71R,0.03550X0.00050*%
%ADD72R,0.03800X0.00050*%
%ADD73R,0.03700X0.00050*%
%ADD74R,0.01650X0.00050*%
%ADD75R,0.01000X0.00050*%
%ADD76R,0.00050X0.00050*%
%ADD77R,0.00850X0.00050*%
%ADD78R,0.01750X0.00050*%
%ADD79R,0.04100X0.00050*%
%ADD80R,0.04200X0.00050*%
%ADD81R,0.04300X0.00050*%
%ADD82R,0.04400X0.00050*%
%ADD83R,0.04500X0.00050*%
%ADD84R,0.04600X0.00050*%
%ADD85R,0.04700X0.00050*%
%ADD86R,0.04800X0.00050*%
%ADD87R,0.18600X0.00050*%
%ADD88R,0.01850X0.00050*%
%ADD89R,0.18650X0.00050*%
%ADD90R,0.01150X0.00050*%
%ADD91R,0.18700X0.00050*%
%ADD92R,0.01100X0.00050*%
%ADD93R,0.18750X0.00050*%
%ADD94R,0.18800X0.00050*%
%ADD95R,0.04750X0.00050*%
%ADD96R,0.04650X0.00050*%
%ADD97R,0.18850X0.00050*%
%ADD98R,0.04550X0.00050*%
%ADD99R,0.04450X0.00050*%
%ADD100R,0.04350X0.00050*%
%ADD101R,0.04250X0.00050*%
%ADD102R,0.04150X0.00050*%
%ADD103R,0.18900X0.00050*%
%ADD104R,0.00750X0.00050*%
%ADD105R,0.00200X0.00050*%
%ADD106R,0.00400X0.00050*%
%ADD107R,0.00550X0.00050*%
%ADD108R,0.00700X0.00050*%
%ADD109R,0.18950X0.00050*%
%ADD110R,0.00900X0.00050*%
%ADD111R,0.01050X0.00050*%
%ADD112R,0.04900X0.00050*%
%ADD113R,0.04850X0.00050*%
%ADD114R,0.05000X0.00050*%
%ADD115R,0.04950X0.00050*%
%ADD116R,0.05150X0.00050*%
%ADD117R,0.05450X0.00050*%
%ADD118R,0.05650X0.00050*%
%ADD119R,0.11400X0.00050*%
%ADD120R,0.11300X0.00050*%
%ADD121R,0.11250X0.00050*%
%ADD122R,0.11200X0.00050*%
%ADD123R,0.11150X0.00050*%
%ADD124R,0.11100X0.00050*%
%ADD125R,0.11050X0.00050*%
%ADD126R,0.10950X0.00050*%
%ADD127R,0.10900X0.00050*%
%ADD128R,0.10850X0.00050*%
%ADD129R,0.10750X0.00050*%
%ADD130R,0.10650X0.00050*%
%ADD131R,0.10550X0.00050*%
%ADD132R,0.10500X0.00050*%
%ADD133R,0.10450X0.00050*%
%ADD134R,0.10400X0.00050*%
%ADD135R,0.10350X0.00050*%
%ADD136R,0.10250X0.00050*%
%ADD137R,0.10200X0.00050*%
%ADD138R,0.10150X0.00050*%
%ADD139R,0.10100X0.00050*%
%ADD140R,0.10000X0.00050*%
%ADD141R,0.00250X0.00050*%
%ADD142R,0.00600X0.00050*%
%ADD143R,0.09900X0.00050*%
%ADD144R,0.09800X0.00050*%
%ADD145R,0.09700X0.00050*%
%ADD146R,0.09600X0.00050*%
%ADD147R,0.09500X0.00050*%
%ADD148R,0.09450X0.00050*%
%ADD149R,0.09400X0.00050*%
%ADD150R,0.09300X0.00050*%
%ADD151R,0.09200X0.00050*%
%ADD152R,0.09150X0.00050*%
%ADD153R,0.09050X0.00050*%
%ADD154R,0.09000X0.00050*%
%ADD155R,0.08900X0.00050*%
%ADD156R,0.08800X0.00050*%
%ADD157R,0.08700X0.00050*%
%ADD158R,0.08600X0.00050*%
%ADD159R,0.08550X0.00050*%
%ADD160R,0.08450X0.00050*%
%ADD161R,0.08350X0.00050*%
%ADD162R,0.08250X0.00050*%
%ADD163R,0.08150X0.00050*%
%ADD164R,0.08050X0.00050*%
%ADD165R,0.07950X0.00050*%
%ADD166R,0.07850X0.00050*%
%ADD167R,0.07700X0.00050*%
%ADD168R,0.07600X0.00050*%
%ADD169R,0.07500X0.00050*%
%ADD170R,0.07350X0.00050*%
%ADD171R,0.07250X0.00050*%
%ADD172R,0.07100X0.00050*%
%ADD173R,0.06950X0.00050*%
%ADD174R,0.06550X0.00050*%
%ADD175R,0.06350X0.00050*%
%ADD176R,0.06150X0.00050*%
%ADD177R,0.05950X0.00050*%
%ADD178R,0.05850X0.00050*%
%ADD179R,0.05600X0.00050*%
%ADD180R,0.05400X0.00050*%
%ADD181R,0.05200X0.00050*%
%ADD182R,0.00950X0.00050*%
%ADD183R,0.00150X0.00050*%
%ADD184R,0.00300X0.00050*%
%ADD185R,0.00650X0.00050*%
%ADD186R,0.00800X0.00050*%
%ADD187R,0.00100X0.00050*%
%ADD188R,0.00450X0.00050*%
%ADD189R,0.00500X0.00050*%
%ADD190R,0.00050X0.06600*%
%ADD191R,0.00050X0.01900*%
%ADD192R,0.00050X0.06650*%
%ADD193R,0.00050X0.06700*%
%ADD194R,0.00050X0.06750*%
%ADD195R,0.00050X0.01950*%
%ADD196R,0.00050X0.02000*%
%ADD197R,0.00050X0.02050*%
%ADD198R,0.00050X0.02100*%
%ADD199R,0.00050X0.02150*%
%ADD200R,0.00050X0.02200*%
%ADD201R,0.00050X0.02250*%
%ADD202R,0.00050X0.02300*%
%ADD203R,0.00050X0.02350*%
%ADD204R,0.00050X0.02400*%
%ADD205R,0.00050X0.02450*%
%ADD206R,0.00050X0.06800*%
%ADD207R,0.00050X0.02500*%
%ADD208R,0.00050X0.02550*%
%ADD209R,0.00050X0.02600*%
%ADD210R,0.00050X0.01250*%
%ADD211R,0.00050X0.01200*%
%ADD212R,0.00050X0.02650*%
%ADD213R,0.00050X0.02700*%
%ADD214R,0.00050X0.02750*%
%ADD215R,0.00050X0.02800*%
%ADD216R,0.00050X0.02850*%
%ADD217R,0.00050X0.02900*%
%ADD218R,0.00050X0.02950*%
%ADD219R,0.00050X0.03000*%
%ADD220R,0.00050X0.03050*%
%ADD221R,0.00050X0.03100*%
%ADD222R,0.00050X0.03150*%
%ADD223R,0.00050X0.03200*%
%ADD224R,0.00050X0.03250*%
%ADD225R,0.00050X0.03300*%
%ADD226R,0.00050X0.03350*%
%ADD227R,0.00050X0.03400*%
%ADD228R,0.00050X0.03450*%
%ADD229R,0.00050X0.03500*%
%ADD230R,0.00050X0.19800*%
%ADD231R,0.00050X0.01300*%
%ADD232R,0.00050X0.19850*%
%ADD233R,0.00050X0.01350*%
%ADD234R,0.00050X0.01400*%
%ADD235R,0.00050X0.01450*%
%ADD236R,0.00050X0.01500*%
%ADD237R,0.00050X0.01550*%
%ADD238R,0.00050X0.01600*%
%ADD239R,0.00050X0.01700*%
%ADD240R,0.00050X0.01800*%
%ADD241R,0.00050X0.04050*%
%ADD242R,0.00050X0.04000*%
%ADD243R,0.00050X0.03950*%
%ADD244R,0.00050X0.03900*%
%ADD245R,0.00050X0.03850*%
%ADD246R,0.00050X0.03750*%
%ADD247R,0.00050X0.03650*%
%ADD248R,0.00050X0.03600*%
%ADD249R,0.00050X0.03550*%
%ADD250R,0.00050X0.03800*%
%ADD251R,0.00050X0.03700*%
%ADD252R,0.00050X0.01650*%
%ADD253R,0.00050X0.01000*%
%ADD254R,0.00050X0.00850*%
%ADD255R,0.00050X0.01750*%
%ADD256R,0.00050X0.04100*%
%ADD257R,0.00050X0.04200*%
%ADD258R,0.00050X0.04300*%
%ADD259R,0.00050X0.04400*%
%ADD260R,0.00050X0.04500*%
%ADD261R,0.00050X0.04600*%
%ADD262R,0.00050X0.04700*%
%ADD263R,0.00050X0.04800*%
%ADD264R,0.00050X0.18600*%
%ADD265R,0.00050X0.01850*%
%ADD266R,0.00050X0.18650*%
%ADD267R,0.00050X0.01150*%
%ADD268R,0.00050X0.18700*%
%ADD269R,0.00050X0.01100*%
%ADD270R,0.00050X0.18750*%
%ADD271R,0.00050X0.18800*%
%ADD272R,0.00050X0.04750*%
%ADD273R,0.00050X0.04650*%
%ADD274R,0.00050X0.18850*%
%ADD275R,0.00050X0.04550*%
%ADD276R,0.00050X0.04450*%
%ADD277R,0.00050X0.04350*%
%ADD278R,0.00050X0.04250*%
%ADD279R,0.00050X0.04150*%
%ADD280R,0.00050X0.18900*%
%ADD281R,0.00050X0.00750*%
%ADD282R,0.00050X0.00200*%
%ADD283R,0.00050X0.00400*%
%ADD284R,0.00050X0.00550*%
%ADD285R,0.00050X0.00700*%
%ADD286R,0.00050X0.18950*%
%ADD287R,0.00050X0.00900*%
%ADD288R,0.00050X0.01050*%
%ADD289R,0.00050X0.04900*%
%ADD290R,0.00050X0.04850*%
%ADD291R,0.00050X0.05000*%
%ADD292R,0.00050X0.04950*%
%ADD293R,0.00050X0.05150*%
%ADD294R,0.00050X0.05450*%
%ADD295R,0.00050X0.05650*%
%ADD296R,0.00050X0.11400*%
%ADD297R,0.00050X0.11300*%
%ADD298R,0.00050X0.11250*%
%ADD299R,0.00050X0.11200*%
%ADD300R,0.00050X0.11150*%
%ADD301R,0.00050X0.11100*%
%ADD302R,0.00050X0.11050*%
%ADD303R,0.00050X0.10950*%
%ADD304R,0.00050X0.10900*%
%ADD305R,0.00050X0.10850*%
%ADD306R,0.00050X0.10750*%
%ADD307R,0.00050X0.10650*%
%ADD308R,0.00050X0.10550*%
%ADD309R,0.00050X0.10500*%
%ADD310R,0.00050X0.10450*%
%ADD311R,0.00050X0.10400*%
%ADD312R,0.00050X0.10350*%
%ADD313R,0.00050X0.10250*%
%ADD314R,0.00050X0.10200*%
%ADD315R,0.00050X0.10150*%
%ADD316R,0.00050X0.10100*%
%ADD317R,0.00050X0.10000*%
%ADD318R,0.00050X0.00250*%
%ADD319R,0.00050X0.00600*%
%ADD320R,0.00050X0.09900*%
%ADD321R,0.00050X0.09800*%
%ADD322R,0.00050X0.09700*%
%ADD323R,0.00050X0.09600*%
%ADD324R,0.00050X0.09500*%
%ADD325R,0.00050X0.09450*%
%ADD326R,0.00050X0.09400*%
%ADD327R,0.00050X0.09300*%
%ADD328R,0.00050X0.09200*%
%ADD329R,0.00050X0.09150*%
%ADD330R,0.00050X0.09050*%
%ADD331R,0.00050X0.09000*%
%ADD332R,0.00050X0.08900*%
%ADD333R,0.00050X0.08800*%
%ADD334R,0.00050X0.08700*%
%ADD335R,0.00050X0.08600*%
%ADD336R,0.00050X0.08550*%
%ADD337R,0.00050X0.08450*%
%ADD338R,0.00050X0.08350*%
%ADD339R,0.00050X0.08250*%
%ADD340R,0.00050X0.08150*%
%ADD341R,0.00050X0.08050*%
%ADD342R,0.00050X0.07950*%
%ADD343R,0.00050X0.07850*%
%ADD344R,0.00050X0.07700*%
%ADD345R,0.00050X0.07600*%
%ADD346R,0.00050X0.07500*%
%ADD347R,0.00050X0.07350*%
%ADD348R,0.00050X0.07250*%
%ADD349R,0.00050X0.07100*%
%ADD350R,0.00050X0.06950*%
%ADD351R,0.00050X0.06550*%
%ADD352R,0.00050X0.06350*%
%ADD353R,0.00050X0.06150*%
%ADD354R,0.00050X0.05950*%
%ADD355R,0.00050X0.05850*%
%ADD356R,0.00050X0.05600*%
%ADD357R,0.00050X0.05400*%
%ADD358R,0.00050X0.05200*%
%ADD359R,0.00050X0.00950*%
%ADD360R,0.00050X0.00150*%
%ADD361R,0.00050X0.00300*%
%ADD362R,0.00050X0.00650*%
%ADD363R,0.00050X0.00800*%
%ADD364R,0.00050X0.00100*%
%ADD365R,0.00050X0.00450*%
%ADD366R,0.00050X0.00500*%
%ADD367C,0.00500*%
%ADD368C,0.00400*%
D10*
X0018218Y0063217D02*
X0020687Y0063217D01*
X0018218Y0065686D01*
X0018218Y0066303D01*
X0018835Y0066920D01*
X0020070Y0066920D01*
X0020687Y0066303D01*
X0021901Y0066303D02*
X0022519Y0066920D01*
X0023753Y0066920D01*
X0024370Y0066303D01*
X0024370Y0063834D01*
X0023753Y0063217D01*
X0022519Y0063217D01*
X0021901Y0063834D01*
X0021901Y0065069D01*
X0023136Y0065069D01*
X0025585Y0066920D02*
X0028053Y0066920D01*
X0028053Y0063217D01*
X0029268Y0063834D02*
X0029885Y0063217D01*
X0031119Y0063217D01*
X0031736Y0063834D01*
X0031736Y0066303D01*
X0031119Y0066920D01*
X0029885Y0066920D01*
X0029268Y0066303D01*
X0028053Y0065069D02*
X0026819Y0065069D01*
X0027660Y0080146D02*
X0027660Y0083849D01*
X0025191Y0083849D01*
X0023976Y0083232D02*
X0023976Y0080763D01*
X0023359Y0080146D01*
X0022125Y0080146D01*
X0021508Y0080763D01*
X0021508Y0081998D01*
X0022742Y0081998D01*
X0021508Y0083232D02*
X0022125Y0083849D01*
X0023359Y0083849D01*
X0023976Y0083232D01*
X0026425Y0081998D02*
X0027660Y0081998D01*
X0028874Y0083232D02*
X0029491Y0083849D01*
X0030726Y0083849D01*
X0031343Y0083232D01*
X0031343Y0080763D01*
X0030726Y0080146D01*
X0029491Y0080146D01*
X0028874Y0080763D01*
X0029688Y0096681D02*
X0029071Y0097299D01*
X0029688Y0096681D02*
X0030922Y0096681D01*
X0031540Y0097299D01*
X0031540Y0099767D01*
X0030922Y0100385D01*
X0029688Y0100385D01*
X0029071Y0099767D01*
X0027856Y0100385D02*
X0027856Y0096681D01*
X0027856Y0098533D02*
X0026622Y0098533D01*
X0027856Y0100385D02*
X0025388Y0100385D01*
X0024173Y0099767D02*
X0024173Y0097299D01*
X0023556Y0096681D01*
X0022322Y0096681D01*
X0021705Y0097299D01*
X0021705Y0098533D01*
X0022939Y0098533D01*
X0024173Y0099767D02*
X0023556Y0100385D01*
X0022322Y0100385D01*
X0021705Y0099767D01*
X0020490Y0099767D02*
X0019873Y0100385D01*
X0018639Y0100385D01*
X0018021Y0099767D01*
X0020490Y0097299D01*
X0019873Y0096681D01*
X0018639Y0096681D01*
X0018021Y0097299D01*
X0018021Y0099767D01*
X0020490Y0099767D02*
X0020490Y0097299D01*
X0019059Y0083849D02*
X0019059Y0080146D01*
X0020293Y0080146D02*
X0017825Y0080146D01*
X0020293Y0082615D02*
X0019059Y0083849D01*
X0032547Y0112036D02*
X0032547Y0114069D01*
X0031530Y0114069D02*
X0031022Y0114069D01*
X0031530Y0114069D02*
X0032547Y0113052D01*
X0033595Y0113052D02*
X0035120Y0113052D01*
X0035628Y0112544D01*
X0035120Y0112036D01*
X0033595Y0112036D01*
X0033595Y0113560D01*
X0034103Y0114069D01*
X0035120Y0114069D01*
X0035612Y0116170D02*
X0036120Y0116678D01*
X0035612Y0116170D02*
X0034595Y0116170D01*
X0034087Y0116678D01*
X0034087Y0117186D01*
X0034595Y0117694D01*
X0035612Y0117694D01*
X0036120Y0118202D01*
X0036120Y0118711D01*
X0035612Y0119219D01*
X0034595Y0119219D01*
X0034087Y0118711D01*
X0037168Y0119219D02*
X0037168Y0116170D01*
X0039201Y0119219D01*
X0039201Y0116170D01*
X0040250Y0117694D02*
X0042282Y0117694D01*
X0043331Y0116170D02*
X0045364Y0116170D01*
X0045364Y0119219D01*
X0043331Y0119219D01*
X0044348Y0117694D02*
X0045364Y0117694D01*
X0046413Y0116170D02*
X0048445Y0116170D01*
X0048445Y0119219D01*
X0049494Y0118711D02*
X0049494Y0118202D01*
X0050002Y0117694D01*
X0051527Y0117694D01*
X0052575Y0117694D02*
X0054608Y0117694D01*
X0055657Y0116170D02*
X0055657Y0119219D01*
X0057689Y0119219D02*
X0055657Y0116170D01*
X0055165Y0115085D02*
X0057198Y0115085D01*
X0057198Y0112036D01*
X0057198Y0113560D02*
X0056181Y0113560D01*
X0058241Y0114069D02*
X0058749Y0114069D01*
X0059765Y0113052D01*
X0059765Y0112036D02*
X0059765Y0114069D01*
X0060814Y0113560D02*
X0060814Y0113052D01*
X0062847Y0113052D01*
X0062847Y0112544D02*
X0062847Y0113560D01*
X0062339Y0114069D01*
X0061322Y0114069D01*
X0060814Y0113560D01*
X0061322Y0112036D02*
X0062339Y0112036D01*
X0062847Y0112544D01*
X0063895Y0112544D02*
X0063895Y0114069D01*
X0063895Y0112544D02*
X0064404Y0112036D01*
X0064912Y0112544D01*
X0065420Y0112036D01*
X0065928Y0112544D01*
X0065928Y0114069D01*
X0066977Y0113560D02*
X0067485Y0114069D01*
X0068501Y0114069D01*
X0069009Y0113560D01*
X0069009Y0112544D01*
X0068501Y0112036D01*
X0067485Y0112036D01*
X0066977Y0112544D01*
X0066977Y0113560D01*
X0066955Y0116170D02*
X0068988Y0116170D01*
X0068988Y0119219D01*
X0066955Y0119219D01*
X0065906Y0119219D02*
X0063874Y0119219D01*
X0064890Y0117694D02*
X0065906Y0117694D01*
X0065906Y0116170D02*
X0065906Y0119219D01*
X0067971Y0117694D02*
X0068988Y0117694D01*
X0070036Y0117694D02*
X0070545Y0117186D01*
X0072069Y0117186D01*
X0071053Y0117186D02*
X0070036Y0116170D01*
X0070566Y0115085D02*
X0070058Y0114577D01*
X0070058Y0113560D01*
X0070566Y0113052D01*
X0072091Y0113052D01*
X0072091Y0112036D02*
X0072091Y0115085D01*
X0070566Y0115085D01*
X0072069Y0116170D02*
X0072069Y0119219D01*
X0070545Y0119219D01*
X0070036Y0118711D01*
X0070036Y0117694D01*
X0063993Y0126603D02*
X0064610Y0127220D01*
X0063993Y0126603D02*
X0062759Y0126603D01*
X0062142Y0127220D01*
X0062142Y0127837D01*
X0062759Y0128454D01*
X0063993Y0128454D01*
X0064610Y0129072D01*
X0064610Y0129689D01*
X0063993Y0130306D01*
X0062759Y0130306D01*
X0062142Y0129689D01*
X0060927Y0129689D02*
X0060927Y0127220D01*
X0060310Y0126603D01*
X0059076Y0126603D01*
X0058459Y0127220D01*
X0058459Y0129689D01*
X0059076Y0130306D01*
X0060310Y0130306D01*
X0060927Y0129689D01*
X0057244Y0130306D02*
X0057244Y0126603D01*
X0054775Y0126603D01*
X0057689Y0119219D02*
X0057689Y0116170D01*
X0058727Y0116170D02*
X0059744Y0116170D01*
X0059235Y0116170D02*
X0059235Y0119219D01*
X0058727Y0119219D02*
X0059744Y0119219D01*
X0060792Y0117694D02*
X0062825Y0117694D01*
X0054116Y0114069D02*
X0053608Y0114069D01*
X0053608Y0112036D01*
X0054116Y0112036D02*
X0053100Y0112036D01*
X0052062Y0112036D02*
X0051046Y0112036D01*
X0051554Y0112036D02*
X0051554Y0115085D01*
X0052062Y0115085D01*
X0051527Y0116170D02*
X0051527Y0119219D01*
X0050002Y0119219D01*
X0049494Y0118711D01*
X0050002Y0117694D02*
X0049494Y0117186D01*
X0049494Y0116678D01*
X0050002Y0116170D01*
X0051527Y0116170D01*
X0053608Y0115593D02*
X0053608Y0115085D01*
X0050008Y0114069D02*
X0050008Y0112036D01*
X0048991Y0112036D02*
X0048991Y0113560D01*
X0048483Y0114069D01*
X0047975Y0113560D01*
X0047975Y0112036D01*
X0048991Y0113560D02*
X0049499Y0114069D01*
X0050008Y0114069D01*
X0043845Y0114069D02*
X0043337Y0113560D01*
X0042320Y0113560D01*
X0041812Y0113052D01*
X0041812Y0112544D01*
X0042320Y0112036D01*
X0043337Y0112036D01*
X0043845Y0112544D01*
X0043845Y0114069D02*
X0043845Y0114577D01*
X0043337Y0115085D01*
X0042320Y0115085D01*
X0041812Y0114577D01*
X0040764Y0113560D02*
X0040764Y0112544D01*
X0040255Y0112036D01*
X0039239Y0112036D01*
X0038731Y0112544D01*
X0038731Y0113560D01*
X0039239Y0114069D01*
X0040255Y0114069D01*
X0040764Y0113560D01*
X0037682Y0112036D02*
X0036666Y0112036D01*
X0037174Y0112036D02*
X0037174Y0115085D01*
X0037682Y0115085D01*
X0029957Y0117694D02*
X0027924Y0117694D01*
X0026876Y0117694D02*
X0024843Y0117694D01*
X0023794Y0118711D02*
X0023286Y0119219D01*
X0022270Y0119219D01*
X0021762Y0118711D01*
X0021762Y0118202D01*
X0023794Y0116170D01*
X0021762Y0116170D01*
X0028432Y0116170D02*
X0028432Y0119219D01*
X0029957Y0117694D01*
X0054775Y0146288D02*
X0057244Y0146288D01*
X0057244Y0149991D01*
X0058459Y0149374D02*
X0058459Y0146905D01*
X0059076Y0146288D01*
X0060310Y0146288D01*
X0060927Y0146905D01*
X0060927Y0149374D01*
X0060310Y0149991D01*
X0059076Y0149991D01*
X0058459Y0149374D01*
X0062142Y0149374D02*
X0062759Y0149991D01*
X0063993Y0149991D01*
X0064610Y0149374D01*
X0064610Y0148757D01*
X0063993Y0148139D01*
X0062759Y0148139D01*
X0062142Y0147522D01*
X0062142Y0146905D01*
X0062759Y0146288D01*
X0063993Y0146288D01*
X0064610Y0146905D01*
X0077509Y0153992D02*
X0077509Y0155226D01*
X0078126Y0155843D01*
X0079360Y0155843D01*
X0079360Y0154609D01*
X0078126Y0153374D02*
X0080595Y0153374D01*
X0081212Y0153992D01*
X0081212Y0155226D01*
X0080595Y0155843D01*
X0081212Y0157058D02*
X0077509Y0159526D01*
X0081212Y0159526D01*
X0081212Y0160741D02*
X0081212Y0162592D01*
X0080595Y0163209D01*
X0078126Y0163209D01*
X0077509Y0162592D01*
X0077509Y0160741D01*
X0081212Y0160741D01*
X0081212Y0157058D02*
X0077509Y0157058D01*
X0077509Y0153992D02*
X0078126Y0153374D01*
X0078063Y0125388D02*
X0080532Y0125388D01*
X0081149Y0124771D01*
X0081149Y0122920D01*
X0077446Y0122920D01*
X0077446Y0124771D01*
X0078063Y0125388D01*
X0077446Y0121705D02*
X0081149Y0121705D01*
X0081149Y0119236D02*
X0077446Y0121705D01*
X0077446Y0119236D02*
X0081149Y0119236D01*
X0080532Y0118022D02*
X0081149Y0117405D01*
X0081149Y0116171D01*
X0080532Y0115553D01*
X0078063Y0115553D01*
X0077446Y0116171D01*
X0077446Y0117405D01*
X0078063Y0118022D01*
X0079298Y0118022D01*
X0079298Y0116788D01*
X0081368Y0114545D02*
X0081368Y0111642D01*
X0079433Y0111642D01*
X0082379Y0111642D02*
X0082379Y0113577D01*
X0083347Y0114545D01*
X0084314Y0113577D01*
X0084314Y0111642D01*
X0085326Y0112126D02*
X0085810Y0111642D01*
X0087261Y0111642D01*
X0087261Y0114545D01*
X0085810Y0114545D01*
X0085326Y0114061D01*
X0085326Y0113577D01*
X0085810Y0113093D01*
X0087261Y0113093D01*
X0085810Y0113093D02*
X0085326Y0112610D01*
X0085326Y0112126D01*
X0084314Y0113093D02*
X0082379Y0113093D01*
X0088272Y0111642D02*
X0088272Y0114545D01*
X0090207Y0114545D02*
X0088272Y0111642D01*
X0090207Y0111642D02*
X0090207Y0114545D01*
X0091219Y0114545D02*
X0093154Y0114545D01*
X0093154Y0111642D01*
X0091219Y0111642D01*
X0092186Y0113093D02*
X0093154Y0113093D01*
X0089981Y0119236D02*
X0090598Y0119854D01*
X0090598Y0121088D01*
X0089981Y0121705D01*
X0089981Y0122920D02*
X0090598Y0123537D01*
X0090598Y0124771D01*
X0089981Y0125388D01*
X0087512Y0122920D01*
X0086895Y0123537D01*
X0086895Y0124771D01*
X0087512Y0125388D01*
X0089981Y0125388D01*
X0089981Y0122920D02*
X0087512Y0122920D01*
X0087512Y0121705D02*
X0086895Y0121088D01*
X0086895Y0119854D01*
X0087512Y0119236D01*
X0088746Y0119854D02*
X0088746Y0121088D01*
X0088129Y0121705D01*
X0087512Y0121705D01*
X0088746Y0119854D02*
X0089364Y0119236D01*
X0089981Y0119236D01*
X0097131Y0119854D02*
X0097748Y0119236D01*
X0097131Y0119854D02*
X0097131Y0121088D01*
X0097748Y0121705D01*
X0098365Y0121705D01*
X0098983Y0121088D01*
X0098983Y0119854D01*
X0099600Y0119236D01*
X0100217Y0119236D01*
X0100834Y0119854D01*
X0100834Y0121088D01*
X0100217Y0121705D01*
X0099600Y0122920D02*
X0100834Y0124154D01*
X0097131Y0124154D01*
X0097131Y0122920D02*
X0097131Y0125388D01*
X0107367Y0125388D02*
X0107367Y0122920D01*
X0109836Y0125388D01*
X0110453Y0125388D01*
X0111070Y0124771D01*
X0111070Y0123537D01*
X0110453Y0122920D01*
X0110453Y0121705D02*
X0111070Y0121088D01*
X0111070Y0119854D01*
X0110453Y0119236D01*
X0109836Y0119236D01*
X0109219Y0119854D01*
X0109219Y0121088D01*
X0108602Y0121705D01*
X0107984Y0121705D01*
X0107367Y0121088D01*
X0107367Y0119854D01*
X0107984Y0119236D01*
X0117210Y0119630D02*
X0120913Y0119630D01*
X0120913Y0121482D01*
X0120296Y0122099D01*
X0119061Y0122099D01*
X0118444Y0121482D01*
X0118444Y0119630D01*
X0118444Y0123313D02*
X0118444Y0125165D01*
X0119061Y0125782D01*
X0120296Y0125782D01*
X0120913Y0125165D01*
X0120913Y0123313D01*
X0117210Y0123313D01*
X0118444Y0124548D02*
X0117210Y0125782D01*
X0127052Y0125388D02*
X0127052Y0122920D01*
X0130755Y0122920D01*
X0129521Y0121705D02*
X0130755Y0120471D01*
X0129521Y0119236D01*
X0127052Y0119236D01*
X0127669Y0118022D02*
X0127052Y0117405D01*
X0127052Y0115553D01*
X0130755Y0115553D01*
X0130755Y0117405D01*
X0130138Y0118022D01*
X0129521Y0118022D01*
X0128904Y0117405D01*
X0128904Y0115553D01*
X0128904Y0117405D02*
X0128287Y0118022D01*
X0127669Y0118022D01*
X0128904Y0119236D02*
X0128904Y0121705D01*
X0129521Y0121705D02*
X0127052Y0121705D01*
X0142990Y0131030D02*
X0145459Y0131030D01*
X0146673Y0131030D02*
X0149142Y0131030D01*
X0147908Y0131030D02*
X0147908Y0127327D01*
X0150357Y0127327D02*
X0150357Y0129796D01*
X0151591Y0131030D01*
X0152825Y0129796D01*
X0152825Y0127327D01*
X0154040Y0127944D02*
X0154657Y0127327D01*
X0156508Y0127327D01*
X0156508Y0131030D01*
X0154657Y0131030D01*
X0154040Y0130413D01*
X0154040Y0129796D01*
X0154657Y0129179D01*
X0156508Y0129179D01*
X0154657Y0129179D02*
X0154040Y0128562D01*
X0154040Y0127944D01*
X0152825Y0129179D02*
X0150357Y0129179D01*
X0144225Y0127327D02*
X0144225Y0131030D01*
X0145012Y0147012D02*
X0145012Y0150715D01*
X0146246Y0150715D02*
X0143778Y0150715D01*
X0147461Y0150715D02*
X0149930Y0150715D01*
X0148695Y0150715D02*
X0148695Y0147012D01*
X0151144Y0147012D02*
X0151144Y0149481D01*
X0152378Y0150715D01*
X0153613Y0149481D01*
X0153613Y0147012D01*
X0154827Y0147629D02*
X0155444Y0147012D01*
X0157296Y0147012D01*
X0157296Y0150715D01*
X0155444Y0150715D01*
X0154827Y0150098D01*
X0154827Y0149481D01*
X0155444Y0148864D01*
X0157296Y0148864D01*
X0155444Y0148864D02*
X0154827Y0148247D01*
X0154827Y0147629D01*
X0153613Y0148864D02*
X0151144Y0148864D01*
X0130818Y0153374D02*
X0130818Y0155226D01*
X0130201Y0155843D01*
X0129584Y0155843D01*
X0128967Y0155226D01*
X0128967Y0153374D01*
X0130818Y0153374D02*
X0127115Y0153374D01*
X0127115Y0155226D01*
X0127732Y0155843D01*
X0128350Y0155843D01*
X0128967Y0155226D01*
X0128967Y0157058D02*
X0128967Y0159526D01*
X0129584Y0159526D02*
X0127115Y0159526D01*
X0127115Y0160741D02*
X0127115Y0163209D01*
X0127115Y0160741D02*
X0130818Y0160741D01*
X0129584Y0159526D02*
X0130818Y0158292D01*
X0129584Y0157058D01*
X0127115Y0157058D01*
X0126979Y0189201D02*
X0126979Y0191628D01*
X0125766Y0192841D01*
X0124552Y0191628D01*
X0124552Y0189201D01*
X0123354Y0189201D02*
X0120927Y0189201D01*
X0123354Y0189201D02*
X0123354Y0192841D01*
X0124552Y0191021D02*
X0126979Y0191021D01*
X0128177Y0190415D02*
X0128177Y0189808D01*
X0128784Y0189201D01*
X0130604Y0189201D01*
X0130604Y0192841D01*
X0128784Y0192841D01*
X0128177Y0192235D01*
X0128177Y0191628D01*
X0128784Y0191021D01*
X0130604Y0191021D01*
X0128784Y0191021D02*
X0128177Y0190415D01*
X0128102Y0211185D02*
X0128102Y0213654D01*
X0126868Y0214889D01*
X0125633Y0213654D01*
X0125633Y0211185D01*
X0124419Y0211185D02*
X0124419Y0214889D01*
X0122567Y0214889D01*
X0121950Y0214271D01*
X0121950Y0213037D01*
X0122567Y0212420D01*
X0124419Y0212420D01*
X0125633Y0213037D02*
X0128102Y0213037D01*
X0129316Y0211803D02*
X0129934Y0211185D01*
X0131168Y0211185D01*
X0131785Y0211803D01*
X0131785Y0214271D01*
X0131168Y0214889D01*
X0129934Y0214889D01*
X0129316Y0214271D01*
X0120736Y0213037D02*
X0118267Y0213037D01*
X0117053Y0211185D02*
X0114584Y0214889D01*
X0113370Y0214889D02*
X0110901Y0211185D01*
X0113370Y0211185D02*
X0110901Y0214889D01*
X0106003Y0214271D02*
X0106003Y0213654D01*
X0105386Y0213037D01*
X0104152Y0213037D01*
X0103534Y0212420D01*
X0103534Y0211803D01*
X0104152Y0211185D01*
X0105386Y0211185D01*
X0106003Y0211803D01*
X0106003Y0214271D02*
X0105386Y0214889D01*
X0104152Y0214889D01*
X0103534Y0214271D01*
X0102320Y0213037D02*
X0099851Y0213037D01*
X0098637Y0212420D02*
X0096785Y0212420D01*
X0096168Y0213037D01*
X0096168Y0214271D01*
X0096785Y0214889D01*
X0098637Y0214889D01*
X0098637Y0211185D01*
X0094954Y0211803D02*
X0094337Y0212420D01*
X0092485Y0212420D01*
X0092485Y0213037D02*
X0092485Y0211185D01*
X0094337Y0211185D01*
X0094954Y0211803D01*
X0094337Y0213654D02*
X0093102Y0213654D01*
X0092485Y0213037D01*
X0091271Y0213037D02*
X0091271Y0211803D01*
X0090653Y0211185D01*
X0088802Y0211185D01*
X0087588Y0211185D02*
X0087588Y0214889D01*
X0088802Y0213654D02*
X0090653Y0213654D01*
X0091271Y0213037D01*
X0087588Y0212420D02*
X0085736Y0213654D01*
X0083901Y0213654D02*
X0082667Y0213654D01*
X0082049Y0213037D01*
X0082049Y0211185D01*
X0083901Y0211185D01*
X0084518Y0211803D01*
X0083901Y0212420D01*
X0082049Y0212420D01*
X0080835Y0213037D02*
X0080835Y0211803D01*
X0080218Y0211185D01*
X0078366Y0211185D01*
X0078366Y0210568D02*
X0078366Y0213654D01*
X0080218Y0213654D01*
X0080835Y0213037D01*
X0079601Y0209951D02*
X0078984Y0209951D01*
X0078366Y0210568D01*
X0077152Y0211803D02*
X0077152Y0213037D01*
X0076535Y0213654D01*
X0075300Y0213654D01*
X0074683Y0213037D01*
X0074683Y0212420D01*
X0077152Y0212420D01*
X0077152Y0211803D02*
X0076535Y0211185D01*
X0075300Y0211185D01*
X0070516Y0218729D02*
X0070516Y0222369D01*
X0068696Y0222369D01*
X0068089Y0221762D01*
X0068089Y0221155D01*
X0068696Y0220549D01*
X0070516Y0220549D01*
X0068696Y0220549D02*
X0068089Y0219942D01*
X0068089Y0219335D01*
X0068696Y0218729D01*
X0070516Y0218729D01*
X0066891Y0218729D02*
X0066891Y0221155D01*
X0065678Y0222369D01*
X0064464Y0221155D01*
X0064464Y0218729D01*
X0063266Y0218729D02*
X0063266Y0222369D01*
X0064464Y0220549D02*
X0066891Y0220549D01*
X0063266Y0218729D02*
X0060839Y0218729D01*
X0075300Y0257524D02*
X0076535Y0257524D01*
X0077152Y0258141D01*
X0077152Y0259376D01*
X0076535Y0259993D01*
X0075300Y0259993D01*
X0074683Y0259376D01*
X0074683Y0258758D01*
X0077152Y0258758D01*
X0078366Y0257524D02*
X0080218Y0257524D01*
X0080835Y0258141D01*
X0080835Y0259376D01*
X0080218Y0259993D01*
X0078366Y0259993D01*
X0078366Y0256907D01*
X0078984Y0256290D01*
X0079601Y0256290D01*
X0082049Y0257524D02*
X0082049Y0259376D01*
X0082667Y0259993D01*
X0083901Y0259993D01*
X0083901Y0258758D02*
X0082049Y0258758D01*
X0082049Y0257524D02*
X0083901Y0257524D01*
X0084518Y0258141D01*
X0083901Y0258758D01*
X0085736Y0257524D02*
X0087588Y0258758D01*
X0085736Y0259993D01*
X0087588Y0261227D02*
X0087588Y0257524D01*
X0088802Y0257524D02*
X0090653Y0257524D01*
X0091271Y0258141D01*
X0091271Y0259376D01*
X0090653Y0259993D01*
X0088802Y0259993D01*
X0092485Y0259376D02*
X0092485Y0257524D01*
X0094337Y0257524D01*
X0094954Y0258141D01*
X0094337Y0258758D01*
X0092485Y0258758D01*
X0092485Y0259376D02*
X0093102Y0259993D01*
X0094337Y0259993D01*
X0096168Y0260610D02*
X0096168Y0259376D01*
X0096785Y0258758D01*
X0098637Y0258758D01*
X0098637Y0257524D02*
X0098637Y0261227D01*
X0096785Y0261227D01*
X0096168Y0260610D01*
X0099851Y0259376D02*
X0102320Y0259376D01*
X0103534Y0261227D02*
X0103534Y0257524D01*
X0104769Y0258758D01*
X0106003Y0257524D01*
X0106003Y0261227D01*
X0110901Y0261227D02*
X0113370Y0257524D01*
X0114584Y0257524D02*
X0117053Y0261227D01*
X0118267Y0259376D02*
X0120736Y0259376D01*
X0121950Y0259376D02*
X0122567Y0258758D01*
X0124419Y0258758D01*
X0124419Y0257524D02*
X0124419Y0261227D01*
X0122567Y0261227D01*
X0121950Y0260610D01*
X0121950Y0259376D01*
X0125633Y0259376D02*
X0128102Y0259376D01*
X0128102Y0259993D02*
X0126868Y0261227D01*
X0125633Y0259993D01*
X0125633Y0257524D01*
X0128102Y0257524D02*
X0128102Y0259993D01*
X0129316Y0260610D02*
X0129934Y0261227D01*
X0131168Y0261227D01*
X0131785Y0260610D01*
X0131785Y0258141D01*
X0131168Y0257524D01*
X0129934Y0257524D01*
X0129316Y0258141D01*
X0126667Y0240085D02*
X0124847Y0240085D01*
X0124240Y0239479D01*
X0124240Y0238872D01*
X0124847Y0238265D01*
X0126667Y0238265D01*
X0126667Y0236445D02*
X0126667Y0240085D01*
X0124847Y0238265D02*
X0124240Y0237659D01*
X0124240Y0237052D01*
X0124847Y0236445D01*
X0126667Y0236445D01*
X0123042Y0236445D02*
X0123042Y0238872D01*
X0121829Y0240085D01*
X0120615Y0238872D01*
X0120615Y0236445D01*
X0119417Y0236445D02*
X0116990Y0236445D01*
X0119417Y0236445D02*
X0119417Y0240085D01*
X0120615Y0238265D02*
X0123042Y0238265D01*
X0117053Y0257524D02*
X0114584Y0261227D01*
X0113370Y0261227D02*
X0110901Y0257524D01*
X0117053Y0214889D02*
X0114584Y0211185D01*
X0138644Y0218729D02*
X0141070Y0218729D01*
X0141070Y0222369D01*
X0142269Y0221155D02*
X0142269Y0218729D01*
X0142269Y0220549D02*
X0144695Y0220549D01*
X0144695Y0221155D02*
X0143482Y0222369D01*
X0142269Y0221155D01*
X0144695Y0221155D02*
X0144695Y0218729D01*
X0145894Y0219335D02*
X0146501Y0218729D01*
X0148321Y0218729D01*
X0148321Y0222369D01*
X0146501Y0222369D01*
X0145894Y0221762D01*
X0145894Y0221155D01*
X0146501Y0220549D01*
X0148321Y0220549D01*
X0146501Y0220549D02*
X0145894Y0219942D01*
X0145894Y0219335D01*
X0132310Y0306461D02*
X0131075Y0306461D01*
X0130458Y0307078D01*
X0129244Y0306461D02*
X0129244Y0308930D01*
X0128009Y0310164D01*
X0126775Y0308930D01*
X0126775Y0306461D01*
X0125561Y0306461D02*
X0125561Y0310164D01*
X0123709Y0310164D01*
X0123092Y0309547D01*
X0123092Y0308313D01*
X0123709Y0307695D01*
X0125561Y0307695D01*
X0126775Y0308313D02*
X0129244Y0308313D01*
X0130458Y0309547D02*
X0131075Y0310164D01*
X0132310Y0310164D01*
X0132927Y0309547D01*
X0132927Y0307078D01*
X0132310Y0306461D01*
X0121878Y0308313D02*
X0119409Y0308313D01*
X0118194Y0310164D02*
X0115726Y0306461D01*
X0114511Y0306461D02*
X0112042Y0310164D01*
X0114511Y0310164D02*
X0112042Y0306461D01*
X0115726Y0310164D02*
X0118194Y0306461D01*
X0107145Y0306461D02*
X0107145Y0308930D01*
X0105911Y0310164D01*
X0104676Y0308930D01*
X0104676Y0306461D01*
X0104676Y0308313D02*
X0107145Y0308313D01*
X0099779Y0307695D02*
X0097927Y0307695D01*
X0097310Y0308313D01*
X0097310Y0309547D01*
X0097927Y0310164D01*
X0099779Y0310164D01*
X0099779Y0306461D01*
X0096096Y0307078D02*
X0095478Y0307695D01*
X0093627Y0307695D01*
X0093627Y0308313D02*
X0093627Y0306461D01*
X0095478Y0306461D01*
X0096096Y0307078D01*
X0095478Y0308930D02*
X0094244Y0308930D01*
X0093627Y0308313D01*
X0092412Y0308313D02*
X0092412Y0307078D01*
X0091795Y0306461D01*
X0089944Y0306461D01*
X0088729Y0306461D02*
X0088729Y0310164D01*
X0089944Y0308930D02*
X0091795Y0308930D01*
X0092412Y0308313D01*
X0088729Y0307695D02*
X0086878Y0308930D01*
X0085043Y0308930D02*
X0083808Y0308930D01*
X0083191Y0308313D01*
X0083191Y0306461D01*
X0085043Y0306461D01*
X0085660Y0307078D01*
X0085043Y0307695D01*
X0083191Y0307695D01*
X0081977Y0307078D02*
X0081360Y0306461D01*
X0079508Y0306461D01*
X0079508Y0305844D02*
X0079508Y0308930D01*
X0081360Y0308930D01*
X0081977Y0308313D01*
X0081977Y0307078D01*
X0080742Y0305227D02*
X0080125Y0305227D01*
X0079508Y0305844D01*
X0078294Y0307078D02*
X0078294Y0308313D01*
X0077677Y0308930D01*
X0076442Y0308930D01*
X0075825Y0308313D01*
X0075825Y0307695D01*
X0078294Y0307695D01*
X0078294Y0307078D02*
X0077677Y0306461D01*
X0076442Y0306461D01*
X0080047Y0299141D02*
X0080047Y0295500D01*
X0077620Y0295500D01*
X0081245Y0295500D02*
X0081245Y0297927D01*
X0082458Y0299141D01*
X0083672Y0297927D01*
X0083672Y0295500D01*
X0084870Y0296107D02*
X0085477Y0295500D01*
X0087297Y0295500D01*
X0087297Y0299141D01*
X0085477Y0299141D01*
X0084870Y0298534D01*
X0084870Y0297927D01*
X0085477Y0297320D01*
X0087297Y0297320D01*
X0085477Y0297320D02*
X0084870Y0296714D01*
X0084870Y0296107D01*
X0083672Y0297320D02*
X0081245Y0297320D01*
X0086878Y0306461D02*
X0088729Y0307695D01*
X0087588Y0212420D02*
X0085736Y0211185D01*
X0085927Y0078928D02*
X0085927Y0075225D01*
X0084693Y0076459D01*
X0083459Y0075225D01*
X0083459Y0078928D01*
X0082244Y0078928D02*
X0082244Y0075225D01*
X0082244Y0076459D02*
X0080393Y0076459D01*
X0079775Y0077076D01*
X0079775Y0078311D01*
X0080393Y0078928D01*
X0082244Y0078928D01*
X0081010Y0076459D02*
X0079775Y0075225D01*
X0078561Y0075842D02*
X0077944Y0075225D01*
X0076709Y0075225D01*
X0076092Y0075842D01*
X0076092Y0076459D01*
X0076709Y0077076D01*
X0077944Y0077076D01*
X0078561Y0077694D01*
X0078561Y0078311D01*
X0077944Y0078928D01*
X0076709Y0078928D01*
X0076092Y0078311D01*
X0074878Y0078928D02*
X0074878Y0075225D01*
X0074878Y0076459D02*
X0073026Y0076459D01*
X0072409Y0077076D01*
X0072409Y0078311D01*
X0073026Y0078928D01*
X0074878Y0078928D01*
X0073644Y0076459D02*
X0072409Y0075225D01*
X0071195Y0075842D02*
X0070578Y0075225D01*
X0069343Y0075225D01*
X0068726Y0075842D01*
X0068726Y0078311D02*
X0069343Y0078928D01*
X0070578Y0078928D01*
X0071195Y0078311D01*
X0071195Y0075842D01*
X0071200Y0057672D02*
X0073669Y0057672D01*
X0073669Y0055203D02*
X0071200Y0055203D01*
X0069966Y0056437D01*
X0071200Y0057672D01*
X0069966Y0053989D02*
X0069966Y0051520D01*
X0073669Y0051520D01*
X0073669Y0050306D02*
X0069966Y0050306D01*
X0073669Y0047837D01*
X0069966Y0047837D01*
X0069966Y0046622D02*
X0069966Y0044154D01*
X0073669Y0044154D01*
X0073669Y0046622D01*
X0071817Y0045388D02*
X0071817Y0044154D01*
X0087759Y0076459D02*
X0089610Y0076459D01*
X0089610Y0075225D02*
X0089610Y0078928D01*
X0087759Y0078928D01*
X0087142Y0078311D01*
X0087142Y0077076D01*
X0087759Y0076459D01*
X0101061Y0066070D02*
X0103530Y0066070D01*
X0103530Y0062367D01*
X0104744Y0062367D02*
X0105979Y0063601D01*
X0105361Y0063601D02*
X0107213Y0063601D01*
X0107213Y0062367D02*
X0107213Y0066070D01*
X0105361Y0066070D01*
X0104744Y0065452D01*
X0104744Y0064218D01*
X0105361Y0063601D01*
X0103530Y0064218D02*
X0102295Y0064218D01*
X0108427Y0062367D02*
X0108427Y0066070D01*
X0110896Y0066070D02*
X0108427Y0062367D01*
X0110896Y0062367D02*
X0110896Y0066070D01*
X0112111Y0066070D02*
X0112111Y0062367D01*
X0114579Y0066070D01*
X0114579Y0062367D01*
X0115794Y0062367D02*
X0118262Y0062367D01*
X0118262Y0066070D01*
X0115794Y0066070D01*
X0117028Y0064218D02*
X0118262Y0064218D01*
X0154604Y0039862D02*
X0155222Y0040479D01*
X0157073Y0040479D01*
X0157073Y0036776D01*
X0155222Y0036776D01*
X0154604Y0037393D01*
X0154604Y0039862D01*
X0158288Y0040479D02*
X0158288Y0036776D01*
X0160756Y0040479D01*
X0160756Y0036776D01*
X0161971Y0037393D02*
X0161971Y0038628D01*
X0163205Y0038628D01*
X0161971Y0039862D02*
X0162588Y0040479D01*
X0163822Y0040479D01*
X0164439Y0039862D01*
X0164439Y0037393D01*
X0163822Y0036776D01*
X0162588Y0036776D01*
X0161971Y0037393D01*
X0162588Y0030243D02*
X0163822Y0030243D01*
X0164439Y0029626D01*
X0164439Y0027157D01*
X0163822Y0026540D01*
X0162588Y0026540D01*
X0161971Y0027157D01*
X0161971Y0028391D01*
X0163205Y0028391D01*
X0161971Y0029626D02*
X0162588Y0030243D01*
X0160756Y0030243D02*
X0160756Y0026540D01*
X0158288Y0026540D02*
X0158288Y0030243D01*
X0157073Y0030243D02*
X0157073Y0026540D01*
X0155222Y0026540D01*
X0154604Y0027157D01*
X0154604Y0029626D01*
X0155222Y0030243D01*
X0157073Y0030243D01*
X0160756Y0030243D02*
X0158288Y0026540D01*
X0054571Y0026603D02*
X0054571Y0030306D01*
X0054571Y0028454D02*
X0052102Y0028454D01*
X0050888Y0027837D02*
X0049654Y0026603D01*
X0048419Y0027837D01*
X0048419Y0030306D01*
X0050888Y0030306D02*
X0050888Y0027837D01*
X0052102Y0026603D02*
X0052102Y0030306D01*
X0052102Y0036839D02*
X0054571Y0036839D01*
X0054571Y0040542D01*
X0052212Y0044350D02*
X0048509Y0044350D01*
X0048509Y0046819D01*
X0048509Y0048034D02*
X0052212Y0048034D01*
X0048509Y0050502D01*
X0052212Y0050502D01*
X0052212Y0051717D02*
X0048509Y0051717D01*
X0050360Y0051717D02*
X0050360Y0054186D01*
X0049743Y0055400D02*
X0048509Y0056634D01*
X0049743Y0057869D01*
X0052212Y0057869D01*
X0052212Y0055400D02*
X0049743Y0055400D01*
X0048509Y0054186D02*
X0052212Y0054186D01*
X0052212Y0046819D02*
X0052212Y0044350D01*
X0050360Y0044350D02*
X0050360Y0045585D01*
X0050888Y0040542D02*
X0050888Y0038073D01*
X0049654Y0036839D01*
X0048419Y0038073D01*
X0048419Y0040542D01*
D11*
X0054451Y0328214D02*
X0054451Y0332484D01*
X0056586Y0330349D02*
X0052316Y0330349D01*
X0066262Y0379395D02*
X0066262Y0383665D01*
X0064127Y0381530D02*
X0068398Y0381530D01*
X0138930Y0381530D02*
X0143201Y0381530D01*
X0154877Y0331417D02*
X0154877Y0327146D01*
X0157013Y0329282D02*
X0152742Y0329282D01*
D12*
X0181589Y0107360D03*
D13*
X0180289Y0102710D03*
X0180989Y0096710D03*
X0180989Y0093560D03*
X0183989Y0092010D03*
X0175089Y0106610D03*
X0175089Y0106660D03*
X0175089Y0106710D03*
X0175089Y0106760D03*
X0175089Y0106810D03*
X0175089Y0106860D03*
X0175089Y0106910D03*
X0175089Y0106960D03*
X0175089Y0107010D03*
X0175089Y0107060D03*
X0175089Y0107110D03*
X0175089Y0107160D03*
X0175089Y0107210D03*
X0175089Y0107260D03*
X0175089Y0107310D03*
X0175089Y0063310D03*
X0175089Y0063260D03*
X0175089Y0063210D03*
X0175089Y0063160D03*
X0175089Y0063110D03*
X0175089Y0063060D03*
X0175089Y0063010D03*
X0175089Y0062960D03*
D14*
X0158364Y0088160D03*
X0181614Y0107210D03*
X0181614Y0107260D03*
X0181614Y0107310D03*
D15*
X0181589Y0107160D03*
X0181589Y0107110D03*
X0181589Y0107060D03*
X0181589Y0107010D03*
X0181589Y0106960D03*
X0181589Y0106910D03*
X0181589Y0106860D03*
X0181589Y0106810D03*
D16*
X0181564Y0106760D03*
X0181564Y0106710D03*
X0181564Y0106660D03*
X0181564Y0106610D03*
X0181564Y0106560D03*
X0181564Y0106510D03*
X0181564Y0106460D03*
X0181564Y0106410D03*
X0181564Y0106360D03*
X0181564Y0106310D03*
X0181564Y0106260D03*
X0181564Y0106210D03*
X0181564Y0106160D03*
X0181564Y0106110D03*
X0181564Y0106060D03*
X0181564Y0106010D03*
X0181564Y0080910D03*
X0181564Y0080860D03*
X0181564Y0080810D03*
X0181564Y0080760D03*
X0181564Y0080710D03*
X0181564Y0080660D03*
X0181564Y0080610D03*
X0181564Y0080560D03*
X0181564Y0080510D03*
X0181564Y0080460D03*
X0181564Y0080410D03*
X0181564Y0080360D03*
X0181564Y0080310D03*
X0181564Y0080260D03*
X0181564Y0080210D03*
X0181564Y0080160D03*
X0181564Y0080110D03*
X0181564Y0080060D03*
X0181564Y0080010D03*
X0181564Y0079960D03*
X0181564Y0079910D03*
X0181564Y0079860D03*
X0181564Y0079810D03*
X0181564Y0079760D03*
X0181564Y0079710D03*
X0181564Y0079660D03*
X0181564Y0079610D03*
X0181564Y0079560D03*
X0181564Y0079510D03*
X0181564Y0079460D03*
X0181564Y0079410D03*
X0181564Y0074010D03*
X0181564Y0073960D03*
X0181564Y0073910D03*
X0181564Y0073860D03*
X0181564Y0073810D03*
X0181564Y0073760D03*
X0181564Y0073710D03*
X0181564Y0073660D03*
X0181564Y0073610D03*
X0181564Y0073560D03*
X0181564Y0073510D03*
X0181564Y0073460D03*
X0181564Y0073410D03*
X0181564Y0073360D03*
X0181564Y0073310D03*
X0181564Y0073260D03*
X0181564Y0073210D03*
X0181564Y0073160D03*
X0181564Y0073110D03*
X0181564Y0073060D03*
X0181564Y0073010D03*
X0181564Y0072960D03*
X0181564Y0072910D03*
X0181564Y0072860D03*
X0181564Y0072810D03*
X0181564Y0072760D03*
X0181564Y0072710D03*
X0181564Y0072660D03*
X0181564Y0072610D03*
X0181564Y0072560D03*
X0181564Y0072510D03*
D17*
X0175064Y0072510D03*
X0175064Y0072460D03*
X0175064Y0072410D03*
X0175064Y0072360D03*
X0175064Y0072310D03*
X0175064Y0072260D03*
X0175064Y0072210D03*
X0175064Y0072160D03*
X0175064Y0072110D03*
X0175064Y0072060D03*
X0175064Y0072010D03*
X0175064Y0071960D03*
X0175064Y0071910D03*
X0175064Y0071860D03*
X0175064Y0071810D03*
X0175064Y0071760D03*
X0175064Y0071710D03*
X0175064Y0071660D03*
X0175064Y0071610D03*
X0175064Y0071560D03*
X0175064Y0071510D03*
X0175064Y0071460D03*
X0175064Y0071410D03*
X0175064Y0071360D03*
X0175064Y0071310D03*
X0175064Y0071260D03*
X0175064Y0071210D03*
X0175064Y0071160D03*
X0175064Y0071110D03*
X0175064Y0071060D03*
X0175064Y0071010D03*
X0175064Y0070960D03*
X0175064Y0070910D03*
X0175064Y0070860D03*
X0175064Y0070810D03*
X0175064Y0070760D03*
X0175064Y0070710D03*
X0175064Y0070660D03*
X0175064Y0070610D03*
X0175064Y0070560D03*
X0175064Y0070510D03*
X0175064Y0070460D03*
X0175064Y0070410D03*
X0175064Y0070360D03*
X0175064Y0070310D03*
X0175064Y0070260D03*
X0175064Y0070210D03*
X0175064Y0070160D03*
X0175064Y0070110D03*
X0175064Y0070060D03*
X0175064Y0070010D03*
X0175064Y0069960D03*
X0175064Y0069910D03*
X0175064Y0069860D03*
X0175064Y0069810D03*
X0175064Y0069760D03*
X0175064Y0069710D03*
X0175064Y0069660D03*
X0175064Y0069610D03*
X0175064Y0069560D03*
X0175064Y0069510D03*
X0175064Y0069460D03*
X0175064Y0072560D03*
X0175064Y0072610D03*
X0175064Y0072660D03*
X0175064Y0072710D03*
X0175064Y0072760D03*
X0175064Y0072810D03*
X0175064Y0072860D03*
X0175064Y0072910D03*
X0175064Y0072960D03*
X0175064Y0073010D03*
X0175064Y0073060D03*
X0175064Y0073110D03*
X0175064Y0073160D03*
X0175064Y0073210D03*
X0175064Y0073260D03*
X0175064Y0073310D03*
X0175064Y0073360D03*
X0175064Y0073410D03*
X0175064Y0073460D03*
X0175064Y0073510D03*
X0175064Y0073560D03*
X0175064Y0073610D03*
X0175064Y0073660D03*
X0175064Y0073710D03*
X0175064Y0073760D03*
X0175064Y0073810D03*
X0175064Y0073860D03*
X0175064Y0073910D03*
X0175064Y0073960D03*
X0175064Y0074010D03*
X0175064Y0074060D03*
X0175064Y0074110D03*
X0175064Y0074160D03*
X0175064Y0074210D03*
X0175064Y0074260D03*
X0175064Y0074310D03*
X0175064Y0074360D03*
X0175064Y0074410D03*
X0175064Y0074460D03*
X0175064Y0074510D03*
X0175064Y0074560D03*
X0175064Y0074610D03*
X0175064Y0074660D03*
X0175064Y0074710D03*
X0175064Y0074760D03*
X0175064Y0074810D03*
X0175064Y0074860D03*
X0175064Y0074910D03*
X0175064Y0074960D03*
X0175064Y0075010D03*
X0175064Y0075060D03*
X0175064Y0075110D03*
X0175064Y0075160D03*
X0175064Y0075210D03*
X0175064Y0075260D03*
X0175064Y0075310D03*
X0175064Y0075360D03*
X0175064Y0075410D03*
X0175064Y0075460D03*
X0175064Y0075510D03*
X0175064Y0075560D03*
X0175064Y0075610D03*
X0175064Y0075660D03*
X0175064Y0075710D03*
X0175064Y0075760D03*
X0175064Y0075810D03*
X0175064Y0075860D03*
X0175064Y0075910D03*
X0175064Y0075960D03*
X0175064Y0076010D03*
X0175064Y0076060D03*
X0175064Y0076110D03*
X0175064Y0076160D03*
X0175064Y0076210D03*
X0175064Y0076260D03*
X0175064Y0076310D03*
X0175064Y0076360D03*
X0175064Y0076410D03*
X0175064Y0076460D03*
X0175064Y0076510D03*
X0175064Y0076560D03*
X0175064Y0076610D03*
X0175064Y0076660D03*
X0175064Y0076710D03*
X0175064Y0076760D03*
X0175064Y0076810D03*
X0175064Y0076860D03*
X0175064Y0076910D03*
X0175064Y0076960D03*
X0175064Y0077010D03*
X0175064Y0077060D03*
X0175064Y0077110D03*
X0175064Y0077160D03*
X0175064Y0077210D03*
X0175064Y0077260D03*
X0175064Y0077310D03*
X0175064Y0077360D03*
X0175064Y0077410D03*
X0175064Y0077460D03*
X0175064Y0077510D03*
X0175064Y0077560D03*
X0175064Y0077610D03*
X0175064Y0077660D03*
X0175064Y0077710D03*
X0175064Y0077760D03*
X0175064Y0077810D03*
X0175064Y0077860D03*
X0175064Y0077910D03*
X0175064Y0077960D03*
X0175064Y0078010D03*
X0175064Y0078060D03*
X0175064Y0078110D03*
X0175064Y0078160D03*
X0175064Y0078210D03*
X0175064Y0078260D03*
X0175064Y0078310D03*
X0175064Y0078360D03*
X0175064Y0078410D03*
X0175064Y0078460D03*
X0175064Y0078510D03*
X0175064Y0078560D03*
X0175064Y0078610D03*
X0175064Y0078660D03*
X0175064Y0078710D03*
X0175064Y0078760D03*
X0175064Y0078810D03*
X0175064Y0078860D03*
X0175064Y0078910D03*
X0175064Y0078960D03*
X0175064Y0079010D03*
X0175064Y0079060D03*
X0175064Y0079110D03*
X0175064Y0079160D03*
X0175064Y0079210D03*
X0175064Y0079260D03*
X0175064Y0079310D03*
X0175064Y0079360D03*
X0175064Y0079410D03*
X0175064Y0079460D03*
X0175064Y0079510D03*
X0175064Y0079560D03*
X0175064Y0079610D03*
X0175064Y0079660D03*
X0175064Y0079710D03*
X0175064Y0079760D03*
X0175064Y0079810D03*
X0175064Y0079860D03*
X0175064Y0079910D03*
X0175064Y0079960D03*
X0175064Y0080010D03*
X0175064Y0080060D03*
X0175064Y0080110D03*
X0175064Y0080160D03*
X0175064Y0080210D03*
X0175064Y0080260D03*
X0175064Y0080310D03*
X0175064Y0080360D03*
X0175064Y0080410D03*
X0175064Y0080460D03*
X0175064Y0080510D03*
X0175064Y0080560D03*
X0175064Y0080610D03*
X0175064Y0080660D03*
X0175064Y0080710D03*
X0175064Y0080760D03*
X0175064Y0080810D03*
X0175064Y0080860D03*
X0175064Y0080910D03*
X0175064Y0080960D03*
X0175064Y0081010D03*
X0175064Y0081060D03*
X0175064Y0081110D03*
X0175064Y0081160D03*
X0175064Y0081210D03*
X0175064Y0081260D03*
X0175064Y0087010D03*
X0175064Y0087060D03*
X0175064Y0087110D03*
X0175064Y0087160D03*
X0175064Y0087210D03*
X0175064Y0087260D03*
X0175064Y0087310D03*
X0175064Y0087360D03*
X0175064Y0087410D03*
X0175064Y0087460D03*
X0175064Y0087510D03*
X0175064Y0087560D03*
X0175064Y0087610D03*
X0175064Y0087660D03*
X0175064Y0087710D03*
X0175064Y0087760D03*
X0175064Y0087810D03*
X0175064Y0087860D03*
X0175064Y0087910D03*
X0175064Y0087960D03*
X0175064Y0088010D03*
X0175064Y0088060D03*
X0175064Y0088110D03*
X0175064Y0088160D03*
X0175064Y0088210D03*
X0175064Y0088260D03*
X0175064Y0088310D03*
X0175064Y0088360D03*
X0175064Y0088410D03*
X0175064Y0088460D03*
X0175064Y0088510D03*
X0175064Y0088560D03*
X0175064Y0088610D03*
X0175064Y0088660D03*
X0175064Y0088710D03*
X0175064Y0088760D03*
X0175064Y0088810D03*
X0175064Y0088860D03*
X0175064Y0088910D03*
X0175064Y0088960D03*
X0175064Y0089010D03*
X0175064Y0089060D03*
X0175064Y0089110D03*
X0175064Y0089160D03*
X0175064Y0089210D03*
X0175064Y0089260D03*
X0175064Y0089310D03*
X0175064Y0089360D03*
X0175064Y0089410D03*
X0175064Y0089460D03*
X0175064Y0089510D03*
X0175064Y0089560D03*
X0175064Y0089610D03*
X0175064Y0089660D03*
X0175064Y0089710D03*
X0175064Y0089760D03*
X0175064Y0089810D03*
X0175064Y0089860D03*
X0175064Y0089910D03*
X0175064Y0089960D03*
X0175064Y0090010D03*
X0175064Y0090060D03*
X0175064Y0090110D03*
X0175064Y0090160D03*
X0175064Y0090210D03*
X0175064Y0090260D03*
X0175064Y0090310D03*
X0175064Y0090360D03*
X0175064Y0090410D03*
X0175064Y0090460D03*
X0175064Y0090510D03*
X0175064Y0090560D03*
X0175064Y0090610D03*
X0175064Y0090660D03*
X0175064Y0090710D03*
X0175064Y0090760D03*
X0175064Y0090810D03*
X0175064Y0090860D03*
X0175064Y0090910D03*
X0175064Y0090960D03*
X0175064Y0091010D03*
X0175064Y0091060D03*
X0175064Y0091110D03*
X0175064Y0091160D03*
X0175064Y0091210D03*
X0175064Y0091260D03*
X0175064Y0091310D03*
X0175064Y0091360D03*
X0175064Y0091410D03*
X0175064Y0091460D03*
X0175064Y0091510D03*
X0175064Y0091560D03*
X0175064Y0091610D03*
X0175064Y0091660D03*
X0175064Y0091710D03*
X0175064Y0091760D03*
X0175064Y0091810D03*
X0175064Y0091860D03*
X0175064Y0091910D03*
X0175064Y0091960D03*
X0175064Y0092010D03*
X0175064Y0092060D03*
X0175064Y0092110D03*
X0175064Y0092160D03*
X0175064Y0092210D03*
X0175064Y0092260D03*
X0175064Y0092310D03*
X0175064Y0092360D03*
X0175064Y0092410D03*
X0175064Y0092460D03*
X0175064Y0092510D03*
X0175064Y0092560D03*
X0175064Y0092610D03*
X0175064Y0092660D03*
X0175064Y0092710D03*
X0175064Y0092760D03*
X0175064Y0092810D03*
X0175064Y0092860D03*
X0175064Y0092910D03*
X0175064Y0092960D03*
X0175064Y0093010D03*
X0175064Y0093060D03*
X0175064Y0093110D03*
X0175064Y0093160D03*
X0175064Y0093210D03*
X0175064Y0093260D03*
X0175064Y0093310D03*
X0175064Y0093360D03*
X0175064Y0093410D03*
X0175064Y0093460D03*
X0175064Y0093510D03*
X0175064Y0093560D03*
X0175064Y0093610D03*
X0175064Y0093660D03*
X0175064Y0093710D03*
X0175064Y0093760D03*
X0175064Y0093810D03*
X0175064Y0093860D03*
X0175064Y0093910D03*
X0175064Y0093960D03*
X0175064Y0094010D03*
X0175064Y0094060D03*
X0175064Y0094110D03*
X0175064Y0094160D03*
X0175064Y0094210D03*
X0175064Y0094260D03*
X0175064Y0094310D03*
X0175064Y0094360D03*
X0175064Y0094410D03*
X0175064Y0094460D03*
X0175064Y0094510D03*
X0175064Y0094560D03*
X0175064Y0094610D03*
X0175064Y0094660D03*
X0175064Y0094710D03*
X0175064Y0094760D03*
X0175064Y0094810D03*
X0175064Y0094860D03*
X0175064Y0094910D03*
X0175064Y0094960D03*
X0175064Y0095010D03*
X0175064Y0095060D03*
X0175064Y0095110D03*
X0175064Y0095160D03*
X0175064Y0095210D03*
X0175064Y0095260D03*
X0175064Y0095310D03*
X0175064Y0095360D03*
X0175064Y0095410D03*
X0175064Y0095460D03*
X0175064Y0095510D03*
X0175064Y0095560D03*
X0175064Y0095610D03*
X0175064Y0095660D03*
X0175064Y0095710D03*
X0175064Y0095760D03*
X0175064Y0095810D03*
X0175064Y0095860D03*
X0175064Y0095910D03*
X0175064Y0095960D03*
X0175064Y0096010D03*
X0175064Y0096060D03*
X0175064Y0096110D03*
X0175064Y0096160D03*
X0175064Y0096210D03*
X0175064Y0096260D03*
X0175064Y0096310D03*
X0175064Y0096360D03*
X0175064Y0096410D03*
X0175064Y0096460D03*
X0175064Y0096510D03*
X0175064Y0096560D03*
X0175064Y0096610D03*
X0175064Y0096660D03*
X0175064Y0096710D03*
X0175064Y0096760D03*
X0175064Y0096810D03*
X0175064Y0096860D03*
X0175064Y0096910D03*
X0175064Y0096960D03*
X0175064Y0097010D03*
X0175064Y0097060D03*
X0175064Y0097110D03*
X0175064Y0097160D03*
X0175064Y0097210D03*
X0175064Y0097260D03*
X0175064Y0097310D03*
X0175064Y0097360D03*
X0175064Y0097410D03*
X0175064Y0097460D03*
X0175064Y0097510D03*
X0175064Y0097560D03*
X0175064Y0097610D03*
X0175064Y0097660D03*
X0175064Y0097710D03*
X0175064Y0097760D03*
X0175064Y0097810D03*
X0175064Y0097860D03*
X0175064Y0097910D03*
X0175064Y0097960D03*
X0175064Y0098010D03*
X0175064Y0098060D03*
X0175064Y0098110D03*
X0175064Y0098160D03*
X0175064Y0098210D03*
X0175064Y0098260D03*
X0175064Y0098310D03*
X0175064Y0098360D03*
X0175064Y0098410D03*
X0175064Y0098460D03*
X0175064Y0098510D03*
X0175064Y0098560D03*
X0175064Y0098610D03*
X0175064Y0098660D03*
X0175064Y0098710D03*
X0175064Y0098760D03*
X0175064Y0098810D03*
X0175064Y0098860D03*
X0175064Y0098910D03*
X0175064Y0098960D03*
X0175064Y0099010D03*
X0175064Y0099060D03*
X0175064Y0099110D03*
X0175064Y0099160D03*
X0175064Y0099210D03*
X0175064Y0099260D03*
X0175064Y0099310D03*
X0175064Y0099360D03*
X0175064Y0099410D03*
X0175064Y0099460D03*
X0175064Y0099510D03*
X0175064Y0099560D03*
X0175064Y0099610D03*
X0175064Y0099660D03*
X0175064Y0099710D03*
X0175064Y0099760D03*
X0175064Y0099810D03*
X0175064Y0099860D03*
X0175064Y0099910D03*
X0175064Y0099960D03*
X0175064Y0100010D03*
X0175064Y0100060D03*
X0175064Y0100110D03*
X0175064Y0100160D03*
X0175064Y0100210D03*
X0175064Y0100260D03*
X0175064Y0100310D03*
X0175064Y0100360D03*
X0175064Y0100410D03*
X0175064Y0100460D03*
X0175064Y0100510D03*
X0175064Y0100560D03*
X0175064Y0100610D03*
X0175064Y0100660D03*
X0175064Y0100710D03*
X0175064Y0100760D03*
X0175064Y0106560D03*
X0182014Y0085560D03*
X0175064Y0063610D03*
X0175064Y0063560D03*
X0175064Y0063510D03*
X0175064Y0063460D03*
X0175064Y0063410D03*
X0175064Y0063360D03*
X0158264Y0087310D03*
D18*
X0175039Y0086960D03*
X0175039Y0081310D03*
X0181039Y0090510D03*
X0182539Y0089760D03*
X0181039Y0093660D03*
X0179289Y0104060D03*
X0175039Y0106460D03*
X0175039Y0106510D03*
X0175039Y0100810D03*
X0175039Y0069410D03*
X0175039Y0063660D03*
X0180939Y0065860D03*
D19*
X0175014Y0063710D03*
X0175014Y0069360D03*
X0175014Y0081360D03*
X0175014Y0086910D03*
X0181964Y0085610D03*
X0175014Y0100860D03*
X0175014Y0106410D03*
X0181364Y0104060D03*
D20*
X0180289Y0102760D03*
X0181139Y0100810D03*
X0182489Y0102260D03*
X0182439Y0097510D03*
X0181089Y0096660D03*
X0183889Y0094860D03*
X0183889Y0092260D03*
X0181939Y0085660D03*
X0174989Y0086860D03*
X0174989Y0081410D03*
X0174989Y0069310D03*
X0174989Y0063760D03*
X0174989Y0100910D03*
X0174989Y0106360D03*
D21*
X0174964Y0106310D03*
X0174964Y0101010D03*
X0174964Y0100960D03*
X0181114Y0093510D03*
X0183864Y0095160D03*
X0183814Y0100810D03*
X0174964Y0086810D03*
X0174964Y0081460D03*
X0174964Y0069260D03*
X0174964Y0069210D03*
X0174964Y0063810D03*
D22*
X0174939Y0063860D03*
X0174939Y0069160D03*
X0174939Y0081510D03*
X0174939Y0086760D03*
X0181889Y0085710D03*
X0182539Y0089710D03*
X0181139Y0090560D03*
X0183839Y0091960D03*
X0183789Y0098960D03*
X0181139Y0098960D03*
X0174939Y0101060D03*
X0174939Y0106260D03*
D23*
X0174914Y0106210D03*
X0174914Y0101110D03*
X0180314Y0102810D03*
X0182464Y0097560D03*
X0181164Y0096610D03*
X0181164Y0093710D03*
X0174914Y0086710D03*
X0174914Y0081560D03*
X0174914Y0069110D03*
X0174914Y0063960D03*
X0174914Y0063910D03*
D24*
X0174889Y0064010D03*
X0174889Y0069060D03*
X0174889Y0081610D03*
X0174889Y0086660D03*
X0181839Y0085760D03*
X0183789Y0094810D03*
X0182489Y0102210D03*
X0174889Y0101160D03*
X0174889Y0106110D03*
X0174889Y0106160D03*
D25*
X0174864Y0106060D03*
X0174864Y0101210D03*
X0181214Y0090610D03*
X0183764Y0092310D03*
X0181814Y0085810D03*
X0174864Y0086610D03*
X0174864Y0081660D03*
X0174864Y0069010D03*
X0174864Y0068960D03*
X0174864Y0064060D03*
D26*
X0174839Y0064110D03*
X0174839Y0068910D03*
X0174839Y0081710D03*
X0174839Y0086560D03*
X0181789Y0085860D03*
X0181239Y0093460D03*
X0174839Y0101260D03*
X0174839Y0106010D03*
D27*
X0174814Y0105960D03*
X0174814Y0101310D03*
X0180314Y0102860D03*
X0182464Y0097610D03*
X0181264Y0096560D03*
X0183714Y0095210D03*
X0182514Y0089660D03*
X0181764Y0085910D03*
X0174814Y0086510D03*
X0174814Y0081760D03*
X0174814Y0068860D03*
X0174814Y0064160D03*
D28*
X0158389Y0088210D03*
X0181539Y0105860D03*
X0181539Y0105910D03*
X0181539Y0105960D03*
D29*
X0182489Y0102160D03*
X0181289Y0093760D03*
X0183689Y0091910D03*
X0181289Y0090660D03*
X0181739Y0085960D03*
X0174789Y0086410D03*
X0174789Y0086460D03*
X0174789Y0081810D03*
X0174789Y0068810D03*
X0174789Y0064210D03*
X0174789Y0101360D03*
X0174789Y0105910D03*
D30*
X0174764Y0105860D03*
X0174764Y0101410D03*
X0180314Y0102910D03*
X0183664Y0094760D03*
X0183664Y0092360D03*
X0181714Y0086010D03*
X0174764Y0086360D03*
X0174764Y0081910D03*
X0174764Y0081860D03*
X0174764Y0068760D03*
X0174764Y0064260D03*
D31*
X0174739Y0064310D03*
X0174739Y0068660D03*
X0174739Y0068710D03*
X0174739Y0081960D03*
X0174739Y0086310D03*
X0181689Y0086060D03*
X0181339Y0096510D03*
X0174739Y0101460D03*
X0174739Y0105760D03*
X0174739Y0105810D03*
X0158289Y0087360D03*
D32*
X0178814Y0076810D03*
X0178714Y0076060D03*
X0180964Y0070060D03*
X0180614Y0069310D03*
X0180614Y0069260D03*
X0180964Y0067160D03*
X0180614Y0066360D03*
X0180614Y0086960D03*
X0180564Y0087010D03*
X0180664Y0088210D03*
X0182564Y0089860D03*
X0184364Y0087810D03*
X0184364Y0087760D03*
X0184364Y0087710D03*
X0180664Y0096910D03*
X0180564Y0099410D03*
X0180564Y0100310D03*
X0180564Y0100360D03*
X0180614Y0100410D03*
X0181914Y0104760D03*
X0181914Y0104810D03*
X0181914Y0104860D03*
X0181914Y0104910D03*
X0181914Y0104960D03*
X0181914Y0105010D03*
X0181964Y0105310D03*
X0178764Y0105510D03*
X0178764Y0105560D03*
X0178764Y0105610D03*
X0178764Y0105660D03*
X0178764Y0105710D03*
X0178764Y0105760D03*
X0178764Y0105810D03*
X0178764Y0105010D03*
X0178764Y0104960D03*
X0178764Y0104910D03*
X0178764Y0104860D03*
X0178814Y0104660D03*
X0178814Y0104610D03*
X0184364Y0100360D03*
X0184364Y0099410D03*
D33*
X0184389Y0099460D03*
X0184439Y0099610D03*
X0184439Y0100160D03*
X0184389Y0100260D03*
X0184389Y0100310D03*
X0180539Y0100260D03*
X0180539Y0100210D03*
X0180539Y0099560D03*
X0180539Y0099510D03*
X0180539Y0099460D03*
X0178789Y0104710D03*
X0178789Y0104760D03*
X0178789Y0104810D03*
X0178739Y0105060D03*
X0178739Y0105110D03*
X0178739Y0105160D03*
X0178739Y0105210D03*
X0178739Y0105260D03*
X0178739Y0105310D03*
X0178739Y0105360D03*
X0178739Y0105410D03*
X0178739Y0105460D03*
X0181939Y0105460D03*
X0181939Y0105410D03*
X0181939Y0105360D03*
X0181939Y0105260D03*
X0181939Y0105210D03*
X0181939Y0105160D03*
X0181939Y0105110D03*
X0181939Y0105060D03*
X0181939Y0105510D03*
X0181939Y0105560D03*
X0181939Y0105610D03*
X0181939Y0105660D03*
X0181939Y0105710D03*
X0181939Y0105760D03*
X0181939Y0105810D03*
X0180639Y0090260D03*
X0180639Y0088160D03*
X0180589Y0088110D03*
X0180539Y0087060D03*
X0184389Y0087510D03*
X0184389Y0087560D03*
X0184389Y0087610D03*
X0184389Y0087660D03*
X0184439Y0087460D03*
X0184439Y0087410D03*
X0184439Y0087360D03*
X0184439Y0087310D03*
X0184439Y0087260D03*
X0184439Y0087210D03*
X0184439Y0087160D03*
X0178689Y0075060D03*
X0180589Y0069460D03*
X0180589Y0069410D03*
X0180589Y0069360D03*
X0180939Y0067110D03*
X0180589Y0066510D03*
X0180589Y0066460D03*
X0180589Y0066410D03*
D34*
X0174714Y0064360D03*
X0174714Y0068610D03*
X0174714Y0082010D03*
X0174714Y0086260D03*
X0181664Y0086160D03*
X0181664Y0086110D03*
X0182514Y0089610D03*
X0181364Y0090710D03*
X0181364Y0093410D03*
X0182464Y0097660D03*
X0174714Y0101510D03*
X0174714Y0105710D03*
D35*
X0174689Y0105660D03*
X0174689Y0101560D03*
X0180289Y0102960D03*
X0182489Y0102110D03*
X0181639Y0086210D03*
X0174689Y0086210D03*
X0174689Y0082060D03*
X0174689Y0068560D03*
X0174689Y0064410D03*
D36*
X0174664Y0064460D03*
X0174664Y0068510D03*
X0174664Y0082110D03*
X0174664Y0086160D03*
X0181614Y0086260D03*
X0181614Y0086310D03*
X0181414Y0093810D03*
X0183564Y0095260D03*
X0181414Y0096460D03*
X0180314Y0103010D03*
X0174664Y0101610D03*
X0174664Y0105610D03*
D37*
X0174639Y0105560D03*
X0174639Y0101660D03*
X0174639Y0086110D03*
X0174639Y0082160D03*
X0181589Y0086360D03*
X0183539Y0091860D03*
X0183539Y0092410D03*
X0183539Y0094710D03*
X0174639Y0068460D03*
X0174639Y0064510D03*
D38*
X0174614Y0064560D03*
X0174614Y0068360D03*
X0174614Y0068410D03*
X0174614Y0082210D03*
X0174614Y0086060D03*
X0181564Y0086410D03*
X0181564Y0086460D03*
X0182514Y0089560D03*
X0181464Y0090760D03*
X0181464Y0093360D03*
X0182464Y0097710D03*
X0174614Y0101710D03*
X0174614Y0101760D03*
X0174614Y0105510D03*
D39*
X0174589Y0105460D03*
X0174589Y0101810D03*
X0180339Y0103060D03*
X0182489Y0102060D03*
X0181539Y0086610D03*
X0181539Y0086560D03*
X0181539Y0086510D03*
X0174589Y0086010D03*
X0174589Y0082260D03*
X0174589Y0068310D03*
X0174589Y0064660D03*
X0174589Y0064610D03*
D40*
X0174564Y0064710D03*
X0174564Y0068260D03*
X0174564Y0082310D03*
X0174564Y0085960D03*
X0181514Y0086660D03*
X0181514Y0086710D03*
X0181514Y0096410D03*
X0174564Y0101860D03*
X0174564Y0105360D03*
X0174564Y0105410D03*
D41*
X0174539Y0105310D03*
X0174539Y0101910D03*
X0180339Y0103110D03*
X0182489Y0102010D03*
X0183439Y0094660D03*
X0181539Y0093860D03*
X0183439Y0092460D03*
X0181539Y0090810D03*
X0182539Y0089510D03*
X0174539Y0085910D03*
X0174539Y0082360D03*
X0174539Y0068210D03*
X0174539Y0064760D03*
D42*
X0174514Y0064810D03*
X0174514Y0068110D03*
X0174514Y0068160D03*
X0174514Y0082410D03*
X0174514Y0085860D03*
X0174514Y0101960D03*
X0174514Y0105260D03*
X0182464Y0097760D03*
X0183414Y0095310D03*
X0183414Y0091810D03*
X0158314Y0087410D03*
D43*
X0174489Y0085810D03*
X0174489Y0082460D03*
X0181589Y0093310D03*
X0181589Y0096360D03*
X0180339Y0103160D03*
X0174489Y0102010D03*
X0174489Y0105210D03*
X0174489Y0068060D03*
X0174489Y0064860D03*
D44*
X0174464Y0064910D03*
X0174464Y0068010D03*
X0174464Y0082510D03*
X0174464Y0085710D03*
X0174464Y0085760D03*
X0181614Y0090860D03*
X0182514Y0089460D03*
X0182464Y0097810D03*
X0180314Y0103210D03*
X0174464Y0102060D03*
X0174464Y0105160D03*
D45*
X0174439Y0105110D03*
X0174439Y0102110D03*
X0181639Y0093910D03*
X0183339Y0094610D03*
X0183339Y0092510D03*
X0182489Y0101960D03*
X0174439Y0085660D03*
X0174439Y0082560D03*
X0174439Y0067960D03*
X0174439Y0064960D03*
D46*
X0174414Y0065010D03*
X0174414Y0067910D03*
X0174414Y0082610D03*
X0174414Y0082660D03*
X0174414Y0085610D03*
X0174414Y0102160D03*
X0174414Y0105010D03*
X0174414Y0105060D03*
X0180314Y0103260D03*
X0182464Y0097860D03*
X0182514Y0089410D03*
X0154014Y0093960D03*
X0154014Y0094010D03*
X0154014Y0094060D03*
X0154014Y0094110D03*
X0154014Y0094160D03*
X0154014Y0094210D03*
X0154014Y0094260D03*
X0153964Y0094510D03*
X0153964Y0094560D03*
X0153964Y0094610D03*
X0153964Y0094660D03*
X0153964Y0094710D03*
X0153964Y0094760D03*
X0153964Y0094810D03*
X0153964Y0094860D03*
X0153964Y0094910D03*
X0153964Y0094960D03*
X0153964Y0095010D03*
X0153964Y0095060D03*
X0153964Y0095110D03*
X0153964Y0095160D03*
X0153964Y0095210D03*
X0153964Y0095260D03*
X0153964Y0095310D03*
D47*
X0153989Y0095360D03*
X0153989Y0095410D03*
X0153989Y0095460D03*
X0153989Y0095510D03*
X0153989Y0095560D03*
X0153989Y0095610D03*
X0153989Y0095660D03*
X0153989Y0095710D03*
X0153989Y0095760D03*
X0153989Y0095810D03*
X0153989Y0095860D03*
X0153989Y0095910D03*
X0153989Y0095960D03*
X0153989Y0096010D03*
X0153989Y0096060D03*
X0153989Y0094460D03*
X0153989Y0094410D03*
X0153989Y0094360D03*
X0153989Y0094310D03*
X0154039Y0093910D03*
X0154039Y0093860D03*
X0154039Y0093810D03*
X0154039Y0093760D03*
X0162989Y0094560D03*
X0162989Y0094610D03*
X0162989Y0094660D03*
X0162989Y0094710D03*
X0162989Y0094760D03*
X0162989Y0094810D03*
X0162989Y0094860D03*
X0162989Y0094910D03*
X0162989Y0094960D03*
X0162989Y0095010D03*
X0162989Y0095060D03*
X0162989Y0095110D03*
X0162989Y0095160D03*
X0162989Y0095210D03*
X0162989Y0095260D03*
X0162989Y0095310D03*
X0162989Y0095360D03*
X0162989Y0095410D03*
X0162989Y0095460D03*
X0162989Y0095510D03*
X0162989Y0095560D03*
X0162989Y0095610D03*
X0162989Y0095660D03*
X0162989Y0095710D03*
X0162989Y0095760D03*
X0162989Y0095810D03*
X0162989Y0095860D03*
X0162989Y0095910D03*
X0162989Y0095960D03*
X0162989Y0096010D03*
X0162989Y0096060D03*
X0162939Y0096160D03*
X0162939Y0096210D03*
X0162939Y0096260D03*
X0162939Y0096310D03*
X0162939Y0096360D03*
X0162939Y0096410D03*
X0174389Y0102210D03*
X0174389Y0104960D03*
X0181689Y0096310D03*
X0183289Y0095360D03*
X0181689Y0093260D03*
X0183289Y0091760D03*
X0182489Y0101910D03*
X0174389Y0085560D03*
X0174389Y0082710D03*
X0174389Y0067860D03*
X0174389Y0067810D03*
X0174389Y0065060D03*
D48*
X0174364Y0065110D03*
X0174364Y0067760D03*
X0174364Y0082760D03*
X0174364Y0085510D03*
X0181714Y0090910D03*
X0180314Y0103310D03*
X0174364Y0102260D03*
X0174364Y0104910D03*
X0162914Y0096510D03*
X0162914Y0096460D03*
X0162964Y0096110D03*
X0162964Y0094510D03*
X0162964Y0094460D03*
X0162964Y0094410D03*
X0162964Y0094360D03*
X0162964Y0094310D03*
X0162964Y0094260D03*
X0162964Y0094210D03*
X0162964Y0094160D03*
X0162914Y0093960D03*
X0154064Y0093710D03*
X0154064Y0093660D03*
X0154064Y0093610D03*
X0154064Y0093560D03*
X0154064Y0093510D03*
X0154014Y0096110D03*
X0154014Y0096160D03*
X0154014Y0096210D03*
X0154014Y0096260D03*
X0154014Y0096310D03*
X0154014Y0096360D03*
D49*
X0154039Y0096410D03*
X0154039Y0096460D03*
X0154039Y0096510D03*
X0154089Y0093460D03*
X0154089Y0093410D03*
X0154089Y0093360D03*
X0154139Y0093260D03*
X0154139Y0093210D03*
X0162889Y0093710D03*
X0162889Y0093760D03*
X0162889Y0093810D03*
X0162889Y0093860D03*
X0162889Y0093910D03*
X0162939Y0094010D03*
X0162939Y0094060D03*
X0162939Y0094110D03*
X0174339Y0102310D03*
X0174339Y0104860D03*
X0181739Y0093960D03*
X0183239Y0094560D03*
X0183239Y0092560D03*
X0182489Y0089360D03*
X0182439Y0097910D03*
X0182489Y0101860D03*
X0174339Y0085460D03*
X0174339Y0082810D03*
X0174339Y0067710D03*
X0174339Y0065160D03*
D50*
X0174314Y0065210D03*
X0174314Y0067660D03*
X0174314Y0082860D03*
X0174314Y0085410D03*
X0181764Y0096260D03*
X0180314Y0103360D03*
X0180314Y0103410D03*
X0174314Y0102360D03*
X0174314Y0104810D03*
X0162864Y0093660D03*
X0162864Y0093610D03*
X0162864Y0093560D03*
X0162814Y0093460D03*
X0162814Y0093410D03*
X0158314Y0087460D03*
X0154164Y0093110D03*
X0154164Y0093160D03*
X0154114Y0093310D03*
D51*
X0154189Y0093060D03*
X0154189Y0093010D03*
X0154189Y0092960D03*
X0154239Y0092860D03*
X0162789Y0093310D03*
X0162789Y0093360D03*
X0162839Y0093510D03*
X0154239Y0076660D03*
X0154239Y0076610D03*
X0154239Y0076560D03*
X0154239Y0076510D03*
X0154239Y0076460D03*
X0154239Y0076410D03*
X0154239Y0076360D03*
X0154239Y0076310D03*
X0154239Y0076260D03*
X0154239Y0076210D03*
X0154239Y0076160D03*
X0154239Y0076110D03*
X0154239Y0076060D03*
X0154239Y0076010D03*
X0154239Y0075960D03*
X0154239Y0075910D03*
X0154239Y0075860D03*
X0154239Y0075810D03*
X0154239Y0075760D03*
X0154239Y0075710D03*
X0154239Y0075660D03*
X0154239Y0075610D03*
X0154239Y0075560D03*
X0154239Y0075510D03*
X0154239Y0075460D03*
X0154239Y0075410D03*
X0154239Y0075360D03*
X0154239Y0075310D03*
X0154239Y0075260D03*
X0154239Y0075210D03*
X0154239Y0075160D03*
X0154239Y0075110D03*
X0154239Y0075060D03*
X0154239Y0075010D03*
X0154239Y0074960D03*
X0154239Y0074910D03*
X0154239Y0074860D03*
X0154239Y0074810D03*
X0154239Y0074760D03*
X0154239Y0074710D03*
X0154239Y0074660D03*
X0154239Y0074610D03*
X0154239Y0074560D03*
X0154239Y0074510D03*
X0154239Y0074460D03*
X0154239Y0074410D03*
X0154239Y0074360D03*
X0154239Y0074310D03*
X0154239Y0074260D03*
X0154239Y0074210D03*
X0154239Y0074160D03*
X0154239Y0074110D03*
X0154239Y0074060D03*
X0154239Y0074010D03*
X0154239Y0073960D03*
X0154239Y0073910D03*
X0154239Y0073860D03*
X0154239Y0073810D03*
X0154239Y0073760D03*
X0154239Y0073710D03*
X0154239Y0073660D03*
X0154239Y0073610D03*
X0154239Y0073560D03*
X0154239Y0073510D03*
X0154239Y0073460D03*
X0154239Y0073410D03*
X0154239Y0073360D03*
X0154239Y0073310D03*
X0154239Y0073260D03*
X0154239Y0073210D03*
X0154239Y0073160D03*
X0154239Y0073110D03*
X0154239Y0073060D03*
X0154239Y0073010D03*
X0154239Y0072960D03*
X0154239Y0072910D03*
X0154239Y0072860D03*
X0154239Y0072810D03*
X0154239Y0072760D03*
X0154239Y0072710D03*
X0154239Y0072660D03*
X0154239Y0072610D03*
X0154239Y0072560D03*
X0154239Y0072510D03*
X0154239Y0072460D03*
X0154239Y0072410D03*
X0154239Y0072360D03*
X0154239Y0072310D03*
X0154239Y0072260D03*
X0154239Y0072210D03*
X0154239Y0072160D03*
X0154239Y0072110D03*
X0154239Y0072060D03*
X0154239Y0072010D03*
X0154239Y0071960D03*
X0154239Y0071910D03*
X0154239Y0071860D03*
X0154239Y0071810D03*
X0154239Y0071760D03*
X0154239Y0071710D03*
X0154239Y0071660D03*
X0154239Y0071610D03*
X0154239Y0071560D03*
X0154239Y0071510D03*
X0154239Y0071460D03*
X0154239Y0071410D03*
X0154239Y0071360D03*
X0154239Y0071310D03*
X0154239Y0071260D03*
X0154239Y0071210D03*
X0154239Y0071160D03*
X0154239Y0071110D03*
X0154239Y0071060D03*
X0154239Y0071010D03*
X0154239Y0070960D03*
X0154239Y0070910D03*
X0154239Y0070860D03*
X0154239Y0070810D03*
X0154239Y0070760D03*
X0154239Y0070710D03*
X0154239Y0070660D03*
X0154239Y0070610D03*
X0154239Y0070560D03*
X0154239Y0070510D03*
X0154239Y0070460D03*
X0154239Y0070410D03*
X0154239Y0070360D03*
X0154239Y0070310D03*
X0154239Y0070260D03*
X0154239Y0070210D03*
X0154239Y0070160D03*
X0154239Y0070110D03*
X0154239Y0070060D03*
X0154239Y0070010D03*
X0154239Y0069960D03*
X0154239Y0069910D03*
X0154239Y0069860D03*
X0154239Y0069810D03*
X0154239Y0069760D03*
X0154239Y0069710D03*
X0154239Y0069660D03*
X0154239Y0069610D03*
X0154239Y0069560D03*
X0154239Y0069510D03*
X0174289Y0067610D03*
X0174289Y0065260D03*
X0174289Y0082910D03*
X0174289Y0085360D03*
X0181789Y0090960D03*
X0181789Y0093210D03*
X0182439Y0097960D03*
X0182489Y0101810D03*
X0174289Y0102410D03*
X0174289Y0102460D03*
X0174289Y0104760D03*
X0183189Y0064360D03*
D52*
X0166139Y0067560D03*
X0166139Y0102810D03*
X0166139Y0104710D03*
D53*
X0178839Y0104560D03*
X0178839Y0104510D03*
X0180289Y0102610D03*
X0180639Y0100460D03*
X0180589Y0099360D03*
X0181839Y0104610D03*
X0181889Y0104660D03*
X0181889Y0104710D03*
X0184339Y0100410D03*
X0184339Y0099360D03*
X0184289Y0088010D03*
X0184339Y0087910D03*
X0184339Y0087860D03*
X0180639Y0086910D03*
X0181589Y0079360D03*
X0181589Y0079310D03*
X0181589Y0079260D03*
X0181589Y0079210D03*
X0181589Y0079160D03*
X0181589Y0079110D03*
X0181589Y0079060D03*
X0181589Y0079010D03*
X0181589Y0078960D03*
X0181589Y0078910D03*
X0181589Y0078860D03*
X0181589Y0078810D03*
X0181589Y0078760D03*
X0181589Y0078710D03*
X0181589Y0078660D03*
X0181589Y0078610D03*
X0181589Y0078560D03*
X0181589Y0078510D03*
X0181589Y0078460D03*
X0181589Y0078410D03*
X0181589Y0078360D03*
X0181589Y0078310D03*
X0181589Y0078260D03*
X0181589Y0078210D03*
X0181589Y0078160D03*
X0181589Y0078110D03*
X0181589Y0078060D03*
X0181589Y0078010D03*
X0181589Y0077960D03*
X0181589Y0077910D03*
X0181589Y0077860D03*
X0181589Y0077810D03*
X0181589Y0077760D03*
X0181589Y0077710D03*
X0181589Y0077660D03*
X0181589Y0077610D03*
X0181589Y0077560D03*
X0181589Y0077510D03*
X0181589Y0077460D03*
X0181589Y0077410D03*
X0181589Y0077360D03*
X0181589Y0077310D03*
X0181589Y0077260D03*
X0181589Y0077210D03*
X0181589Y0077160D03*
X0181589Y0077110D03*
X0181589Y0077060D03*
X0181589Y0077010D03*
X0178839Y0077010D03*
X0178839Y0076960D03*
X0178839Y0076910D03*
X0178839Y0076860D03*
X0178839Y0077060D03*
X0178839Y0077110D03*
X0178839Y0077160D03*
X0178839Y0077210D03*
X0178839Y0077260D03*
X0178839Y0077310D03*
X0178839Y0077360D03*
X0178839Y0077410D03*
X0178839Y0077460D03*
X0178839Y0077510D03*
X0178839Y0077560D03*
X0178839Y0077610D03*
X0178839Y0077660D03*
X0178839Y0077710D03*
X0178839Y0077760D03*
X0178839Y0077810D03*
X0178839Y0077860D03*
X0178839Y0077910D03*
X0178839Y0077960D03*
X0178839Y0078010D03*
X0178839Y0078060D03*
X0178839Y0078110D03*
X0178839Y0078160D03*
X0178839Y0078210D03*
X0178839Y0078260D03*
X0178839Y0078310D03*
X0178839Y0078360D03*
X0178839Y0078410D03*
X0178839Y0078460D03*
X0178839Y0078510D03*
X0178839Y0078560D03*
X0178839Y0078610D03*
X0178839Y0078660D03*
X0178839Y0078710D03*
X0178839Y0078760D03*
X0178839Y0078810D03*
X0178839Y0078860D03*
X0178839Y0078910D03*
X0178839Y0078960D03*
X0178839Y0079010D03*
X0178839Y0079060D03*
X0178839Y0079110D03*
X0178839Y0079160D03*
X0178839Y0079210D03*
X0178839Y0079260D03*
X0178839Y0079310D03*
X0178839Y0079360D03*
X0178689Y0076010D03*
X0178689Y0075110D03*
X0181039Y0070110D03*
X0180589Y0069210D03*
X0180589Y0069160D03*
X0180589Y0066310D03*
X0180589Y0066260D03*
X0180589Y0066210D03*
D54*
X0166114Y0066210D03*
X0166114Y0066160D03*
X0166114Y0066110D03*
X0166114Y0066060D03*
X0166114Y0066010D03*
X0166114Y0065960D03*
X0166114Y0065910D03*
X0166114Y0065860D03*
X0166114Y0065810D03*
X0166114Y0065760D03*
X0166114Y0065710D03*
X0166114Y0065660D03*
X0166114Y0066260D03*
X0166114Y0066310D03*
X0166114Y0066360D03*
X0166114Y0066410D03*
X0166114Y0066460D03*
X0166114Y0066510D03*
X0166114Y0066560D03*
X0166114Y0066610D03*
X0166114Y0066660D03*
X0166114Y0066710D03*
X0166114Y0066760D03*
X0166114Y0066810D03*
X0166114Y0066860D03*
X0166114Y0066910D03*
X0166114Y0066960D03*
X0166114Y0067010D03*
X0166114Y0067060D03*
X0166114Y0067110D03*
X0166114Y0067160D03*
X0166114Y0067210D03*
X0166114Y0067260D03*
X0166114Y0067310D03*
X0166114Y0067360D03*
X0166114Y0067410D03*
X0166114Y0067460D03*
X0166114Y0067510D03*
X0166114Y0083310D03*
X0166114Y0083360D03*
X0166114Y0083410D03*
X0166114Y0083460D03*
X0166114Y0083510D03*
X0166114Y0083560D03*
X0166114Y0083610D03*
X0166114Y0083660D03*
X0166114Y0083710D03*
X0166114Y0083760D03*
X0166114Y0083810D03*
X0166114Y0083860D03*
X0166114Y0083910D03*
X0166114Y0083960D03*
X0166114Y0084010D03*
X0166114Y0084060D03*
X0166114Y0084110D03*
X0166114Y0084160D03*
X0166114Y0084210D03*
X0166114Y0084260D03*
X0166114Y0084310D03*
X0166114Y0084360D03*
X0166114Y0084410D03*
X0166114Y0084460D03*
X0166114Y0084510D03*
X0166114Y0084560D03*
X0166114Y0084610D03*
X0166114Y0084660D03*
X0166114Y0084710D03*
X0166114Y0084760D03*
X0166114Y0084810D03*
X0166114Y0084860D03*
X0166114Y0084910D03*
X0166114Y0084960D03*
X0166114Y0085010D03*
X0166114Y0085060D03*
X0166114Y0085110D03*
X0166114Y0102860D03*
X0166114Y0102910D03*
X0166114Y0102960D03*
X0166114Y0103010D03*
X0166114Y0103060D03*
X0166114Y0103110D03*
X0166114Y0103160D03*
X0166114Y0103210D03*
X0166114Y0103260D03*
X0166114Y0103310D03*
X0166114Y0103360D03*
X0166114Y0103410D03*
X0166114Y0103460D03*
X0166114Y0103510D03*
X0166114Y0103560D03*
X0166114Y0103610D03*
X0166114Y0103660D03*
X0166114Y0103710D03*
X0166114Y0103760D03*
X0166114Y0103810D03*
X0166114Y0103860D03*
X0166114Y0103910D03*
X0166114Y0103960D03*
X0166114Y0104010D03*
X0166114Y0104060D03*
X0166114Y0104110D03*
X0166114Y0104160D03*
X0166114Y0104210D03*
X0166114Y0104260D03*
X0166114Y0104310D03*
X0166114Y0104360D03*
X0166114Y0104410D03*
X0166114Y0104460D03*
X0166114Y0104510D03*
X0166114Y0104560D03*
X0166114Y0104610D03*
X0166114Y0104660D03*
D55*
X0178864Y0104460D03*
X0178914Y0104410D03*
X0178914Y0104360D03*
X0181764Y0104410D03*
X0181814Y0104510D03*
X0181814Y0104560D03*
X0180664Y0100510D03*
X0180614Y0099310D03*
X0180664Y0099260D03*
X0182464Y0097410D03*
X0184264Y0099260D03*
X0184314Y0099310D03*
X0184314Y0100460D03*
X0180714Y0090310D03*
X0180714Y0088260D03*
X0180664Y0086860D03*
X0184264Y0088060D03*
X0184314Y0087960D03*
X0178714Y0075960D03*
X0178714Y0075160D03*
X0180714Y0071710D03*
X0180614Y0069110D03*
X0180614Y0066160D03*
D56*
X0180639Y0066110D03*
X0181089Y0067210D03*
X0180639Y0069060D03*
X0178689Y0075210D03*
X0180689Y0081560D03*
X0180689Y0082210D03*
X0180689Y0082260D03*
X0180739Y0082360D03*
X0180739Y0082410D03*
X0180789Y0082460D03*
X0180789Y0082510D03*
X0180839Y0082560D03*
X0180839Y0082610D03*
X0180889Y0082660D03*
X0180939Y0082710D03*
X0180989Y0082760D03*
X0181039Y0082810D03*
X0181089Y0082860D03*
X0182289Y0085360D03*
X0180789Y0088310D03*
X0184239Y0088110D03*
X0184239Y0092110D03*
X0184239Y0095010D03*
X0180739Y0096860D03*
X0180689Y0099210D03*
X0180689Y0100560D03*
X0182489Y0102360D03*
X0181739Y0104360D03*
X0181789Y0104460D03*
X0178939Y0104310D03*
X0184239Y0100560D03*
X0184289Y0100510D03*
X0184239Y0099210D03*
D57*
X0180764Y0100610D03*
X0181714Y0104310D03*
X0184164Y0088210D03*
X0184214Y0088160D03*
X0181164Y0082910D03*
X0180714Y0082310D03*
X0180664Y0082160D03*
X0180664Y0082110D03*
X0180664Y0082060D03*
X0180664Y0082010D03*
X0180664Y0081960D03*
X0180664Y0081910D03*
X0180664Y0081860D03*
X0180664Y0081810D03*
X0180664Y0081760D03*
X0180664Y0081710D03*
X0180664Y0081660D03*
X0180664Y0081610D03*
X0178714Y0075910D03*
X0178714Y0075860D03*
X0178714Y0075810D03*
X0178714Y0075310D03*
X0178714Y0075260D03*
X0180664Y0069010D03*
X0180664Y0066060D03*
D58*
X0180689Y0066010D03*
X0180689Y0068960D03*
X0181189Y0070160D03*
X0178689Y0075360D03*
X0178689Y0075410D03*
X0178689Y0075460D03*
X0178689Y0075710D03*
X0178689Y0075760D03*
X0180739Y0086810D03*
X0180839Y0088360D03*
X0184139Y0088260D03*
X0184189Y0099160D03*
X0184189Y0100610D03*
X0180739Y0099160D03*
X0178989Y0104260D03*
D59*
X0179014Y0104210D03*
X0181664Y0104260D03*
X0180814Y0100660D03*
X0180814Y0099110D03*
X0180814Y0090360D03*
X0180814Y0086760D03*
X0182214Y0085410D03*
X0184114Y0088310D03*
X0178714Y0075660D03*
X0178714Y0075610D03*
X0178714Y0075560D03*
X0178714Y0075510D03*
D60*
X0180739Y0068910D03*
X0181239Y0082960D03*
X0184139Y0095060D03*
X0180839Y0096810D03*
X0184139Y0099110D03*
X0184139Y0100660D03*
X0181589Y0104160D03*
X0181639Y0104210D03*
X0179039Y0104160D03*
D61*
X0179139Y0104110D03*
X0180889Y0100710D03*
X0180889Y0099060D03*
X0182439Y0097460D03*
X0184039Y0099060D03*
X0184089Y0100710D03*
X0180889Y0090410D03*
X0182539Y0089810D03*
X0183989Y0088410D03*
X0182139Y0085460D03*
X0180789Y0068860D03*
D62*
X0183989Y0099010D03*
X0183989Y0100760D03*
X0181489Y0104110D03*
D63*
X0180314Y0104010D03*
X0182464Y0098260D03*
X0182914Y0095510D03*
X0182814Y0094360D03*
X0182614Y0094310D03*
X0182064Y0093060D03*
X0182914Y0083210D03*
X0162314Y0092210D03*
X0154664Y0092010D03*
X0154614Y0092060D03*
D64*
X0154589Y0092110D03*
X0162339Y0092260D03*
X0180339Y0103910D03*
X0180339Y0103960D03*
X0182489Y0101560D03*
X0182939Y0092710D03*
X0182939Y0091610D03*
X0182039Y0091110D03*
X0182489Y0089060D03*
X0182939Y0064510D03*
D65*
X0182964Y0094410D03*
X0182014Y0096110D03*
X0182464Y0098160D03*
X0182464Y0098210D03*
X0180314Y0103860D03*
X0162414Y0092360D03*
X0162364Y0092310D03*
X0154564Y0092160D03*
D66*
X0154539Y0092210D03*
X0154489Y0092260D03*
X0162439Y0092410D03*
X0180339Y0103810D03*
X0182489Y0101610D03*
X0181989Y0094110D03*
X0182489Y0089110D03*
X0182989Y0064460D03*
D67*
X0174114Y0083260D03*
X0181964Y0093110D03*
X0182514Y0089160D03*
X0182464Y0098110D03*
X0180314Y0103710D03*
X0180314Y0103760D03*
X0162464Y0092460D03*
X0158314Y0087510D03*
D68*
X0154414Y0092410D03*
X0162564Y0092660D03*
X0174164Y0083160D03*
X0181914Y0094060D03*
X0183064Y0094460D03*
X0183064Y0091660D03*
X0182514Y0089210D03*
X0182464Y0098060D03*
X0180314Y0103610D03*
X0180314Y0103660D03*
X0174164Y0102710D03*
X0174164Y0065560D03*
D69*
X0174214Y0065460D03*
X0174214Y0083060D03*
X0174214Y0085210D03*
X0181864Y0091010D03*
X0182514Y0089260D03*
X0181864Y0096210D03*
X0182464Y0098010D03*
X0180314Y0103560D03*
X0174214Y0102610D03*
X0162664Y0092910D03*
X0162664Y0092860D03*
X0162614Y0092810D03*
X0154314Y0092660D03*
X0154314Y0092610D03*
D70*
X0154289Y0092710D03*
X0162689Y0092960D03*
X0162689Y0093010D03*
X0174239Y0085260D03*
X0174239Y0083010D03*
X0174239Y0065410D03*
X0174239Y0065360D03*
X0183139Y0092610D03*
X0182489Y0101760D03*
X0180339Y0103510D03*
X0174239Y0102560D03*
D71*
X0174264Y0102510D03*
X0180314Y0103460D03*
X0183164Y0095410D03*
X0183164Y0094510D03*
X0181814Y0094010D03*
X0183164Y0091710D03*
X0182514Y0089310D03*
X0174264Y0085310D03*
X0174264Y0082960D03*
X0174264Y0065310D03*
X0162014Y0069960D03*
X0162014Y0070010D03*
X0162014Y0070060D03*
X0162014Y0070110D03*
X0162014Y0070160D03*
X0162014Y0070210D03*
X0162014Y0070260D03*
X0162014Y0070310D03*
X0162014Y0070360D03*
X0162014Y0070410D03*
X0162014Y0070460D03*
X0162014Y0070510D03*
X0162014Y0070560D03*
X0162014Y0070610D03*
X0162014Y0070660D03*
X0162014Y0070710D03*
X0162014Y0070760D03*
X0162014Y0070810D03*
X0162014Y0070860D03*
X0162014Y0070910D03*
X0162014Y0070960D03*
X0162014Y0071010D03*
X0162014Y0071060D03*
X0162014Y0071110D03*
X0162014Y0071160D03*
X0162014Y0071210D03*
X0162014Y0071260D03*
X0162014Y0071310D03*
X0162014Y0071360D03*
X0162014Y0071410D03*
X0162014Y0071460D03*
X0162014Y0071510D03*
X0162014Y0071560D03*
X0162014Y0071610D03*
X0162014Y0071660D03*
X0162014Y0071710D03*
X0162014Y0071760D03*
X0162014Y0071810D03*
X0162014Y0071860D03*
X0162014Y0071910D03*
X0162014Y0071960D03*
X0162014Y0072010D03*
X0162014Y0072060D03*
X0162014Y0072110D03*
X0162014Y0072160D03*
X0162014Y0072210D03*
X0162014Y0072260D03*
X0162014Y0072310D03*
X0162014Y0072360D03*
X0162014Y0072410D03*
X0162014Y0072460D03*
X0162014Y0072510D03*
X0162014Y0072560D03*
X0162014Y0072610D03*
X0162014Y0072660D03*
X0162014Y0072710D03*
X0162014Y0072760D03*
X0162014Y0072810D03*
X0162014Y0072860D03*
X0162014Y0072910D03*
X0162014Y0072960D03*
X0162014Y0073010D03*
X0162014Y0073060D03*
X0162014Y0073110D03*
X0162014Y0073160D03*
X0162014Y0073210D03*
X0162014Y0073260D03*
X0162014Y0073310D03*
X0162014Y0073360D03*
X0162014Y0073410D03*
X0162014Y0073460D03*
X0162014Y0073510D03*
X0162014Y0073560D03*
X0162014Y0073610D03*
X0162014Y0073660D03*
X0162014Y0073710D03*
X0162014Y0073760D03*
X0162014Y0073810D03*
X0162014Y0073860D03*
X0162014Y0073910D03*
X0162014Y0073960D03*
X0162014Y0074010D03*
X0162014Y0074060D03*
X0162014Y0074110D03*
X0162014Y0074160D03*
X0162014Y0074210D03*
X0162014Y0074260D03*
X0162014Y0074310D03*
X0162014Y0074360D03*
X0162014Y0074410D03*
X0162014Y0074460D03*
X0162014Y0074510D03*
X0162014Y0074560D03*
X0162014Y0074610D03*
X0162014Y0074660D03*
X0162014Y0074710D03*
X0162014Y0074760D03*
X0162014Y0074810D03*
X0162014Y0074860D03*
X0162014Y0074910D03*
X0162014Y0074960D03*
X0162014Y0075010D03*
X0162014Y0075060D03*
X0162014Y0075110D03*
X0162014Y0075160D03*
X0162014Y0075210D03*
X0162014Y0075260D03*
X0162014Y0075310D03*
X0162014Y0075360D03*
X0162014Y0075410D03*
X0162014Y0075460D03*
X0162014Y0075510D03*
X0162014Y0075560D03*
X0162014Y0075610D03*
X0162014Y0075660D03*
X0162014Y0075710D03*
X0162014Y0075760D03*
X0162014Y0075810D03*
X0162014Y0075860D03*
X0162014Y0075910D03*
X0162014Y0075960D03*
X0162014Y0076010D03*
X0162014Y0076060D03*
X0162014Y0076110D03*
X0162014Y0076160D03*
X0162014Y0076210D03*
X0162014Y0076260D03*
X0162014Y0076310D03*
X0162014Y0076360D03*
X0162014Y0076410D03*
X0162014Y0076460D03*
X0162014Y0076510D03*
X0162014Y0076560D03*
X0162014Y0076610D03*
X0162014Y0076660D03*
X0162714Y0093060D03*
X0162714Y0093110D03*
X0162764Y0093160D03*
X0162764Y0093210D03*
X0162764Y0093260D03*
X0154264Y0092810D03*
X0154264Y0092760D03*
X0154214Y0092910D03*
D72*
X0154439Y0092360D03*
X0154439Y0092310D03*
X0162489Y0092510D03*
X0162539Y0092560D03*
X0162539Y0092610D03*
X0174139Y0083210D03*
X0181939Y0091060D03*
X0183039Y0092660D03*
X0183039Y0095460D03*
X0181939Y0096160D03*
X0182489Y0101660D03*
X0182489Y0101710D03*
X0174139Y0102760D03*
X0174139Y0065610D03*
D73*
X0174189Y0065510D03*
X0174189Y0083110D03*
X0174189Y0085160D03*
X0181889Y0093160D03*
X0174189Y0102660D03*
X0162589Y0092760D03*
X0162589Y0092710D03*
X0154389Y0092510D03*
X0154389Y0092460D03*
X0154339Y0092560D03*
X0183089Y0064410D03*
D74*
X0180764Y0065960D03*
X0180914Y0088410D03*
X0184064Y0088360D03*
X0184114Y0092060D03*
X0184114Y0092160D03*
X0184114Y0094960D03*
X0180314Y0102660D03*
D75*
X0180289Y0102560D03*
X0182339Y0085310D03*
X0158289Y0087260D03*
D76*
X0180064Y0089910D03*
X0180064Y0097260D03*
X0180264Y0102510D03*
X0067590Y0173154D03*
X0062340Y0173354D03*
X0054990Y0173354D03*
D77*
X0182514Y0102410D03*
D78*
X0182514Y0102310D03*
X0180914Y0096760D03*
X0180914Y0093610D03*
X0181414Y0083010D03*
X0180814Y0065910D03*
D79*
X0182489Y0089010D03*
X0182089Y0094160D03*
X0182239Y0094210D03*
X0182439Y0094260D03*
X0182489Y0101460D03*
X0182489Y0101510D03*
X0162289Y0092160D03*
X0162239Y0092110D03*
X0154689Y0091960D03*
D80*
X0154739Y0091910D03*
X0182489Y0088960D03*
X0182489Y0088910D03*
X0182839Y0092760D03*
X0182489Y0101410D03*
X0182839Y0083110D03*
X0182839Y0067560D03*
X0182839Y0067510D03*
D81*
X0182789Y0067610D03*
X0182789Y0070310D03*
X0182789Y0070360D03*
X0182789Y0064660D03*
X0182789Y0083060D03*
X0182489Y0088860D03*
X0182189Y0091210D03*
X0182789Y0095560D03*
X0182189Y0096010D03*
X0182439Y0098410D03*
X0182489Y0101360D03*
X0162139Y0091960D03*
X0154789Y0091860D03*
D82*
X0154889Y0091760D03*
X0158339Y0087610D03*
X0182239Y0092960D03*
X0182739Y0092810D03*
X0182489Y0088810D03*
X0182489Y0088760D03*
X0182489Y0101260D03*
X0182489Y0101310D03*
X0182739Y0067660D03*
X0182739Y0067360D03*
X0182739Y0064710D03*
D83*
X0182689Y0064810D03*
X0182689Y0067260D03*
X0182489Y0088660D03*
X0182489Y0088710D03*
X0182589Y0092860D03*
X0182389Y0092910D03*
X0182289Y0095960D03*
X0182489Y0101160D03*
X0182489Y0101210D03*
X0161989Y0091810D03*
X0154939Y0091710D03*
D84*
X0182489Y0088610D03*
X0182489Y0101060D03*
X0182489Y0101110D03*
X0182639Y0067860D03*
X0182639Y0067810D03*
X0182639Y0064910D03*
D85*
X0182589Y0065010D03*
X0182589Y0067960D03*
X0182489Y0088460D03*
X0182589Y0091460D03*
X0182489Y0100960D03*
X0182489Y0101010D03*
X0161839Y0091710D03*
X0158339Y0087660D03*
X0155039Y0091660D03*
D86*
X0182439Y0091360D03*
X0182539Y0095660D03*
X0182439Y0095860D03*
X0182489Y0100860D03*
X0182489Y0100910D03*
X0182539Y0068110D03*
X0182539Y0068060D03*
X0182539Y0065160D03*
X0182539Y0065110D03*
D87*
X0161989Y0100510D03*
X0161989Y0100560D03*
X0161989Y0100610D03*
X0161989Y0100660D03*
X0161989Y0100710D03*
X0161989Y0100760D03*
D88*
X0180964Y0100760D03*
X0180964Y0099010D03*
X0184014Y0095110D03*
X0184014Y0094910D03*
X0184014Y0092210D03*
X0180964Y0090460D03*
X0182064Y0085510D03*
X0180864Y0068810D03*
D89*
X0161964Y0100160D03*
X0161964Y0100210D03*
X0161964Y0100260D03*
X0161964Y0100310D03*
X0161964Y0100360D03*
X0161964Y0100410D03*
X0161964Y0100460D03*
D90*
X0178714Y0076110D03*
X0178714Y0075010D03*
X0180914Y0070010D03*
X0180864Y0069960D03*
X0180814Y0069910D03*
X0180764Y0069860D03*
X0180714Y0069760D03*
X0180664Y0069660D03*
X0180664Y0069610D03*
X0180614Y0069560D03*
X0180614Y0069510D03*
X0180864Y0067060D03*
X0180814Y0067010D03*
X0180764Y0066960D03*
X0180714Y0066860D03*
X0180664Y0066760D03*
X0180664Y0066710D03*
X0180614Y0066660D03*
X0180614Y0066610D03*
X0180614Y0066560D03*
X0184214Y0085760D03*
X0184214Y0085810D03*
X0184264Y0085910D03*
X0184264Y0085960D03*
X0184264Y0086010D03*
X0184314Y0086110D03*
X0184314Y0086160D03*
X0184314Y0086210D03*
X0184364Y0086260D03*
X0184364Y0086310D03*
X0184364Y0086360D03*
X0184364Y0086410D03*
X0184364Y0086460D03*
X0184364Y0086510D03*
X0184414Y0086560D03*
X0184414Y0086610D03*
X0184414Y0086660D03*
X0184414Y0086710D03*
X0184414Y0086760D03*
X0184414Y0086810D03*
X0184414Y0086860D03*
X0184414Y0086910D03*
X0184414Y0086960D03*
X0184414Y0087010D03*
X0184414Y0087060D03*
X0184414Y0087110D03*
X0180514Y0087110D03*
X0180564Y0088010D03*
X0180564Y0088060D03*
X0180514Y0099610D03*
X0180514Y0099660D03*
X0180514Y0099710D03*
X0180514Y0100010D03*
X0180514Y0100060D03*
X0180514Y0100110D03*
X0180514Y0100160D03*
X0184414Y0100210D03*
X0184464Y0100110D03*
X0184464Y0100060D03*
X0184464Y0100010D03*
X0184464Y0099960D03*
X0184464Y0099910D03*
X0184464Y0099860D03*
X0184464Y0099810D03*
X0184464Y0099760D03*
X0184464Y0099710D03*
X0184464Y0099660D03*
X0184414Y0099560D03*
X0184414Y0099510D03*
D91*
X0161939Y0099810D03*
X0161939Y0099860D03*
X0161939Y0099910D03*
X0161939Y0099960D03*
X0161939Y0100010D03*
X0161939Y0100060D03*
X0161939Y0100110D03*
D92*
X0178689Y0076160D03*
X0178689Y0074960D03*
X0180739Y0069810D03*
X0180689Y0069710D03*
X0180739Y0066910D03*
X0180689Y0066810D03*
X0184239Y0085860D03*
X0184289Y0086060D03*
X0182439Y0086760D03*
X0182439Y0086810D03*
X0182439Y0086860D03*
X0182439Y0086910D03*
X0182439Y0086960D03*
X0182439Y0087010D03*
X0182439Y0087060D03*
X0182439Y0087110D03*
X0182439Y0087160D03*
X0182439Y0087210D03*
X0182439Y0087260D03*
X0182439Y0087310D03*
X0182439Y0087360D03*
X0182439Y0087410D03*
X0182439Y0087460D03*
X0182439Y0087510D03*
X0182439Y0087560D03*
X0182439Y0087610D03*
X0182439Y0087660D03*
X0182439Y0087710D03*
X0182439Y0087760D03*
X0182439Y0087810D03*
X0182439Y0087860D03*
X0182439Y0087910D03*
X0182439Y0087960D03*
X0182439Y0088010D03*
X0182439Y0088060D03*
X0182439Y0088110D03*
X0182439Y0088160D03*
X0182439Y0088210D03*
X0182439Y0088260D03*
X0182439Y0088310D03*
X0182439Y0088360D03*
X0182439Y0088410D03*
X0180539Y0087960D03*
X0180489Y0087910D03*
X0180489Y0087860D03*
X0180489Y0087210D03*
X0180489Y0087160D03*
X0180489Y0099760D03*
X0180489Y0099810D03*
X0180489Y0099860D03*
X0180489Y0099910D03*
X0180489Y0099960D03*
D93*
X0161914Y0099760D03*
X0161914Y0099710D03*
X0161914Y0099660D03*
X0161914Y0099610D03*
X0161914Y0099560D03*
X0161914Y0099510D03*
X0161914Y0099460D03*
X0161914Y0099410D03*
X0161914Y0099360D03*
X0161914Y0099310D03*
D94*
X0161889Y0099260D03*
X0161889Y0099210D03*
X0161889Y0099160D03*
X0161889Y0099110D03*
X0161889Y0099060D03*
X0161889Y0099010D03*
X0161889Y0098960D03*
X0161889Y0098910D03*
X0161889Y0098860D03*
X0161889Y0098810D03*
X0161889Y0098760D03*
X0161889Y0080960D03*
D95*
X0182564Y0068010D03*
X0182564Y0065060D03*
X0182464Y0098810D03*
X0182464Y0098860D03*
X0182464Y0098910D03*
D96*
X0182464Y0098760D03*
X0182464Y0098710D03*
X0182364Y0095910D03*
X0182364Y0091310D03*
X0182464Y0088560D03*
X0182464Y0088510D03*
X0182614Y0067910D03*
X0182614Y0064960D03*
D97*
X0161914Y0076710D03*
X0161914Y0076760D03*
X0161914Y0076810D03*
X0161914Y0076860D03*
X0161914Y0076910D03*
X0161914Y0076960D03*
X0161914Y0077010D03*
X0161914Y0077060D03*
X0161914Y0077110D03*
X0161914Y0077160D03*
X0161914Y0077210D03*
X0161914Y0077260D03*
X0161914Y0077310D03*
X0161914Y0077360D03*
X0161914Y0077410D03*
X0161914Y0077460D03*
X0161914Y0077510D03*
X0161914Y0077560D03*
X0161914Y0077610D03*
X0161914Y0077660D03*
X0161914Y0077710D03*
X0161914Y0077760D03*
X0161914Y0077810D03*
X0161914Y0077860D03*
X0161914Y0077910D03*
X0161914Y0077960D03*
X0161914Y0078010D03*
X0161914Y0078060D03*
X0161914Y0078110D03*
X0161914Y0078160D03*
X0161914Y0078210D03*
X0161914Y0078260D03*
X0161914Y0078310D03*
X0161914Y0078360D03*
X0161914Y0078410D03*
X0161914Y0078460D03*
X0161914Y0078510D03*
X0161914Y0078560D03*
X0161914Y0078610D03*
X0161914Y0078660D03*
X0161914Y0078710D03*
X0161914Y0078760D03*
X0161914Y0078810D03*
X0161914Y0078860D03*
X0161914Y0078910D03*
X0161914Y0078960D03*
X0161914Y0079010D03*
X0161914Y0079060D03*
X0161914Y0079110D03*
X0161914Y0079160D03*
X0161914Y0079210D03*
X0161914Y0079260D03*
X0161914Y0079310D03*
X0161914Y0079360D03*
X0161914Y0079410D03*
X0161914Y0079460D03*
X0161914Y0079510D03*
X0161914Y0079560D03*
X0161914Y0079610D03*
X0161914Y0079660D03*
X0161914Y0079710D03*
X0161914Y0079760D03*
X0161914Y0079810D03*
X0161914Y0079860D03*
X0161914Y0079910D03*
X0161914Y0079960D03*
X0161914Y0080010D03*
X0161914Y0080060D03*
X0161914Y0080110D03*
X0161914Y0080160D03*
X0161914Y0080210D03*
X0161914Y0080260D03*
X0161914Y0080310D03*
X0161914Y0080360D03*
X0161914Y0080410D03*
X0161914Y0080460D03*
X0161914Y0080510D03*
X0161914Y0080560D03*
X0161914Y0080610D03*
X0161914Y0080660D03*
X0161914Y0080710D03*
X0161914Y0080760D03*
X0161914Y0080810D03*
X0161914Y0080860D03*
X0161914Y0080910D03*
X0161864Y0098060D03*
X0161864Y0098110D03*
X0161864Y0098160D03*
X0161864Y0098210D03*
X0161864Y0098260D03*
X0161864Y0098310D03*
X0161864Y0098360D03*
X0161864Y0098410D03*
X0161864Y0098460D03*
X0161864Y0098510D03*
X0161864Y0098560D03*
X0161864Y0098610D03*
X0161864Y0098660D03*
X0161864Y0098710D03*
D98*
X0161914Y0091760D03*
X0182664Y0095610D03*
X0182464Y0098610D03*
X0182464Y0098660D03*
X0182664Y0083260D03*
X0182664Y0067760D03*
X0182664Y0064860D03*
D99*
X0182714Y0064760D03*
X0182714Y0067310D03*
X0182714Y0067710D03*
X0182714Y0070210D03*
X0182264Y0091260D03*
X0182714Y0091510D03*
X0182464Y0098510D03*
X0182464Y0098560D03*
X0162014Y0091860D03*
D100*
X0162064Y0091910D03*
X0154814Y0091810D03*
X0182464Y0098460D03*
X0182764Y0070260D03*
X0182764Y0067410D03*
D101*
X0182814Y0067460D03*
X0182814Y0064610D03*
X0182814Y0091560D03*
X0182164Y0093010D03*
X0182464Y0098360D03*
X0162164Y0092010D03*
D102*
X0162214Y0092060D03*
X0158314Y0087560D03*
X0182114Y0091160D03*
X0182114Y0096060D03*
X0182464Y0098310D03*
X0182864Y0083160D03*
X0182864Y0064560D03*
D103*
X0161839Y0097060D03*
X0161839Y0097110D03*
X0161839Y0097160D03*
X0161839Y0097210D03*
X0161839Y0097260D03*
X0161839Y0097310D03*
X0161839Y0097360D03*
X0161839Y0097410D03*
X0161839Y0097460D03*
X0161839Y0097510D03*
X0161839Y0097560D03*
X0161839Y0097610D03*
X0161839Y0097660D03*
X0161839Y0097710D03*
X0161839Y0097760D03*
X0161839Y0097810D03*
X0161839Y0097860D03*
X0161839Y0097910D03*
X0161839Y0097960D03*
X0161839Y0098010D03*
D104*
X0178714Y0074860D03*
X0182414Y0097360D03*
D105*
X0180139Y0097210D03*
X0178689Y0074760D03*
X0184489Y0063760D03*
X0184289Y0063610D03*
X0184389Y0063210D03*
X0184639Y0063210D03*
X0184789Y0063110D03*
X0184489Y0062910D03*
D106*
X0184489Y0063260D03*
X0184489Y0063710D03*
X0184539Y0085610D03*
X0180239Y0090010D03*
X0180239Y0097160D03*
D107*
X0180314Y0097110D03*
X0180314Y0090060D03*
X0180314Y0084610D03*
X0184514Y0063010D03*
D108*
X0184389Y0085660D03*
X0180389Y0090110D03*
X0180389Y0097060D03*
D109*
X0161814Y0097010D03*
X0161814Y0096960D03*
X0161814Y0096910D03*
X0161814Y0096860D03*
X0161814Y0096810D03*
X0161814Y0096760D03*
X0161814Y0096710D03*
X0161814Y0096660D03*
X0161814Y0096610D03*
X0161814Y0096560D03*
D110*
X0178689Y0074910D03*
X0180489Y0090160D03*
X0180489Y0097010D03*
D111*
X0180564Y0096960D03*
X0180564Y0090210D03*
X0180464Y0087810D03*
X0180464Y0087760D03*
X0180464Y0087710D03*
X0180464Y0087660D03*
X0180464Y0087610D03*
X0180464Y0087560D03*
X0180464Y0087510D03*
X0180464Y0087460D03*
X0180464Y0087410D03*
X0180464Y0087360D03*
X0180464Y0087310D03*
X0180464Y0087260D03*
D112*
X0182489Y0084560D03*
X0182489Y0084510D03*
X0182489Y0084460D03*
X0182489Y0084410D03*
X0182489Y0084360D03*
X0182489Y0084310D03*
X0182489Y0084260D03*
X0182489Y0084210D03*
X0182489Y0084160D03*
X0182489Y0084110D03*
X0182489Y0084060D03*
X0182489Y0084010D03*
X0182489Y0083960D03*
X0182489Y0083910D03*
X0182489Y0083860D03*
X0182489Y0083810D03*
X0182489Y0083760D03*
X0182489Y0083710D03*
X0182489Y0083660D03*
X0182489Y0083610D03*
X0182489Y0083560D03*
X0182489Y0083510D03*
X0182489Y0083460D03*
X0182489Y0083410D03*
X0182489Y0083360D03*
X0182489Y0083310D03*
X0182489Y0076310D03*
X0182489Y0076260D03*
X0182489Y0076210D03*
X0182489Y0076160D03*
X0182489Y0076110D03*
X0182489Y0076060D03*
X0182489Y0076010D03*
X0182489Y0075960D03*
X0182489Y0075910D03*
X0182489Y0075860D03*
X0182489Y0075810D03*
X0182489Y0075760D03*
X0182489Y0075710D03*
X0182489Y0075660D03*
X0182489Y0075610D03*
X0182489Y0075560D03*
X0182489Y0075510D03*
X0182489Y0075460D03*
X0182489Y0075410D03*
X0182489Y0075360D03*
X0182489Y0075310D03*
X0182489Y0075260D03*
X0182489Y0075210D03*
X0182489Y0075160D03*
X0182489Y0075110D03*
X0182489Y0075060D03*
X0182489Y0075010D03*
X0182489Y0074960D03*
X0182489Y0074910D03*
X0182489Y0074860D03*
X0182489Y0074810D03*
X0182489Y0071660D03*
X0182489Y0071610D03*
X0182489Y0071560D03*
X0182489Y0071510D03*
X0182489Y0071460D03*
X0182489Y0071410D03*
X0182489Y0071360D03*
X0182489Y0071310D03*
X0182489Y0071260D03*
X0182489Y0071210D03*
X0182489Y0071160D03*
X0182489Y0071110D03*
X0182489Y0071060D03*
X0182489Y0071010D03*
X0182489Y0070960D03*
X0182489Y0070910D03*
X0182489Y0070860D03*
X0182489Y0070810D03*
X0182489Y0070760D03*
X0182489Y0070710D03*
X0182489Y0070660D03*
X0182489Y0070610D03*
X0182489Y0070560D03*
X0182489Y0070510D03*
X0182489Y0070460D03*
X0182489Y0068310D03*
X0182489Y0068260D03*
X0182489Y0065410D03*
X0182489Y0065360D03*
X0182489Y0065310D03*
X0182489Y0091410D03*
X0182489Y0095710D03*
X0182489Y0095760D03*
X0182489Y0095810D03*
D113*
X0182514Y0070410D03*
X0182514Y0068210D03*
X0182514Y0068160D03*
X0182514Y0065260D03*
X0182514Y0065210D03*
X0161764Y0091660D03*
X0155114Y0091610D03*
D114*
X0161689Y0091610D03*
X0182439Y0068710D03*
X0182439Y0068660D03*
X0182439Y0068610D03*
X0182439Y0068560D03*
X0182439Y0065810D03*
X0182439Y0065760D03*
X0182439Y0065710D03*
X0182439Y0065660D03*
X0182439Y0065610D03*
D115*
X0182464Y0065560D03*
X0182464Y0065510D03*
X0182464Y0065460D03*
X0182464Y0068360D03*
X0182464Y0068410D03*
X0182464Y0068460D03*
X0182464Y0068510D03*
X0182414Y0068760D03*
X0158364Y0087710D03*
X0155214Y0091560D03*
D116*
X0161564Y0091560D03*
D117*
X0155464Y0091510D03*
D118*
X0161314Y0091510D03*
D119*
X0158439Y0091460D03*
D120*
X0158439Y0091410D03*
X0158439Y0091360D03*
D121*
X0158414Y0091310D03*
D122*
X0158439Y0091260D03*
X0158439Y0091210D03*
D123*
X0158414Y0091160D03*
X0158414Y0091110D03*
D124*
X0158439Y0091060D03*
D125*
X0158414Y0091010D03*
X0158414Y0090960D03*
D126*
X0158414Y0090910D03*
X0158414Y0090860D03*
D127*
X0158439Y0090810D03*
D128*
X0158414Y0090760D03*
X0158414Y0090710D03*
D129*
X0158414Y0090660D03*
X0158414Y0090610D03*
D130*
X0158414Y0090560D03*
X0158414Y0090510D03*
D131*
X0158414Y0090460D03*
X0158414Y0090410D03*
D132*
X0158389Y0090360D03*
D133*
X0158414Y0090310D03*
D134*
X0158389Y0090260D03*
D135*
X0158414Y0090210D03*
D136*
X0158414Y0090160D03*
D137*
X0158389Y0090110D03*
D138*
X0158414Y0090060D03*
D139*
X0158389Y0090010D03*
D140*
X0158389Y0089960D03*
X0158389Y0089910D03*
D141*
X0180164Y0089960D03*
X0184714Y0063610D03*
X0184714Y0063060D03*
D142*
X0184489Y0063660D03*
X0178689Y0074810D03*
X0182539Y0089910D03*
D143*
X0158389Y0089860D03*
X0158389Y0089810D03*
D144*
X0158389Y0089760D03*
D145*
X0158389Y0089710D03*
X0158389Y0089660D03*
D146*
X0158389Y0089610D03*
D147*
X0158389Y0089560D03*
D148*
X0158414Y0089510D03*
D149*
X0158389Y0089460D03*
D150*
X0158389Y0089410D03*
D151*
X0158389Y0089360D03*
D152*
X0158364Y0089310D03*
D153*
X0158364Y0089260D03*
D154*
X0158389Y0089210D03*
D155*
X0158389Y0089160D03*
D156*
X0158389Y0089110D03*
D157*
X0158389Y0089060D03*
D158*
X0158389Y0089010D03*
D159*
X0158364Y0088960D03*
D160*
X0158364Y0088910D03*
D161*
X0158364Y0088860D03*
D162*
X0158364Y0088810D03*
D163*
X0158364Y0088760D03*
D164*
X0158364Y0088710D03*
D165*
X0158364Y0088660D03*
D166*
X0158364Y0088610D03*
D167*
X0158389Y0088560D03*
D168*
X0158389Y0088510D03*
D169*
X0158389Y0088460D03*
D170*
X0158364Y0088410D03*
D171*
X0158364Y0088360D03*
D172*
X0158389Y0088310D03*
D173*
X0158364Y0088260D03*
D174*
X0158364Y0088110D03*
D175*
X0158364Y0088060D03*
D176*
X0158364Y0088010D03*
D177*
X0158364Y0087960D03*
D178*
X0158364Y0087910D03*
D179*
X0158339Y0087860D03*
D180*
X0158339Y0087810D03*
D181*
X0158339Y0087760D03*
D182*
X0178714Y0076210D03*
X0184264Y0085710D03*
D183*
X0184664Y0085560D03*
X0184164Y0063510D03*
X0184114Y0063310D03*
X0184114Y0063260D03*
X0184164Y0063160D03*
X0184214Y0063110D03*
X0184314Y0063310D03*
X0184314Y0063360D03*
X0184514Y0063360D03*
X0184514Y0063310D03*
X0184864Y0063260D03*
X0184864Y0063410D03*
D184*
X0184739Y0063160D03*
X0184289Y0063060D03*
X0178689Y0076360D03*
D185*
X0178714Y0076310D03*
D186*
X0178689Y0076260D03*
D187*
X0184189Y0063560D03*
X0184139Y0063460D03*
X0184139Y0063410D03*
X0184139Y0063360D03*
X0184139Y0063210D03*
X0184389Y0063160D03*
X0184839Y0063210D03*
X0184889Y0063310D03*
X0184889Y0063360D03*
X0184839Y0063460D03*
X0184839Y0063510D03*
X0184789Y0063560D03*
D188*
X0184514Y0063510D03*
X0184514Y0062960D03*
D189*
X0184489Y0063410D03*
X0184489Y0063460D03*
D190*
X0072440Y0171829D03*
D191*
X0067790Y0173129D03*
X0071690Y0178329D03*
X0071740Y0178329D03*
X0071790Y0178329D03*
X0071840Y0178329D03*
X0071890Y0178329D03*
X0071940Y0178329D03*
X0071990Y0178329D03*
X0072040Y0178329D03*
X0072090Y0178329D03*
X0072140Y0178329D03*
X0072190Y0178329D03*
X0072240Y0178329D03*
X0072290Y0178329D03*
X0072340Y0178329D03*
X0072390Y0178329D03*
X0061790Y0172429D03*
X0058640Y0172429D03*
X0057090Y0169429D03*
X0028390Y0178329D03*
X0028340Y0178329D03*
X0028290Y0178329D03*
X0028240Y0178329D03*
X0028190Y0178329D03*
X0028140Y0178329D03*
X0028090Y0178329D03*
X0028040Y0178329D03*
D192*
X0053240Y0195054D03*
X0072290Y0171804D03*
X0072340Y0171804D03*
X0072390Y0171804D03*
D193*
X0072240Y0171829D03*
X0072190Y0171829D03*
X0072140Y0171829D03*
X0072090Y0171829D03*
X0072040Y0171829D03*
X0071990Y0171829D03*
X0071940Y0171829D03*
X0071890Y0171829D03*
D194*
X0071840Y0171854D03*
X0071790Y0171854D03*
X0071740Y0171854D03*
X0071690Y0171854D03*
X0071640Y0171854D03*
X0071590Y0171854D03*
X0071540Y0171854D03*
X0071490Y0171854D03*
X0071440Y0171854D03*
X0071390Y0171854D03*
X0071340Y0171854D03*
X0071290Y0171854D03*
X0071240Y0171854D03*
X0071190Y0171854D03*
X0071140Y0171854D03*
X0071090Y0171854D03*
X0045990Y0171854D03*
X0045940Y0171854D03*
X0045890Y0171854D03*
X0045840Y0171854D03*
X0045790Y0171854D03*
X0045740Y0171854D03*
X0045690Y0171854D03*
X0045640Y0171854D03*
X0045590Y0171854D03*
X0045540Y0171854D03*
X0045490Y0171854D03*
X0045440Y0171854D03*
X0045390Y0171854D03*
X0045340Y0171854D03*
X0045290Y0171854D03*
X0045240Y0171854D03*
X0045190Y0171854D03*
X0045140Y0171854D03*
X0045090Y0171854D03*
X0045040Y0171854D03*
X0044990Y0171854D03*
X0044940Y0171854D03*
X0044890Y0171854D03*
X0044840Y0171854D03*
X0044790Y0171854D03*
X0044740Y0171854D03*
X0044690Y0171854D03*
X0044640Y0171854D03*
X0044590Y0171854D03*
X0044540Y0171854D03*
X0044490Y0171854D03*
X0039090Y0171854D03*
X0039040Y0171854D03*
X0038990Y0171854D03*
X0038940Y0171854D03*
X0038890Y0171854D03*
X0038840Y0171854D03*
X0038790Y0171854D03*
X0038740Y0171854D03*
X0038690Y0171854D03*
X0038640Y0171854D03*
X0038590Y0171854D03*
X0038540Y0171854D03*
X0038490Y0171854D03*
X0038440Y0171854D03*
X0038390Y0171854D03*
X0038340Y0171854D03*
X0038290Y0171854D03*
X0038240Y0171854D03*
X0038190Y0171854D03*
X0038140Y0171854D03*
X0038090Y0171854D03*
X0038040Y0171854D03*
X0037990Y0171854D03*
X0037940Y0171854D03*
X0037890Y0171854D03*
X0037840Y0171854D03*
X0037790Y0171854D03*
X0037740Y0171854D03*
X0037690Y0171854D03*
X0037640Y0171854D03*
X0037590Y0171854D03*
D195*
X0037590Y0178354D03*
X0037640Y0178354D03*
X0037690Y0178354D03*
X0037740Y0178354D03*
X0037790Y0178354D03*
X0037840Y0178354D03*
X0037890Y0178354D03*
X0037940Y0178354D03*
X0037990Y0178354D03*
X0038040Y0178354D03*
X0038090Y0178354D03*
X0038140Y0178354D03*
X0038190Y0178354D03*
X0038240Y0178354D03*
X0038290Y0178354D03*
X0038340Y0178354D03*
X0038390Y0178354D03*
X0038440Y0178354D03*
X0038490Y0178354D03*
X0038540Y0178354D03*
X0038590Y0178354D03*
X0038640Y0178354D03*
X0038690Y0178354D03*
X0038740Y0178354D03*
X0038790Y0178354D03*
X0038840Y0178354D03*
X0038890Y0178354D03*
X0038940Y0178354D03*
X0038990Y0178354D03*
X0039040Y0178354D03*
X0039090Y0178354D03*
X0039140Y0178354D03*
X0039190Y0178354D03*
X0039240Y0178354D03*
X0039290Y0178354D03*
X0039340Y0178354D03*
X0039390Y0178354D03*
X0039440Y0178354D03*
X0039490Y0178354D03*
X0039540Y0178354D03*
X0039590Y0178354D03*
X0039640Y0178354D03*
X0039690Y0178354D03*
X0039740Y0178354D03*
X0039790Y0178354D03*
X0039840Y0178354D03*
X0039890Y0178354D03*
X0039940Y0178354D03*
X0039990Y0178354D03*
X0040040Y0178354D03*
X0040090Y0178354D03*
X0040140Y0178354D03*
X0040190Y0178354D03*
X0040240Y0178354D03*
X0040290Y0178354D03*
X0040340Y0178354D03*
X0040390Y0178354D03*
X0040440Y0178354D03*
X0040490Y0178354D03*
X0040540Y0178354D03*
X0040590Y0178354D03*
X0040640Y0178354D03*
X0040690Y0178354D03*
X0040740Y0178354D03*
X0040790Y0178354D03*
X0040840Y0178354D03*
X0040890Y0178354D03*
X0040940Y0178354D03*
X0040990Y0178354D03*
X0041040Y0178354D03*
X0041090Y0178354D03*
X0041140Y0178354D03*
X0041190Y0178354D03*
X0041240Y0178354D03*
X0041290Y0178354D03*
X0041340Y0178354D03*
X0041390Y0178354D03*
X0041440Y0178354D03*
X0041490Y0178354D03*
X0041540Y0178354D03*
X0041590Y0178354D03*
X0041640Y0178354D03*
X0041690Y0178354D03*
X0041740Y0178354D03*
X0041790Y0178354D03*
X0041840Y0178354D03*
X0041890Y0178354D03*
X0041940Y0178354D03*
X0041990Y0178354D03*
X0042040Y0178354D03*
X0042090Y0178354D03*
X0042140Y0178354D03*
X0042190Y0178354D03*
X0042240Y0178354D03*
X0042290Y0178354D03*
X0042340Y0178354D03*
X0042390Y0178354D03*
X0042440Y0178354D03*
X0042490Y0178354D03*
X0042540Y0178354D03*
X0042590Y0178354D03*
X0042640Y0178354D03*
X0042690Y0178354D03*
X0042740Y0178354D03*
X0042790Y0178354D03*
X0042840Y0178354D03*
X0042890Y0178354D03*
X0042940Y0178354D03*
X0042990Y0178354D03*
X0043040Y0178354D03*
X0043090Y0178354D03*
X0043140Y0178354D03*
X0043190Y0178354D03*
X0043240Y0178354D03*
X0043290Y0178354D03*
X0043340Y0178354D03*
X0043390Y0178354D03*
X0043440Y0178354D03*
X0043490Y0178354D03*
X0043540Y0178354D03*
X0043590Y0178354D03*
X0043640Y0178354D03*
X0043690Y0178354D03*
X0043740Y0178354D03*
X0043790Y0178354D03*
X0043840Y0178354D03*
X0043890Y0178354D03*
X0043940Y0178354D03*
X0043990Y0178354D03*
X0044040Y0178354D03*
X0044090Y0178354D03*
X0044140Y0178354D03*
X0044190Y0178354D03*
X0044240Y0178354D03*
X0044290Y0178354D03*
X0044340Y0178354D03*
X0044390Y0178354D03*
X0044440Y0178354D03*
X0044490Y0178354D03*
X0044540Y0178354D03*
X0044590Y0178354D03*
X0044640Y0178354D03*
X0044690Y0178354D03*
X0044740Y0178354D03*
X0044790Y0178354D03*
X0044840Y0178354D03*
X0044890Y0178354D03*
X0044940Y0178354D03*
X0044990Y0178354D03*
X0045040Y0178354D03*
X0045090Y0178354D03*
X0045140Y0178354D03*
X0045190Y0178354D03*
X0045240Y0178354D03*
X0045290Y0178354D03*
X0045340Y0178354D03*
X0045390Y0178354D03*
X0045440Y0178354D03*
X0045490Y0178354D03*
X0045540Y0178354D03*
X0045590Y0178354D03*
X0045640Y0178354D03*
X0045690Y0178354D03*
X0045740Y0178354D03*
X0045790Y0178354D03*
X0045840Y0178354D03*
X0045890Y0178354D03*
X0045940Y0178354D03*
X0045990Y0178354D03*
X0046040Y0178354D03*
X0046090Y0178354D03*
X0046140Y0178354D03*
X0046190Y0178354D03*
X0046240Y0178354D03*
X0046290Y0178354D03*
X0046340Y0178354D03*
X0050640Y0171404D03*
X0052090Y0178354D03*
X0052140Y0178354D03*
X0052190Y0178354D03*
X0052240Y0178354D03*
X0052290Y0178354D03*
X0052340Y0178354D03*
X0052390Y0178354D03*
X0052440Y0178354D03*
X0052490Y0178354D03*
X0052540Y0178354D03*
X0052590Y0178354D03*
X0052640Y0178354D03*
X0052690Y0178354D03*
X0052740Y0178354D03*
X0052790Y0178354D03*
X0052840Y0178354D03*
X0052890Y0178354D03*
X0052940Y0178354D03*
X0052990Y0178354D03*
X0053040Y0178354D03*
X0053090Y0178354D03*
X0053140Y0178354D03*
X0053190Y0178354D03*
X0053240Y0178354D03*
X0053290Y0178354D03*
X0053340Y0178354D03*
X0053390Y0178354D03*
X0053440Y0178354D03*
X0053490Y0178354D03*
X0053540Y0178354D03*
X0053590Y0178354D03*
X0053640Y0178354D03*
X0053690Y0178354D03*
X0053740Y0178354D03*
X0053790Y0178354D03*
X0053840Y0178354D03*
X0053890Y0178354D03*
X0053940Y0178354D03*
X0053990Y0178354D03*
X0054040Y0178354D03*
X0054090Y0178354D03*
X0054140Y0178354D03*
X0054190Y0178354D03*
X0054240Y0178354D03*
X0054290Y0178354D03*
X0054340Y0178354D03*
X0054390Y0178354D03*
X0054440Y0178354D03*
X0054490Y0178354D03*
X0054540Y0178354D03*
X0054590Y0178354D03*
X0054640Y0178354D03*
X0054690Y0178354D03*
X0054740Y0178354D03*
X0054790Y0178354D03*
X0054840Y0178354D03*
X0054890Y0178354D03*
X0054940Y0178354D03*
X0054990Y0178354D03*
X0055040Y0178354D03*
X0055090Y0178354D03*
X0055140Y0178354D03*
X0055190Y0178354D03*
X0055240Y0178354D03*
X0055290Y0178354D03*
X0055340Y0178354D03*
X0055390Y0178354D03*
X0055440Y0178354D03*
X0055490Y0178354D03*
X0055540Y0178354D03*
X0055590Y0178354D03*
X0055640Y0178354D03*
X0055690Y0178354D03*
X0055740Y0178354D03*
X0055790Y0178354D03*
X0055840Y0178354D03*
X0055890Y0178354D03*
X0055940Y0178354D03*
X0055990Y0178354D03*
X0056040Y0178354D03*
X0056090Y0178354D03*
X0056140Y0178354D03*
X0056190Y0178354D03*
X0056240Y0178354D03*
X0056290Y0178354D03*
X0056340Y0178354D03*
X0056390Y0178354D03*
X0056440Y0178354D03*
X0056490Y0178354D03*
X0056540Y0178354D03*
X0056590Y0178354D03*
X0056640Y0178354D03*
X0056690Y0178354D03*
X0056740Y0178354D03*
X0056790Y0178354D03*
X0056840Y0178354D03*
X0056890Y0178354D03*
X0056940Y0178354D03*
X0056990Y0178354D03*
X0057040Y0178354D03*
X0057090Y0178354D03*
X0057140Y0178354D03*
X0057190Y0178354D03*
X0057240Y0178354D03*
X0057290Y0178354D03*
X0057340Y0178354D03*
X0057390Y0178354D03*
X0057440Y0178354D03*
X0057490Y0178354D03*
X0057540Y0178354D03*
X0057590Y0178354D03*
X0057640Y0178354D03*
X0057690Y0178354D03*
X0057740Y0178354D03*
X0057790Y0178354D03*
X0057840Y0178354D03*
X0057890Y0178354D03*
X0057940Y0178354D03*
X0057990Y0178354D03*
X0058040Y0178354D03*
X0058090Y0178354D03*
X0058140Y0178354D03*
X0058190Y0178354D03*
X0058240Y0178354D03*
X0058290Y0178354D03*
X0058340Y0178354D03*
X0058390Y0178354D03*
X0058440Y0178354D03*
X0058490Y0178354D03*
X0058540Y0178354D03*
X0058590Y0178354D03*
X0058640Y0178354D03*
X0058690Y0178354D03*
X0058740Y0178354D03*
X0058790Y0178354D03*
X0058840Y0178354D03*
X0058890Y0178354D03*
X0058940Y0178354D03*
X0058990Y0178354D03*
X0059040Y0178354D03*
X0059090Y0178354D03*
X0059140Y0178354D03*
X0059190Y0178354D03*
X0059240Y0178354D03*
X0059290Y0178354D03*
X0059340Y0178354D03*
X0059390Y0178354D03*
X0059440Y0178354D03*
X0059490Y0178354D03*
X0059540Y0178354D03*
X0059590Y0178354D03*
X0059640Y0178354D03*
X0059690Y0178354D03*
X0059740Y0178354D03*
X0059790Y0178354D03*
X0059840Y0178354D03*
X0059890Y0178354D03*
X0059940Y0178354D03*
X0059990Y0178354D03*
X0060040Y0178354D03*
X0060090Y0178354D03*
X0060140Y0178354D03*
X0060190Y0178354D03*
X0060240Y0178354D03*
X0060290Y0178354D03*
X0060340Y0178354D03*
X0060390Y0178354D03*
X0060440Y0178354D03*
X0060490Y0178354D03*
X0060540Y0178354D03*
X0060590Y0178354D03*
X0060640Y0178354D03*
X0060690Y0178354D03*
X0060740Y0178354D03*
X0060790Y0178354D03*
X0060840Y0178354D03*
X0060890Y0178354D03*
X0060940Y0178354D03*
X0060990Y0178354D03*
X0061040Y0178354D03*
X0061090Y0178354D03*
X0061140Y0178354D03*
X0061190Y0178354D03*
X0061240Y0178354D03*
X0061290Y0178354D03*
X0061340Y0178354D03*
X0061390Y0178354D03*
X0061440Y0178354D03*
X0061490Y0178354D03*
X0061540Y0178354D03*
X0061590Y0178354D03*
X0061640Y0178354D03*
X0061690Y0178354D03*
X0061740Y0178354D03*
X0061790Y0178354D03*
X0061840Y0178354D03*
X0061890Y0178354D03*
X0061940Y0178354D03*
X0061990Y0178354D03*
X0062040Y0178354D03*
X0062090Y0178354D03*
X0062140Y0178354D03*
X0062190Y0178354D03*
X0062240Y0178354D03*
X0062290Y0178354D03*
X0062340Y0178354D03*
X0062390Y0178354D03*
X0062440Y0178354D03*
X0062490Y0178354D03*
X0062540Y0178354D03*
X0062590Y0178354D03*
X0062640Y0178354D03*
X0062690Y0178354D03*
X0062740Y0178354D03*
X0062790Y0178354D03*
X0062840Y0178354D03*
X0062890Y0178354D03*
X0062940Y0178354D03*
X0062990Y0178354D03*
X0063040Y0178354D03*
X0063090Y0178354D03*
X0063140Y0178354D03*
X0063190Y0178354D03*
X0063240Y0178354D03*
X0063290Y0178354D03*
X0063340Y0178354D03*
X0063390Y0178354D03*
X0063440Y0178354D03*
X0063490Y0178354D03*
X0063540Y0178354D03*
X0063590Y0178354D03*
X0063640Y0178354D03*
X0063690Y0178354D03*
X0063740Y0178354D03*
X0063790Y0178354D03*
X0063840Y0178354D03*
X0063890Y0178354D03*
X0063940Y0178354D03*
X0063990Y0178354D03*
X0064040Y0178354D03*
X0064090Y0178354D03*
X0064140Y0178354D03*
X0064190Y0178354D03*
X0064240Y0178354D03*
X0064290Y0178354D03*
X0064340Y0178354D03*
X0064390Y0178354D03*
X0064440Y0178354D03*
X0064490Y0178354D03*
X0064540Y0178354D03*
X0064590Y0178354D03*
X0064640Y0178354D03*
X0064690Y0178354D03*
X0064740Y0178354D03*
X0064790Y0178354D03*
X0064840Y0178354D03*
X0064890Y0178354D03*
X0064940Y0178354D03*
X0064990Y0178354D03*
X0065040Y0178354D03*
X0065090Y0178354D03*
X0065140Y0178354D03*
X0065190Y0178354D03*
X0065240Y0178354D03*
X0065290Y0178354D03*
X0065340Y0178354D03*
X0065390Y0178354D03*
X0065440Y0178354D03*
X0065490Y0178354D03*
X0065540Y0178354D03*
X0065590Y0178354D03*
X0065640Y0178354D03*
X0065690Y0178354D03*
X0065740Y0178354D03*
X0065790Y0178354D03*
X0065840Y0178354D03*
X0071640Y0178354D03*
X0052390Y0195154D03*
X0037540Y0178354D03*
X0037490Y0178354D03*
X0037440Y0178354D03*
X0037390Y0178354D03*
X0037340Y0178354D03*
X0037290Y0178354D03*
X0037240Y0178354D03*
X0037190Y0178354D03*
X0037140Y0178354D03*
X0037090Y0178354D03*
X0037040Y0178354D03*
X0036990Y0178354D03*
X0036940Y0178354D03*
X0036890Y0178354D03*
X0036840Y0178354D03*
X0036790Y0178354D03*
X0036740Y0178354D03*
X0036690Y0178354D03*
X0036640Y0178354D03*
X0036590Y0178354D03*
X0036540Y0178354D03*
X0036490Y0178354D03*
X0036440Y0178354D03*
X0036390Y0178354D03*
X0036340Y0178354D03*
X0036290Y0178354D03*
X0036240Y0178354D03*
X0036190Y0178354D03*
X0036140Y0178354D03*
X0036090Y0178354D03*
X0036040Y0178354D03*
X0035990Y0178354D03*
X0035940Y0178354D03*
X0035890Y0178354D03*
X0035840Y0178354D03*
X0035790Y0178354D03*
X0035740Y0178354D03*
X0035690Y0178354D03*
X0035640Y0178354D03*
X0035590Y0178354D03*
X0035540Y0178354D03*
X0035490Y0178354D03*
X0035440Y0178354D03*
X0035390Y0178354D03*
X0035340Y0178354D03*
X0035290Y0178354D03*
X0035240Y0178354D03*
X0035190Y0178354D03*
X0035140Y0178354D03*
X0035090Y0178354D03*
X0035040Y0178354D03*
X0034990Y0178354D03*
X0034940Y0178354D03*
X0034890Y0178354D03*
X0034840Y0178354D03*
X0034790Y0178354D03*
X0034740Y0178354D03*
X0034690Y0178354D03*
X0034640Y0178354D03*
X0034590Y0178354D03*
X0034540Y0178354D03*
X0028690Y0178354D03*
X0028640Y0178354D03*
X0028590Y0178354D03*
X0028540Y0178354D03*
X0028490Y0178354D03*
X0028440Y0178354D03*
D196*
X0028740Y0178379D03*
X0030940Y0172479D03*
X0034490Y0178379D03*
X0046390Y0178379D03*
X0052040Y0178379D03*
X0055590Y0172379D03*
X0054840Y0170879D03*
X0058740Y0172379D03*
X0065890Y0178379D03*
X0069140Y0174129D03*
X0071540Y0178379D03*
X0071590Y0178379D03*
D197*
X0071490Y0178404D03*
X0069140Y0172054D03*
X0065940Y0178404D03*
X0051990Y0178404D03*
X0050690Y0171454D03*
X0046440Y0178404D03*
X0034440Y0178404D03*
X0028790Y0178404D03*
D198*
X0028840Y0178429D03*
X0034390Y0178429D03*
X0046490Y0178429D03*
X0050740Y0171479D03*
X0051940Y0178429D03*
X0057340Y0169529D03*
X0059940Y0169529D03*
X0062590Y0170979D03*
X0061740Y0172329D03*
X0065890Y0172279D03*
X0067340Y0170929D03*
X0067840Y0173129D03*
X0065990Y0178429D03*
X0071440Y0178429D03*
D199*
X0071390Y0178454D03*
X0066090Y0178454D03*
X0066040Y0178454D03*
X0065890Y0169604D03*
X0060240Y0169554D03*
X0058590Y0172304D03*
X0051890Y0178454D03*
X0046540Y0178454D03*
X0034340Y0178454D03*
X0034290Y0178454D03*
X0028890Y0178454D03*
D200*
X0028940Y0178479D03*
X0034240Y0178479D03*
X0046590Y0178479D03*
X0051840Y0178479D03*
X0050790Y0171529D03*
X0054790Y0170879D03*
X0055640Y0172279D03*
X0057040Y0169579D03*
X0064040Y0169629D03*
X0064040Y0172279D03*
X0066140Y0178479D03*
X0071340Y0178479D03*
D201*
X0071290Y0178504D03*
X0067890Y0173104D03*
X0066190Y0178504D03*
X0061690Y0172254D03*
X0062640Y0170954D03*
X0058790Y0172254D03*
X0051790Y0178504D03*
X0046640Y0178504D03*
X0034190Y0178504D03*
X0029040Y0178504D03*
X0028990Y0178504D03*
D202*
X0029090Y0178529D03*
X0034140Y0178529D03*
X0046690Y0178529D03*
X0051740Y0178529D03*
X0050840Y0171579D03*
X0059890Y0169629D03*
X0066240Y0178529D03*
X0067290Y0170929D03*
X0071190Y0178529D03*
X0071240Y0178529D03*
D203*
X0071140Y0178554D03*
X0066290Y0178554D03*
X0055690Y0172204D03*
X0057390Y0169654D03*
X0050890Y0171604D03*
X0051690Y0178554D03*
X0046740Y0178554D03*
X0034090Y0178554D03*
X0034040Y0178554D03*
X0029140Y0178554D03*
D204*
X0029190Y0178579D03*
X0033990Y0178579D03*
X0046790Y0178579D03*
X0051640Y0178579D03*
X0050940Y0171629D03*
X0058540Y0172179D03*
X0066340Y0178579D03*
X0071090Y0178579D03*
D205*
X0071040Y0178604D03*
X0066390Y0178604D03*
X0067940Y0173104D03*
X0062690Y0170954D03*
X0061640Y0172154D03*
X0060290Y0169704D03*
X0054740Y0170904D03*
X0050990Y0171654D03*
X0051590Y0178604D03*
X0046840Y0178604D03*
X0033940Y0178604D03*
X0029240Y0178604D03*
D206*
X0053290Y0195029D03*
X0070940Y0171879D03*
X0070990Y0171879D03*
X0071040Y0171879D03*
D207*
X0067240Y0170929D03*
X0066440Y0178629D03*
X0070990Y0178629D03*
X0058840Y0172129D03*
X0056990Y0169729D03*
X0055740Y0172129D03*
X0051040Y0171679D03*
X0051490Y0178629D03*
X0051540Y0178629D03*
X0046890Y0178629D03*
X0033890Y0178629D03*
X0029290Y0178629D03*
D208*
X0029340Y0178654D03*
X0033840Y0178654D03*
X0046940Y0178654D03*
X0046990Y0178654D03*
X0051440Y0178654D03*
X0051090Y0171704D03*
X0057440Y0169754D03*
X0059840Y0169754D03*
X0066490Y0178654D03*
X0070940Y0178654D03*
X0067990Y0173104D03*
D209*
X0066540Y0178679D03*
X0070840Y0178679D03*
X0070890Y0178679D03*
X0061590Y0172079D03*
X0051140Y0171729D03*
X0051390Y0178679D03*
X0047040Y0178679D03*
X0052440Y0195129D03*
X0033790Y0178679D03*
X0033740Y0178679D03*
X0029390Y0178679D03*
D210*
X0031440Y0172804D03*
X0032240Y0172454D03*
X0034340Y0172804D03*
X0034390Y0172804D03*
X0035140Y0172454D03*
X0041140Y0174704D03*
X0041890Y0174604D03*
X0052040Y0172804D03*
X0052090Y0172854D03*
X0053290Y0172754D03*
X0054940Y0170854D03*
X0052890Y0169054D03*
X0052840Y0169054D03*
X0052790Y0169054D03*
X0061990Y0172754D03*
X0064490Y0172854D03*
X0065390Y0172854D03*
X0065440Y0172854D03*
X0065490Y0172804D03*
X0065440Y0169054D03*
X0064490Y0169054D03*
X0069840Y0171504D03*
X0069890Y0171504D03*
X0069940Y0171504D03*
X0069990Y0171504D03*
X0070040Y0171504D03*
X0070090Y0171504D03*
X0070390Y0171454D03*
X0070590Y0174654D03*
X0070640Y0174654D03*
X0070690Y0174654D03*
X0070740Y0174654D03*
X0070790Y0174654D03*
X0070840Y0174654D03*
X0070890Y0174654D03*
X0070090Y0174654D03*
X0070040Y0174654D03*
X0069990Y0174654D03*
X0069940Y0174654D03*
X0069740Y0174604D03*
X0069690Y0174604D03*
D211*
X0069790Y0174629D03*
X0069840Y0174629D03*
X0069890Y0174629D03*
X0070140Y0174679D03*
X0070190Y0174679D03*
X0070240Y0174679D03*
X0070290Y0174679D03*
X0070340Y0174679D03*
X0070390Y0174679D03*
X0070440Y0174679D03*
X0070490Y0174679D03*
X0070540Y0174679D03*
X0070540Y0171479D03*
X0070590Y0171479D03*
X0070640Y0171479D03*
X0070690Y0171479D03*
X0070740Y0171479D03*
X0070790Y0171479D03*
X0070840Y0171479D03*
X0070890Y0171479D03*
X0070490Y0171479D03*
X0070440Y0171479D03*
X0070340Y0171479D03*
X0070290Y0171479D03*
X0070240Y0171479D03*
X0070190Y0171479D03*
X0070140Y0171479D03*
X0065340Y0172879D03*
X0065290Y0172879D03*
X0064640Y0172879D03*
X0064590Y0172879D03*
X0064540Y0172879D03*
X0064540Y0169029D03*
X0064690Y0168979D03*
X0065240Y0168979D03*
X0065340Y0169029D03*
X0065390Y0169029D03*
X0055340Y0172779D03*
X0053240Y0172779D03*
X0053190Y0172829D03*
X0052140Y0172879D03*
X0052590Y0169029D03*
X0052640Y0169029D03*
X0052690Y0169029D03*
X0052740Y0169029D03*
X0052540Y0168979D03*
X0052490Y0168979D03*
X0052440Y0168979D03*
X0052390Y0168979D03*
X0052340Y0168979D03*
X0052290Y0168979D03*
X0052240Y0168979D03*
X0040140Y0174729D03*
X0034540Y0172829D03*
X0034490Y0172829D03*
X0034440Y0172829D03*
X0032190Y0172479D03*
X0031590Y0172829D03*
X0031540Y0172829D03*
X0031490Y0172829D03*
D212*
X0029440Y0178704D03*
X0033690Y0178704D03*
X0047090Y0178704D03*
X0051340Y0178704D03*
X0051240Y0171754D03*
X0051190Y0171754D03*
X0054690Y0170904D03*
X0055790Y0172054D03*
X0058490Y0172054D03*
X0062740Y0170954D03*
X0066590Y0178704D03*
X0070790Y0178704D03*
D213*
X0070740Y0178729D03*
X0066640Y0178729D03*
X0068040Y0173129D03*
X0067190Y0170929D03*
X0051290Y0171779D03*
X0051290Y0178729D03*
X0047140Y0178729D03*
X0033640Y0178729D03*
X0029490Y0178729D03*
D214*
X0029540Y0178754D03*
X0033590Y0178754D03*
X0047190Y0178754D03*
X0051240Y0178754D03*
X0051340Y0171804D03*
X0051390Y0171804D03*
X0058890Y0172004D03*
X0060340Y0169854D03*
X0061540Y0172004D03*
X0066690Y0178754D03*
X0070690Y0178754D03*
X0068090Y0173104D03*
D215*
X0066740Y0178779D03*
X0070640Y0178779D03*
X0059790Y0169879D03*
X0057490Y0169879D03*
X0056940Y0169879D03*
X0051440Y0171829D03*
X0051190Y0178779D03*
X0047240Y0178779D03*
X0033540Y0178779D03*
X0029590Y0178779D03*
D216*
X0029640Y0178804D03*
X0033440Y0178804D03*
X0033490Y0178804D03*
X0047290Y0178804D03*
X0051140Y0178804D03*
X0051490Y0171854D03*
X0051540Y0171854D03*
X0054640Y0170904D03*
X0055840Y0171954D03*
X0058440Y0171954D03*
X0062790Y0170954D03*
X0066790Y0178804D03*
X0066840Y0178804D03*
X0070590Y0178804D03*
D217*
X0070540Y0178829D03*
X0066890Y0178829D03*
X0068140Y0173079D03*
X0067140Y0170929D03*
X0051690Y0171879D03*
X0051640Y0171879D03*
X0051590Y0171879D03*
X0051090Y0178829D03*
X0047340Y0178829D03*
X0033390Y0178829D03*
X0029740Y0178829D03*
X0029690Y0178829D03*
D218*
X0029790Y0178854D03*
X0033340Y0178854D03*
X0047390Y0178854D03*
X0051040Y0178854D03*
X0051740Y0171904D03*
X0051790Y0171904D03*
X0061490Y0171904D03*
X0066940Y0178854D03*
X0070440Y0178854D03*
X0070490Y0178854D03*
D219*
X0070390Y0178879D03*
X0066990Y0178879D03*
X0068190Y0173079D03*
X0067090Y0170929D03*
X0059740Y0169979D03*
X0058940Y0171879D03*
X0057540Y0169979D03*
X0055890Y0171879D03*
X0054590Y0170879D03*
X0050990Y0178879D03*
X0047440Y0178879D03*
X0033290Y0178879D03*
X0029840Y0178879D03*
D220*
X0029890Y0178904D03*
X0033190Y0178904D03*
X0033240Y0178904D03*
X0047490Y0178904D03*
X0050940Y0178904D03*
X0056890Y0170004D03*
X0060390Y0170004D03*
X0062840Y0170954D03*
X0067040Y0178904D03*
X0070340Y0178904D03*
X0052490Y0195104D03*
D221*
X0050890Y0178929D03*
X0047540Y0178929D03*
X0058390Y0171829D03*
X0061440Y0171829D03*
X0067090Y0178929D03*
X0070290Y0178929D03*
X0068240Y0173079D03*
X0033140Y0178929D03*
X0029940Y0178929D03*
D222*
X0029990Y0178954D03*
X0033090Y0178954D03*
X0047590Y0178954D03*
X0050790Y0178954D03*
X0050840Y0178954D03*
X0054540Y0170904D03*
X0055940Y0171804D03*
X0062890Y0170954D03*
X0067140Y0178954D03*
X0070240Y0178954D03*
X0068290Y0173104D03*
D223*
X0067040Y0170929D03*
X0067190Y0178979D03*
X0070190Y0178979D03*
X0059690Y0170079D03*
X0058990Y0171779D03*
X0057590Y0170079D03*
X0050740Y0178979D03*
X0047640Y0178979D03*
X0033040Y0178979D03*
X0030040Y0178979D03*
D224*
X0030090Y0179004D03*
X0032990Y0179004D03*
X0047690Y0179004D03*
X0047740Y0179004D03*
X0050690Y0179004D03*
X0054490Y0170904D03*
X0062940Y0170954D03*
X0068340Y0173104D03*
X0067240Y0179004D03*
X0070090Y0179004D03*
X0070140Y0179004D03*
X0060390Y0199454D03*
X0060340Y0199454D03*
X0060290Y0199454D03*
X0060240Y0199454D03*
X0060190Y0199454D03*
X0060140Y0199454D03*
X0060090Y0199454D03*
X0060040Y0199454D03*
X0059990Y0199454D03*
X0059940Y0199454D03*
X0059890Y0199454D03*
X0059840Y0199454D03*
X0059790Y0199454D03*
X0059740Y0199454D03*
X0059690Y0199454D03*
X0059640Y0199454D03*
X0059590Y0199454D03*
X0059340Y0199404D03*
X0059290Y0199404D03*
X0059240Y0199404D03*
X0059190Y0199404D03*
X0059140Y0199404D03*
X0059090Y0199404D03*
X0059040Y0199404D03*
D225*
X0058990Y0199379D03*
X0058940Y0199379D03*
X0058890Y0199379D03*
X0058840Y0199379D03*
X0059390Y0199429D03*
X0059440Y0199429D03*
X0059490Y0199429D03*
X0059540Y0199429D03*
X0060440Y0199429D03*
X0060490Y0199429D03*
X0060540Y0199429D03*
X0060590Y0199429D03*
X0060640Y0199429D03*
X0060690Y0199429D03*
X0060740Y0199429D03*
X0060790Y0199429D03*
X0060840Y0199429D03*
X0060890Y0199429D03*
X0060940Y0199429D03*
X0060990Y0199429D03*
X0061040Y0199429D03*
X0061090Y0199429D03*
X0061140Y0199429D03*
X0061240Y0190479D03*
X0061290Y0190479D03*
X0061340Y0190479D03*
X0061390Y0190479D03*
X0061440Y0190479D03*
X0061490Y0190479D03*
X0061140Y0190429D03*
X0061090Y0190429D03*
X0061040Y0190429D03*
X0060990Y0190429D03*
X0060940Y0190429D03*
X0060890Y0190429D03*
X0060840Y0190429D03*
X0060790Y0190429D03*
X0060740Y0190429D03*
X0060690Y0190429D03*
X0060640Y0190429D03*
X0060590Y0190429D03*
X0060540Y0190429D03*
X0060490Y0190429D03*
X0060440Y0190429D03*
X0060390Y0190429D03*
X0060340Y0190429D03*
X0060290Y0190429D03*
X0060240Y0190429D03*
X0060190Y0190429D03*
X0060140Y0190429D03*
X0060090Y0190429D03*
X0060040Y0190429D03*
X0059990Y0190429D03*
X0059940Y0190429D03*
X0059890Y0190429D03*
X0059840Y0190429D03*
X0059790Y0190429D03*
X0059740Y0190429D03*
X0059690Y0190429D03*
X0059640Y0190429D03*
X0067290Y0179029D03*
X0070040Y0179029D03*
X0066990Y0170929D03*
X0061390Y0171729D03*
X0060440Y0170129D03*
X0058340Y0171729D03*
X0056840Y0170129D03*
X0050640Y0179029D03*
X0047790Y0179029D03*
X0032940Y0179029D03*
X0032890Y0179029D03*
X0030140Y0179029D03*
D226*
X0030190Y0179054D03*
X0032840Y0179054D03*
X0047840Y0179054D03*
X0050590Y0179054D03*
X0055990Y0171704D03*
X0059240Y0190454D03*
X0059290Y0190454D03*
X0059340Y0190454D03*
X0059390Y0190454D03*
X0059440Y0190454D03*
X0059490Y0190454D03*
X0059540Y0190454D03*
X0059590Y0190454D03*
X0059040Y0190504D03*
X0061190Y0190454D03*
X0061540Y0190504D03*
X0061590Y0190504D03*
X0061440Y0199404D03*
X0061390Y0199404D03*
X0061340Y0199404D03*
X0061290Y0199404D03*
X0061240Y0199404D03*
X0061190Y0199404D03*
X0058790Y0199354D03*
X0058740Y0199354D03*
X0058690Y0199354D03*
X0058640Y0199354D03*
X0058590Y0199354D03*
X0067340Y0179054D03*
X0069990Y0179054D03*
X0068390Y0173104D03*
D227*
X0066940Y0170929D03*
X0062990Y0170979D03*
X0059640Y0170179D03*
X0059040Y0171679D03*
X0057640Y0170179D03*
X0054440Y0170929D03*
X0050540Y0179079D03*
X0047890Y0179079D03*
X0058790Y0190529D03*
X0058840Y0190529D03*
X0058890Y0190529D03*
X0058940Y0190529D03*
X0058990Y0190529D03*
X0059090Y0190479D03*
X0059140Y0190479D03*
X0059190Y0190479D03*
X0058340Y0199279D03*
X0058290Y0199279D03*
X0058440Y0199329D03*
X0058490Y0199329D03*
X0058540Y0199329D03*
X0061490Y0199379D03*
X0061540Y0199379D03*
X0061590Y0199379D03*
X0067390Y0179079D03*
X0069940Y0179079D03*
X0032790Y0179079D03*
X0030240Y0179079D03*
D228*
X0030290Y0179104D03*
X0032740Y0179104D03*
X0047940Y0179104D03*
X0050490Y0179104D03*
X0058490Y0190604D03*
X0058540Y0190604D03*
X0058640Y0190554D03*
X0058690Y0190554D03*
X0058740Y0190554D03*
X0058240Y0199254D03*
X0058190Y0199254D03*
X0058390Y0199304D03*
X0052540Y0195104D03*
X0061340Y0171654D03*
X0068440Y0173104D03*
X0068490Y0173104D03*
X0067440Y0179104D03*
X0069890Y0179104D03*
D229*
X0069840Y0179129D03*
X0067540Y0179129D03*
X0067490Y0179129D03*
X0066890Y0170929D03*
X0063040Y0170979D03*
X0058290Y0171629D03*
X0056040Y0171629D03*
X0050440Y0179129D03*
X0047990Y0179129D03*
X0041740Y0199179D03*
X0041690Y0199179D03*
X0041640Y0199179D03*
X0041590Y0199179D03*
X0041540Y0199179D03*
X0041490Y0199179D03*
X0041440Y0199179D03*
X0041390Y0199179D03*
X0041340Y0199179D03*
X0041290Y0199179D03*
X0041240Y0199179D03*
X0041190Y0199179D03*
X0041140Y0199179D03*
X0041090Y0199179D03*
X0041040Y0199179D03*
X0040990Y0199179D03*
X0040940Y0199179D03*
X0040890Y0199179D03*
X0040840Y0199179D03*
X0040790Y0199179D03*
X0040740Y0199179D03*
X0040690Y0199179D03*
X0040640Y0199179D03*
X0040590Y0199179D03*
X0040540Y0199179D03*
X0040490Y0199179D03*
X0040440Y0199179D03*
X0040390Y0199179D03*
X0040340Y0199179D03*
X0040290Y0199179D03*
X0040240Y0199179D03*
X0040190Y0199179D03*
X0040140Y0199179D03*
X0040090Y0199179D03*
X0040040Y0199179D03*
X0039990Y0199179D03*
X0039940Y0199179D03*
X0039890Y0199179D03*
X0039840Y0199179D03*
X0039790Y0199179D03*
X0039740Y0199179D03*
X0039690Y0199179D03*
X0039640Y0199179D03*
X0039590Y0199179D03*
X0039540Y0199179D03*
X0039490Y0199179D03*
X0039440Y0199179D03*
X0039390Y0199179D03*
X0039340Y0199179D03*
X0039290Y0199179D03*
X0039240Y0199179D03*
X0039190Y0199179D03*
X0039140Y0199179D03*
X0039090Y0199179D03*
X0039040Y0199179D03*
X0038990Y0199179D03*
X0038940Y0199179D03*
X0038890Y0199179D03*
X0038840Y0199179D03*
X0038790Y0199179D03*
X0038740Y0199179D03*
X0038690Y0199179D03*
X0038640Y0199179D03*
X0038590Y0199179D03*
X0038540Y0199179D03*
X0038490Y0199179D03*
X0038440Y0199179D03*
X0038390Y0199179D03*
X0038340Y0199179D03*
X0038290Y0199179D03*
X0038240Y0199179D03*
X0038190Y0199179D03*
X0038140Y0199179D03*
X0038090Y0199179D03*
X0038040Y0199179D03*
X0037990Y0199179D03*
X0037940Y0199179D03*
X0037890Y0199179D03*
X0037840Y0199179D03*
X0037790Y0199179D03*
X0037740Y0199179D03*
X0037690Y0199179D03*
X0037640Y0199179D03*
X0037590Y0199179D03*
X0037540Y0199179D03*
X0037490Y0199179D03*
X0037440Y0199179D03*
X0037390Y0199179D03*
X0037340Y0199179D03*
X0037290Y0199179D03*
X0037240Y0199179D03*
X0037190Y0199179D03*
X0037140Y0199179D03*
X0037090Y0199179D03*
X0037040Y0199179D03*
X0036990Y0199179D03*
X0036940Y0199179D03*
X0036890Y0199179D03*
X0036840Y0199179D03*
X0036790Y0199179D03*
X0036740Y0199179D03*
X0036690Y0199179D03*
X0036640Y0199179D03*
X0036590Y0199179D03*
X0036540Y0199179D03*
X0036490Y0199179D03*
X0036440Y0199179D03*
X0036390Y0199179D03*
X0036340Y0199179D03*
X0036290Y0199179D03*
X0036240Y0199179D03*
X0036190Y0199179D03*
X0036140Y0199179D03*
X0036090Y0199179D03*
X0036040Y0199179D03*
X0035990Y0199179D03*
X0035940Y0199179D03*
X0035890Y0199179D03*
X0035840Y0199179D03*
X0035790Y0199179D03*
X0035740Y0199179D03*
X0035690Y0199179D03*
X0035640Y0199179D03*
X0035590Y0199179D03*
X0035540Y0199179D03*
X0035490Y0199179D03*
X0035440Y0199179D03*
X0035390Y0199179D03*
X0035340Y0199179D03*
X0035290Y0199179D03*
X0035240Y0199179D03*
X0035190Y0199179D03*
X0035140Y0199179D03*
X0035090Y0199179D03*
X0035040Y0199179D03*
X0034990Y0199179D03*
X0034940Y0199179D03*
X0034890Y0199179D03*
X0034840Y0199179D03*
X0034790Y0199179D03*
X0034740Y0199179D03*
X0034690Y0199179D03*
X0034640Y0199179D03*
X0034590Y0199179D03*
X0032690Y0179129D03*
X0030340Y0179129D03*
X0029440Y0170229D03*
X0058390Y0190629D03*
X0058440Y0190629D03*
X0058590Y0190579D03*
X0057940Y0199179D03*
X0058040Y0199229D03*
X0058090Y0199229D03*
X0058140Y0199229D03*
D230*
X0067890Y0187279D03*
X0069790Y0187279D03*
X0032640Y0187279D03*
D231*
X0031390Y0172829D03*
X0031340Y0172829D03*
X0031290Y0172829D03*
X0034240Y0172829D03*
X0034290Y0172829D03*
X0035190Y0172379D03*
X0040190Y0174729D03*
X0041090Y0174729D03*
X0041940Y0174579D03*
X0041990Y0174579D03*
X0042040Y0174579D03*
X0042090Y0174579D03*
X0042140Y0174579D03*
X0042190Y0174579D03*
X0042240Y0174579D03*
X0042290Y0174579D03*
X0042340Y0174579D03*
X0042390Y0174579D03*
X0042440Y0174579D03*
X0042490Y0174579D03*
X0042540Y0174579D03*
X0042590Y0174579D03*
X0042640Y0174579D03*
X0042690Y0174579D03*
X0042740Y0174579D03*
X0042790Y0174579D03*
X0042840Y0174579D03*
X0042890Y0174579D03*
X0042940Y0174579D03*
X0042990Y0174579D03*
X0043040Y0174579D03*
X0043090Y0174579D03*
X0043140Y0174579D03*
X0043190Y0174579D03*
X0043240Y0174579D03*
X0043290Y0174579D03*
X0043340Y0174579D03*
X0043390Y0174579D03*
X0043440Y0174579D03*
X0043490Y0174579D03*
X0043540Y0174579D03*
X0043590Y0174579D03*
X0043640Y0174579D03*
X0043690Y0174579D03*
X0043740Y0174579D03*
X0043790Y0174579D03*
X0043840Y0174579D03*
X0043890Y0174579D03*
X0043940Y0174579D03*
X0043990Y0174579D03*
X0044040Y0174579D03*
X0044090Y0174579D03*
X0044140Y0174579D03*
X0044190Y0174579D03*
X0044240Y0174579D03*
X0044290Y0174579D03*
X0044340Y0174579D03*
X0044390Y0174579D03*
X0044440Y0174579D03*
X0044440Y0171829D03*
X0044390Y0171829D03*
X0044340Y0171829D03*
X0044290Y0171829D03*
X0044240Y0171829D03*
X0044190Y0171829D03*
X0044140Y0171829D03*
X0044090Y0171829D03*
X0044040Y0171829D03*
X0043990Y0171829D03*
X0043940Y0171829D03*
X0043890Y0171829D03*
X0043840Y0171829D03*
X0043790Y0171829D03*
X0043740Y0171829D03*
X0043690Y0171829D03*
X0043640Y0171829D03*
X0043590Y0171829D03*
X0043540Y0171829D03*
X0043490Y0171829D03*
X0043440Y0171829D03*
X0043390Y0171829D03*
X0043340Y0171829D03*
X0043290Y0171829D03*
X0043240Y0171829D03*
X0043190Y0171829D03*
X0043140Y0171829D03*
X0043090Y0171829D03*
X0043040Y0171829D03*
X0042990Y0171829D03*
X0042940Y0171829D03*
X0042890Y0171829D03*
X0042840Y0171829D03*
X0042790Y0171829D03*
X0042740Y0171829D03*
X0042690Y0171829D03*
X0042640Y0171829D03*
X0042590Y0171829D03*
X0042540Y0171829D03*
X0042490Y0171829D03*
X0042440Y0171829D03*
X0042390Y0171829D03*
X0042340Y0171829D03*
X0042290Y0171829D03*
X0042240Y0171829D03*
X0042190Y0171829D03*
X0042140Y0171829D03*
X0042090Y0171829D03*
X0051990Y0172779D03*
X0053090Y0169129D03*
X0052990Y0169079D03*
X0052940Y0169079D03*
X0064440Y0169079D03*
X0065490Y0169079D03*
X0065540Y0172779D03*
X0064440Y0172829D03*
X0067690Y0173129D03*
X0069590Y0174579D03*
X0069640Y0174579D03*
X0069690Y0171579D03*
X0069740Y0171529D03*
X0069790Y0171529D03*
D232*
X0069740Y0187304D03*
X0069690Y0187304D03*
X0069640Y0187304D03*
X0069590Y0187304D03*
X0069540Y0187304D03*
X0069490Y0187304D03*
X0069440Y0187304D03*
X0069390Y0187304D03*
X0069340Y0187304D03*
X0069290Y0187304D03*
X0069240Y0187304D03*
X0069190Y0187304D03*
X0069140Y0187304D03*
X0069090Y0187304D03*
X0069040Y0187304D03*
X0068990Y0187304D03*
X0068940Y0187304D03*
X0068890Y0187304D03*
X0068840Y0187304D03*
X0068790Y0187304D03*
X0068740Y0187304D03*
X0068690Y0187304D03*
X0068640Y0187304D03*
X0068590Y0187304D03*
X0068540Y0187304D03*
X0068490Y0187304D03*
X0068440Y0187304D03*
X0068390Y0187304D03*
X0068340Y0187304D03*
X0068290Y0187304D03*
X0068240Y0187304D03*
X0068190Y0187304D03*
X0068140Y0187304D03*
X0068090Y0187304D03*
X0068040Y0187304D03*
X0067990Y0187304D03*
X0067940Y0187304D03*
X0050190Y0187304D03*
X0050140Y0187304D03*
X0050090Y0187304D03*
X0050040Y0187304D03*
X0049990Y0187304D03*
X0049940Y0187304D03*
X0049890Y0187304D03*
X0049840Y0187304D03*
X0049790Y0187304D03*
X0049740Y0187304D03*
X0049690Y0187304D03*
X0049640Y0187304D03*
X0049590Y0187304D03*
X0049540Y0187304D03*
X0049490Y0187304D03*
X0049440Y0187304D03*
X0049390Y0187304D03*
X0049340Y0187304D03*
X0049290Y0187304D03*
X0049240Y0187304D03*
X0049190Y0187304D03*
X0049140Y0187304D03*
X0049090Y0187304D03*
X0049040Y0187304D03*
X0048990Y0187304D03*
X0048940Y0187304D03*
X0048890Y0187304D03*
X0048840Y0187304D03*
X0048790Y0187304D03*
X0048740Y0187304D03*
X0048690Y0187304D03*
X0048640Y0187304D03*
X0048590Y0187304D03*
X0048540Y0187304D03*
X0048490Y0187304D03*
X0048440Y0187304D03*
X0048390Y0187304D03*
X0032590Y0187304D03*
X0032540Y0187304D03*
X0032490Y0187304D03*
X0032440Y0187304D03*
X0032390Y0187304D03*
X0032340Y0187304D03*
X0032290Y0187304D03*
X0032240Y0187304D03*
X0032190Y0187304D03*
X0032140Y0187304D03*
X0032090Y0187304D03*
X0032040Y0187304D03*
X0031990Y0187304D03*
X0031940Y0187304D03*
X0031890Y0187304D03*
X0031840Y0187304D03*
X0031790Y0187304D03*
X0031740Y0187304D03*
X0031690Y0187304D03*
X0031640Y0187304D03*
X0031590Y0187304D03*
X0031540Y0187304D03*
X0031490Y0187304D03*
X0031440Y0187304D03*
X0031390Y0187304D03*
X0031340Y0187304D03*
X0031290Y0187304D03*
X0031240Y0187304D03*
X0031190Y0187304D03*
X0031140Y0187304D03*
X0031090Y0187304D03*
X0031040Y0187304D03*
X0030990Y0187304D03*
X0030940Y0187304D03*
X0030890Y0187304D03*
X0030840Y0187304D03*
X0030790Y0187304D03*
X0030740Y0187304D03*
D233*
X0031240Y0172804D03*
X0034190Y0172804D03*
X0036790Y0172704D03*
X0040240Y0174704D03*
X0041040Y0174704D03*
X0051940Y0172754D03*
X0053340Y0172704D03*
X0055390Y0172704D03*
X0053140Y0169154D03*
X0053040Y0169104D03*
X0062490Y0170954D03*
X0064340Y0169154D03*
X0064390Y0169104D03*
X0065540Y0169104D03*
X0065590Y0172754D03*
X0064390Y0172804D03*
X0064340Y0172754D03*
X0069490Y0171654D03*
X0069590Y0171604D03*
X0069640Y0171604D03*
X0069490Y0174504D03*
X0069440Y0174504D03*
X0069540Y0174554D03*
D234*
X0069390Y0174479D03*
X0069440Y0171679D03*
X0069540Y0171629D03*
X0067440Y0170929D03*
X0065640Y0169179D03*
X0065590Y0169129D03*
X0064290Y0169179D03*
X0064290Y0172729D03*
X0065640Y0172729D03*
X0061940Y0172679D03*
X0060090Y0169179D03*
X0057190Y0169179D03*
X0053190Y0169179D03*
X0050440Y0171129D03*
X0053390Y0172629D03*
X0047940Y0172329D03*
X0047890Y0172379D03*
X0047840Y0172429D03*
X0047790Y0172479D03*
X0047740Y0172529D03*
X0047690Y0172579D03*
X0047640Y0172579D03*
X0047590Y0172629D03*
X0047540Y0172629D03*
X0047490Y0172679D03*
X0047440Y0172679D03*
X0047340Y0172729D03*
X0047290Y0172729D03*
X0046640Y0172729D03*
X0040290Y0174729D03*
X0034140Y0172779D03*
X0032290Y0172329D03*
X0031190Y0172779D03*
D235*
X0031140Y0172754D03*
X0034090Y0172754D03*
X0040340Y0174704D03*
X0040390Y0174704D03*
X0040890Y0174704D03*
X0040940Y0174704D03*
X0040990Y0174704D03*
X0046690Y0172754D03*
X0046740Y0172754D03*
X0046790Y0172754D03*
X0046840Y0172754D03*
X0046890Y0172754D03*
X0046940Y0172754D03*
X0046990Y0172754D03*
X0047040Y0172754D03*
X0047090Y0172754D03*
X0047140Y0172754D03*
X0047190Y0172754D03*
X0047240Y0172754D03*
X0047390Y0172704D03*
X0047990Y0172254D03*
X0053240Y0169204D03*
X0053290Y0169254D03*
X0065690Y0172654D03*
X0069390Y0171704D03*
D236*
X0069340Y0174429D03*
X0065690Y0169229D03*
X0064240Y0169229D03*
X0064240Y0172679D03*
X0053440Y0172579D03*
X0051890Y0172679D03*
X0053340Y0169279D03*
X0040840Y0174729D03*
X0040790Y0174729D03*
X0040540Y0174729D03*
X0040490Y0174729D03*
X0040440Y0174729D03*
X0035240Y0172229D03*
X0034040Y0172729D03*
X0031090Y0172729D03*
D237*
X0040590Y0174704D03*
X0040640Y0174704D03*
X0040690Y0174704D03*
X0040740Y0174704D03*
X0050490Y0171204D03*
X0051840Y0172604D03*
X0053390Y0169304D03*
X0055440Y0172604D03*
X0064190Y0172604D03*
X0065740Y0172604D03*
X0069340Y0171754D03*
X0069290Y0174404D03*
D238*
X0069240Y0174379D03*
X0069240Y0171829D03*
X0069290Y0171779D03*
X0065740Y0169279D03*
X0064190Y0169279D03*
X0061890Y0172579D03*
X0060140Y0169279D03*
X0048040Y0172179D03*
X0033990Y0172679D03*
D239*
X0033940Y0172629D03*
X0050540Y0171279D03*
X0053490Y0169429D03*
X0054890Y0170879D03*
X0055490Y0172529D03*
X0062540Y0170979D03*
X0064140Y0172529D03*
X0065790Y0172529D03*
X0065790Y0169329D03*
X0064140Y0169379D03*
X0069190Y0174279D03*
D240*
X0069190Y0171929D03*
X0065840Y0169429D03*
X0064090Y0169429D03*
D241*
X0063340Y0170954D03*
X0060590Y0170504D03*
X0059440Y0170604D03*
X0059390Y0170804D03*
X0058140Y0171354D03*
X0048290Y0170504D03*
X0057290Y0191104D03*
X0057090Y0198754D03*
X0057140Y0198804D03*
X0069090Y0173104D03*
D242*
X0069040Y0173079D03*
X0068990Y0173079D03*
X0066640Y0170929D03*
X0057790Y0170479D03*
X0056690Y0170479D03*
X0056190Y0171379D03*
X0054140Y0170929D03*
X0057340Y0191079D03*
X0057190Y0198829D03*
X0029590Y0170479D03*
D243*
X0057390Y0191054D03*
X0057440Y0191004D03*
X0057240Y0198854D03*
X0061190Y0171404D03*
X0059490Y0170454D03*
X0063240Y0170954D03*
X0063290Y0170954D03*
X0068940Y0173104D03*
D244*
X0068890Y0173079D03*
X0066690Y0170929D03*
X0059190Y0171429D03*
X0054190Y0170929D03*
X0057490Y0190979D03*
X0057290Y0198879D03*
X0057340Y0198929D03*
X0029540Y0170429D03*
D245*
X0048340Y0179304D03*
X0054240Y0170904D03*
X0058190Y0171454D03*
X0063190Y0170954D03*
X0068790Y0173104D03*
X0068840Y0173104D03*
X0057540Y0190954D03*
X0052590Y0195104D03*
D246*
X0057490Y0199004D03*
X0057740Y0190854D03*
X0048240Y0179254D03*
X0054290Y0170904D03*
X0056740Y0170354D03*
X0059140Y0171504D03*
X0059540Y0170354D03*
X0063140Y0170954D03*
X0068690Y0173104D03*
X0068740Y0173104D03*
X0067790Y0179254D03*
X0030640Y0179254D03*
D247*
X0030540Y0179204D03*
X0048140Y0179204D03*
X0050290Y0179204D03*
X0054340Y0170904D03*
X0056090Y0171554D03*
X0061290Y0171554D03*
X0063090Y0170954D03*
X0068640Y0173104D03*
X0067690Y0179204D03*
X0057990Y0190754D03*
X0057940Y0190754D03*
X0057890Y0190804D03*
X0057740Y0199104D03*
X0057690Y0199104D03*
D248*
X0057790Y0199129D03*
X0058040Y0190729D03*
X0058090Y0190729D03*
X0050340Y0179179D03*
X0048090Y0179179D03*
X0057690Y0170279D03*
X0066840Y0170929D03*
X0068590Y0173079D03*
X0067640Y0179179D03*
X0030490Y0179179D03*
X0030440Y0179179D03*
D249*
X0030390Y0179154D03*
X0035040Y0191404D03*
X0035090Y0191404D03*
X0035140Y0191404D03*
X0035190Y0191404D03*
X0035240Y0191404D03*
X0035290Y0191404D03*
X0035340Y0191404D03*
X0035390Y0191404D03*
X0035440Y0191404D03*
X0035490Y0191404D03*
X0035540Y0191404D03*
X0035590Y0191404D03*
X0035640Y0191404D03*
X0035690Y0191404D03*
X0035740Y0191404D03*
X0035790Y0191404D03*
X0035840Y0191404D03*
X0035890Y0191404D03*
X0035940Y0191404D03*
X0035990Y0191404D03*
X0036040Y0191404D03*
X0036090Y0191404D03*
X0036140Y0191404D03*
X0036190Y0191404D03*
X0036240Y0191404D03*
X0036290Y0191404D03*
X0036340Y0191404D03*
X0036390Y0191404D03*
X0036440Y0191404D03*
X0036490Y0191404D03*
X0036540Y0191404D03*
X0036590Y0191404D03*
X0036640Y0191404D03*
X0036690Y0191404D03*
X0036740Y0191404D03*
X0036790Y0191404D03*
X0036840Y0191404D03*
X0036890Y0191404D03*
X0036940Y0191404D03*
X0036990Y0191404D03*
X0037040Y0191404D03*
X0037090Y0191404D03*
X0037140Y0191404D03*
X0037190Y0191404D03*
X0037240Y0191404D03*
X0037290Y0191404D03*
X0037340Y0191404D03*
X0037390Y0191404D03*
X0037440Y0191404D03*
X0037490Y0191404D03*
X0037540Y0191404D03*
X0037590Y0191404D03*
X0037640Y0191404D03*
X0037690Y0191404D03*
X0037740Y0191404D03*
X0037790Y0191404D03*
X0037840Y0191404D03*
X0037890Y0191404D03*
X0037940Y0191404D03*
X0037990Y0191404D03*
X0038040Y0191404D03*
X0038090Y0191404D03*
X0038140Y0191404D03*
X0038190Y0191404D03*
X0038240Y0191404D03*
X0038290Y0191404D03*
X0038340Y0191404D03*
X0038390Y0191404D03*
X0038440Y0191404D03*
X0038490Y0191404D03*
X0038540Y0191404D03*
X0038590Y0191404D03*
X0038640Y0191404D03*
X0038690Y0191404D03*
X0038740Y0191404D03*
X0038790Y0191404D03*
X0038840Y0191404D03*
X0038890Y0191404D03*
X0038940Y0191404D03*
X0038990Y0191404D03*
X0039040Y0191404D03*
X0039090Y0191404D03*
X0039140Y0191404D03*
X0039190Y0191404D03*
X0039240Y0191404D03*
X0039290Y0191404D03*
X0039340Y0191404D03*
X0039390Y0191404D03*
X0039440Y0191404D03*
X0039490Y0191404D03*
X0039540Y0191404D03*
X0039590Y0191404D03*
X0039640Y0191404D03*
X0039690Y0191404D03*
X0039740Y0191404D03*
X0039790Y0191404D03*
X0039840Y0191404D03*
X0039890Y0191404D03*
X0039940Y0191404D03*
X0039990Y0191404D03*
X0040040Y0191404D03*
X0040090Y0191404D03*
X0040140Y0191404D03*
X0040190Y0191404D03*
X0040240Y0191404D03*
X0040290Y0191404D03*
X0040340Y0191404D03*
X0040390Y0191404D03*
X0040440Y0191404D03*
X0040490Y0191404D03*
X0040540Y0191404D03*
X0040590Y0191404D03*
X0040640Y0191404D03*
X0040690Y0191404D03*
X0040740Y0191404D03*
X0040790Y0191404D03*
X0040840Y0191404D03*
X0040890Y0191404D03*
X0040940Y0191404D03*
X0040990Y0191404D03*
X0041040Y0191404D03*
X0041090Y0191404D03*
X0041140Y0191404D03*
X0041190Y0191404D03*
X0041240Y0191404D03*
X0041290Y0191404D03*
X0041340Y0191404D03*
X0041390Y0191404D03*
X0041440Y0191404D03*
X0041490Y0191404D03*
X0041540Y0191404D03*
X0041590Y0191404D03*
X0041640Y0191404D03*
X0041690Y0191404D03*
X0041740Y0191404D03*
X0048040Y0179154D03*
X0050390Y0179154D03*
X0054390Y0170904D03*
X0056790Y0170254D03*
X0059090Y0171604D03*
X0059590Y0170254D03*
X0060490Y0170254D03*
X0068540Y0173104D03*
X0067590Y0179154D03*
X0058340Y0190654D03*
X0058290Y0190654D03*
X0058240Y0190654D03*
X0058190Y0190704D03*
X0058140Y0190704D03*
X0057890Y0199154D03*
X0057840Y0199154D03*
X0057990Y0199204D03*
D250*
X0057440Y0198979D03*
X0057390Y0198979D03*
X0057590Y0190929D03*
X0057640Y0190879D03*
X0057690Y0190879D03*
X0048290Y0179279D03*
X0056140Y0171479D03*
X0057740Y0170379D03*
X0060540Y0170379D03*
X0061240Y0171479D03*
X0066740Y0170929D03*
X0066790Y0170929D03*
X0067840Y0179279D03*
X0030690Y0179279D03*
D251*
X0030590Y0179229D03*
X0029490Y0170329D03*
X0048190Y0179229D03*
X0050240Y0179229D03*
X0058240Y0171529D03*
X0067740Y0179229D03*
X0057840Y0190829D03*
X0057790Y0190829D03*
X0057590Y0199029D03*
X0057540Y0199029D03*
X0057640Y0199079D03*
D252*
X0053490Y0172504D03*
X0053440Y0169354D03*
X0057140Y0169304D03*
X0057240Y0169304D03*
X0060040Y0169304D03*
X0067740Y0173104D03*
X0031040Y0172654D03*
D253*
X0050390Y0171079D03*
X0052340Y0195129D03*
X0067640Y0173129D03*
D254*
X0067490Y0170904D03*
D255*
X0067390Y0170904D03*
X0061840Y0172504D03*
X0058690Y0172504D03*
X0048090Y0172004D03*
X0030990Y0172604D03*
D256*
X0054090Y0170929D03*
X0059240Y0171329D03*
X0059290Y0171179D03*
X0059340Y0170979D03*
X0066540Y0170929D03*
X0066590Y0170929D03*
X0057240Y0191129D03*
X0057190Y0191179D03*
X0057040Y0198729D03*
D257*
X0056990Y0198679D03*
X0054040Y0170929D03*
X0053990Y0170929D03*
X0057840Y0170579D03*
X0066490Y0170929D03*
X0048190Y0170579D03*
X0032640Y0170579D03*
X0032590Y0170579D03*
D258*
X0032690Y0170629D03*
X0035390Y0170629D03*
X0035440Y0170629D03*
X0029740Y0170629D03*
X0048140Y0170629D03*
X0053940Y0170929D03*
X0056290Y0171229D03*
X0060640Y0170629D03*
X0061090Y0171229D03*
X0063490Y0170979D03*
X0066440Y0170929D03*
X0057040Y0191279D03*
X0056940Y0198629D03*
D259*
X0056840Y0198529D03*
X0052690Y0195079D03*
X0053840Y0170929D03*
X0053890Y0170929D03*
X0057890Y0170679D03*
X0058040Y0171179D03*
X0066340Y0170929D03*
X0066390Y0170929D03*
X0032740Y0170679D03*
X0032440Y0170679D03*
X0029790Y0170679D03*
D260*
X0029890Y0170729D03*
X0032340Y0170729D03*
X0053740Y0170929D03*
X0053790Y0170929D03*
X0057940Y0170829D03*
X0057990Y0171029D03*
X0061040Y0171129D03*
X0066240Y0170929D03*
X0066290Y0170929D03*
X0056890Y0191429D03*
X0056790Y0198479D03*
D261*
X0053690Y0170929D03*
X0066140Y0170929D03*
X0066190Y0170929D03*
X0032940Y0170779D03*
X0032890Y0170779D03*
X0029990Y0170779D03*
D262*
X0030090Y0170829D03*
X0033040Y0170829D03*
X0053540Y0170929D03*
X0056540Y0170829D03*
X0066040Y0170929D03*
X0066090Y0170929D03*
X0056790Y0191579D03*
X0052740Y0195079D03*
X0056740Y0198379D03*
D263*
X0056440Y0170979D03*
X0060740Y0170879D03*
X0060940Y0170979D03*
X0065940Y0170929D03*
X0065990Y0170929D03*
X0033190Y0170879D03*
X0033140Y0170879D03*
X0030240Y0170879D03*
X0030190Y0170879D03*
D264*
X0065590Y0191429D03*
X0065640Y0191429D03*
X0065690Y0191429D03*
X0065740Y0191429D03*
X0065790Y0191429D03*
X0065840Y0191429D03*
D265*
X0065840Y0172454D03*
X0064090Y0172454D03*
X0060190Y0169404D03*
X0059990Y0169404D03*
X0057290Y0169404D03*
X0055540Y0172454D03*
X0050590Y0171354D03*
X0033890Y0172554D03*
D266*
X0065240Y0191454D03*
X0065290Y0191454D03*
X0065340Y0191454D03*
X0065390Y0191454D03*
X0065440Y0191454D03*
X0065490Y0191454D03*
X0065540Y0191454D03*
D267*
X0065240Y0172904D03*
X0065190Y0172904D03*
X0065140Y0172904D03*
X0065090Y0172904D03*
X0064790Y0172904D03*
X0064740Y0172904D03*
X0064690Y0172904D03*
X0064640Y0169004D03*
X0064590Y0169004D03*
X0064740Y0168954D03*
X0064790Y0168954D03*
X0064840Y0168954D03*
X0064890Y0168954D03*
X0064940Y0168954D03*
X0064990Y0168954D03*
X0065040Y0168954D03*
X0065090Y0168954D03*
X0065140Y0168954D03*
X0065190Y0168954D03*
X0065290Y0169004D03*
X0053140Y0172854D03*
X0053090Y0172854D03*
X0052190Y0172904D03*
X0051590Y0169054D03*
X0051540Y0169054D03*
X0051490Y0169054D03*
X0051440Y0169054D03*
X0051390Y0169054D03*
X0051340Y0169054D03*
X0051290Y0169104D03*
X0051240Y0169104D03*
X0051190Y0169104D03*
X0051090Y0169154D03*
X0051040Y0169154D03*
X0050990Y0169154D03*
X0050890Y0169204D03*
X0050840Y0169204D03*
X0051640Y0169004D03*
X0051690Y0169004D03*
X0051740Y0169004D03*
X0051790Y0169004D03*
X0051840Y0169004D03*
X0051890Y0169004D03*
X0051940Y0169004D03*
X0051990Y0169004D03*
X0052040Y0169004D03*
X0052090Y0169004D03*
X0052140Y0169004D03*
X0052190Y0169004D03*
X0041190Y0174704D03*
X0040090Y0174704D03*
X0035090Y0172504D03*
X0035040Y0172554D03*
X0034990Y0172604D03*
X0034940Y0172654D03*
X0034840Y0172704D03*
X0034740Y0172754D03*
X0034690Y0172754D03*
X0034640Y0172804D03*
X0034590Y0172804D03*
X0032140Y0172554D03*
X0032090Y0172604D03*
X0032040Y0172654D03*
X0031940Y0172704D03*
X0031840Y0172754D03*
X0031790Y0172754D03*
X0031740Y0172804D03*
X0031690Y0172804D03*
X0031640Y0172804D03*
D268*
X0064890Y0191479D03*
X0064940Y0191479D03*
X0064990Y0191479D03*
X0065040Y0191479D03*
X0065090Y0191479D03*
X0065140Y0191479D03*
X0065190Y0191479D03*
D269*
X0065040Y0172929D03*
X0064990Y0172929D03*
X0064940Y0172929D03*
X0064890Y0172929D03*
X0064840Y0172929D03*
X0053490Y0170979D03*
X0053440Y0170979D03*
X0053390Y0170979D03*
X0053340Y0170979D03*
X0053290Y0170979D03*
X0053240Y0170979D03*
X0053190Y0170979D03*
X0053140Y0170979D03*
X0053090Y0170979D03*
X0053040Y0170979D03*
X0052990Y0170979D03*
X0052940Y0170979D03*
X0052890Y0170979D03*
X0052840Y0170979D03*
X0052790Y0170979D03*
X0052740Y0170979D03*
X0052690Y0170979D03*
X0052640Y0170979D03*
X0052590Y0170979D03*
X0052540Y0170979D03*
X0052490Y0170979D03*
X0052440Y0170979D03*
X0052390Y0170979D03*
X0052340Y0170979D03*
X0052290Y0170979D03*
X0052240Y0170979D03*
X0052190Y0170979D03*
X0052140Y0170979D03*
X0052090Y0170979D03*
X0052040Y0170979D03*
X0051990Y0170979D03*
X0051940Y0170979D03*
X0051890Y0170979D03*
X0051840Y0170979D03*
X0051140Y0169129D03*
X0050940Y0169179D03*
X0052240Y0172929D03*
X0052290Y0172929D03*
X0052940Y0172929D03*
X0052990Y0172929D03*
X0053040Y0172879D03*
X0041240Y0174729D03*
X0040040Y0174729D03*
X0034890Y0172679D03*
X0034790Y0172729D03*
X0031990Y0172679D03*
X0031890Y0172729D03*
D270*
X0064390Y0191504D03*
X0064440Y0191504D03*
X0064490Y0191504D03*
X0064540Y0191504D03*
X0064590Y0191504D03*
X0064640Y0191504D03*
X0064690Y0191504D03*
X0064740Y0191504D03*
X0064790Y0191504D03*
X0064840Y0191504D03*
D271*
X0064340Y0191529D03*
X0064290Y0191529D03*
X0064240Y0191529D03*
X0064190Y0191529D03*
X0064140Y0191529D03*
X0064090Y0191529D03*
X0064040Y0191529D03*
X0063990Y0191529D03*
X0063940Y0191529D03*
X0063890Y0191529D03*
X0063840Y0191529D03*
X0046040Y0191529D03*
D272*
X0033090Y0170854D03*
X0030140Y0170854D03*
X0063890Y0170954D03*
X0063940Y0170954D03*
X0063990Y0170954D03*
D273*
X0063840Y0170954D03*
X0063790Y0170954D03*
X0060990Y0171054D03*
X0056390Y0171054D03*
X0053640Y0170954D03*
X0053590Y0170954D03*
X0032990Y0170804D03*
X0030040Y0170804D03*
D274*
X0041790Y0191504D03*
X0041840Y0191504D03*
X0041890Y0191504D03*
X0041940Y0191504D03*
X0041990Y0191504D03*
X0042040Y0191504D03*
X0042090Y0191504D03*
X0042140Y0191504D03*
X0042190Y0191504D03*
X0042240Y0191504D03*
X0042290Y0191504D03*
X0042340Y0191504D03*
X0042390Y0191504D03*
X0042440Y0191504D03*
X0042490Y0191504D03*
X0042540Y0191504D03*
X0042590Y0191504D03*
X0042640Y0191504D03*
X0042690Y0191504D03*
X0042740Y0191504D03*
X0042790Y0191504D03*
X0042840Y0191504D03*
X0042890Y0191504D03*
X0042940Y0191504D03*
X0042990Y0191504D03*
X0043040Y0191504D03*
X0043090Y0191504D03*
X0043140Y0191504D03*
X0043190Y0191504D03*
X0043240Y0191504D03*
X0043290Y0191504D03*
X0043340Y0191504D03*
X0043390Y0191504D03*
X0043440Y0191504D03*
X0043490Y0191504D03*
X0043540Y0191504D03*
X0043590Y0191504D03*
X0043640Y0191504D03*
X0043690Y0191504D03*
X0043740Y0191504D03*
X0043790Y0191504D03*
X0043840Y0191504D03*
X0043890Y0191504D03*
X0043940Y0191504D03*
X0043990Y0191504D03*
X0044040Y0191504D03*
X0044090Y0191504D03*
X0044140Y0191504D03*
X0044190Y0191504D03*
X0044240Y0191504D03*
X0044290Y0191504D03*
X0044340Y0191504D03*
X0044390Y0191504D03*
X0044440Y0191504D03*
X0044490Y0191504D03*
X0044540Y0191504D03*
X0044590Y0191504D03*
X0044640Y0191504D03*
X0044690Y0191504D03*
X0044740Y0191504D03*
X0044790Y0191504D03*
X0044840Y0191504D03*
X0044890Y0191504D03*
X0044940Y0191504D03*
X0044990Y0191504D03*
X0045040Y0191504D03*
X0045090Y0191504D03*
X0045140Y0191504D03*
X0045190Y0191504D03*
X0045240Y0191504D03*
X0045290Y0191504D03*
X0045340Y0191504D03*
X0045390Y0191504D03*
X0045440Y0191504D03*
X0045490Y0191504D03*
X0045540Y0191504D03*
X0045590Y0191504D03*
X0045640Y0191504D03*
X0045690Y0191504D03*
X0045740Y0191504D03*
X0045790Y0191504D03*
X0045840Y0191504D03*
X0045890Y0191504D03*
X0045940Y0191504D03*
X0045990Y0191504D03*
X0063140Y0191554D03*
X0063190Y0191554D03*
X0063240Y0191554D03*
X0063290Y0191554D03*
X0063340Y0191554D03*
X0063390Y0191554D03*
X0063440Y0191554D03*
X0063490Y0191554D03*
X0063540Y0191554D03*
X0063590Y0191554D03*
X0063640Y0191554D03*
X0063690Y0191554D03*
X0063740Y0191554D03*
X0063790Y0191554D03*
D275*
X0056840Y0191504D03*
X0060690Y0170754D03*
X0063690Y0170954D03*
X0063740Y0170954D03*
X0048340Y0170754D03*
X0032840Y0170754D03*
X0029940Y0170754D03*
D276*
X0029840Y0170704D03*
X0032390Y0170704D03*
X0032790Y0170704D03*
X0035290Y0170704D03*
X0056340Y0171154D03*
X0056590Y0170704D03*
X0063590Y0170954D03*
X0063640Y0170954D03*
X0056940Y0191404D03*
D277*
X0056990Y0191354D03*
X0056890Y0198604D03*
X0063540Y0170954D03*
X0035340Y0170654D03*
X0032490Y0170654D03*
D278*
X0032540Y0170604D03*
X0029690Y0170604D03*
X0056640Y0170604D03*
X0058090Y0171254D03*
X0063440Y0170954D03*
X0057090Y0191254D03*
D279*
X0057140Y0191204D03*
X0052640Y0195104D03*
X0056240Y0171304D03*
X0061140Y0171304D03*
X0063390Y0170954D03*
X0048240Y0170554D03*
X0029640Y0170554D03*
D280*
X0062140Y0191579D03*
X0062190Y0191579D03*
X0062240Y0191579D03*
X0062290Y0191579D03*
X0062340Y0191579D03*
X0062390Y0191579D03*
X0062440Y0191579D03*
X0062490Y0191579D03*
X0062540Y0191579D03*
X0062590Y0191579D03*
X0062640Y0191579D03*
X0062690Y0191579D03*
X0062740Y0191579D03*
X0062790Y0191579D03*
X0062840Y0191579D03*
X0062890Y0191579D03*
X0062940Y0191579D03*
X0062990Y0191579D03*
X0063040Y0191579D03*
X0063090Y0191579D03*
D281*
X0062440Y0171004D03*
X0039940Y0174704D03*
D282*
X0039840Y0174729D03*
X0028840Y0168929D03*
X0028690Y0169129D03*
X0028290Y0169029D03*
X0028290Y0168779D03*
X0028190Y0168629D03*
X0027990Y0168929D03*
X0062290Y0173279D03*
D283*
X0062240Y0173179D03*
X0055090Y0173179D03*
X0050690Y0168879D03*
X0028790Y0168929D03*
X0028340Y0168929D03*
D284*
X0028090Y0168904D03*
X0049690Y0173104D03*
X0055140Y0173104D03*
X0062190Y0173104D03*
D285*
X0062140Y0173029D03*
X0055190Y0173029D03*
X0050740Y0169029D03*
D286*
X0061640Y0191604D03*
X0061690Y0191604D03*
X0061740Y0191604D03*
X0061790Y0191604D03*
X0061840Y0191604D03*
X0061890Y0191604D03*
X0061940Y0191604D03*
X0061990Y0191604D03*
X0062040Y0191604D03*
X0062090Y0191604D03*
D287*
X0062090Y0172929D03*
X0055240Y0172929D03*
X0039990Y0174729D03*
D288*
X0052340Y0172954D03*
X0052390Y0172954D03*
X0052440Y0172954D03*
X0052490Y0172954D03*
X0052540Y0172954D03*
X0052590Y0172954D03*
X0052640Y0172954D03*
X0052690Y0172954D03*
X0052740Y0172954D03*
X0052790Y0172954D03*
X0052840Y0172954D03*
X0052890Y0172954D03*
X0055290Y0172854D03*
X0062040Y0172854D03*
D289*
X0060890Y0170929D03*
X0060840Y0170929D03*
X0060790Y0170929D03*
X0056490Y0170929D03*
X0049640Y0170929D03*
X0049590Y0170929D03*
X0049540Y0170929D03*
X0049490Y0170929D03*
X0049440Y0170929D03*
X0049390Y0170929D03*
X0049340Y0170929D03*
X0049290Y0170929D03*
X0049240Y0170929D03*
X0049190Y0170929D03*
X0049140Y0170929D03*
X0049090Y0170929D03*
X0049040Y0170929D03*
X0048990Y0170929D03*
X0048940Y0170929D03*
X0048890Y0170929D03*
X0048840Y0170929D03*
X0048790Y0170929D03*
X0048740Y0170929D03*
X0048690Y0170929D03*
X0048640Y0170929D03*
X0048590Y0170929D03*
X0048540Y0170929D03*
X0048490Y0170929D03*
X0048440Y0170929D03*
X0048390Y0170929D03*
X0041390Y0170929D03*
X0041340Y0170929D03*
X0041290Y0170929D03*
X0041240Y0170929D03*
X0041190Y0170929D03*
X0041140Y0170929D03*
X0041090Y0170929D03*
X0041040Y0170929D03*
X0040990Y0170929D03*
X0040940Y0170929D03*
X0040890Y0170929D03*
X0040840Y0170929D03*
X0040790Y0170929D03*
X0040740Y0170929D03*
X0040690Y0170929D03*
X0040640Y0170929D03*
X0040590Y0170929D03*
X0040540Y0170929D03*
X0040490Y0170929D03*
X0040440Y0170929D03*
X0040390Y0170929D03*
X0040340Y0170929D03*
X0040290Y0170929D03*
X0040240Y0170929D03*
X0040190Y0170929D03*
X0040140Y0170929D03*
X0040090Y0170929D03*
X0040040Y0170929D03*
X0039990Y0170929D03*
X0039940Y0170929D03*
X0039890Y0170929D03*
X0036740Y0170929D03*
X0036690Y0170929D03*
X0036640Y0170929D03*
X0036590Y0170929D03*
X0036540Y0170929D03*
X0036490Y0170929D03*
X0036440Y0170929D03*
X0036390Y0170929D03*
X0036340Y0170929D03*
X0036290Y0170929D03*
X0036240Y0170929D03*
X0036190Y0170929D03*
X0036140Y0170929D03*
X0036090Y0170929D03*
X0036040Y0170929D03*
X0035990Y0170929D03*
X0035940Y0170929D03*
X0035890Y0170929D03*
X0035840Y0170929D03*
X0035790Y0170929D03*
X0035740Y0170929D03*
X0035690Y0170929D03*
X0035640Y0170929D03*
X0035590Y0170929D03*
X0035540Y0170929D03*
X0033390Y0170929D03*
X0033340Y0170929D03*
X0030490Y0170929D03*
X0030440Y0170929D03*
X0030390Y0170929D03*
D290*
X0030340Y0170904D03*
X0030290Y0170904D03*
X0033240Y0170904D03*
X0033290Y0170904D03*
X0035490Y0170904D03*
X0056740Y0191654D03*
X0056690Y0198304D03*
D291*
X0056690Y0191729D03*
X0033790Y0170979D03*
X0033740Y0170979D03*
X0033690Y0170979D03*
X0033640Y0170979D03*
X0030890Y0170979D03*
X0030840Y0170979D03*
X0030790Y0170979D03*
X0030740Y0170979D03*
X0030690Y0170979D03*
D292*
X0030640Y0170954D03*
X0030590Y0170954D03*
X0030540Y0170954D03*
X0033440Y0170954D03*
X0033490Y0170954D03*
X0033540Y0170954D03*
X0033590Y0170954D03*
X0033840Y0171004D03*
X0052790Y0195054D03*
X0056640Y0198204D03*
D293*
X0056640Y0191854D03*
D294*
X0056590Y0197954D03*
D295*
X0056590Y0192104D03*
D296*
X0056540Y0194979D03*
D297*
X0056490Y0194979D03*
X0056440Y0194979D03*
D298*
X0056390Y0195004D03*
D299*
X0056340Y0194979D03*
X0056290Y0194979D03*
D300*
X0056240Y0195004D03*
X0056190Y0195004D03*
D301*
X0056140Y0194979D03*
D302*
X0056090Y0195004D03*
X0056040Y0195004D03*
D303*
X0055990Y0195004D03*
X0055940Y0195004D03*
D304*
X0055890Y0194979D03*
D305*
X0055840Y0195004D03*
X0055790Y0195004D03*
D306*
X0055740Y0195004D03*
X0055690Y0195004D03*
D307*
X0055640Y0195004D03*
X0055590Y0195004D03*
D308*
X0055540Y0195004D03*
X0055490Y0195004D03*
D309*
X0055440Y0195029D03*
D310*
X0055390Y0195004D03*
D311*
X0055340Y0195029D03*
D312*
X0055290Y0195004D03*
D313*
X0055240Y0195004D03*
D314*
X0055190Y0195029D03*
D315*
X0055140Y0195004D03*
D316*
X0055090Y0195029D03*
D317*
X0055040Y0195029D03*
X0054990Y0195029D03*
D318*
X0055040Y0173254D03*
X0028690Y0168704D03*
X0028140Y0168704D03*
D319*
X0028740Y0168929D03*
X0039890Y0174729D03*
X0054990Y0170879D03*
D320*
X0054940Y0195029D03*
X0054890Y0195029D03*
D321*
X0054840Y0195029D03*
D322*
X0054790Y0195029D03*
X0054740Y0195029D03*
D323*
X0054690Y0195029D03*
D324*
X0054640Y0195029D03*
D325*
X0054590Y0195004D03*
D326*
X0054540Y0195029D03*
D327*
X0054490Y0195029D03*
D328*
X0054440Y0195029D03*
D329*
X0054390Y0195054D03*
D330*
X0054340Y0195054D03*
D331*
X0054290Y0195029D03*
D332*
X0054240Y0195029D03*
D333*
X0054190Y0195029D03*
D334*
X0054140Y0195029D03*
D335*
X0054090Y0195029D03*
D336*
X0054040Y0195054D03*
D337*
X0053990Y0195054D03*
D338*
X0053940Y0195054D03*
D339*
X0053890Y0195054D03*
D340*
X0053840Y0195054D03*
D341*
X0053790Y0195054D03*
D342*
X0053740Y0195054D03*
D343*
X0053690Y0195054D03*
D344*
X0053640Y0195029D03*
D345*
X0053590Y0195029D03*
D346*
X0053540Y0195029D03*
D347*
X0053490Y0195054D03*
D348*
X0053440Y0195054D03*
D349*
X0053390Y0195029D03*
D350*
X0053340Y0195054D03*
D351*
X0053190Y0195054D03*
D352*
X0053140Y0195054D03*
D353*
X0053090Y0195054D03*
D354*
X0053040Y0195054D03*
D355*
X0052990Y0195054D03*
D356*
X0052940Y0195079D03*
D357*
X0052890Y0195079D03*
D358*
X0052840Y0195079D03*
D359*
X0041290Y0174704D03*
X0050790Y0169154D03*
D360*
X0050640Y0168754D03*
X0028590Y0169254D03*
X0028390Y0169304D03*
X0028340Y0169304D03*
X0028240Y0169254D03*
X0028190Y0169204D03*
X0028390Y0169104D03*
X0028440Y0169104D03*
X0028440Y0168904D03*
X0028390Y0168904D03*
X0028340Y0168554D03*
X0028490Y0168554D03*
D361*
X0028240Y0168679D03*
X0028140Y0169129D03*
X0041440Y0174729D03*
D362*
X0041390Y0174704D03*
D363*
X0041340Y0174729D03*
D364*
X0028640Y0169229D03*
X0028540Y0169279D03*
X0028490Y0169279D03*
X0028440Y0169279D03*
X0028290Y0169279D03*
X0028240Y0169029D03*
X0028290Y0168579D03*
X0028390Y0168529D03*
X0028440Y0168529D03*
X0028540Y0168579D03*
X0028590Y0168579D03*
X0028640Y0168629D03*
D365*
X0028590Y0168904D03*
X0028040Y0168904D03*
D366*
X0028490Y0168929D03*
X0028540Y0168929D03*
D367*
X0059642Y0229209D02*
X0149406Y0229209D01*
X0149406Y0325272D01*
X0059642Y0325272D01*
X0059642Y0229209D01*
X0072635Y0209130D02*
X0135627Y0209130D01*
X0135627Y0364642D01*
X0072635Y0364642D01*
X0072635Y0250469D01*
X0135627Y0250469D01*
X0135627Y0364642D01*
X0072635Y0364642D01*
X0072635Y0209130D01*
X0063776Y0304406D02*
X0144485Y0304406D01*
X0144485Y0365429D01*
X0063776Y0365429D01*
X0063776Y0304406D01*
D368*
X0063299Y0235312D02*
X0063299Y0230708D01*
X0064834Y0230708D02*
X0061764Y0230708D01*
X0064834Y0233777D02*
X0063299Y0235312D01*
X0066368Y0234544D02*
X0066368Y0231475D01*
X0067136Y0230708D01*
X0068670Y0230708D01*
X0069438Y0231475D01*
X0066368Y0234544D01*
X0067136Y0235312D01*
X0068670Y0235312D01*
X0069438Y0234544D01*
X0069438Y0231475D01*
X0070972Y0230708D02*
X0074042Y0230708D01*
X0074042Y0231475D01*
X0070972Y0234544D01*
X0070972Y0235312D01*
X0074042Y0235312D01*
X0075576Y0234544D02*
X0075576Y0233777D01*
X0076344Y0233010D01*
X0078646Y0233010D01*
X0078646Y0230708D02*
X0078646Y0235312D01*
X0076344Y0235312D01*
X0075576Y0234544D01*
X0076344Y0233010D02*
X0075576Y0232243D01*
X0075576Y0231475D01*
X0076344Y0230708D01*
X0078646Y0230708D01*
M02*
