%
M48
M72
T01C0.0098
T02C0.0118
T03C0.0197
T04C0.0390
T05C0.0394
T06C0.0866
%
T01
X5466Y8348
X5866Y8748
X6266Y9148
X6266Y8348
X5466Y9148
T02
X4744Y9771
X4330Y9968
X3779Y11031
X3752Y12067
X4606Y12803
X4606Y13098
X5123Y12803
X5197Y12173
X5566Y12803
X5566Y14771
X5123Y14771
X5123Y15244
X6476Y18905
X5689Y22842
X5689Y26779
X5689Y30716
X5689Y34653
X9626Y30716
X9626Y26779
X8445Y23630
X11476Y16661
X12362Y12133
X13326Y10460
X13307Y9515
X13366Y8610
X13366Y8137
X13366Y7665
X13366Y7193
X12893Y7193
X12893Y7665
X12893Y8137
X12893Y8610
X12421Y8610
X12421Y8137
X12421Y7665
X12421Y7193
X11948Y6740
X12519Y5598
X12962Y5883
X13789Y5883
X13838Y7193
X13838Y7665
X13838Y8137
X13838Y8610
X14354Y9326
X15177Y8413
X16338Y7448
X16338Y7133
X16338Y6819
X16338Y6504
X16338Y6189
X16338Y5854
X16338Y5519
X16338Y5185
X16338Y4870
X16338Y4555
X16338Y4240
X16338Y3905
X16338Y3570
X16338Y3236
X16338Y2901
X14389Y3354
X12145Y4417
X11250Y5431
X10334Y7547
X9330Y7212
X8838Y6700
X9232Y6267
X9271Y5342
X9271Y4338
X8838Y3157
X9114Y2527
X8385Y4476
X8011Y5381
X8089Y5677
X8090Y6346
X8149Y7212
X7628Y6533
X6929Y7035
X6850Y7311
X7303Y8787
X7795Y8157
X8090Y8334
X9232Y8807
X10098Y10480
X10295Y10696
X10256Y11779
X10531Y11976
X11023Y11425
X11948Y9023
X13996Y12133
X14375Y12409
X14468Y11563
X14783Y11563
X14818Y12409
X15260Y12409
X15703Y12409
X16122Y11405
X16122Y11011
X16122Y10618
X14153Y11563
X14375Y15771
X14308Y16901
X14818Y15771
X15260Y15771
X15703Y15771
X13563Y22842
X13563Y26779
X13563Y30716
X13563Y34653
X9763Y12252
X9586Y12074
X9114Y11779
X9035Y11523
X8287Y12409
X6941Y9980
X6791Y9574
X6122Y6976
X5945Y6193
X5294Y6326
X4704Y5559
X5039Y4515
X5139Y3263
X4862Y2527
X4074Y3334
X4349Y4456
X3287Y4220
X2895Y4031
X2874Y5844
X2874Y6858
X2141Y8401
X2771Y8500
X2775Y9181
X4193Y7055
X4547Y7153
X4724Y7626
X6397Y5386
X6712Y5519
X7479Y5519
X7009Y3952
X7204Y3137
X6909Y2527
X6043Y3334
X8011Y3334
T03
X6673Y13492
X6230Y13492
X5787Y13492
X5787Y14279
X6230Y14279
X6673Y14279
X5344Y14279
X4901Y14279
X4901Y13492
X5344Y13492
X14153Y13492
X14153Y14279
X14596Y14279
X15039Y14279
X15482Y14279
X15925Y14279
X15925Y13492
X15482Y13492
X15039Y13492
X14596Y13492
T04
X14153Y6067
X13753Y4067
X14553Y4067
T05
X13913Y12901
X13913Y14870
X12913Y14870
X12913Y12901
X11913Y12901
X10913Y12901
X9913Y12901
X8913Y12901
X7913Y12901
X7913Y14870
X6913Y14870
X6913Y12901
T06
X2578Y3000
X2578Y12567
X3326Y38590
X17500Y38590
M30
